<?xml version="1.0" encoding="UTF-8" standalone="no"?>
<svg width="18px" height="18px" viewBox="0 0 18 18" version="1.1" xmlns="http://www.w3.org/2000/svg" xmlns:xlink="http://www.w3.org/1999/xlink">
    <!-- Generator: sketchtool 3.7.2 (28276) - http://www.bohemiancoding.com/sketch -->
    <title>5C9AFA3A-A19F-448D-92EE-C6551980A79B</title>
    <desc>Created with sketchtool.</desc>
    <defs></defs>
    <g id="PDP---Social-Share" stroke="none" stroke-width="1" fill="none" fill-rule="evenodd">
        <g id="04-PDP-Social-Small" transform="translate(-172.000000, -148.000000)" fill="#4A4A4A">
            <path d="M187.8625,148 L174.1375,148 C172.95625,148 172,148.95625 172,150.1375 L172,163.8625 C172,165.04375 172.95625,166 174.1375,166 L187.8625,166 C189.04375,166 190,165.04375 190,163.8625 L190,150.1375 C190,148.95625 189.04375,148 187.8625,148 L187.8625,148 Z M185.5,150.25 L187.1875,150.25 C187.525,150.25 187.75,150.475 187.75,150.8125 L187.75,152.5 C187.75,152.8375 187.525,153.0625 187.1875,153.0625 L185.5,153.0625 C185.1625,153.0625 184.9375,152.8375 184.9375,152.5 L184.9375,150.8125 C184.9375,150.475 185.1625,150.25 185.5,150.25 L185.5,150.25 Z M181,153.56875 C182.9125,153.56875 184.4875,155.0875 184.4875,157 C184.4875,158.9125 182.9125,160.43125 181,160.43125 C179.0875,160.43125 177.5125,158.9125 177.5125,157 C177.56875,155.0875 179.0875,153.56875 181,153.56875 L181,153.56875 Z M187.75,164.3125 L174.25,164.3125 C173.9125,164.3125 173.6875,164.0875 173.6875,163.75 L173.6875,155.3125 L175.9375,155.3125 C175.65625,155.7625 175.54375,156.49375 175.54375,157 C175.54375,160.0375 178.01875,162.45625 181,162.45625 C184.0375,162.45625 186.45625,159.98125 186.45625,157 C186.45625,156.49375 186.4,155.70625 186.00625,155.3125 L188.25625,155.3125 L188.25625,163.75 C188.3125,164.0875 188.0875,164.3125 187.75,164.3125 L187.75,164.3125 Z" id="ic-instagram"></path>
        </g>
    </g>
</svg>