<?xml version="1.0" encoding="UTF-8" standalone="no"?>
<svg width="16px" height="20px" viewBox="0 0 16 20" version="1.1" xmlns="http://www.w3.org/2000/svg" xmlns:xlink="http://www.w3.org/1999/xlink">
    <!-- Generator: sketchtool 3.7.2 (28276) - http://www.bohemiancoding.com/sketch -->
    <title>089A0D75-4B15-4C88-8E25-8230EA4FCBDF</title>
    <desc>Created with sketchtool.</desc>
    <defs></defs>
    <g id="PDP---Social-Share" stroke="none" stroke-width="1" fill="none" fill-rule="evenodd">
        <g id="04-PDP-Social-Small" transform="translate(-234.000000, -149.000000)" fill="#4A4A4A">
            <path d="M243.079141,163.505789 C241.861514,163.411219 241.350445,162.807871 240.395846,162.228082 C239.870771,164.981405 239.229332,167.621244 237.329363,169 C236.742899,164.838536 238.190373,161.712955 238.862506,158.394897 C237.716412,156.465215 239.000532,152.582159 241.418181,153.53931 C244.392712,154.716099 238.842022,160.712348 242.568137,161.46138 C246.45885,162.243135 248.046968,154.710994 245.634882,152.261604 C242.148823,148.724693 235.488164,152.181039 236.307027,157.244679 C236.506442,158.482791 237.785458,158.858387 236.818293,160.566861 C234.587231,160.072415 233.921512,158.312827 234.007181,155.966973 C234.145208,152.127373 237.457179,149.438973 240.779361,149.067239 C244.98042,148.597138 248.923555,150.609348 249.468067,154.561384 C250.080906,159.022003 247.571436,163.852981 243.079141,163.505789" id="ic-pinterest"></path>
        </g>
    </g>
</svg>