<?xml version="1.0" encoding="UTF-8" standalone="no"?>
<svg width="22px" height="22px" viewBox="0 0 22 22" version="1.1" xmlns="http://www.w3.org/2000/svg" xmlns:xlink="http://www.w3.org/1999/xlink">
    <!-- Generator: sketchtool 3.7.2 (28276) - http://www.bohemiancoding.com/sketch -->
    <title>84EA8FD9-9194-46F4-9DBA-23B6C564DE5E</title>
    <desc>Created with sketchtool.</desc>
    <defs></defs>
    <g id="PDP---Social-Share" stroke="none" stroke-width="1" fill="none" fill-rule="evenodd">
        <g id="04-PDP-Social-Small" transform="translate(-291.000000, -147.000000)" stroke="#4A4A4A">
            <g id="ic-share" transform="translate(292.000000, 148.000000)">
                <path d="M18.698129,18.7003871 C17.1865161,20.212 14.7355484,20.212 13.2239355,18.7003871 C11.7123226,17.1887742 11.7123226,14.7378065 13.2239355,13.2261935 C14.7355484,11.7145806 17.1865161,11.7145806 18.698129,13.2261935 C20.2097419,14.7378065 20.2097419,17.1887742 18.698129,18.7003871 L18.698129,18.7003871 Z" id="Stroke-80"></path>
                <path d="M7.08522581,12.7373548 C5.5736129,14.2489677 3.12264516,14.2489677 1.61103226,12.7373548 C0.0994193548,11.2257419 0.0994193548,8.77477419 1.61103226,7.26316129 C3.12264516,5.75154839 5.5736129,5.75154839 7.08522581,7.26316129 C8.59683871,8.77477419 8.59683871,11.2257419 7.08522581,12.7373548 L7.08522581,12.7373548 Z" id="Stroke-81"></path>
                <path d="M18.698129,7.08748387 C17.1865161,8.59909677 14.7355484,8.59909677 13.2239355,7.08748387 C11.7123226,5.57587097 11.7123226,3.12490323 13.2239355,1.61329032 C14.7355484,0.101677419 17.1865161,0.101677419 18.698129,1.61329032 C20.2097419,3.12490323 20.2097419,5.57587097 18.698129,7.08748387 L18.698129,7.08748387 Z" id="Stroke-82"></path>
                <path d="M7.79212903,11.7687097 L12.5166452,14.1945161" id="Stroke-83"></path>
                <path d="M7.83032258,8.31109677 L12.4490323,5.97690323" id="Stroke-84"></path>
            </g>
        </g>
    </g>
</svg>