<?xml version="1.0" encoding="UTF-8" standalone="no"?>
<svg width="18px" height="15px" viewBox="0 0 18 15" version="1.1" xmlns="http://www.w3.org/2000/svg" xmlns:xlink="http://www.w3.org/1999/xlink">
    <!-- Generator: sketchtool 3.7.2 (28276) - http://www.bohemiancoding.com/sketch -->
    <title>D5B74BAE-82FC-4ECF-B7D3-B90799A5AF7E</title>
    <desc>Created with sketchtool.</desc>
    <defs></defs>
    <g id="PDP---Social-Share" stroke="none" stroke-width="1" fill="none" fill-rule="evenodd">
        <g id="04-PDP-Social-Small" transform="translate(-111.000000, -152.000000)" fill="#4A4A4A">
            <path d="M129,153.764586 C128.337715,154.063884 127.626051,154.266233 126.878964,154.357143 C127.641457,153.891457 128.227038,153.153915 128.50271,152.275211 C127.789202,152.706479 126.998925,153.019597 126.157687,153.1884 C125.484078,152.457031 124.524328,152 123.462197,152 C121.422605,152 119.769165,153.684948 119.769165,155.763055 C119.769165,156.058059 119.801822,156.345212 119.864765,156.620625 C116.795633,156.463697 114.074531,154.965533 112.253133,152.688833 C111.935257,153.244623 111.753144,153.891055 111.753144,154.580693 C111.753144,155.886236 112.405092,157.038071 113.395984,157.712949 C112.790651,157.693426 112.2212,157.524085 111.723318,157.242232 C111.723055,157.257932 111.722989,157.273698 111.722989,157.289532 C111.722989,159.112824 112.99594,160.633799 114.685329,160.979524 C114.37542,161.065469 114.049182,161.111427 113.712411,161.111427 C113.474399,161.111427 113.243103,161.087877 113.017601,161.043932 C113.487567,162.53901 114.851377,163.626973 116.467354,163.657433 C115.203424,164.666698 113.611149,165.268245 111.880939,165.268245 C111.582882,165.268245 111.288906,165.250465 111,165.215712 C112.634347,166.283413 114.575442,166.906363 116.660924,166.906363 C123.453572,166.906363 127.168002,161.172279 127.168002,156.199421 C127.168002,156.036254 127.164381,155.873958 127.157336,155.712602 C127.87881,155.182039 128.504883,154.519237 129,153.764586" id="ic-twitter"></path>
        </g>
    </g>
</svg>