<?xml version="1.0" encoding="UTF-8" standalone="no"?>
<svg width="24px" height="18px" viewBox="0 0 24 18" version="1.1" xmlns="http://www.w3.org/2000/svg" xmlns:xlink="http://www.w3.org/1999/xlink">
    <!-- Generator: sketchtool 39.1 (31720) - http://www.bohemiancoding.com/sketch -->
    <title>E300E72E-BF28-49AB-909C-4DDA56244A41</title>
    <desc>Created with sketchtool.</desc>
    <defs>
        <rect id="path-1" x="0" y="0" width="24" height="18"></rect>
    </defs>
    <g id="Exports" stroke="none" stroke-width="1" fill="none" fill-rule="evenodd">
        <g id="04-NS-country-L" transform="translate(-104.000000, -619.000000)">
            <g id="Group-10" transform="translate(72.000000, 344.000000)">
                <g id="Group-5" transform="translate(32.000000, 41.000000)">
                    <g id="Group-7-Copy" transform="translate(0.000000, 232.000000)">
                        <g id="ar" transform="translate(0.000000, 2.000000)">
                            <mask id="mask-2" fill="white">
                                <use xlink:href="#path-1"></use>
                            </mask>
                            <g id="Mask"></g>
                            <g id="Page-1" mask="url(#mask-2)">
                                <polygon id="Fill-1" fill="#00C4FF" points="0 6.016125 23.9626708 6.016125 23.9626708 0 0 0"></polygon>
                                <polygon id="Fill-2" fill="#FFFFFF" points="0 12.0076125 23.9626708 12.0076125 23.9626708 5.991525 0 5.991525"></polygon>
                                <polygon id="Fill-3" fill="#00C4FF" points="0 17.9991 23.9626708 17.9991 23.9626708 11.982975 0 11.982975"></polygon>
                                <g id="Group-432" transform="translate(7.900156, 5.136600)">
                                    <path d="M5.70527925,3.93831 C5.70527925,4.823085 4.97445866,5.5402725 4.07290484,5.5402725 C3.17135101,5.5402725 2.44068019,4.823085 2.44068019,3.93831 C2.44068019,3.053535 3.17146334,2.3363475 4.07301716,2.3363475 C4.97460842,2.3363475 5.70527925,3.053535 5.70527925,3.93831" id="Fill-4" fill="#FFD600"></path>
                                    <path d="M5.70527925,3.93831 C5.70527925,4.823085 4.97445866,5.5402725 4.07290484,5.5402725 C3.17135101,5.5402725 2.44068019,4.823085 2.44068019,3.93831 C2.44068019,3.053535 3.17146334,2.3363475 4.07301716,2.3363475 C4.97460842,2.3363475 5.70527925,3.053535 5.70527925,3.93831 L5.70527925,3.93831 Z" id="Stroke-6"></path>
                                    <path d="M3.30946521,3.03706809 C3.51423276,2.89153657 3.74300031,3.08958514 3.8038053,3.05230864 C3.96989579,2.94138259 4.1241922,2.96196518 4.28324368,3.06244282 C4.3857585,3.12395493 4.56454165,2.88305214 4.7726415,3.07768337 M4.53275382,2.82711444 C4.32633885,2.69791444 4.11494415,2.87911444 4.04833573,2.86631444 C3.95679126,2.86631444 3.72540281,2.65951444 3.56391763,2.86631444" id="Stroke-8" stroke="#000000" stroke-width="0.05"></path>
                                    <path d="" id="Fill-10" fill="#EFC000"></path>
                                    <path d="" id="Stroke-12" stroke="#000000" stroke-width="0.05"></path>
                                    <path d="" id="Fill-14" fill="#EFC000"></path>
                                    <path d="" id="Stroke-16" stroke="#000000" stroke-width="0.05"></path>
                                    <path d="" id="Fill-18" fill="#F0BF00"></path>
                                    <path d="" id="Stroke-20" stroke="#000000" stroke-width="0.05" stroke-linejoin="round"></path>
                                    <path d="" id="Stroke-22" stroke="#000000" stroke-width="0.05"></path>
                                    <path d="" id="Fill-24" fill="#000000"></path>
                                    <path d="" id="Fill-26" fill="#FFD700"></path>
                                    <path d="M3.52159376,5.6922675 C3.33243931,6.17283 3.539678,6.4012425 3.44704774,6.66003 C3.35793697,6.9092175 2.97026771,7.5267675 3.26538159,7.795155 C3.49984025,7.8056175 3.22479501,7.4546175 3.69389953,6.804705 C3.91154696,6.5002425 3.63706334,6.30753 3.86635507,5.710305 C3.88769672,5.6592675 3.55135975,5.6165925 3.52155632,5.692305 L3.52159376,5.6922675 Z" id="Fill-34" fill="#FFD700"></path>
                                    <path d="M3.52159376,5.6922675 C3.33243931,6.17283 3.539678,6.4012425 3.44704774,6.66003 C3.35793697,6.9092175 2.97026771,7.5267675 3.26538159,7.795155 C3.49984025,7.8056175 3.22479501,7.4546175 3.69389953,6.804705 C3.91154696,6.5002425 3.63706334,6.30753 3.86635507,5.710305 C3.88769672,5.6592675 3.55135975,5.6165925 3.52155632,5.692305 L3.52159376,5.6922675 L3.52159376,5.6922675 Z" id="Stroke-36" stroke="#000000" stroke-width="0.05" stroke-linejoin="round"></path>
                                    <path d="" id="Fill-38" fill="#FFD700"></path>
                                    <path d="" id="Stroke-40" stroke="#000000" stroke-width="0.05" stroke-linejoin="round"></path>
                                    <path d="M3.18833448,5.5439025 C2.97727676,6.01584 2.66456537,6.0384525 2.54426583,6.28629 C2.42842184,6.52494 2.26057161,7.2296025 1.85620343,7.2211275 C1.68105211,7.06944 2.13061217,7.0052025 2.26360437,6.222165 C2.32740468,5.856765 2.66246864,5.9053275 2.92890234,5.322765 C2.9504312,5.2718025 3.22158253,5.469615 3.18833448,5.5439775 L3.18833448,5.5439025 L3.18833448,5.5439025 Z" id="Stroke-42" stroke="#000000" stroke-width="0.05" stroke-linejoin="round"></path>
                                    <path d="M2.41515257,4.8150225 C1.92904961,5.0201475 1.90594821,5.3236725 1.65067207,5.4405225 C1.40486864,5.5530975 0.679027769,5.7164475 0.688013729,6.108885 C0.844406864,6.2787975 0.910266459,5.8424475 1.71694353,5.7129225 C2.0933429,5.650785 2.04309641,5.3256225 2.64317129,5.0667225 C2.69566427,5.04576 2.491683,4.782735 2.41507769,4.8150225 L2.41515257,4.8150225 L2.41515257,4.8150225 Z" id="Stroke-44" stroke="#000000" stroke-width="0.05" stroke-linejoin="round"></path>
                                    <path d="M2.26226022,4.4736825 C1.76821966,4.66002 1.53170172,4.4601825 1.26560499,4.5515325 C1.00935538,4.6394325 0.375321061,5.0192325 0.0970932917,4.7343075 C0.0849622465,4.506795 0.448182215,4.77177 1.11512761,4.31277 C1.42753947,4.0998075 1.62770172,4.3650825 2.24166739,4.139145 C2.29416037,4.1181825 2.34002621,4.4443575 2.26222278,4.47372 L2.26226022,4.4736825 L2.26226022,4.4736825 Z" id="Stroke-46" stroke="#000000" stroke-width="0.05" stroke-linejoin="round"></path>
                                    <path d="M3.54093604,5.6521125 C3.38637754,6.1749 2.66716381,7.6781625 2.53480811,7.5501 C2.33337285,7.530975 3.00061778,5.976975 3.220961,5.5271625 C3.24589704,5.4775875 3.56467395,5.5744125 3.54097348,5.6521125 L3.54093604,5.6521125 L3.54093604,5.6521125 Z" id="Stroke-48" stroke="#000000" stroke-width="0.05" stroke-linejoin="round"></path>
                                    <path d="M2.85950078,5.3214075 C2.52129173,5.7551325 1.29242434,6.906195 1.21649298,6.740445 C1.03565055,6.65217 2.23486427,5.4355575 2.60736973,5.0929575 C2.64900468,5.05542 2.9104961,5.2572075 2.85953822,5.321445 L2.85950078,5.3214075 L2.85950078,5.3214075 Z" id="Stroke-50" stroke="#000000" stroke-width="0.05" stroke-linejoin="round"></path>
                                    <path d="M2.43362995,4.76685 C1.95055975,5.0425125 0.362216537,5.6513625 0.357161934,5.47005 C0.224693916,5.32155 1.8113897,4.6411125 2.29037878,4.4623875 C2.34362059,4.443075 2.50600437,4.7263875 2.43366739,4.7668875 L2.43362995,4.76685 L2.43362995,4.76685 Z" id="Stroke-52" stroke="#000000" stroke-width="0.05" stroke-linejoin="round"></path>
                                    <path d="" id="Stroke-54" stroke="#000000" stroke-width="0.05"></path>
                                    <path d="" id="Fill-56" fill="#F0BF00"></path>
                                    <path d="" id="Stroke-58" stroke="#000000" stroke-width="0.05" stroke-linecap="round" stroke-linejoin="round"></path>
                                    <path d="" id="Fill-60" fill="#F0BF00"></path>
                                    <path d="" id="Stroke-62" stroke="#000000" stroke-width="0.05" stroke-linejoin="round"></path>
                                    <path d="M3.18833448,5.5439025 C2.97727676,6.01584 2.66456537,6.0384525 2.54426583,6.28629 C2.42842184,6.52494 2.26057161,7.2296025 1.85620343,7.2211275 C1.68105211,7.06944 2.13061217,7.0052025 2.26360437,6.222165 C2.32740468,5.856765 2.66246864,5.9053275 2.92890234,5.322765 C2.9504312,5.2718025 3.22158253,5.469615 3.18833448,5.5439775 L3.18833448,5.5439025 Z" id="Fill-64" fill="#FFD700"></path>
                                    <path d="M3.18833448,5.5439025 C2.97727676,6.01584 2.66456537,6.0384525 2.54426583,6.28629 C2.42842184,6.52494 2.26057161,7.2296025 1.85620343,7.2211275 C1.68105211,7.06944 2.13061217,7.0052025 2.26360437,6.222165 C2.32740468,5.856765 2.66246864,5.9053275 2.92890234,5.322765 C2.9504312,5.2718025 3.22158253,5.469615 3.18833448,5.5439775 L3.18833448,5.5439025 L3.18833448,5.5439025 Z" id="Stroke-66" stroke="#000000" stroke-width="0.05" stroke-linejoin="round"></path>
                                    <path d="M2.41515257,4.8150225 C1.92904961,5.0201475 1.90594821,5.3236725 1.65067207,5.4405225 C1.40486864,5.5530975 0.679027769,5.7164475 0.688013729,6.108885 C0.844406864,6.2787975 0.910266459,5.8424475 1.71694353,5.7129225 C2.0933429,5.650785 2.04309641,5.3256225 2.64317129,5.0667225 C2.69566427,5.04576 2.491683,4.782735 2.41507769,4.8150225 L2.41515257,4.8150225 Z" id="Fill-68" fill="#FFD700"></path>
                                    <path d="M2.41515257,4.8150225 C1.92904961,5.0201475 1.90594821,5.3236725 1.65067207,5.4405225 C1.40486864,5.5530975 0.679027769,5.7164475 0.688013729,6.108885 C0.844406864,6.2787975 0.910266459,5.8424475 1.71694353,5.7129225 C2.0933429,5.650785 2.04309641,5.3256225 2.64317129,5.0667225 C2.69566427,5.04576 2.491683,4.782735 2.41507769,4.8150225 L2.41515257,4.8150225 L2.41515257,4.8150225 Z" id="Stroke-70" stroke="#000000" stroke-width="0.05" stroke-linejoin="round"></path>
                                    <path d="M2.26226022,4.4736825 C1.76821966,4.66002 1.53170172,4.4601825 1.26560499,4.5515325 C1.00935538,4.6394325 0.375321061,5.0192325 0.0970932917,4.7343075 C0.0849622465,4.506795 0.448182215,4.77177 1.11512761,4.31277 C1.42753947,4.0998075 1.62770172,4.3650825 2.24166739,4.139145 C2.29416037,4.1181825 2.34002621,4.4443575 2.26222278,4.47372 L2.26226022,4.4736825 Z" id="Fill-72" fill="#FFD700"></path>
                                    <path d="M2.26226022,4.4736825 C1.76821966,4.66002 1.53170172,4.4601825 1.26560499,4.5515325 C1.00935538,4.6394325 0.375321061,5.0192325 0.0970932917,4.7343075 C0.0849622465,4.506795 0.448182215,4.77177 1.11512761,4.31277 C1.42753947,4.0998075 1.62770172,4.3650825 2.24166739,4.139145 C2.29416037,4.1181825 2.34002621,4.4443575 2.26222278,4.47372 L2.26226022,4.4736825 L2.26226022,4.4736825 Z" id="Stroke-74" stroke="#000000" stroke-width="0.05" stroke-linejoin="round"></path>
                                    <path d="M3.54093604,5.6521125 C3.38637754,6.1749 2.66716381,7.6781625 2.53480811,7.5501 C2.33337285,7.530975 3.00061778,5.976975 3.220961,5.5271625 C3.24589704,5.4775875 3.56467395,5.5744125 3.54097348,5.6521125 L3.54093604,5.6521125 Z" id="Fill-76" fill="#FFD700"></path>
                                    <path d="M3.54093604,5.6521125 C3.38637754,6.1749 2.66716381,7.6781625 2.53480811,7.5501 C2.33337285,7.530975 3.00061778,5.976975 3.220961,5.5271625 C3.24589704,5.4775875 3.56467395,5.5744125 3.54097348,5.6521125 L3.54093604,5.6521125 L3.54093604,5.6521125 Z" id="Stroke-78" stroke="#000000" stroke-width="0.05" stroke-linejoin="round"></path>
                                    <path d="M2.85950078,5.3214075 C2.52129173,5.7551325 1.29242434,6.906195 1.21649298,6.740445 C1.03565055,6.65217 2.23486427,5.4355575 2.60736973,5.0929575 C2.64900468,5.05542 2.9104961,5.2572075 2.85953822,5.321445 L2.85950078,5.3214075 Z" id="Fill-80" fill="#FFD700"></path>
                                    <path d="M2.85950078,5.3214075 C2.52129173,5.7551325 1.29242434,6.906195 1.21649298,6.740445 C1.03565055,6.65217 2.23486427,5.4355575 2.60736973,5.0929575 C2.64900468,5.05542 2.9104961,5.2572075 2.85953822,5.321445 L2.85950078,5.3214075 L2.85950078,5.3214075 Z" id="Stroke-82" stroke="#000000" stroke-width="0.05" stroke-linejoin="round"></path>
                                    <path d="M2.43362995,4.76685 C1.95055975,5.0425125 0.362216537,5.6513625 0.357161934,5.47005 C0.224693916,5.32155 1.8113897,4.6411125 2.29037878,4.4623875 C2.34362059,4.443075 2.50600437,4.7263875 2.43366739,4.7668875 L2.43362995,4.76685 Z" id="Fill-84" fill="#FFD700"></path>
                                    <path d="M2.43362995,4.76685 C1.95055975,5.0425125 0.362216537,5.6513625 0.357161934,5.47005 C0.224693916,5.32155 1.8113897,4.6411125 2.29037878,4.4623875 C2.34362059,4.443075 2.50600437,4.7263875 2.43366739,4.7668875 L2.43362995,4.76685 L2.43362995,4.76685 Z" id="Stroke-86" stroke="#000000" stroke-width="0.05" stroke-linejoin="round"></path>
                                    <path d="" id="Fill-88" fill="#FFD700"></path>
                                    <path d="" id="Stroke-90" stroke="#000000" stroke-width="0.05" stroke-linejoin="round"></path>
                                    <path d="M4.63342652,5.7161175 C4.82258097,6.19668 4.61534228,6.4250925 4.70797254,6.68388 C4.79708331,6.9330675 5.18475257,7.5506175 4.88963869,7.819005 C4.65518003,7.8294675 4.93022527,7.4784675 4.46112075,6.828555 C4.24347332,6.5240925 4.51795694,6.33138 4.28866521,5.734155 C4.26732356,5.6831175 4.60366053,5.6404425 4.63346396,5.716155 L4.63342652,5.7161175 Z" id="Fill-92" fill="#FFD700"></path>
                                    <path d="M4.63342652,5.7161175 C4.82258097,6.19668 4.61534228,6.4250925 4.70797254,6.68388 C4.79708331,6.9330675 5.18475257,7.5506175 4.88963869,7.819005 C4.65518003,7.8294675 4.93022527,7.4784675 4.46112075,6.828555 C4.24347332,6.5240925 4.51795694,6.33138 4.28866521,5.734155 C4.26732356,5.6831175 4.60366053,5.6404425 4.63346396,5.716155 L4.63342652,5.7161175 L4.63342652,5.7161175 Z" id="Stroke-94" stroke="#000000" stroke-width="0.05" stroke-linejoin="round"></path>
                                    <path d="M4.98031451,5.5675275 C5.19137223,6.039465 5.50408362,6.0620775 5.62438315,6.309915 C5.74022715,6.548565 5.90807738,7.2532275 6.31244555,7.2447525 C6.48759688,7.093065 6.03807426,7.0288275 5.90504462,6.24579 C5.84124431,5.88039 5.50618034,5.9289525 5.23974665,5.34639 C5.21821778,5.2954275 4.94706646,5.49324 4.98031451,5.5676025 L4.98031451,5.5675275 Z" id="Fill-96" fill="#FFD700"></path>
                                    <path d="M4.98031451,5.5675275 C5.19137223,6.039465 5.50408362,6.0620775 5.62438315,6.309915 C5.74022715,6.548565 5.90807738,7.2532275 6.31244555,7.2447525 C6.48759688,7.093065 6.03807426,7.0288275 5.90504462,6.24579 C5.84124431,5.88039 5.50618034,5.9289525 5.23974665,5.34639 C5.21821778,5.2954275 4.94706646,5.49324 4.98031451,5.5676025 L4.98031451,5.5675275 L4.98031451,5.5675275 Z" id="Stroke-98" stroke="#000000" stroke-width="0.05" stroke-linejoin="round"></path>
                                    <path d="M5.75383339,4.8270225 C6.23993635,5.0321475 6.26303775,5.3356725 6.51831388,5.4525225 C6.76411732,5.5650975 7.48995819,5.7284475 7.48097223,6.120885 C7.3245791,6.2907975 7.2587195,5.8544475 6.45204243,5.7249225 C6.07564306,5.662785 6.12588955,5.3376225 5.52581466,5.0787225 C5.47332168,5.05776 5.67730296,4.794735 5.75390827,4.8270225 L5.75383339,4.8270225 Z" id="Fill-100" fill="#FFD700"></path>
                                    <path d="M5.75383339,4.8270225 C6.23993635,5.0321475 6.26303775,5.3356725 6.51831388,5.4525225 C6.76411732,5.5650975 7.48995819,5.7284475 7.48097223,6.120885 C7.3245791,6.2907975 7.2587195,5.8544475 6.45204243,5.7249225 C6.07564306,5.662785 6.12588955,5.3376225 5.52581466,5.0787225 C5.47332168,5.05776 5.67730296,4.794735 5.75390827,4.8270225 L5.75383339,4.8270225 L5.75383339,4.8270225 Z" id="Stroke-102" stroke="#000000" stroke-width="0.05" stroke-linejoin="round"></path>
                                    <path d="M5.8927975,4.4736825 C6.38683807,4.66002 6.62335601,4.4601825 6.88945273,4.5515325 C7.14570234,4.6394325 7.77973666,5.0192325 8.05796443,4.7343075 C8.07009548,4.506795 7.70687551,4.77177 7.03993011,4.31277 C6.72751825,4.0998075 6.52735601,4.3650825 5.91339033,4.139145 C5.86089735,4.1181825 5.81503151,4.4443575 5.89283495,4.47372 L5.8927975,4.4736825 Z" id="Fill-104" fill="#FFD700"></path>
                                    <path d="M5.8927975,4.4736825 C6.38683807,4.66002 6.62335601,4.4601825 6.88945273,4.5515325 C7.14570234,4.6394325 7.77973666,5.0192325 8.05796443,4.7343075 C8.07009548,4.506795 7.70687551,4.77177 7.03993011,4.31277 C6.72751825,4.0998075 6.52735601,4.3650825 5.91339033,4.139145 C5.86089735,4.1181825 5.81503151,4.4443575 5.89283495,4.47372 L5.8927975,4.4736825 L5.8927975,4.4736825 Z" id="Stroke-106" stroke="#000000" stroke-width="0.05" stroke-linejoin="round"></path>
                                    <path d="M4.62531669,5.6762625 C4.7798752,6.19905 5.49908892,7.7023125 5.63144462,7.57425 C5.83287988,7.555125 5.16563495,6.001125 4.94529173,5.5513125 C4.92035569,5.5017375 4.60157878,5.5985625 4.62527925,5.6762625 L4.62531669,5.6762625 Z" id="Fill-108" fill="#FFD700"></path>
                                    <path d="M4.62531669,5.6762625 C4.7798752,6.19905 5.49908892,7.7023125 5.63144462,7.57425 C5.83287988,7.555125 5.16563495,6.001125 4.94529173,5.5513125 C4.92035569,5.5017375 4.60157878,5.5985625 4.62527925,5.6762625 L4.62531669,5.6762625 L4.62531669,5.6762625 Z" id="Stroke-110" stroke="#000000" stroke-width="0.05" stroke-linejoin="round"></path>
                                    <path d="M5.27683619,5.3214075 C5.61504524,5.7551325 6.84391264,6.906195 6.91984399,6.740445 C7.10068643,6.65217 5.9014727,5.4355575 5.52896724,5.0929575 C5.48733229,5.05542 5.22584087,5.2572075 5.27679875,5.321445 L5.27683619,5.3214075 Z" id="Fill-112" fill="#FFD700"></path>
                                    <path d="M5.27683619,5.3214075 C5.61504524,5.7551325 6.84391264,6.906195 6.91984399,6.740445 C7.10068643,6.65217 5.9014727,5.4355575 5.52896724,5.0929575 C5.48733229,5.05542 5.22584087,5.2572075 5.27679875,5.321445 L5.27683619,5.3214075 L5.27683619,5.3214075 Z" id="Stroke-114" stroke="#000000" stroke-width="0.05" stroke-linejoin="round"></path>
                                    <path d="M5.74190827,4.76685 C6.22497847,5.0425125 7.81332168,5.6513625 7.81837629,5.47005 C7.95084431,5.32155 6.36414852,4.6411125 5.88515944,4.4623875 C5.83191763,4.443075 5.66953385,4.7263875 5.74187083,4.7668875 L5.74190827,4.76685 Z" id="Fill-116" fill="#FFD700"></path>
                                    <path d="M5.74190827,4.76685 C6.22497847,5.0425125 7.81332168,5.6513625 7.81837629,5.47005 C7.95084431,5.32155 6.36414852,4.6411125 5.88515944,4.4623875 C5.83191763,4.443075 5.66953385,4.7263875 5.74187083,4.7668875 L5.74190827,4.76685 L5.74190827,4.76685 Z" id="Stroke-118" stroke="#000000" stroke-width="0.05" stroke-linejoin="round"></path>
                                    <path d="M4.98031451,5.5675275 C5.19137223,6.039465 5.50408362,6.0620775 5.62438315,6.309915 C5.74022715,6.548565 5.90807738,7.2532275 6.31244555,7.2447525 C6.48759688,7.093065 6.03807426,7.0288275 5.90504462,6.24579 C5.84124431,5.88039 5.50618034,5.9289525 5.23974665,5.34639 C5.21821778,5.2954275 4.94706646,5.49324 4.98031451,5.5676025 L4.98031451,5.5675275 Z" id="Fill-120" fill="#FFD700"></path>
                                    <path d="M4.98031451,5.5675275 C5.19137223,6.039465 5.50408362,6.0620775 5.62438315,6.309915 C5.74022715,6.548565 5.90807738,7.2532275 6.31244555,7.2447525 C6.48759688,7.093065 6.03807426,7.0288275 5.90504462,6.24579 C5.84124431,5.88039 5.50618034,5.9289525 5.23974665,5.34639 C5.21821778,5.2954275 4.94706646,5.49324 4.98031451,5.5676025 L4.98031451,5.5675275 L4.98031451,5.5675275 Z" id="Stroke-122" stroke="#000000" stroke-width="0.05" stroke-linejoin="round"></path>
                                    <path d="M5.75383339,4.8270225 C6.23993635,5.0321475 6.26303775,5.3356725 6.51831388,5.4525225 C6.76411732,5.5650975 7.48995819,5.7284475 7.48097223,6.120885 C7.3245791,6.2907975 7.2587195,5.8544475 6.45204243,5.7249225 C6.07564306,5.662785 6.12588955,5.3376225 5.52581466,5.0787225 C5.47332168,5.05776 5.67730296,4.794735 5.75390827,4.8270225 L5.75383339,4.8270225 Z" id="Fill-124" fill="#FFD700"></path>
                                    <path d="M5.75383339,4.8270225 C6.23993635,5.0321475 6.26303775,5.3356725 6.51831388,5.4525225 C6.76411732,5.5650975 7.48995819,5.7284475 7.48097223,6.120885 C7.3245791,6.2907975 7.2587195,5.8544475 6.45204243,5.7249225 C6.07564306,5.662785 6.12588955,5.3376225 5.52581466,5.0787225 C5.47332168,5.05776 5.67730296,4.794735 5.75390827,4.8270225 L5.75383339,4.8270225 L5.75383339,4.8270225 Z" id="Stroke-126" stroke="#000000" stroke-width="0.05" stroke-linejoin="round"></path>
                                    <path d="M5.8927975,4.4736825 C6.38683807,4.66002 6.62335601,4.4601825 6.88945273,4.5515325 C7.14570234,4.6394325 7.77973666,5.0192325 8.05796443,4.7343075 C8.07009548,4.506795 7.70687551,4.77177 7.03993011,4.31277 C6.72751825,4.0998075 6.52735601,4.3650825 5.91339033,4.139145 C5.86089735,4.1181825 5.81503151,4.4443575 5.89283495,4.47372 L5.8927975,4.4736825 Z" id="Fill-128" fill="#FFD700"></path>
                                    <path d="M5.8927975,4.4736825 C6.38683807,4.66002 6.62335601,4.4601825 6.88945273,4.5515325 C7.14570234,4.6394325 7.77973666,5.0192325 8.05796443,4.7343075 C8.07009548,4.506795 7.70687551,4.77177 7.03993011,4.31277 C6.72751825,4.0998075 6.52735601,4.3650825 5.91339033,4.139145 C5.86089735,4.1181825 5.81503151,4.4443575 5.89283495,4.47372 L5.8927975,4.4736825 L5.8927975,4.4736825 Z" id="Stroke-130" stroke="#000000" stroke-width="0.05" stroke-linejoin="round"></path>
                                    <path d="M4.62531669,5.6762625 C4.7798752,6.19905 5.49908892,7.7023125 5.63144462,7.57425 C5.83287988,7.555125 5.16563495,6.001125 4.94529173,5.5513125 C4.92035569,5.5017375 4.60157878,5.5985625 4.62527925,5.6762625 L4.62531669,5.6762625 Z" id="Fill-132" fill="#FFD700"></path>
                                    <path d="M4.62531669,5.6762625 C4.7798752,6.19905 5.49908892,7.7023125 5.63144462,7.57425 C5.83287988,7.555125 5.16563495,6.001125 4.94529173,5.5513125 C4.92035569,5.5017375 4.60157878,5.5985625 4.62527925,5.6762625 L4.62531669,5.6762625 L4.62531669,5.6762625 Z" id="Stroke-134" stroke="#000000" stroke-width="0.05" stroke-linejoin="round"></path>
                                    <path d="M5.27683619,5.3214075 C5.61504524,5.7551325 6.84391264,6.906195 6.91984399,6.740445 C7.10068643,6.65217 5.9014727,5.4355575 5.52896724,5.0929575 C5.48733229,5.05542 5.22584087,5.2572075 5.27679875,5.321445 L5.27683619,5.3214075 Z" id="Fill-136" fill="#FFD700"></path>
                                    <path d="M5.27683619,5.3214075 C5.61504524,5.7551325 6.84391264,6.906195 6.91984399,6.740445 C7.10068643,6.65217 5.9014727,5.4355575 5.52896724,5.0929575 C5.48733229,5.05542 5.22584087,5.2572075 5.27679875,5.321445 L5.27683619,5.3214075 L5.27683619,5.3214075 Z" id="Stroke-138" stroke="#000000" stroke-width="0.05" stroke-linejoin="round"></path>
                                    <path d="M5.74190827,4.76685 C6.22497847,5.0425125 7.81332168,5.6513625 7.81837629,5.47005 C7.95084431,5.32155 6.36414852,4.6411125 5.88515944,4.4623875 C5.83191763,4.443075 5.66953385,4.7263875 5.74187083,4.7668875 L5.74190827,4.76685 Z" id="Fill-140" fill="#FFD700"></path>
                                    <path d="M5.74190827,4.76685 C6.22497847,5.0425125 7.81332168,5.6513625 7.81837629,5.47005 C7.95084431,5.32155 6.36414852,4.6411125 5.88515944,4.4623875 C5.83191763,4.443075 5.66953385,4.7263875 5.74187083,4.7668875 L5.74190827,4.76685 L5.74190827,4.76685 Z" id="Stroke-142" stroke="#000000" stroke-width="0.05" stroke-linejoin="round"></path>
                                    <path d="" id="Fill-144" fill="#FFD700"></path>
                                    <path d="" id="Stroke-146" stroke="#000000" stroke-width="0.05" stroke-linejoin="round"></path>
                                    <path d="M3.51683869,2.159445 C3.32768424,1.6788825 3.53492293,1.45047 3.44229267,1.1916825 C3.3531819,0.942495 2.96551264,0.324945 3.26062652,0.0565575 C3.49508518,0.046095 3.22003994,0.397095 3.68914446,1.0470075 C3.90679189,1.35147 3.63230827,1.5441825 3.8616,2.1414075 C3.88294165,2.192445 3.54660468,2.23512 3.51680125,2.1594075 L3.51683869,2.159445 Z" id="Fill-148" fill="#FFD700"></path>
                                    <path d="M3.51683869,2.159445 C3.32768424,1.6788825 3.53492293,1.45047 3.44229267,1.1916825 C3.3531819,0.942495 2.96551264,0.324945 3.26062652,0.0565575 C3.49508518,0.046095 3.22003994,0.397095 3.68914446,1.0470075 C3.90679189,1.35147 3.63230827,1.5441825 3.8616,2.1414075 C3.88294165,2.192445 3.54660468,2.23512 3.51680125,2.1594075 L3.51683869,2.159445 L3.51683869,2.159445 Z" id="Stroke-150" stroke="#000000" stroke-width="0.05" stroke-linejoin="round"></path>
                                    <path d="M3.16961373,2.3081475 C2.95855601,1.83621 2.64584462,1.8135975 2.52554509,1.56576 C2.40970109,1.32711 2.24185086,0.6224475 1.83748268,0.6309225 C1.66233136,0.78261 2.11189142,0.8468475 2.24488362,1.629885 C2.30868393,1.995285 2.64374789,1.9467225 2.91018159,2.529285 C2.93171045,2.5802475 3.20286178,2.382435 3.16961373,2.3080725 L3.16961373,2.3081475 Z" id="Fill-152" fill="#FFD700"></path>
                                    <path d="M3.16961373,2.3081475 C2.95855601,1.83621 2.64584462,1.8135975 2.52554509,1.56576 C2.40970109,1.32711 2.24185086,0.6224475 1.83748268,0.6309225 C1.66233136,0.78261 2.11189142,0.8468475 2.24488362,1.629885 C2.30868393,1.995285 2.64374789,1.9467225 2.91018159,2.529285 C2.93171045,2.5802475 3.20286178,2.382435 3.16961373,2.3080725 L3.16961373,2.3081475 L3.16961373,2.3081475 Z" id="Stroke-154" stroke="#000000" stroke-width="0.05" stroke-linejoin="round"></path>
                                    <path d="M2.39643183,3.048915 C1.91032886,2.84379 1.88722746,2.540265 1.63195133,2.423415 C1.38614789,2.31084 0.66030702,2.14749 0.66929298,1.7550525 C0.825686115,1.58514 0.89154571,2.02149 1.69822278,2.151015 C2.07462215,2.2131525 2.02437566,2.538315 2.62445055,2.797215 C2.67694353,2.8181775 2.47296225,3.0812025 2.39635694,3.048915 L2.39643183,3.048915 Z" id="Fill-156" fill="#FFD700"></path>
                                    <path d="M2.39643183,3.048915 C1.91032886,2.84379 1.88722746,2.540265 1.63195133,2.423415 C1.38614789,2.31084 0.66030702,2.14749 0.66929298,1.7550525 C0.825686115,1.58514 0.89154571,2.02149 1.69822278,2.151015 C2.07462215,2.2131525 2.02437566,2.538315 2.62445055,2.797215 C2.67694353,2.8181775 2.47296225,3.0812025 2.39635694,3.048915 L2.39643183,3.048915 L2.39643183,3.048915 Z" id="Stroke-158" stroke="#000000" stroke-width="0.05" stroke-linejoin="round"></path>
                                    <path d="M2.25746771,3.40177125 C1.76342715,3.21543375 1.5269092,3.41527125 1.26081248,3.32392125 C1.00456287,3.23602125 0.370528549,2.85622125 0.09230078,3.14114625 C0.0801697348,3.36865875 0.443389704,3.10368375 1.1103351,3.56268375 C1.42274696,3.77564625 1.6229092,3.51037125 2.23687488,3.73630875 C2.28936786,3.75727125 2.3352337,3.43109625 2.25743027,3.40173375 L2.25746771,3.40177125 Z" id="Fill-160" fill="#FFD700"></path>
                                    <path d="M2.25746771,3.40177125 C1.76342715,3.21543375 1.5269092,3.41527125 1.26081248,3.32392125 C1.00456287,3.23602125 0.370528549,2.85622125 0.09230078,3.14114625 C0.0801697348,3.36865875 0.443389704,3.10368375 1.1103351,3.56268375 C1.42274696,3.77564625 1.6229092,3.51037125 2.23687488,3.73630875 C2.28936786,3.75727125 2.3352337,3.43109625 2.25743027,3.40173375 L2.25746771,3.40177125 L2.25746771,3.40177125 Z" id="Stroke-162" stroke="#000000" stroke-width="0.05" stroke-linejoin="round"></path>
                                    <path d="M3.52464899,2.20001625 C3.37009048,1.67722875 2.65087676,0.17396625 2.51852106,0.30202875 C2.3170858,0.32115375 2.98433073,1.87515375 3.20467395,2.32496625 C3.22960998,2.37454125 3.5483869,2.27771625 3.52468643,2.20001625 L3.52464899,2.20001625 Z" id="Fill-164" fill="#FFD700"></path>
                                    <path d="M3.52464899,2.20001625 C3.37009048,1.67722875 2.65087676,0.17396625 2.51852106,0.30202875 C2.3170858,0.32115375 2.98433073,1.87515375 3.20467395,2.32496625 C3.22960998,2.37454125 3.5483869,2.27771625 3.52468643,2.20001625 L3.52464899,2.20001625 L3.52464899,2.20001625 Z" id="Stroke-166" stroke="#000000" stroke-width="0.05" stroke-linejoin="round"></path>
                                    <path d="M2.87342902,2.5542675 C2.53521997,2.1205425 1.30635257,0.96948 1.23042122,1.13523 C1.04957878,1.223505 2.24879251,2.4401175 2.62129797,2.7827175 C2.66293292,2.820255 2.92442434,2.6184675 2.87346646,2.55423 L2.87342902,2.5542675 Z" id="Fill-168" fill="#FFD700"></path>
                                    <path d="M2.87342902,2.5542675 C2.53521997,2.1205425 1.30635257,0.96948 1.23042122,1.13523 C1.04957878,1.223505 2.24879251,2.4401175 2.62129797,2.7827175 C2.66293292,2.820255 2.92442434,2.6184675 2.87346646,2.55423 L2.87342902,2.5542675 L2.87342902,2.5542675 Z" id="Stroke-170" stroke="#000000" stroke-width="0.05" stroke-linejoin="round"></path>
                                    <path d="M2.40824462,3.108525 C1.92517441,2.8328625 0.336831201,2.2240125 0.331776599,2.405325 C0.19930858,2.553825 1.78600437,3.2342625 2.26499345,3.4129875 C2.31823526,3.4323 2.48061903,3.1489875 2.40828206,3.1084875 L2.40824462,3.108525 Z" id="Fill-172" fill="#FFD700"></path>
                                    <path d="M2.40824462,3.108525 C1.92517441,2.8328625 0.336831201,2.2240125 0.331776599,2.405325 C0.19930858,2.553825 1.78600437,3.2342625 2.26499345,3.4129875 C2.31823526,3.4323 2.48061903,3.1489875 2.40828206,3.1084875 L2.40824462,3.108525 L2.40824462,3.108525 Z" id="Stroke-174" stroke="#000000" stroke-width="0.05" stroke-linejoin="round"></path>
                                    <path d="M3.16961373,2.3081475 C2.95855601,1.83621 2.64584462,1.8135975 2.52554509,1.56576 C2.40970109,1.32711 2.24185086,0.6224475 1.83748268,0.6309225 C1.66233136,0.78261 2.11189142,0.8468475 2.24488362,1.629885 C2.30868393,1.995285 2.64374789,1.9467225 2.91018159,2.529285 C2.93171045,2.5802475 3.20286178,2.382435 3.16961373,2.3080725 L3.16961373,2.3081475 Z" id="Fill-176" fill="#FFD700"></path>
                                    <path d="M3.16961373,2.3081475 C2.95855601,1.83621 2.64584462,1.8135975 2.52554509,1.56576 C2.40970109,1.32711 2.24185086,0.6224475 1.83748268,0.6309225 C1.66233136,0.78261 2.11189142,0.8468475 2.24488362,1.629885 C2.30868393,1.995285 2.64374789,1.9467225 2.91018159,2.529285 C2.93171045,2.5802475 3.20286178,2.382435 3.16961373,2.3080725 L3.16961373,2.3081475 L3.16961373,2.3081475 Z" id="Stroke-178" stroke="#000000" stroke-width="0.05" stroke-linejoin="round"></path>
                                    <path d="M2.39643183,3.048915 C1.91032886,2.84379 1.88722746,2.540265 1.63195133,2.423415 C1.38614789,2.31084 0.66030702,2.14749 0.66929298,1.7550525 C0.825686115,1.58514 0.89154571,2.02149 1.69822278,2.151015 C2.07462215,2.2131525 2.02437566,2.538315 2.62445055,2.797215 C2.67694353,2.8181775 2.47296225,3.0812025 2.39635694,3.048915 L2.39643183,3.048915 Z" id="Fill-180" fill="#FFD700"></path>
                                    <path d="M2.39643183,3.048915 C1.91032886,2.84379 1.88722746,2.540265 1.63195133,2.423415 C1.38614789,2.31084 0.66030702,2.14749 0.66929298,1.7550525 C0.825686115,1.58514 0.89154571,2.02149 1.69822278,2.151015 C2.07462215,2.2131525 2.02437566,2.538315 2.62445055,2.797215 C2.67694353,2.8181775 2.47296225,3.0812025 2.39635694,3.048915 L2.39643183,3.048915 L2.39643183,3.048915 Z" id="Stroke-182" stroke="#000000" stroke-width="0.05" stroke-linejoin="round"></path>
                                    <path d="M2.25746771,3.40177125 C1.76342715,3.21543375 1.5269092,3.41527125 1.26081248,3.32392125 C1.00456287,3.23602125 0.370528549,2.85622125 0.09230078,3.14114625 C0.0801697348,3.36865875 0.443389704,3.10368375 1.1103351,3.56268375 C1.42274696,3.77564625 1.6229092,3.51037125 2.23687488,3.73630875 C2.28936786,3.75727125 2.3352337,3.43109625 2.25743027,3.40173375 L2.25746771,3.40177125 Z" id="Fill-184" fill="#FFD700"></path>
                                    <path d="M2.25746771,3.40177125 C1.76342715,3.21543375 1.5269092,3.41527125 1.26081248,3.32392125 C1.00456287,3.23602125 0.370528549,2.85622125 0.09230078,3.14114625 C0.0801697348,3.36865875 0.443389704,3.10368375 1.1103351,3.56268375 C1.42274696,3.77564625 1.6229092,3.51037125 2.23687488,3.73630875 C2.28936786,3.75727125 2.3352337,3.43109625 2.25743027,3.40173375 L2.25746771,3.40177125 L2.25746771,3.40177125 Z" id="Stroke-186" stroke="#000000" stroke-width="0.05" stroke-linejoin="round"></path>
                                    <path d="" id="Stroke-28" stroke="#000000" stroke-width="0.05"></path>
                                    <path d="" id="Stroke-30" stroke="#000000" stroke-width="0.05" stroke-linecap="round" stroke-linejoin="round"></path>
                                    <path d="" id="Stroke-32" stroke="#000000" stroke-width="0.05" stroke-linejoin="round"></path>
                                    <path d="M3.52464899,2.20001625 C3.37009048,1.67722875 2.65087676,0.17396625 2.51852106,0.30202875 C2.3170858,0.32115375 2.98433073,1.87515375 3.20467395,2.32496625 C3.22960998,2.37454125 3.5483869,2.27771625 3.52468643,2.20001625 L3.52464899,2.20001625 Z" id="Fill-188" fill="#FFD700"></path>
                                    <path d="M3.52464899,2.20001625 C3.37009048,1.67722875 2.65087676,0.17396625 2.51852106,0.30202875 C2.3170858,0.32115375 2.98433073,1.87515375 3.20467395,2.32496625 C3.22960998,2.37454125 3.5483869,2.27771625 3.52468643,2.20001625 L3.52464899,2.20001625 L3.52464899,2.20001625 Z" id="Stroke-190" stroke="#000000" stroke-width="0.05" stroke-linejoin="round"></path>
                                    <path d="M2.87342902,2.5542675 C2.53521997,2.1205425 1.30635257,0.96948 1.23042122,1.13523 C1.04957878,1.223505 2.24879251,2.4401175 2.62129797,2.7827175 C2.66293292,2.820255 2.92442434,2.6184675 2.87346646,2.55423 L2.87342902,2.5542675 Z" id="Fill-192" fill="#FFD700"></path>
                                    <path d="M2.87342902,2.5542675 C2.53521997,2.1205425 1.30635257,0.96948 1.23042122,1.13523 C1.04957878,1.223505 2.24879251,2.4401175 2.62129797,2.7827175 C2.66293292,2.820255 2.92442434,2.6184675 2.87346646,2.55423 L2.87342902,2.5542675 L2.87342902,2.5542675 Z" id="Stroke-194" stroke="#000000" stroke-width="0.05" stroke-linejoin="round"></path>
                                    <path d="M2.40824462,3.108525 C1.92517441,2.8328625 0.336831201,2.2240125 0.331776599,2.405325 C0.19930858,2.553825 1.78600437,3.2342625 2.26499345,3.4129875 C2.31823526,3.4323 2.48061903,3.1489875 2.40828206,3.1084875 L2.40824462,3.108525 Z" id="Fill-196" fill="#FFD700"></path>
                                    <path d="M2.40824462,3.108525 C1.92517441,2.8328625 0.336831201,2.2240125 0.331776599,2.405325 C0.19930858,2.553825 1.78600437,3.2342625 2.26499345,3.4129875 C2.31823526,3.4323 2.48061903,3.1489875 2.40828206,3.1084875 L2.40824462,3.108525 L2.40824462,3.108525 Z" id="Stroke-198" stroke="#000000" stroke-width="0.05" stroke-linejoin="round"></path>
                                    <path d="" id="Fill-200" fill="#FFD700"></path>
                                    <path d="" id="Stroke-202" stroke="#000000" stroke-width="0.05" stroke-linejoin="round"></path>
                                    <path d="M5.89507395,3.39623625 C6.39020031,3.21263625 6.62552012,3.41378625 6.89217847,3.32389875 C7.14891482,3.23738625 7.78519563,2.86111125 8.06170109,3.14757375 C8.07252168,3.37512375 7.71083682,3.10819875 7.04123307,3.56348625 C6.72754821,3.77472375 6.52899594,3.50832375 5.91368237,3.73088625 C5.86107707,3.75154875 5.81712075,3.42514875 5.89511139,3.39619875 L5.89507395,3.39623625 Z" id="Fill-204" fill="#FFD700"></path>
                                    <path d="M5.89507395,3.39623625 C6.39020031,3.21263625 6.62552012,3.41378625 6.89217847,3.32389875 C7.14891482,3.23738625 7.78519563,2.86111125 8.06170109,3.14757375 C8.07252168,3.37512375 7.71083682,3.10819875 7.04123307,3.56348625 C6.72754821,3.77472375 6.52899594,3.50832375 5.91368237,3.73088625 C5.86107707,3.75154875 5.81712075,3.42514875 5.89511139,3.39619875 L5.89507395,3.39623625 L5.89507395,3.39623625 Z" id="Stroke-206" stroke="#000000" stroke-width="0.05" stroke-linejoin="round"></path>
                                    <path d="M5.74218534,3.05717625 C6.22836318,2.85231375 6.25165179,2.54875125 6.50700281,2.43201375 C6.75288112,2.31955125 7.47879688,2.15661375 7.47007301,1.76413875 C7.3137922,1.59411375 7.24763307,2.03046375 6.44091856,2.15953875 C6.06451919,2.22148875 6.11454103,2.54672625 5.51435382,2.80532625 C5.46186084,2.82625125 5.66565491,3.08942625 5.74226022,3.05717625 L5.74218534,3.05717625 Z" id="Fill-208" fill="#FFD700"></path>
                                    <path d="M5.74218534,3.05717625 C6.22836318,2.85231375 6.25165179,2.54875125 6.50700281,2.43201375 C6.75288112,2.31955125 7.47879688,2.15661375 7.47007301,1.76413875 C7.3137922,1.59411375 7.24763307,2.03046375 6.44091856,2.15953875 C6.06451919,2.22148875 6.11454103,2.54672625 5.51435382,2.80532625 C5.46186084,2.82625125 5.66565491,3.08942625 5.74226022,3.05717625 L5.74218534,3.05717625 L5.74218534,3.05717625 Z" id="Stroke-210" stroke="#000000" stroke-width="0.05" stroke-linejoin="round"></path>
                                    <path d="M4.97998502,2.30762625 C5.19134228,1.83587625 5.50409111,1.81345125 5.62454041,1.56565125 C5.74053417,1.32711375 5.90887114,0.62263875 6.31323931,0.63133875 C6.48831576,0.78313875 6.03871825,0.84707625 5.90520187,1.62996375 C5.84117691,1.99528875 5.50611295,1.94653875 5.23930484,2.52887625 C5.21770109,2.57983875 4.94669953,2.38191375 4.97998502,2.30755125 L4.97998502,2.30762625 Z" id="Fill-212" fill="#FFD700"></path>
                                    <path d="M4.97998502,2.30762625 C5.19134228,1.83587625 5.50409111,1.81345125 5.62454041,1.56565125 C5.74053417,1.32711375 5.90887114,0.62263875 6.31323931,0.63133875 C6.48831576,0.78313875 6.03871825,0.84707625 5.90520187,1.62996375 C5.84117691,1.99528875 5.50611295,1.94653875 5.23930484,2.52887625 C5.21770109,2.57983875 4.94669953,2.38191375 4.97998502,2.30755125 L4.97998502,2.30762625 L4.97998502,2.30762625 Z" id="Stroke-214" stroke="#000000" stroke-width="0.05" stroke-linejoin="round"></path>
                                    <path d="M4.61567551,2.17469625 C4.80767551,1.69518375 4.60178471,1.46564625 4.69595008,1.20734625 C4.7865585,0.95864625 5.17785959,0.34323375 4.88435569,0.07323375 C4.64993448,0.06145875 4.922883,0.41399625 4.44995944,1.06132125 C4.23051482,1.36454625 4.50383775,1.55879625 4.27098908,2.15474625 C4.24938534,2.20567125 4.58546022,2.25018375 4.61571295,2.17465875 L4.61567551,2.17469625 Z" id="Fill-216" fill="#FFD700"></path>
                                    <path d="M4.61567551,2.17469625 C4.80767551,1.69518375 4.60178471,1.46564625 4.69595008,1.20734625 C4.7865585,0.95864625 5.17785959,0.34323375 4.88435569,0.07323375 C4.64993448,0.06145875 4.922883,0.41399625 4.44995944,1.06132125 C4.23051482,1.36454625 4.50383775,1.55879625 4.27098908,2.15474625 C4.24938534,2.20567125 4.58546022,2.25018375 4.61571295,2.17465875 L4.61567551,2.17469625 L4.61567551,2.17469625 Z" id="Stroke-218" stroke="#000000" stroke-width="0.05" stroke-linejoin="round"></path>
                                    <path d="M5.85300094,3.40477125 C6.39167176,3.25480875 7.94055164,2.55678375 7.8086078,2.42834625 C7.78891357,2.23285875 6.18769048,2.88037125 5.72423963,3.09423375 C5.67316942,3.11842125 5.77295101,3.42783375 5.85300094,3.40480875 L5.85300094,3.40477125 Z" id="Fill-220" fill="#FFD700"></path>
                                    <path d="M5.85300094,3.40477125 C6.39167176,3.25480875 7.94055164,2.55678375 7.8086078,2.42834625 C7.78891357,2.23285875 6.18769048,2.88037125 5.72423963,3.09423375 C5.67316942,3.11842125 5.77295101,3.42783375 5.85300094,3.40480875 L5.85300094,3.40477125 L5.85300094,3.40477125 Z" id="Stroke-222" stroke="#000000" stroke-width="0.05" stroke-linejoin="round"></path>
                                    <path d="M5.48881123,2.77046625 C5.93567551,2.44219125 7.12163495,1.24935375 6.95086427,1.17566625 C6.85995632,1.00012875 5.60645242,2.16416625 5.25345398,2.52574125 C5.21477691,2.56616625 5.42268955,2.81996625 5.48884867,2.77050375 L5.48881123,2.77046625 Z" id="Fill-224" fill="#FFD700"></path>
                                    <path d="M5.48881123,2.77046625 C5.93567551,2.44219125 7.12163495,1.24935375 6.95086427,1.17566625 C6.85995632,1.00012875 5.60645242,2.16416625 5.25345398,2.52574125 C5.21477691,2.56616625 5.42268955,2.81996625 5.48884867,2.77050375 L5.48881123,2.77046625 L5.48881123,2.77046625 Z" id="Stroke-226" stroke="#000000" stroke-width="0.05" stroke-linejoin="round"></path>
                                    <path d="M4.91613604,2.32151625 C5.20016724,1.85269125 5.82753697,0.31125375 5.64074134,0.30637875 C5.4876805,0.17782875 4.78655101,1.71765375 4.60241373,2.18246625 C4.58253229,2.23417875 4.87446365,2.39175375 4.91617348,2.32155375 L4.91613604,2.32151625 Z" id="Fill-228" fill="#FFD700"></path>
                                    <path d="M4.91613604,2.32151625 C5.20016724,1.85269125 5.82753697,0.31125375 5.64074134,0.30637875 C5.4876805,0.17782875 4.78655101,1.71765375 4.60241373,2.18246625 C4.58253229,2.23417875 4.87446365,2.39175375 4.91617348,2.32155375 L4.91613604,2.32151625 L4.91613604,2.32151625 Z" id="Stroke-230" stroke="#000000" stroke-width="0.05" stroke-linejoin="round"></path>
                                    <path d="M5.74218534,3.05717625 C6.22836318,2.85231375 6.25165179,2.54875125 6.50700281,2.43201375 C6.75288112,2.31955125 7.47879688,2.15661375 7.47007301,1.76413875 C7.3137922,1.59411375 7.24763307,2.03046375 6.44091856,2.15953875 C6.06451919,2.22148875 6.11454103,2.54672625 5.51435382,2.80532625 C5.46186084,2.82625125 5.66565491,3.08942625 5.74226022,3.05717625 L5.74218534,3.05717625 Z" id="Fill-232" fill="#FFD700"></path>
                                    <path d="M5.74218534,3.05717625 C6.22836318,2.85231375 6.25165179,2.54875125 6.50700281,2.43201375 C6.75288112,2.31955125 7.47879688,2.15661375 7.47007301,1.76413875 C7.3137922,1.59411375 7.24763307,2.03046375 6.44091856,2.15953875 C6.06451919,2.22148875 6.11454103,2.54672625 5.51435382,2.80532625 C5.46186084,2.82625125 5.66565491,3.08942625 5.74226022,3.05717625 L5.74218534,3.05717625 L5.74218534,3.05717625 Z" id="Stroke-234" stroke="#000000" stroke-width="0.05" stroke-linejoin="round"></path>
                                    <path d="M4.97998502,2.30762625 C5.19134228,1.83587625 5.50409111,1.81345125 5.62454041,1.56565125 C5.74053417,1.32711375 5.90887114,0.62263875 6.31323931,0.63133875 C6.48831576,0.78313875 6.03871825,0.84707625 5.90520187,1.62996375 C5.84117691,1.99528875 5.50611295,1.94653875 5.23930484,2.52887625 C5.21770109,2.57983875 4.94669953,2.38191375 4.97998502,2.30755125 L4.97998502,2.30762625 Z" id="Fill-236" fill="#FFD700"></path>
                                    <path d="M4.97998502,2.30762625 C5.19134228,1.83587625 5.50409111,1.81345125 5.62454041,1.56565125 C5.74053417,1.32711375 5.90887114,0.62263875 6.31323931,0.63133875 C6.48831576,0.78313875 6.03871825,0.84707625 5.90520187,1.62996375 C5.84117691,1.99528875 5.50611295,1.94653875 5.23930484,2.52887625 C5.21770109,2.57983875 4.94669953,2.38191375 4.97998502,2.30755125 L4.97998502,2.30762625 L4.97998502,2.30762625 Z" id="Stroke-238" stroke="#000000" stroke-width="0.05" stroke-linejoin="round"></path>
                                    <path d="M4.61567551,2.17469625 C4.80767551,1.69518375 4.60178471,1.46564625 4.69595008,1.20734625 C4.7865585,0.95864625 5.17785959,0.34323375 4.88435569,0.07323375 C4.64993448,0.06145875 4.922883,0.41399625 4.44995944,1.06132125 C4.23051482,1.36454625 4.50383775,1.55879625 4.27098908,2.15474625 C4.24938534,2.20567125 4.58546022,2.25018375 4.61571295,2.17465875 L4.61567551,2.17469625 Z" id="Fill-240" fill="#FFD700"></path>
                                    <path d="M4.61567551,2.17469625 C4.80767551,1.69518375 4.60178471,1.46564625 4.69595008,1.20734625 C4.7865585,0.95864625 5.17785959,0.34323375 4.88435569,0.07323375 C4.64993448,0.06145875 4.922883,0.41399625 4.44995944,1.06132125 C4.23051482,1.36454625 4.50383775,1.55879625 4.27098908,2.15474625 C4.24938534,2.20567125 4.58546022,2.25018375 4.61571295,2.17465875 L4.61567551,2.17469625 L4.61567551,2.17469625 Z" id="Stroke-242" stroke="#000000" stroke-width="0.05" stroke-linejoin="round"></path>
                                    <path d="M5.85300094,3.40477125 C6.39167176,3.25480875 7.94055164,2.55678375 7.8086078,2.42834625 C7.78891357,2.23285875 6.18769048,2.88037125 5.72423963,3.09423375 C5.67316942,3.11842125 5.77295101,3.42783375 5.85300094,3.40480875 L5.85300094,3.40477125 Z" id="Fill-244" fill="#FFD700"></path>
                                    <path d="M5.85300094,3.40477125 C6.39167176,3.25480875 7.94055164,2.55678375 7.8086078,2.42834625 C7.78891357,2.23285875 6.18769048,2.88037125 5.72423963,3.09423375 C5.67316942,3.11842125 5.77295101,3.42783375 5.85300094,3.40480875 L5.85300094,3.40477125 L5.85300094,3.40477125 Z" id="Stroke-246" stroke="#000000" stroke-width="0.05" stroke-linejoin="round"></path>
                                    <path d="M5.48881123,2.77046625 C5.93567551,2.44219125 7.12163495,1.24935375 6.95086427,1.17566625 C6.85995632,1.00012875 5.60645242,2.16416625 5.25345398,2.52574125 C5.21477691,2.56616625 5.42268955,2.81996625 5.48884867,2.77050375 L5.48881123,2.77046625 Z" id="Fill-248" fill="#FFD700"></path>
                                    <path d="M5.48881123,2.77046625 C5.93567551,2.44219125 7.12163495,1.24935375 6.95086427,1.17566625 C6.85995632,1.00012875 5.60645242,2.16416625 5.25345398,2.52574125 C5.21477691,2.56616625 5.42268955,2.81996625 5.48884867,2.77050375 L5.48881123,2.77046625 L5.48881123,2.77046625 Z" id="Stroke-250" stroke="#000000" stroke-width="0.05" stroke-linejoin="round"></path>
                                    <path d="M4.91613604,2.32151625 C5.20016724,1.85269125 5.82753697,0.31125375 5.64074134,0.30637875 C5.4876805,0.17782875 4.78655101,1.71765375 4.60241373,2.18246625 C4.58253229,2.23417875 4.87446365,2.39175375 4.91617348,2.32155375 L4.91613604,2.32151625 Z" id="Fill-252" fill="#FFD700"></path>
                                    <path d="M4.91613604,2.32151625 C5.20016724,1.85269125 5.82753697,0.31125375 5.64074134,0.30637875 C5.4876805,0.17782875 4.78655101,1.71765375 4.60241373,2.18246625 C4.58253229,2.23417875 4.87446365,2.39175375 4.91617348,2.32155375 L4.91613604,2.32151625 L4.91613604,2.32151625 Z" id="Stroke-254" stroke="#000000" stroke-width="0.05" stroke-linejoin="round"></path>
                                    <path d="" id="Stroke-256" stroke="#000000" stroke-width="0.05"></path>
                                    <path d="" id="Stroke-258" stroke="#000000" stroke-width="0.05"></path>
                                    <path d="" id="Stroke-260" stroke="#000000" stroke-width="0.05"></path>
                                    <path d="" id="Stroke-262" stroke="#000000" stroke-width="0.05"></path>
                                    <path d="" id="Stroke-264" stroke="#000000" stroke-width="0.05"></path>
                                    <path d="" id="Stroke-266" stroke="#000000" stroke-width="0.05"></path>
                                    <path d="" id="Stroke-268" stroke="#000000" stroke-width="0.05"></path>
                                    <path d="" id="Stroke-270" stroke="#000000" stroke-width="0.05"></path>
                                    <path d="" id="Stroke-272" stroke="#000000" stroke-width="0.05"></path>
                                    <path d="" id="Stroke-274" stroke="#000000" stroke-width="0.05"></path>
                                    <path d="" id="Stroke-276" stroke="#000000" stroke-width="0.05"></path>
                                    <path d="" id="Stroke-278" stroke="#000000" stroke-width="0.05"></path>
                                    <path d="" id="Stroke-280" stroke="#000000" stroke-width="0.05"></path>
                                    <path d="" id="Stroke-282" stroke="#000000" stroke-width="0.05"></path>
                                    <path d="" id="Stroke-284" stroke="#000000" stroke-width="0.05"></path>
                                    <path d="" id="Stroke-286" stroke="#000000" stroke-width="0.05"></path>
                                    <path d="" id="Stroke-288" stroke="#000000" stroke-width="0.05"></path>
                                    <path d="" id="Stroke-290" stroke="#000000" stroke-width="0.05"></path>
                                    <path d="" id="Stroke-292" stroke="#000000" stroke-width="0.05"></path>
                                    <path d="" id="Stroke-294" stroke="#000000" stroke-width="0.05"></path>
                                    <path d="" id="Stroke-296" stroke="#000000" stroke-width="0.05"></path>
                                    <path d="" id="Stroke-298" stroke="#000000" stroke-width="0.05"></path>
                                    <path d="" id="Stroke-300" stroke="#000000" stroke-width="0.05"></path>
                                    <path d="" id="Stroke-302" stroke="#000000" stroke-width="0.05"></path>
                                    <path d="" id="Stroke-304" stroke="#000000" stroke-width="0.05"></path>
                                    <path d="" id="Stroke-306" stroke="#000000" stroke-width="0.05"></path>
                                    <path d="" id="Stroke-308" stroke="#000000" stroke-width="0.05"></path>
                                    <path d="" id="Stroke-310" stroke="#000000" stroke-width="0.05"></path>
                                    <path d="" id="Stroke-312" stroke="#000000" stroke-width="0.05"></path>
                                    <path d="" id="Stroke-314" stroke="#000000" stroke-width="0.05"></path>
                                    <path d="" id="Stroke-316" stroke="#000000" stroke-width="0.05"></path>
                                    <path d="" id="Fill-318" fill="#00699D"></path>
                                    <path d="" id="Stroke-320" stroke="#000000" stroke-width="0.05"></path>
                                    <path d="" id="Fill-322" fill="#00699D"></path>
                                    <path d="" id="Stroke-324" stroke="#000000" stroke-width="0.05"></path>
                                    <path d="" id="Fill-326" fill="#00699D"></path>
                                    <path d="" id="Stroke-328" stroke="#000000" stroke-width="0.05"></path>
                                    <path d="" id="Fill-330" fill="#00699D"></path>
                                    <path d="" id="Stroke-332" stroke="#000000" stroke-width="0.05"></path>
                                    <path d="" id="Fill-334" fill="#00699D"></path>
                                    <path d="" id="Stroke-336" stroke="#000000" stroke-width="0.05"></path>
                                    <path d="" id="Fill-338" fill="#00699D"></path>
                                    <path d="" id="Stroke-340" stroke="#000000" stroke-width="0.05"></path>
                                    <path d="" id="Fill-342" fill="#00699D"></path>
                                    <path d="" id="Stroke-344" stroke="#000000" stroke-width="0.05"></path>
                                    <path d="" id="Fill-346" fill="#00699D"></path>
                                    <path d="" id="Stroke-348" stroke="#000000" stroke-width="0.05"></path>
                                    <path d="" id="Fill-350" fill="#00699D"></path>
                                    <path d="" id="Stroke-352" stroke="#000000" stroke-width="0.05"></path>
                                    <path d="" id="Fill-354" fill="#00699D"></path>
                                    <path d="" id="Stroke-356" stroke="#000000" stroke-width="0.05"></path>
                                    <path d="" id="Fill-358" fill="#00699D"></path>
                                    <path d="" id="Stroke-360" stroke="#000000" stroke-width="0.05"></path>
                                    <path d="" id="Fill-362" fill="#00699D"></path>
                                    <path d="" id="Stroke-364" stroke="#000000" stroke-width="0.05"></path>
                                    <path d="" id="Fill-366" fill="#00699D"></path>
                                    <path d="" id="Stroke-368" stroke="#000000" stroke-width="0.05"></path>
                                    <path d="" id="Fill-370" fill="#00699D"></path>
                                    <path d="" id="Stroke-372" stroke="#000000" stroke-width="0.05"></path>
                                    <path d="" id="Fill-374" fill="#00699D"></path>
                                    <path d="" id="Stroke-376" stroke="#000000" stroke-width="0.05"></path>
                                    <path d="" id="Fill-378" fill="#00699D"></path>
                                    <path d="" id="Stroke-380" stroke="#000000" stroke-width="0.05"></path>
                                    <path d="" id="Fill-382" fill="#00699D"></path>
                                    <path d="" id="Stroke-384" stroke="#000000" stroke-width="0.05"></path>
                                    <path d="" id="Fill-386" fill="#00699D"></path>
                                    <path d="" id="Stroke-388" stroke="#000000" stroke-width="0.05"></path>
                                    <path d="" id="Fill-390" fill="#00699D"></path>
                                    <path d="" id="Stroke-392" stroke="#000000" stroke-width="0.05"></path>
                                    <path d="" id="Fill-394" fill="#00699D"></path>
                                    <path d="" id="Stroke-396" stroke="#000000" stroke-width="0.05"></path>
                                    <path d="" id="Fill-398" fill="#00699D"></path>
                                    <path d="" id="Stroke-400" stroke="#000000" stroke-width="0.05"></path>
                                    <path d="" id="Stroke-402" stroke="#000000" stroke-width="0.05"></path>
                                    <path d="" id="Stroke-404" stroke="#000000" stroke-width="0.05"></path>
                                    <path d="" id="Stroke-406" stroke="#000000" stroke-width="0.05"></path>
                                    <path d="" id="Stroke-408" stroke="#000000" stroke-width="0.05"></path>
                                    <path d="" id="Stroke-410" stroke="#000000" stroke-width="0.05"></path>
                                    <path d="" id="Stroke-412" stroke="#000000" stroke-width="0.05"></path>
                                    <path d="" id="Stroke-414" stroke="#000000" stroke-width="0.05"></path>
                                    <path d="" id="Stroke-416" stroke="#000000" stroke-width="0.05"></path>
                                    <path d="" id="Stroke-418" stroke="#000000" stroke-width="0.05"></path>
                                    <path d="" id="Stroke-420" stroke="#000000" stroke-width="0.05"></path>
                                    <path d="" id="Fill-422" fill="#F0BF00"></path>
                                    <path d="" id="Stroke-424" stroke="#000000" stroke-width="0.05" stroke-linejoin="round"></path>
                                    <path d="" id="Stroke-426" stroke="#000000" stroke-width="0.05"></path>
                                    <path d="" id="Fill-428" fill="#000000"></path>
                                    <path d="" id="Fill-430" fill="#FFD700"></path>
                                </g>
                            </g>
                        </g>
                    </g>
                </g>
            </g>
        </g>
    </g>
</svg>