<?xml version="1.0" encoding="UTF-8" standalone="no"?>
<svg width="24px" height="18px" viewBox="0 0 24 18" version="1.1" xmlns="http://www.w3.org/2000/svg" xmlns:xlink="http://www.w3.org/1999/xlink">
    <!-- Generator: sketchtool 39.1 (31720) - http://www.bohemiancoding.com/sketch -->
    <title>FDA29010-8651-435F-AF72-D7B18F296263</title>
    <desc>Created with sketchtool.</desc>
    <defs>
        <rect id="path-1" x="0" y="0" width="24" height="18"></rect>
    </defs>
    <g id="Exports" stroke="none" stroke-width="1" fill="none" fill-rule="evenodd">
        <g id="04-NS-country-L" transform="translate(-688.000000, -1207.000000)">
            <g id="Group-10" transform="translate(72.000000, 344.000000)">
                <g id="Group-9" transform="translate(616.000000, 41.000000)">
                    <g id="Group-7-Copy-13" transform="translate(0.000000, 820.000000)">
                        <g id="au" transform="translate(0.000000, 2.000000)">
                            <mask id="mask-2" fill="white">
                                <use xlink:href="#path-1"></use>
                            </mask>
                            <g id="Mask"></g>
                            <g mask="url(#mask-2)" id="Group">
                                <g>
                                    <polygon id="Shape" fill="#000066" points="0 0 26 0 26 19 0 19"></polygon>
                                    <path d="M0,0 L0,1.10635417 L12.4733781,9.89583333 L14.0434125,9.89583333 L14.0434125,8.78947917 L1.57003438,0 L0,0 L0,0 Z M14.0434125,0 L14.0434125,1.10635417 L1.57003437,9.89583333 L0,9.89583333 L0,8.78947917 L12.4733781,0 L14.0434125,0 L14.0434125,0 Z" id="Shape" fill="#FFFFFF"></path>
                                    <path d="M5.85142188,0 L5.85142188,9.89583333 L8.19199063,9.89583333 L8.19199063,0 L5.85138125,0 L5.85142188,0 Z M0,3.29859792 L0,6.59719583 L14.0434125,6.59719583 L14.0434125,3.29859792 L0,3.29859792 L0,3.29859792 Z" id="Shape" fill="#FFFFFF"></path>
                                    <path d="M0,3.95833333 L0,5.9375 L14.0434125,5.9375 L14.0434125,3.95833333 L0,3.95833333 L0,3.95833333 Z M6.31954375,0 L6.31954375,9.89583333 L7.72386875,9.89583333 L7.72386875,0 L6.31954375,0 L6.31954375,0 Z M0,9.89583333 L4.6811375,6.59719583 L5.72784062,6.59719583 L1.04670313,9.89583333 L0,9.89583333 L0,9.89583333 Z M0,0 L4.6811375,3.29859792 L3.63443438,3.29859792 L0,0.73755625 L0,0 L0,0 Z M8.31553125,3.29859792 L12.99675,0 L14.0434125,0 L9.362275,3.29859792 L8.31553125,3.29859792 L8.31553125,3.29859792 Z M14.0434531,9.89583333 L9.36231563,6.59719583 L10.4090187,6.59719583 L14.0434937,9.1582375 L14.0434937,9.89583333 L14.0434531,9.89583333 Z" id="Shape" fill="#CC0000"></path>
                                    <g transform="translate(6.662500, 4.868750)" id="Shape" fill="#FFFFFF">
                                        <path d="M5.51533125,10.6686188 L3.74192812,10.8188375 L3.98620625,12.5369917 L2.75985937,11.2796667 L1.53355312,12.5369917 L1.77787187,10.8188375 L0.00446875,10.6686188 L1.53521875,9.78337708 L0.55030625,8.33878333 L2.2147125,8.95287917 L2.7599,7.30173958 L3.3050875,8.95283958 L4.96949375,8.33870417 L3.9846625,9.78325833 M13.1027,12.25215 L12.6746344,11.6245958 L13.3981656,11.8914667 L13.6347656,11.1740188 L13.8714063,11.8915063 L14.5948156,11.6246354 L14.16675,12.2521896 L14.8317813,12.6368604 L14.0613281,12.7021729 L14.1676031,13.4483188 L13.6347656,12.9023458 L13.1018875,13.4483583 L13.2081625,12.7022125 L12.43775,12.6369 M13.1027,1.08588958 L12.6746344,0.45825625 L13.3981656,0.725127083 L13.6347656,0.00779791667 L13.8714063,0.725047917 L14.5948156,0.45825625 L14.16675,1.08585 L14.8317813,1.47048125 L14.0613281,1.53579375 L14.1676031,2.28193958 L13.6347656,1.73596667 L13.1018875,2.28197917 L13.2081625,1.53583333 L12.43775,1.47052083 M8.80514375,5.62213958 L8.37707813,4.994625 L9.10052813,5.26149583 L9.33716875,4.54404792 L9.57380937,5.26149583 L10.2972594,4.994625 L9.86923437,5.62213958 L10.5342656,6.00688958 L9.7638125,6.07220208 L9.87004687,6.81834792 L9.33716875,6.27229583 L8.80429062,6.81834792 L8.91060625,6.07220208 L8.14019375,6.00688958 M16.9238062,4.50553333 L16.4948875,3.87797917 L17.2189062,4.14485 L17.4538,3.42740208 L17.6916187,4.14485 L18.4136063,3.87797917 L17.9867188,4.50553333 L18.651425,4.89020417 L17.8807687,4.95551667 L17.9867187,5.7016625 L17.4538,5.15568958 L16.9209219,5.7016625 L17.0269531,4.95551667 L16.2576781,4.89020417 M15.3537312,7.79538333 L14.9325719,8.04970625 L15.0509531,7.58103958 L14.6724906,7.26979583 L15.1666937,7.23432917 L15.3537719,6.78743333 L15.5408906,7.23432917 L16.0350937,7.26983542 L15.6565906,7.58107917 L15.7748906,8.04974583"></path>
                                    </g>
                                </g>
                            </g>
                        </g>
                    </g>
                </g>
            </g>
        </g>
    </g>
</svg>