<?xml version="1.0" encoding="UTF-8" standalone="no"?>
<svg width="24px" height="18px" viewBox="0 0 24 18" version="1.1" xmlns="http://www.w3.org/2000/svg" xmlns:xlink="http://www.w3.org/1999/xlink">
    <!-- Generator: sketchtool 39.1 (31720) - http://www.bohemiancoding.com/sketch -->
    <title>A204F734-3DB1-49FB-A546-0F9A7E46B19E</title>
    <desc>Created with sketchtool.</desc>
    <defs>
        <rect id="path-1" x="0" y="0" width="24" height="18"></rect>
    </defs>
    <g id="Exports" stroke="none" stroke-width="1" fill="none" fill-rule="evenodd">
        <g id="04-NS-country-L" transform="translate(-104.000000, -665.000000)">
            <g id="Group-10" transform="translate(72.000000, 344.000000)">
                <g id="Group-5" transform="translate(32.000000, 41.000000)">
                    <g id="Group-8-Copy" transform="translate(0.000000, 278.000000)">
                        <g id="br" transform="translate(0.000000, 2.000000)">
                            <mask id="mask-2" fill="white">
                                <use xlink:href="#path-1"></use>
                            </mask>
                            <g id="Mask"></g>
                            <g mask="url(#mask-2)">
                                <polygon id="Fill-1" fill="#229E45" points="0 18 24 18 24 0 0 0"></polygon>
                                <polygon id="Fill-2" fill="#F9E508" points="12.052725 16.3475625 23.3583375 9.0099375 11.9842875 1.6524375 0.641625 9.027525 12.052725 16.347525"></polygon>
                                <g id="Group-49" transform="translate(7.387500, 4.200000)">
                                    <path d="M9.591375,4.8001875 C9.591375,7.4374875 7.4500125,9.5754375 4.808475,9.5754375 C2.1669,9.5754375 0.025575,7.4374875 0.025575,4.8001875 C0.025575,2.1628875 2.166975,0.0249375 4.808475,0.0249375 C7.45005,0.0249375 9.5914125,2.1628875 9.5914125,4.8001875 L9.591375,4.8001875 Z" id="Fill-3" fill="#2B49A3"></path>
                                    <path d="M8.3244,7.039125 L8.244,6.9965625 L8.1604875,7.0344375 L8.1792375,6.9493125 L8.1147375,6.8868375 L8.2069875,6.8769 L8.2502625,6.800475 L8.2888875,6.879525 L8.3798625,6.894675 L8.3116125,6.9532875 M0.8348625,6.5851125 L0.7362375,6.5281875 L0.6337125,6.5788875 L0.6565875,6.465 L0.5774625,6.3815625 L0.6907125,6.3682875 L0.7438125,6.266175 L0.7912125,6.37185 L0.9028875,6.3921 L0.81915,6.470475 M6.1836,4.813725 L6.08085,4.7544 L5.973975,4.8072 L5.997975,4.68855 L5.915475,4.60155 L6.0334125,4.58775 L6.0888,4.481325 L6.138225,4.591425 L6.2545875,4.6125375 L6.167325,4.6942875 M6.454275,3.531375 L6.323775,3.4561125 L6.188175,3.5231625 L6.21855,3.372525 L6.113775,3.262125 L6.26355,3.2445 L6.3338625,3.1093875 L6.3966,3.2491875 L6.54435,3.276 L6.4335375,3.379725 M1.529475,6.228 L1.381725,6.1426875 L1.2282,6.218625 L1.26255,6.048075 L1.14405,5.92305 L1.31355,5.903175 L1.3931625,5.750175 L1.4641875,5.908425 L1.6314375,5.9388 L1.506,6.05625 M1.054875,4.257 L0.907125,4.171725 L0.7536,4.2476625 L0.78795,4.0771125 L0.66945,3.952125 L0.83895,3.93225 L0.918525,3.77925 L0.98955,3.9375 L1.1568,3.967875 L1.0313625,4.08525 M5.001375,5.738625 L4.853625,5.6533875 L4.7001375,5.729325 L4.7344875,5.5587 L4.6159125,5.43375 L4.7854875,5.413875 L4.8651,5.260875 L4.936125,5.419125 L5.103375,5.4495 L4.9779,5.566875 M8.297025,6.709125 L8.1717,6.636825 L8.0415,6.70125 L8.0706375,6.556575 L7.9701375,6.4505625 L8.113875,6.4336875 L8.181375,6.3039375 L8.2416375,6.4381875 L8.3835,6.4639125 L8.2771125,6.56355 M5.059875,7.1753625 L4.932225,7.1017125 L4.799625,7.1672625 L4.829325,7.0198875 L4.72695,6.9118875 L4.87335,6.89475 L4.942125,6.7626375 L5.003475,6.899325 L5.1479625,6.925575 L5.0395875,7.0270125 M6.441375,8.4718875 L6.293625,8.3866125 L6.140175,8.46255 L6.174525,8.291925 L6.056025,8.166975 L6.225525,8.1471 L6.3051,7.9941 L6.376125,8.15235 L6.543375,8.182725 L6.4179375,8.3001 M3.23625,7.660275 L3.0883875,7.575 L2.9349,7.6509375 L2.9692875,7.4803125 L2.8507125,7.3553625 L3.0202125,7.3354875 L3.0998625,7.1824875 L3.1708875,7.3407375 L3.3381375,7.3711125 L3.2127,7.4884875" id="Fill-5" fill="#FFFFEF"></path>
                                    <polyline id="Fill-7" fill="#FFFFEF" points="0.8348625 6.5851125 0.7362375 6.5281875 0.6337125 6.5788875 0.6565875 6.465 0.5774625 6.3815625 0.6907125 6.3682875 0.7438125 6.266175 0.7912125 6.37185 0.9028875 6.3921 0.81915 6.470475"></polyline>
                                    <path d="M3.23625,5.2723875 L3.088425,5.1871125 L2.9349375,5.26305 L2.969325,5.0925 L2.85075,4.967475 L3.02025,4.9476 L3.0999,4.7946 L3.170925,4.95285 L3.338175,4.983225 L3.2127375,5.100675 M4.9761,8.5932375 L4.914,8.5573875 L4.8495,8.5892625 L4.863975,8.5176375 L4.8141,8.4651375 L4.88535,8.456775 L4.9188375,8.3924625 L4.94865,8.4589125 L5.018925,8.4716625 L4.9661625,8.5210125 M4.8477375,6.5401125 L4.774425,6.4978125 L4.6983,6.5354625 L4.715325,6.450825 L4.656525,6.3888 L4.7406375,6.3789 L4.780125,6.303 L4.815375,6.381525 L4.898325,6.3966 L4.836075,6.4548375 M5.9997,7.547475 L5.926425,7.5051 L5.8503,7.542825 L5.867325,7.4581875 L5.80845,7.3962 L5.8926,7.3863375 L5.9320875,7.3104 L5.9673375,7.3888875 L6.0502125,7.4039625 L5.9880375,7.4622375 M6.67815,7.547475 L6.6048375,7.5051 L6.5286375,7.542825 L6.5457,7.4581875 L6.4869,7.3962 L6.570975,7.3863375 L6.6105,7.3104 L6.64575,7.3888875 L6.7287375,7.4039625 L6.6664875,7.4622375 M7.4018625,8.517375 L7.3144875,8.4650625 L7.2238125,8.5115625 L7.2441375,8.4070875 L7.1740125,8.3304375 L7.27425,8.3182875 L7.3213125,8.2245375 L7.3633125,8.3215125 L7.462125,8.3401125 L7.3879875,8.4120375 M7.3965,8.088375 L7.300725,8.0360625 L7.201275,8.0825625 L7.22355,7.9780875 L7.146675,7.901475 L7.25655,7.8892875 L7.30815,7.7955375 L7.3541625,7.8925125 L7.4625375,7.9111125 L7.381275,7.9831125 M8.861325,6.605625 L8.7880125,6.56325 L8.7118875,6.600975 L8.7289125,6.5163375 L8.67015,6.454275 L8.7542625,6.44445 L8.79375,6.36855 L8.829,6.447 L8.911875,6.462075 L8.8497,6.5203125 M7.78185,7.547625 L7.705725,7.5036375 L7.626675,7.5427875 L7.644375,7.4548875 L7.58325,7.3904625 L7.670625,7.3801875 L7.7116125,7.301325 L7.7482125,7.3829625 L7.8343125,7.3986 L7.7697,7.4591625 M7.405875,7.5567 L7.3242,7.50945 L7.2393,7.551525 L7.2583125,7.45695 L7.1927625,7.38765 L7.2865125,7.376625 L7.3305375,7.2918 L7.3698375,7.37955 L7.4623125,7.396425 L7.3929375,7.4614875 M8.20275,7.4523 L8.104125,7.395375 L8.0016375,7.446 L8.0245875,7.3321875 L7.9454625,7.2487125 L8.0586,7.2354375 L8.1117375,7.1332875 L8.1591375,7.238925 L8.2708125,7.259175 L8.187075,7.33755 M1.9187625,5.822175 L1.8569625,5.786475 L1.7926875,5.8182375 L1.8070875,5.7469125 L1.757475,5.6946375 L1.82835,5.6863125 L1.861725,5.6223375 L1.891425,5.688525 L1.961325,5.701275 L1.908825,5.7504 M4.5144,6.155775 L4.415775,6.09885 L4.31325,6.14955 L4.3362,6.0356625 L4.257075,5.952225 L4.37025,5.9389875 L4.4233875,5.8368375 L4.4707875,5.942475 L4.5825375,5.962725 L4.4987625,6.0411 M5.471325,6.15615 L5.3727,6.09915 L5.2702125,6.1498875 L5.2930875,6.0360375 L5.2139625,5.9526 L5.3271375,5.9393625 L5.380275,5.8372125 L5.4277125,5.94285 L5.53935,5.9631 L5.4556125,6.041475 M2.21025,7.1071875 L2.111625,7.0502625 L2.0091,7.1009625 L2.03205,6.9870375 L1.952925,6.9036 L2.0660625,6.890325 L2.1192,6.788175 L2.1666375,6.8938125 L2.278275,6.9140625 L2.1945375,6.9924375 M2.4053625,6.584775 L2.3067375,6.527775 L2.20425,6.5785125 L2.227125,6.464625 L2.148,6.3811875 L2.26125,6.3679125 L2.31435,6.2658375 L2.3617875,6.371475 L2.4734625,6.391725 L2.389725,6.4701 M0.8348625,6.5851125 L0.7362375,6.5281875 L0.6337125,6.5788875 L0.6565875,6.465 L0.5774625,6.3815625 L0.6907125,6.3682875 L0.7438125,6.266175 L0.7912125,6.37185 L0.9028875,6.3921 L0.81915,6.470475" id="Fill-9" fill="#FFFFEF"></path>
                                    <path d="M9.2763,6.5181375 C9.3492,6.327525 9.443175,6.0400125 9.4931625,5.7761625 C6.9528375,3.5446125 4.1209125,2.401425 0.5426625,2.6366625 C0.4143375,2.8825875 0.3116625,3.140025 0.2250375,3.41865 C4.4649,3.014175 7.5726375,4.891275 9.2764125,6.518175 L9.2763,6.5181375 Z" id="Fill-11" fill="#FFFFFF"></path>
                                    <path d="M2.48205,3.300375 L2.5309875,2.776875 L2.9175,2.8134 L2.9093625,2.9019 L2.628,2.875425 L2.617125,2.9914875 L2.8788,3.016125 L2.87055,3.104325 L2.6088,3.07965 L2.5955625,3.22215 L2.8867125,3.249525 L2.8784625,3.3378 L2.4820125,3.300375 L2.48205,3.300375 Z M3.0111,3.3618 L3.087375,2.8417875 L3.243825,2.8650375 L3.2859375,3.2335125 L3.4306875,2.892525 L3.5877375,2.9157 L3.5115,3.435825 L3.414375,3.4215 L3.474375,3.012075 L3.3115125,3.406275 L3.210825,3.39135 L3.1683,2.96685 L3.1083,3.3761625 L3.0111,3.3618375 L3.0111,3.3618 Z M6.395175,4.2010125 L6.435675,4.1222625 L6.638175,4.2271125 L6.5427,4.4131875 C6.513075,4.4221125 6.47595,4.4242875 6.430875,4.4195625 C6.38625,4.4146875 6.3448125,4.402425 6.3064875,4.3825875 C6.2577375,4.35735 6.2206125,4.3252875 6.1948875,4.2861375 C6.169275,4.2467625 6.1570125,4.20345 6.1583625,4.1560125 C6.1598625,4.1082375 6.171975,4.062 6.195,4.01715 C6.2199,3.968475 6.252375,3.930525 6.292125,3.90315 C6.3317625,3.8758875 6.3765,3.862275 6.426,3.862275 C6.4638,3.8622 6.5049,3.87375 6.549375,3.896625 C6.6072,3.926625 6.6460125,3.9621375 6.665775,4.00335 C6.686025,4.04445 6.6897,4.08885 6.67695,4.1366625 L6.57465,4.1059125 C6.5799,4.0795875 6.5767875,4.0550625 6.565275,4.032525 C6.554175,4.0098 6.53505,3.9914625 6.5080125,3.9774 C6.466875,3.9561375 6.4275375,3.952275 6.3897,3.9659625 C6.3522,3.979575 6.320325,4.0120875 6.293925,4.0634625 C6.265425,4.1189625 6.2562375,4.1669625 6.26655,4.2075375 C6.2769375,4.247775 6.30195,4.2782625 6.34185,4.298925 C6.3615,4.30905 6.3831,4.315425 6.406725,4.3179375 C6.430725,4.3204125 6.452475,4.3198125 6.4724625,4.3160625 L6.5028375,4.2567375 L6.3951375,4.20105 L6.395175,4.2010125 Z M7.171125,4.83825 L7.443975,4.389525 L7.7753625,4.592625 L7.7292375,4.6686 L7.4881125,4.520775 L7.42755,4.620225 L7.6519125,4.757775 L7.605975,4.8333375 L7.381575,4.695825 L7.3074375,4.817925 L7.557075,4.970925 L7.511025,5.0465625 L7.1711625,4.838175 L7.171125,4.83825 Z M7.70385,4.9810125 L7.79655,5.0267625 C7.7836125,5.0594625 7.7809125,5.0878125 7.7883,5.1115125 C7.7961,5.1354 7.8135,5.155875 7.8408,5.172825 C7.8698625,5.1909 7.8953625,5.198325 7.9174125,5.195175 C7.9399125,5.19195 7.9563,5.1822 7.9663875,5.1657 C7.9729125,5.1552 7.9752375,5.1442125 7.9735125,5.133075 C7.9720875,5.12175 7.9653375,5.1085125 7.9532625,5.0934 C7.9450125,5.0832 7.9251375,5.0619 7.893375,5.0291625 C7.8526125,4.987275 7.8279,4.9515375 7.8192,4.9219125 C7.8070875,4.8802875 7.811925,4.841925 7.8336375,4.806525 C7.8478125,4.7838 7.8672375,4.76655 7.8921375,4.754775 C7.9174125,4.742925 7.9453875,4.7392875 7.9757625,4.7439 C8.0064375,4.7486625 8.03895,4.7616375 8.073075,4.7829 C8.129025,4.817625 8.163375,4.8561 8.1763125,4.898175 C8.1894375,4.9404 8.1841875,4.9824375 8.1603,5.0243625 L8.0679,4.972425 C8.0782125,4.947075 8.0801625,4.925475 8.073525,4.907625 C8.067225,4.88955 8.0514,4.87275 8.026125,4.857 C7.9999875,4.8407625 7.97625,4.83345 7.954875,4.835025 C7.941,4.8359625 7.9306125,4.8423375 7.92345,4.853925 C7.917,4.8645 7.9158,4.8762 7.920075,4.889325 C7.9255125,4.9059375 7.94685,4.9330125 7.9842,4.970625 C8.021475,5.008125 8.0472,5.03895 8.06115,5.0630625 C8.0754,5.0870625 8.08245,5.1124875 8.0822625,5.139075 C8.082525,5.165625 8.07375,5.1929625 8.0563875,5.2213125 C8.0406375,5.2468125 8.0185875,5.2663875 7.9907625,5.28 C7.9627875,5.2935 7.9324125,5.297775 7.89975,5.2926 C7.8673125,5.28735 7.8316875,5.2725 7.79295,5.2485375 C7.736775,5.21355 7.701525,5.1736875 7.6873875,5.1289125 C7.6733625,5.0839125 7.6787625,5.0346375 7.7038125,4.98105 L7.70385,4.9810125 Z M8.134275,5.2635 L8.225025,5.3131125 C8.210775,5.3452875 8.207025,5.3734875 8.2134,5.3974875 C8.22015,5.421675 8.2368375,5.4427875 8.2634625,5.4607875 C8.2915875,5.4801 8.3168625,5.4885375 8.3390625,5.4862875 C8.3615625,5.4840375 8.37825,5.4748125 8.389125,5.4587625 C8.3959875,5.4484875 8.3988,5.43765 8.3975625,5.4264 C8.39655,5.41515 8.3903625,5.40165 8.379,5.3860875 C8.371125,5.3755875 8.352,5.35335 8.321625,5.31945 C8.282625,5.27595 8.259375,5.239275 8.251875,5.20935 C8.241375,5.167275 8.24775,5.1291 8.271,5.0946 C8.286,5.072475 8.3061,5.055975 8.33145,5.045175 C8.357175,5.0343 8.3851875,5.0318625 8.41545,5.03775 C8.445825,5.0436375 8.47785,5.058 8.511075,5.0806125 C8.5655625,5.117625 8.59845,5.1574125 8.6097,5.2000125 C8.6211375,5.2426875 8.6140875,5.2845 8.5885125,5.32545 L8.4983625,5.2698 C8.5096125,5.2448625 8.512425,5.2233 8.5065375,5.2051875 C8.501025,5.187 8.4859125,5.1695625 8.4611625,5.1528 C8.4358125,5.13555 8.4123375,5.127225 8.3908875,5.1279375 C8.3770125,5.1283125 8.3663625,5.1342375 8.3587875,5.1454875 C8.3518125,5.155875 8.3502375,5.1676125 8.3539125,5.18085 C8.3587875,5.197725 8.3789625,5.2255875 8.41485,5.264625 C8.4505875,5.303625 8.475,5.3355 8.487975,5.3601375 C8.5012875,5.384775 8.507325,5.4103875 8.50605,5.4370125 C8.5051875,5.4634875 8.4954,5.490525 8.476875,5.5180125 C8.46,5.543025 8.4373875,5.561625 8.408925,5.574 C8.380425,5.586375 8.35005,5.58945 8.3175375,5.583 C8.2852875,5.5763625 8.2502625,5.5602375 8.2126125,5.534625 C8.1577875,5.497425 8.1241125,5.4561375 8.11185,5.410875 C8.099775,5.3653875 8.1071625,5.3162625 8.13435,5.2636875 L8.134275,5.2635 Z" id="Fill-13" fill="#309E3A"></path>
                                    <path d="M0.73125,2.973 C0.73275,2.919375 0.7419,2.87475 0.75885,2.83875 C0.7714125,2.8123875 0.788325,2.7888 0.809325,2.7681 C0.83055,2.7474 0.853575,2.73225 0.878475,2.722725 C0.911475,2.7097125 0.949275,2.7037875 0.9918375,2.7049125 C1.0689375,2.7071625 1.1299125,2.7328125 1.174725,2.78205 C1.2199125,2.8313625 1.2412875,2.898825 1.239,2.9843625 C1.23675,3.0691125 1.212,3.135 1.164675,3.1817625 C1.117425,3.2282625 1.0554,3.2505375 0.9785625,3.2484 C0.900675,3.2463 0.8395125,3.2208 0.7948125,3.1720125 C0.7501875,3.1229625 0.729,3.0565875 0.7312875,2.973 L0.73125,2.973 Z" id="Fill-15" fill="#309E3A"></path>
                                    <path d="" id="Fill-17" fill="#F8FFFF"></path>
                                    <path d="" id="Fill-19" fill="#309E3A"></path>
                                    <path d="" id="Fill-21" fill="#FFFFFF"></path>
                                    <path d="" id="Fill-23" fill="#309E3A"></path>
                                    <path d="" id="Fill-25" fill="#FFFFFF"></path>
                                    <path d="" id="Fill-27" fill="#309E3A"></path>
                                    <path d="" id="Fill-29" fill="#FFFFFF"></path>
                                    <path d="M5.010225,3.828975 L5.184225,3.333225 L5.39415,3.407475 C5.44695,3.42615 5.4836625,3.444225 5.5042875,3.4616625 C5.5252875,3.479025 5.5389,3.5015625 5.545275,3.529425 C5.55165,3.5572875 5.549775,3.5858625 5.539425,3.61515 C5.526375,3.65235 5.504625,3.679275 5.474325,3.6958875 C5.4441,3.7123125 5.4061875,3.716025 5.360625,3.7070625 C5.3777625,3.7273125 5.3907,3.7474125 5.39925,3.7674375 C5.408175,3.7875375 5.417625,3.8210625 5.4279375,3.86805 L5.4543375,3.986175 L5.3350875,3.94395 L5.30085,3.8106 C5.288775,3.762975 5.279775,3.7326 5.27385,3.7192875 C5.267925,3.7057875 5.26035,3.6953625 5.2510875,3.6880125 C5.2418625,3.6804375 5.22585,3.6726375 5.2028625,3.6645 L5.1827625,3.6573 L5.1100875,3.8643 L5.0103375,3.828975 L5.010225,3.828975 Z" id="Fill-31" fill="#309E3A"></path>
                                    <path d="" id="Fill-33" fill="#FFFFFF"></path>
                                    <path d="M5.625375,3.81 C5.641275,3.7588875 5.6622,3.71835 5.6881125,3.6885 C5.7075,3.666375 5.73,3.6483 5.7559125,3.634125 C5.7820125,3.6199875 5.8083,3.6117 5.8347375,3.6091875 C5.8699875,3.6057 5.907975,3.6103125 5.9486625,3.6230625 C6.02235,3.6460875 6.0740625,3.68745 6.1039125,3.7471125 C6.134025,3.80685 6.136425,3.8776125 6.1110375,3.9592875 C6.0859125,4.0403625 6.0442875,4.0969125 5.9861625,4.1290875 C5.9281125,4.1610375 5.8623375,4.1654625 5.7889125,4.142475 C5.7145875,4.119225 5.6625375,4.07805 5.6327625,4.01895 C5.603025,3.9595875 5.6005875,3.88995 5.6254125,3.810075 L5.625375,3.81 Z" id="Fill-35" fill="#309E3A"></path>
                                    <path d="" id="Fill-37" fill="#FFFFFF"></path>
                                    <path d="M6.6489375,4.542 L6.8895,4.075125 L7.087125,4.177725 C7.13685,4.2036 7.17075,4.226475 7.18875,4.246725 C7.207125,4.266675 7.21755,4.290975 7.2200625,4.319475 C7.222575,4.347975 7.2166125,4.3759125 7.2024375,4.40355 C7.1844375,4.438575 7.1592,4.4622 7.1268,4.4745 C7.09455,4.486575 7.0566,4.485 7.0126875,4.4697 C7.0268625,4.492125 7.036875,4.51395 7.0426875,4.53495 C7.0486125,4.5561 7.0534875,4.5906 7.0572,4.6385625 L7.067025,4.759125 L6.9547875,4.7008125 L6.939225,4.5640125 C6.9337875,4.5151125 6.9291,4.4837625 6.92505,4.4698125 C6.9211125,4.455675 6.914925,4.4442375 6.9067875,4.4356875 C6.8987625,4.42695 6.8839125,4.4169375 6.8623125,4.4057625 L6.8433,4.3958625 L6.7429125,4.59075 L6.648975,4.542 L6.6489375,4.542 Z" id="Fill-39" fill="#309E3A"></path>
                                    <path d="" id="Fill-41" fill="#FFFFFF"></path>
                                    <path d="M8.5915125,5.5014 C8.6214,5.4570375 8.6530875,5.4243 8.6866125,5.40315 C8.7114375,5.3877 8.73825,5.3769 8.7670875,5.370825 C8.7961125,5.364825 8.8236,5.364525 8.8495875,5.369775 C8.8844625,5.376675 8.9194875,5.392125 8.954775,5.4160875 C9.018675,5.4594375 9.056325,5.5140375 9.0678,5.5798125 C9.079425,5.6457375 9.0613125,5.7140625 9.0135,5.7850125 C8.9661375,5.85525 8.910075,5.8974375 8.8452,5.9113875 C8.7804,5.925075 8.7162,5.9103375 8.65245,5.8670625 C8.588025,5.8232625 8.55,5.7687375 8.53845,5.7034875 C8.5270875,5.6380125 8.54475,5.570625 8.5914375,5.5013625 L8.5915125,5.5014 Z" id="Fill-43" fill="#309E3A"></path>
                                    <path d="" id="Fill-45" fill="#FFFFFF"></path>
                                    <polygon id="Fill-47" fill="#309E3A" points="3.9309 3.4696125 4.0152 3.1006125 4.28775 3.163425 4.273575 3.22575 4.0753125 3.1801125 4.0564125 3.2618625 4.2411375 3.3044625 4.2268125 3.366525 4.0423875 3.324075 4.0193625 3.4244625 4.224675 3.4717125 4.2105 3.5339625 3.9309 3.469575"></polygon>
                                </g>
                            </g>
                        </g>
                    </g>
                </g>
            </g>
        </g>
    </g>
</svg>