<?xml version="1.0" encoding="UTF-8" standalone="no"?>
<svg width="24px" height="18px" viewBox="0 0 24 18" version="1.1" xmlns="http://www.w3.org/2000/svg" xmlns:xlink="http://www.w3.org/1999/xlink">
    <!-- Generator: sketchtool 39.1 (31720) - http://www.bohemiancoding.com/sketch -->
    <title>18EB20D5-D247-48BA-ACD7-6E6265561E40</title>
    <desc>Created with sketchtool.</desc>
    <defs>
        <rect id="path-1" x="0" y="0" width="24" height="18"></rect>
    </defs>
    <g id="Exports" stroke="none" stroke-width="1" fill="none" fill-rule="evenodd">
        <g id="04-NS-country-L" transform="translate(-688.000000, -895.000000)">
            <g id="Group-10" transform="translate(72.000000, 344.000000)">
                <g id="Group-9" transform="translate(616.000000, 41.000000)">
                    <g id="Group-8-Copy-2" transform="translate(0.000000, 508.000000)">
                        <g id="brunei" transform="translate(0.000000, 2.000000)">
                            <mask id="mask-2" fill="white">
                                <use xlink:href="#path-1"></use>
                            </mask>
                            <g id="Mask"></g>
                            <g id="bn" mask="url(#mask-2)">
                                <g transform="translate(-1.000000, 0.000000)" id="Group">
                                    <g>
                                        <polygon id="Shape" fill="#F7E017" points="0 0 26 0 26 19 0 19"></polygon>
                                        <polygon id="Shape" fill="#FFFFFF" points="0 1.31943125 0 9.76390208 26 13.7222354 26 9.23609792"></polygon>
                                        <polygon id="Shape" fill="#000000" points="0 5.80556875 0 9.76390208 26 17.6805688 26 13.7222354"></polygon>
                                        <g transform="translate(6.472982, 3.931964)" fill="#CF1126">
                                            <path d="M5.87007102,11.1023888 C5.34573506,11.0345691 4.86500349,10.8720127 4.53106432,10.6492894 C4.46633483,10.6060114 4.40539703,10.5706501 4.39591781,10.5706501 C4.38616776,10.5706501 4.37831356,10.6186781 4.37831356,10.6780534 C4.37831356,10.8461515 4.30897988,10.9308602 4.13456234,10.9749299 C3.96772817,11.0171523 3.71314357,10.9319158 3.50676753,10.7651372 C3.29307897,10.5922891 3.04634857,10.460344 2.83753502,10.4075659 C2.66555499,10.3637602 2.43724135,10.3708852 2.27230303,10.4247188 C2.19565681,10.4497884 2.10844804,10.4851496 2.07811456,10.5033581 C2.04805191,10.5215665 2.01419757,10.5363443 2.00336418,10.5363443 C1.97411404,10.5363443 1.97817656,10.3555796 2.00878088,10.2977876 C2.04913525,10.2220511 2.14853158,10.1473702 2.26444882,10.1062033 C2.32294911,10.085356 2.37088685,10.0587031 2.37088685,10.046828 C2.37088685,10.034953 2.35111592,9.99141107 2.32701164,9.95050809 C2.24846958,9.81645186 2.2806989,9.68661788 2.41774126,9.58449237 C2.55803362,9.47999184 2.79555564,9.46204731 3.00545253,9.53989492 C3.05826529,9.5594228 3.1075572,9.5755201 3.11486974,9.5755201 C3.14249488,9.5755201 3.12570313,9.5377838 3.04959858,9.4298527 C2.96184814,9.30476875 2.94451472,9.24301844 2.95534811,9.09418436 C2.96943151,8.90576675 3.1270573,8.75165487 3.32016243,8.73793258 C3.47778822,8.72684919 3.57583038,8.77857167 3.80847738,8.99443386 C4.50316835,9.63990931 5.25852629,9.99563331 6.13955153,10.0919532 C6.36190681,10.1162311 6.80932571,10.1033005 7.07176453,10.0647725 C7.86449766,9.94839696 8.66318915,9.55995058 9.28692143,8.98757272 C9.45971397,8.8289747 9.54286021,8.78701616 9.68450676,8.78648838 C9.80773654,8.7859606 9.8941328,8.82475246 9.98242491,8.91975293 C10.0628628,9.0068367 10.0902171,9.08943434 10.0815504,9.22164333 C10.0758629,9.30635209 10.0617795,9.34804674 10.01005,9.43011659 C9.93367467,9.5512422 9.94667473,9.56232559 10.0978005,9.5053253 C10.3020098,9.42774158 10.5536153,9.46363065 10.6893034,9.58924239 C10.8087415,9.69981239 10.8201166,9.81038239 10.7272203,9.96027202 C10.693366,10.0151612 10.6657408,10.0666198 10.6657408,10.0748004 C10.6657408,10.0898421 10.6914701,10.0969672 10.8155124,10.116495 C10.9777424,10.1418285 11.0706387,10.2592596 11.0706387,10.438705 C11.0706387,10.4925386 11.0638678,10.5363443 11.0554719,10.5363443 C11.0473469,10.5363443 10.9858674,10.5144415 10.9189713,10.4875247 C10.7299286,10.4115243 10.6224073,10.3919964 10.4014062,10.3933159 C10.2332178,10.3943714 10.1752592,10.4020242 10.0579878,10.4392328 C9.87842439,10.4964969 9.6864026,10.606803 9.52986015,10.7427065 C9.35733845,10.8925961 9.24873374,10.9398325 9.08081624,10.938513 C8.92481546,10.9369297 8.81810659,10.89286 8.76177298,10.8060401 C8.73171032,10.7595955 8.72737697,10.7313592 8.73468951,10.6263309 C8.73956453,10.5579833 8.73848119,10.5020386 8.73279366,10.5020386 C8.7268353,10.5020386 8.66616833,10.539511 8.59764715,10.5856918 C8.41781292,10.7060258 8.30324985,10.7656649 8.09741549,10.8450959 C7.46962068,11.0870832 6.56367865,11.1918476 5.87007102,11.1023888 L5.87007102,11.1023888 Z" id="Shape"></path>
                                            <path d="M6.15715579,9.92675797 C5.11227556,9.82903942 4.1125164,9.29875205 3.50462794,8.45802423 C2.84460381,7.58098513 2.63660277,6.42298211 2.83807669,5.36417543 C2.94516473,4.88212719 3.16115539,4.39976228 3.52989682,4.05649389 C3.23604118,4.66352054 3.13675318,5.35929346 3.29345813,6.01693425 C3.53693852,7.3298672 4.67569005,8.4412936 6.03809686,8.633564 C6.57705789,8.78559115 7.13462526,8.62501396 7.64945491,8.46222009 C8.78520018,8.07219036 9.65038159,7.02182816 9.75592586,5.8475959 C9.84627631,5.21222745 9.74617581,4.55155192 9.45240143,3.97621849 C9.61985852,4.0624842 9.83121791,4.40073867 9.95588311,4.62821203 C10.3892728,5.44635084 10.4090708,6.42675574 10.1539174,7.2998365 C9.80779071,8.41073511 8.93610926,9.38398859 7.783816,9.73770702 C7.26088839,9.90416897 6.70475644,9.95491505 6.15723704,9.92683713 L6.15715579,9.92675797 Z" id="Shape"></path>
                                            <g id="a" transform="translate(0.000000, 4.037520)">
                                                <path d="" id="Shape"></path>
                                                <path d="" id="Shape"></path>
                                                <path d="" id="Shape"></path>
                                                <path d="M0.0685211759,0.0184723146 C-0.0196896818,0.104500522 0.047666905,0.263124927 0.0429002145,0.375858824 C0.0886171098,0.72308556 0.145411144,1.07474565 0.278445142,1.40160006 C0.441352207,1.72095999 0.78734352,1.89172335 0.997050819,2.17395393 C1.07199078,2.30998933 1.04539481,2.47360126 1.06118447,2.62240895 C1.0735887,3.02790264 1.06974285,3.43368661 1.0624574,3.83923308 C1.25038959,3.93111966 1.45446352,4.02358678 1.67064377,3.98825189 C1.79874858,3.95843229 2.0365956,3.9399072 2.06324573,3.81558852 C2.05287276,3.11627947 2.04618315,2.41670653 2.03662268,1.71750303 C1.96376815,1.50325057 1.74003162,1.3923903 1.57270995,1.25529933 C1.43473378,1.12247939 1.30634127,0.980529061 1.18844969,0.830462486 C1.11743684,0.713902181 0.839939616,0.671890859 0.940338035,0.874716874 C0.999190413,1.05030942 1.14942241,1.18109341 1.18704135,1.36560544 C1.19524764,1.46670178 1.31912743,1.6526916 1.21339357,1.71167106 C1.14611823,1.60025661 1.04867191,1.50544086 0.924087954,1.44888919 C0.80405402,1.36169986 0.605613445,1.32538857 0.562279895,1.17135586 C0.530456819,0.952854764 0.415622911,0.75488433 0.26742217,0.591166845 C0.305609861,0.394938086 0.267557588,0.149493803 0.0934650507,0.024066787 L0.0685211759,0.0184723146 L0.0685211759,0.0184723146 Z" id="Shape"></path>
                                                <path d="M0.336918351,0.0577919556 C0.256670033,0.0704059076 0.259405464,0.17005085 0.296536899,0.222433057 C0.336024597,0.335589178 0.346776734,0.458482848 0.325407877,0.576283437 C0.468056507,0.738998139 0.578557059,0.933669946 0.611842643,1.14734185 C0.612655147,1.22767003 0.699403497,1.25424377 0.755628778,1.29393286 C0.887552354,1.3757916 1.03588851,1.43514051 1.1533766,1.53758269 C1.17810381,1.56333837 1.19676432,1.59107323 1.17929548,1.5385063 C1.16095997,1.47129347 1.15150784,1.39711393 1.09747632,1.34626229 C1.02340303,1.26867857 0.930912988,1.19946016 0.823039532,1.17578921 C0.81404782,1.06722478 0.760964221,0.967500671 0.711943143,0.871471024 C0.657613705,0.779663621 0.600846754,0.68131174 0.507733789,0.621778109 C0.511471307,0.46085786 0.50876296,0.292047294 0.437695938,0.143556273 C0.416841668,0.105397749 0.386156097,0.0600878004 0.336945435,0.0577919556 L0.336918351,0.0577919556 Z" id="Shape"></path>
                                                <path d="M0.561440307,0.121917276 C0.505540028,0.138093746 0.516210914,0.205280193 0.533923503,0.246367899 C0.560709054,0.360262912 0.564906991,0.477905167 0.56271323,0.594280749 C0.66538666,0.673447812 0.729628648,0.788240052 0.788101857,0.900050334 C0.82474579,0.974731263 0.859493881,1.05181359 0.873550201,1.133989 C0.956858951,1.16085303 1.02976765,1.21173106 1.09484922,1.26796606 C1.06906576,1.1919129 1.01154047,1.133039 0.972865281,1.06360948 C0.930858821,0.991382735 0.89072112,0.91604208 0.872927281,0.834209727 C0.792814381,0.750899588 0.74869541,0.632861498 0.766191331,0.51880815 C0.769793432,0.392774186 0.72800364,0.262570757 0.641444874,0.167570282 C0.619642682,0.146643789 0.593615468,0.123500618 0.561440307,0.121917276 L0.561440307,0.121917276 Z" id="Shape"></path>
                                                <path d="" id="Shape"></path>
                                            </g>
                                            <g id="a-link" transform="translate(11.889643, 6.438921) scale(-1, 1) translate(-11.889643, -6.438921) translate(10.725054, 4.037520)">
                                                <g id="a">
                                                    <path d="" id="Shape"></path>
                                                    <path d="" id="Shape"></path>
                                                    <path d="" id="Shape"></path>
                                                    <path d="M0.0685211759,0.0184723146 C-0.0196896818,0.104500522 0.047666905,0.263124927 0.0429002145,0.375858824 C0.0886171098,0.72308556 0.145411144,1.07474565 0.278445142,1.40160006 C0.441352207,1.72095999 0.78734352,1.89172335 0.997050819,2.17395393 C1.07199078,2.30998933 1.04539481,2.47360126 1.06118447,2.62240895 C1.0735887,3.02790264 1.06974285,3.43368661 1.0624574,3.83923308 C1.25038959,3.93111966 1.45446352,4.02358678 1.67064377,3.98825189 C1.79874858,3.95843229 2.0365956,3.9399072 2.06324573,3.81558852 C2.05287276,3.11627947 2.04618315,2.41670653 2.03662268,1.71750303 C1.96376815,1.50325057 1.74003162,1.3923903 1.57270995,1.25529933 C1.43473378,1.12247939 1.30634127,0.980529061 1.18844969,0.830462486 C1.11743684,0.713902181 0.839939616,0.671890859 0.940338035,0.874716874 C0.999190413,1.05030942 1.14942241,1.18109341 1.18704135,1.36560544 C1.19524764,1.46670178 1.31912743,1.6526916 1.21339357,1.71167106 C1.14611823,1.60025661 1.04867191,1.50544086 0.924087954,1.44888919 C0.80405402,1.36169986 0.605613445,1.32538857 0.562279895,1.17135586 C0.530456819,0.952854764 0.415622911,0.75488433 0.26742217,0.591166845 C0.305609861,0.394938086 0.267557588,0.149493803 0.0934650507,0.024066787 L0.0685211759,0.0184723146 L0.0685211759,0.0184723146 Z" id="Shape"></path>
                                                    <path d="M0.336918351,0.0577919556 C0.256670033,0.0704059076 0.259405464,0.17005085 0.296536899,0.222433057 C0.336024597,0.335589178 0.346776734,0.458482848 0.325407877,0.576283437 C0.468056507,0.738998139 0.578557059,0.933669946 0.611842643,1.14734185 C0.612655147,1.22767003 0.699403497,1.25424377 0.755628778,1.29393286 C0.887552354,1.3757916 1.03588851,1.43514051 1.1533766,1.53758269 C1.17810381,1.56333837 1.19676432,1.59107323 1.17929548,1.5385063 C1.16095997,1.47129347 1.15150784,1.39711393 1.09747632,1.34626229 C1.02340303,1.26867857 0.930912988,1.19946016 0.823039532,1.17578921 C0.81404782,1.06722478 0.760964221,0.967500671 0.711943143,0.871471024 C0.657613705,0.779663621 0.600846754,0.68131174 0.507733789,0.621778109 C0.511471307,0.46085786 0.50876296,0.292047294 0.437695938,0.143556273 C0.416841668,0.105397749 0.386156097,0.0600878004 0.336945435,0.0577919556 L0.336918351,0.0577919556 Z" id="Shape"></path>
                                                    <path d="M0.561440307,0.121917276 C0.505540028,0.138093746 0.516210914,0.205280193 0.533923503,0.246367899 C0.560709054,0.360262912 0.564906991,0.477905167 0.56271323,0.594280749 C0.66538666,0.673447812 0.729628648,0.788240052 0.788101857,0.900050334 C0.82474579,0.974731263 0.859493881,1.05181359 0.873550201,1.133989 C0.956858951,1.16085303 1.02976765,1.21173106 1.09484922,1.26796606 C1.06906576,1.1919129 1.01154047,1.133039 0.972865281,1.06360948 C0.930858821,0.991382735 0.89072112,0.91604208 0.872927281,0.834209727 C0.792814381,0.750899588 0.74869541,0.632861498 0.766191331,0.51880815 C0.769793432,0.392774186 0.72800364,0.262570757 0.641444874,0.167570282 C0.619642682,0.146643789 0.593615468,0.123500618 0.561440307,0.121917276 L0.561440307,0.121917276 Z" id="Shape"></path>
                                                    <path d="" id="Shape"></path>
                                                </g>
                                            </g>
                                            <path d="M6.40984455,8.62868203 C6.04440731,8.59477214 5.71469316,8.33523612 5.60197176,7.99534553 C5.60803846,7.93678829 5.68287008,8.02809431 5.71821401,8.03424295 C5.78456851,8.07013202 5.8563397,8.09968772 5.93271508,8.10427941 C6.02907806,8.14462822 6.08863461,8.23714813 6.18058299,8.28538726 C6.22329362,8.31779298 6.37436521,8.3814433 6.34630673,8.27842056 C6.31090864,8.22458696 6.2865606,8.15637134 6.3170295,8.0947002 C6.36827142,7.98518576 6.44708432,7.88984223 6.52638472,7.79845705 C6.58469542,7.77945695 6.62374979,7.89153112 6.66543124,7.92926742 C6.72314612,8.01579702 6.79272355,8.1213795 6.75878796,8.22883559 C6.72574613,8.26865662 6.70405227,8.38841 6.79239855,8.34816674 C6.90132826,8.30145817 6.9905412,8.22303 7.08086457,8.14980047 C7.15992122,8.09599326 7.26107797,8.09219324 7.3439263,8.04503606 C7.38230358,8.03553601 7.46228106,7.96072314 7.47896448,8.00220668 C7.43357258,8.1206406 7.35757637,8.22669808 7.27632596,8.32444301 C7.14470031,8.47090208 6.96670775,8.58107624 6.76753592,8.61213612 C6.64983117,8.63314178 6.5290389,8.63757513 6.40984455,8.62870842 L6.40984455,8.62868203 Z" id="Shape"></path>
                                            <path d="M6.83938836,8.21279106 C6.84743215,8.1413296 6.83072165,8.06836395 6.79326522,8.00339418 C6.73576701,7.88923528 6.65457077,7.78790144 6.57535163,7.68778149 C6.5006825,7.64513684 6.4592448,7.78428614 6.4096008,7.82421273 C6.33222333,7.93707857 6.23510201,8.05266249 6.23038949,8.19460903 C6.18686635,8.26063436 6.1056972,8.14077543 6.07070535,8.10132384 C6.00386335,8.00919977 5.95327143,7.9002395 5.96155897,7.78499865 C5.9536506,7.5993255 5.9901862,7.41447041 6.05960113,7.24188621 C6.11200764,7.09455631 6.19707682,6.95144865 6.18843719,6.79050201 C6.19450389,6.6693764 6.1692621,6.53563684 6.06856576,6.45417394 C5.97274445,6.38091802 6.13061399,6.36529572 6.18077257,6.40329591 C6.266573,6.40889038 6.31299406,6.54706329 6.39140071,6.51286312 C6.42262795,6.44068915 6.42883006,6.35460816 6.49323455,6.29832038 C6.55642028,6.21398107 6.62247686,6.33410389 6.64408947,6.39036528 C6.68872303,6.43979192 6.64159779,6.56207864 6.71404607,6.56527172 C6.80087567,6.50597559 6.86278848,6.40635703 6.97380362,6.38466526 C7.01884343,6.35962208 7.09578756,6.38131385 7.0364206,6.43176966 C6.95424935,6.50682003 6.884049,6.60065939 6.86907185,6.71228495 C6.84393839,6.85235787 6.87990523,6.99438358 6.9425493,7.1205231 C7.0629624,7.36831601 7.15610245,7.64822435 7.09519173,7.92393684 C7.06694367,8.04648745 6.98149532,8.15206993 6.8776573,8.22318834 C6.86454891,8.23092032 6.84380297,8.23039254 6.83938836,8.21279106 L6.83938836,8.21279106 Z" id="Shape"></path>
                                            <path d="M6.70938771,6.34999008 C6.66995418,6.28074529 6.62207061,6.21250328 6.5557432,6.16539888 C6.49125746,6.16526694 6.45147184,6.24453956 6.40765079,6.28607587 C6.37693813,6.34175671 6.33961711,6.43485717 6.26397299,6.36207625 C6.14361405,6.29362313 6.12232644,6.14368072 6.12308478,6.02010093 C6.11550141,5.81980827 6.19829557,5.63286844 6.27182719,5.45044114 C6.31862743,5.33622946 6.30708987,5.20768854 6.27854389,5.09065323 C6.24260413,4.95628034 6.13191399,4.8631007 6.0467094,4.75828351 C6.05250526,4.71774998 6.16140789,4.73989037 6.20238518,4.74759596 C6.29338563,4.77007941 6.34774216,4.84853396 6.41553208,4.9039773 C6.46379482,4.88972723 6.44410514,4.79472675 6.46655733,4.75005014 C6.46823651,4.68719149 6.55411819,4.60432997 6.58954336,4.69431653 C6.64259988,4.75152792 6.58786419,4.86492155 6.65641245,4.90054672 C6.72171069,4.87698133 6.75391294,4.80741987 6.81528408,4.77599055 C6.87568021,4.73587923 6.96093897,4.7313931 7.0259393,4.7628752 C7.04882483,4.82127411 6.95443894,4.86988268 6.92708464,4.92060238 C6.8173695,5.05270582 6.77880264,5.23489562 6.82579246,5.39856033 C6.8630864,5.52694291 6.92908881,5.64677546 6.95186601,5.77945945 C6.97930156,5.92863659 6.97840781,6.0853082 6.93875761,6.23229505 C6.91508666,6.32148994 6.83578626,6.38112913 6.75391294,6.41817931 C6.73370867,6.39986533 6.72303778,6.37294853 6.70938771,6.35001647 L6.70938771,6.34999008 Z" id="Shape"></path>
                                            <path d="M6.29988567,4.69434292 C6.20888521,4.62942592 6.17882256,4.56741173 6.17882256,4.44470278 C6.17882256,4.38189691 6.19073929,4.34785507 6.23326033,4.29085479 C6.29582315,4.20640992 6.28444809,4.17975701 6.19588515,4.20456269 C6.0534261,4.24441011 5.98544659,4.20799326 5.98057157,4.08977045 C5.97840489,4.03197849 5.99086329,4.0074367 6.07075952,3.91401957 C6.13467651,3.83907475 6.15796829,3.79975511 6.14523906,3.78735227 C6.13278066,3.77521332 6.05721779,3.83907475 5.90202951,3.99292274 C5.77825806,4.11563169 5.63904903,4.24097954 5.5927363,4.2715908 C5.32623496,4.4468139 5.07165036,4.47399459 4.95546228,4.3391467 C4.89587865,4.27027135 4.89912866,4.23147949 4.96792067,4.18978484 C4.99960833,4.17078474 5.05296276,4.12697897 5.0868171,4.09240935 C5.16671333,4.01139506 5.40477702,3.84408866 5.52286095,3.78603282 C5.61873643,3.73879647 5.64148654,3.70686576 5.57919456,3.70686576 C5.49848583,3.70686576 5.23956786,3.87100547 5.04321272,4.04675634 C4.98552493,4.09874272 4.90237868,4.15653467 4.85877429,4.17527088 C4.76073214,4.21749331 4.56816867,4.23306283 4.48258491,4.20561825 C4.42218878,4.18609037 4.31195906,4.08475653 4.31195906,4.04860358 C4.31195906,4.03910353 4.33714669,4.01799231 4.36775101,4.00189501 C4.39835533,3.9860616 4.45333477,3.94726974 4.48962661,3.91639458 C4.64671073,3.78207447 4.94435806,3.643796 5.1805259,3.59550409 C5.25554711,3.58019846 5.22792197,3.54325383 5.14423405,3.54694829 C4.98200408,3.55380944 4.65998163,3.70079628 4.46768901,3.85543594 C4.24235455,4.03646463 3.90245701,4.01931176 3.7930398,3.82139411 C3.77408137,3.78735227 3.76297715,3.75542155 3.76839384,3.75040764 C3.7735397,3.74539373 3.84043587,3.72586585 3.91708209,3.70686576 C3.9999575,3.68654621 4.16408332,3.62030977 4.3208966,3.5440455 C4.567627,3.42423934 4.64075237,3.39864199 4.81056572,3.37198908 C4.8869411,3.36011402 4.89100362,3.32369717 4.81679492,3.31525269 C4.72119027,3.3041693 4.57466871,3.35087787 4.31575075,3.47490626 C3.98316575,3.63429595 3.88999862,3.66174053 3.71476857,3.6517127 C3.55497611,3.64221266 3.46478816,3.60236523 3.33505834,3.48282297 C3.25028708,3.40444758 3.13003648,3.20547436 3.1535991,3.18251591 C3.15928663,3.17697422 3.19828682,3.18251591 3.2402662,3.19439097 C3.28684977,3.20784937 3.42037127,3.21682164 3.58124707,3.21708553 C3.8063107,3.21761331 3.86616516,3.21180773 3.98614493,3.17802978 C4.18683343,3.12155727 4.4536056,2.98934828 4.63614818,2.85661151 C4.98525409,2.60222134 5.26990135,2.50009583 5.63281983,2.49851249 C5.96784234,2.49719304 6.18098924,2.57266564 6.36976102,2.75923602 C6.433678,2.82230578 6.48811577,2.86320876 6.49705332,2.85450038 C6.50544919,2.84631979 6.51465757,2.73601368 6.51736592,2.60934638 C6.51736592,2.60934638 6.61594975,2.60011022 6.63680402,2.62702702 C6.63680402,2.8325975 6.63924153,2.8486948 6.66984585,2.8486948 C6.68988762,2.8486948 6.71128356,2.82863914 6.72455446,2.7975001 C6.75326293,2.7302081 6.85943013,2.63811041 6.97290986,2.58216569 C7.21801526,2.46104008 7.64214238,2.45734562 7.98285241,2.57319342 C8.1263948,2.622277 8.28564559,2.70988855 8.43731302,2.82388912 C8.58952211,2.93788969 8.90071117,3.09041823 9.08460792,3.14134904 C9.27067135,3.19280763 9.59865216,3.20573825 9.7668405,3.16852973 C9.83617418,3.1532241 9.90117451,3.14055737 9.91146622,3.14055737 C9.97348737,3.14055737 9.86786184,3.3419056 9.74381955,3.45986452 C9.51713092,3.67572671 9.22219194,3.67467115 8.8072732,3.45669784 C8.54862608,3.32105827 8.23933286,3.24690512 8.23933286,3.32079438 C8.23933286,3.33610001 8.25558294,3.34639173 8.27968723,3.34639173 C8.36960435,3.34639173 8.54320938,3.40523925 8.78533559,3.5171287 C9.04723274,3.63851819 9.19429597,3.68971289 9.28150474,3.68971289 C9.34488006,3.68971289 9.3467759,3.72797697 9.28773394,3.81242184 C9.22517113,3.9024084 9.11900393,3.94700585 8.96896151,3.94674196 C8.82568996,3.94621418 8.74606456,3.91560291 8.61795976,3.81189406 C8.40372952,3.6382543 7.86991435,3.44455889 7.89049779,3.54800385 C7.89456031,3.56858729 7.9202896,3.58125402 7.97526904,3.58943461 C8.16106164,3.61714309 8.37908356,3.71847693 8.60225134,3.88129718 C8.67104336,3.93170021 8.74254371,3.98131157 8.76068964,3.99186718 C8.79129396,4.00928394 8.79183563,4.01456174 8.76773134,4.0586314 C8.7276478,4.1314651 8.62662647,4.18793761 8.51720925,4.19902099 C8.37556271,4.21327107 8.25233293,4.17210419 8.12476979,4.06813145 C7.85556011,3.8485748 7.60178801,3.68971289 7.5205376,3.68971289 C7.4541831,3.68971289 7.48397492,3.72533807 7.6009755,3.78576893 C7.75480961,3.86519988 7.91297706,3.9726032 8.02943598,4.07683983 C8.08441542,4.12645119 8.14643657,4.17553477 8.16702,4.18635426 C8.21577025,4.21168772 8.2138744,4.24889624 8.16024913,4.31724381 C8.10554053,4.38691082 8.01508174,4.41752209 7.89781032,4.40538314 C7.66380915,4.38136913 7.48126657,4.27132691 7.19445264,3.98131157 C7.08232708,3.86810267 6.98238908,3.77547721 6.97209736,3.77547721 C6.93390967,3.77547721 6.95638895,3.82588024 7.03032682,3.90663064 C7.12186894,4.00638114 7.1394732,4.06258976 7.10480636,4.14360405 C7.07420204,4.21538219 7.02328512,4.23200727 6.91874293,4.20456269 C6.81176323,4.17632644 6.79497147,4.20192379 6.86511766,4.28689643 C6.96965985,4.41382762 6.95422227,4.56925896 6.82611746,4.67613449 C6.78630476,4.70912077 6.74459622,4.73630146 6.73322117,4.73630146 C6.72211694,4.73630146 6.69395014,4.70806521 6.67038752,4.67349559 C6.58805377,4.55157831 6.51574091,4.55236998 6.43557384,4.67560671 C6.40767787,4.71862082 6.38411525,4.75345432 6.38330275,4.75319043 C6.38221941,4.75292654 6.34457339,4.72653752 6.29988567,4.69434292 L6.29988567,4.69434292 Z" id="Shape"></path>
                                            <polygon id="Shape" points="6.70370852 2.21746942 6.56690783 2.32460885 6.44424055 2.23303894 6.44424055 2.96507038 6.70370852 2.96823706"></polygon>
                                            <path d="M5.84705007,1.4579934 C5.81942493,1.80395346 5.72923698,2.045413 5.60384052,2.31167823 L5.90446702,2.0401352 L6.1135514,2.28212252 L6.3399692,2.03591296 L6.57099119,2.24385844 L6.79307563,2.02746847 L7.02382679,2.29056701 L7.22424445,2.07417704 L7.56387115,2.31167823 C7.44064137,2.045413 7.2738072,1.81978688 7.29466147,1.44506278 C6.96559733,1.68335564 6.18369758,1.72636974 5.84705007,1.4579934 L5.84705007,1.4579934 Z" id="Shape"></path>
                                            <path d="" id="Shape"></path>
                                            <polygon id="Shape" points="6.65719579 0.131153434 6.48892828 0.132472885 6.48892828 1.43556273 6.66066247 1.4363544"></polygon>
                                            <path d="M6.65955413,0.16466749 L6.59428297,0.788503943 L7.25295293,1.10200551 L6.91955543,0.667642227 L7.37482854,0.523822064 L6.65955413,0.16466749 Z M6.58615793,0.00211112167 C6.48621993,0.00211112167 6.41228206,0.0385279704 6.41228206,0.0818059646 C6.41228206,0.125083959 6.48621993,0.161764698 6.58615793,0.161764698 C6.68609593,0.161764698 6.75949213,0.125083959 6.75949213,0.0818059646 C6.75949213,0.0385279704 6.68609593,0.00211112167 6.58615793,0.00211112167 L6.58615793,0.00211112167 Z" id="Shape"></path>
                                        </g>
                                        <g transform="translate(9.546875, 10.647917)" id="Shape" fill="#F7E017">
                                            <path d="M3.21071562,4.23066667 C3.31877812,4.19583333 3.38028437,4.13198542 3.42440312,4.009 C3.44634062,3.94776458 3.46125,3.88419375 3.45747187,3.86756875 C3.44825,3.82822292 3.40165312,3.83036042 3.35022187,3.87204167 C3.315,3.90081875 3.31065312,3.91530625 3.3206875,3.97388958 C3.34640312,4.12169375 3.29253438,4.15834792 3.0054375,4.18843125 C2.977,4.19136042 2.89465313,4.18661042 2.82209688,4.17790208 C2.68559688,4.16127708 2.63684688,4.17445833 2.68640938,4.21455625 C2.70127813,4.22670833 2.73922188,4.24305625 2.770625,4.25073542 C2.84728438,4.26997292 3.12865313,4.25706875 3.21071563,4.23066667 L3.21071562,4.23066667 Z M3.80575,4.206125 C3.822,4.19159792 3.87777812,4.16654167 3.92977812,4.15019375 C3.999125,4.12854167 4.034875,4.10530625 4.064125,4.06283333 C4.14834062,3.94063958 4.13265937,3.83534792 4.008875,3.69340208 C3.94172187,3.61633333 3.91190312,3.61843125 3.85827812,3.70393125 C3.81196562,3.77783333 3.8130625,3.78258333 3.8796875,3.79948542 C3.914625,3.80819375 3.94822187,3.83325 3.966625,3.864125 C4.03922187,3.98655625 4.0178125,4.06231875 3.91027812,4.06311042 C3.81277812,4.06390208 3.78596562,4.07736042 3.75972187,4.13883333 C3.74590937,4.17077708 3.73477812,4.20481875 3.73477812,4.21455625 C3.73477812,4.24044375 3.771625,4.23593125 3.80575,4.206125 L3.80575,4.206125 Z M3.61046562,4.06786042 C3.62890937,4.01929167 3.63540937,3.93193125 3.63321562,3.75380625 C3.631875,3.61819375 3.62647187,3.503125 3.62102812,3.49786042 C3.60477812,3.48202708 3.524625,3.53241667 3.5140625,3.564875 C3.50865937,3.58177708 3.51759687,3.62080625 3.53384687,3.65144375 C3.55875,3.69866667 3.562,3.74272292 3.55440312,3.92773542 C3.54465312,4.16151458 3.560375,4.20086042 3.61046562,4.06786042 L3.61046562,4.06786042 Z"></path>
                                            <path d="M3.15221563,3.95647292 C3.16196563,3.91293125 3.1744375,3.82375 3.180125,3.75855625 C3.1858125,3.69340208 3.199625,3.61106875 3.21047188,3.57544375 C3.23809688,3.484125 3.2101875,3.46009792 3.13625,3.51131875 L3.08128438,3.54955625 L3.09265938,3.68073542 C3.10322188,3.79893125 3.08396563,4.01929167 3.05609688,4.10479167 C3.0485,4.12747292 3.05934688,4.12169375 3.0899375,4.08686042 C3.11459688,4.058875 3.14275,4.00001458 3.15221563,3.95647292 L3.15221563,3.95647292 Z M2.74572187,4.02008333 C2.84460313,3.93949167 2.83322812,3.80182083 2.855125,3.68968125 C2.85285,3.61514583 2.90399687,3.52580625 2.87096875,3.46057292 C2.7785875,3.47703958 2.72163125,3.56230208 2.76891875,3.64724792 C2.77285937,3.74588958 2.76928437,3.85327917 2.71724375,3.94052083 C2.67470937,3.99756042 2.5400375,3.98335 2.54625312,3.90252083 C2.58005312,3.78092083 2.43055312,3.84009792 2.37221562,3.8719625 C2.32712187,3.90256042 2.23185625,3.90481667 2.26496562,3.82822292 C2.24310937,3.72621667 2.10839687,3.790025 2.03523125,3.78958958 C1.96612813,3.7883625 2.02954375,3.65314583 1.9303375,3.67685625 C1.74602188,3.662725 1.54253125,3.67843958 1.38299688,3.56998125 C1.28955937,3.52620208 1.30345312,3.41679375 1.35208125,3.34593958 C1.41013437,3.2492375 1.42670937,3.12823125 1.51884687,3.05322083 C1.61009062,2.96795833 1.43280313,3.00393958 1.39290937,3.03267708 C1.30398125,3.08009792 1.38657187,3.20217292 1.3138125,3.2699 C1.27131875,3.34012083 1.2153375,3.4371 1.11694375,3.42372083 C0.975,3.39759583 0.893221875,3.26895 0.79145625,3.1827375 C0.704315625,3.16579583 0.753309375,3.32052708 0.798321875,3.35306458 C0.887371875,3.41802083 0.9914125,3.4653625 1.09870312,3.49342708 C1.20554687,3.47680208 1.209,3.61304792 1.300325,3.63442292 C1.46790312,3.71050208 1.65465625,3.73330208 1.83746875,3.74260417 C1.90929375,3.74842292 1.8689125,3.87303125 1.963325,3.84841042 C2.01605625,3.86175 2.13520937,3.82929167 2.14118125,3.88898333 C2.06123125,3.98152917 2.2179625,3.97943125 2.275975,3.96288542 C2.3502375,3.95180208 2.4451375,3.92417292 2.46475937,4.02336875 C2.52675312,4.08705833 2.64058437,4.0776375 2.71606562,4.04118125 C2.72666875,4.03524375 2.7366625,4.02815833 2.74572187,4.02008333 L2.74572187,4.02008333 Z"></path>
                                            <path d="M1.12722188,3.22129167 C1.15728438,3.18408333 1.20221563,3.108875 1.22715937,3.05397292 C1.25177812,2.99883333 1.28890937,2.93629167 1.30922187,2.91491667 C1.356875,2.86476458 1.33034687,2.83388958 1.25340312,2.85051458 C1.21277812,2.85922292 1.19628437,2.87375 1.1895,2.90806875 C1.16646562,3.01993125 1.12478437,3.13448542 1.08765312,3.18776458 C1.0205,3.28434792 1.018875,3.28830625 1.0465,3.28830625 C1.06084062,3.28830625 1.09715938,3.25822292 1.12722188,3.22129167 L1.12722188,3.22129167 Z M0.112653125,2.60169375 C0.036846875,2.60169375 0.033596875,2.64840208 0.107534375,2.67345833 C0.143284375,2.68561042 0.173590625,2.71490208 0.197965625,2.76263958 C0.270034375,2.90225 0.312284375,2.92706875 0.503465625,2.94313958 L0.626153125,2.95398542 L0.632125,3.02654167 C0.635090625,3.06663958 0.644840625,3.09988958 0.654346875,3.09988958 C0.6638125,3.09988958 0.711221875,3.07986042 0.759159375,3.05611042 C0.8490625,3.01177708 0.934375,2.90830625 0.934375,2.84418125 C0.934375,2.80222292 0.862590625,2.75686042 0.797346875,2.75686042 C0.768340625,2.75686042 0.713090625,2.77954167 0.6695,2.81041667 C0.533,2.90672292 0.387034375,2.88720833 0.307125,2.76184792 C0.241596875,2.65841667 0.1730625,2.60169375 0.112653125,2.60169375 L0.112653125,2.60169375 Z M0.78404671,2.85898542 C0.826718177,2.85898542 0.837230744,2.88511042 0.814007527,2.93498542 C0.798047538,2.96926458 0.746153683,2.97033333 0.730528185,2.93656875 C0.712035623,2.89670833 0.737839197,2.85898542 0.78404671,2.85898542 L0.78404671,2.85898542 Z M5.913375,2.69669375 C5.8638125,2.69851458 5.8491875,2.70908333 5.81778438,2.75448542 C5.7663125,2.82890208 5.76115313,2.990125 5.8085625,3.047125 C5.83809688,3.08247292 5.84240313,3.08326458 5.90496563,3.05793125 C5.9921875,3.02230625 6.0068125,3.02365208 6.00652813,3.06929167 C6.006,3.18594375 5.83427813,3.41077708 5.65447188,3.53031875 C5.60596563,3.5625 5.56265938,3.59840208 5.55802812,3.61027708 C5.54502812,3.64352708 5.61165313,3.636125 5.69347188,3.59547292 C5.80502812,3.54005625 5.9515625,3.39438958 6.0116875,3.27959792 C6.05934063,3.18804167 6.066125,3.15688958 6.0718125,2.99673542 C6.07697188,2.84920833 6.07290938,2.80594375 6.04715313,2.75686042 C6.01847188,2.70168125 6.00925,2.69669375 5.93722188,2.69669375 C5.92852813,2.69669375 5.9206875,2.69641667 5.913375,2.69669375 L5.913375,2.69669375 Z M5.91934688,2.79961042 C5.95672188,2.79961042 5.96322188,2.80776458 5.96752813,2.86001458 C5.97134688,2.90331875 5.96346562,2.92968125 5.93884687,2.95133333 C5.90525,2.98090208 5.90252812,2.980625 5.87275,2.93656875 C5.83102812,2.87426458 5.85678438,2.79961042 5.91934687,2.79961042 L5.91934688,2.79961042 Z M5.09709688,3.925875 C5.25553437,3.849875 5.34897187,3.764375 5.40909688,3.64059792 C5.43753437,3.58177708 5.4608125,3.52636042 5.4608125,3.51686042 C5.4608125,3.49548542 5.3828125,3.46009792 5.33597188,3.46009792 C5.289375,3.46009792 5.27990938,3.42870833 5.2999375,3.34190208 C5.3194375,3.25719375 5.295875,3.15111042 5.2576875,3.15111042 C5.243875,3.15111042 5.2195,3.17090208 5.20325,3.19488958 C5.17834688,3.23209792 5.17696563,3.24793125 5.19540938,3.30204167 C5.22246563,3.38227708 5.20109688,3.44216667 5.12740313,3.49334792 C5.09246563,3.51765208 5.07325,3.54559792 5.07325,3.57279167 C5.07325,3.59575 5.07621563,3.61447292 5.07975,3.61447292 C5.08352813,3.61447292 5.122,3.59495833 5.16534688,3.57148542 L5.24440313,3.52845833 L5.291,3.56408333 C5.31647188,3.58359792 5.33759688,3.61554167 5.33759688,3.63505625 C5.33759688,3.72902708 5.0626875,3.88680625 4.87390313,3.90161042 C4.7734375,3.90952708 4.756375,3.90608333 4.7214375,3.87231875 C4.693,3.84461042 4.684875,3.821375 4.69190313,3.78863958 C4.69734688,3.76358333 4.70709688,3.71794375 4.71359688,3.68730625 C4.73090313,3.60552708 4.69490938,3.61661042 4.63259063,3.712125 C4.58140313,3.79101458 4.56625,3.87520833 4.59497188,3.91954167 C4.61853438,3.95568125 4.7750625,3.99027708 4.88584688,3.98366667 C4.9554375,3.97970833 5.02421563,3.96070833 5.09709688,3.925875 L5.09709688,3.925875 Z M6.15440312,3.351125 C6.25409688,3.25426458 6.29634688,3.13630625 6.296875,2.95398542 L6.29715938,2.81702708 L6.37946563,2.77902708 C6.48647188,2.72938958 6.58775,2.63070833 6.58775,2.57580625 C6.58775,2.51936042 6.56203438,2.52225 6.5154375,2.58372292 C6.48159688,2.62833333 6.43634063,2.65525 6.270875,2.72938958 C6.22915313,2.74815208 6.22647188,2.75816667 6.21696563,2.92865208 C6.205875,3.12522292 6.17853438,3.19884792 6.06584063,3.33319375 C5.99677813,3.41497292 5.99434063,3.42581875 6.04227813,3.42581875 C6.0620625,3.42581875 6.1124375,3.39229167 6.15440313,3.351125 L6.15440312,3.351125 Z M5.09006475,3.26302139 C5.10211692,3.21743081 5.03237918,3.18512153 5.00219726,3.22215589 C4.98947553,3.23786356 4.9860247,3.26512851 4.99462603,3.2825602 C5.01455846,3.32214865 5.07770356,3.30899507 5.09006475,3.26302139 L5.09006475,3.26302139 Z M6.58692507,2.88517029 C6.59928062,2.83976059 6.52926581,2.80757948 6.49940656,2.84446692 C6.48638175,2.86055747 6.48293249,2.88771425 6.49152989,2.90507679 C6.51140174,2.94450818 6.57456951,2.93134318 6.58692507,2.88517029 L6.58692507,2.88517029 Z M4.76421563,1.84141667 C4.7255,1.8593875 4.70543125,1.90011875 4.67849688,1.93123125 C4.65915938,1.94405625 4.67467813,1.95605 4.68580938,1.96812292 C4.75414063,2.03980833 4.783025,2.13666875 4.81548438,2.22699792 C4.847375,2.33359583 4.8875125,2.44807083 4.8542,2.55914167 C4.84107813,2.60169375 4.80670938,2.64575 4.75544063,2.63157917 C4.67337813,2.62663125 4.592575,2.60541458 4.51026875,2.60624583 C4.43702188,2.60996667 4.38039062,2.67492292 4.30551875,2.6678375 C4.25762187,2.670925 4.25965312,2.5723625 4.21520937,2.598725 C4.19319062,2.65010417 4.2040375,2.70742083 4.20139687,2.76176875 C4.20968438,2.76956667 4.2329625,2.76275833 4.24689688,2.76505417 L4.39436562,2.76505417 C4.40480625,2.81465208 4.40350625,2.87153333 4.44006875,2.91099792 C4.49125625,2.92873125 4.54882188,2.9134125 4.59749062,2.89401667 C4.6496125,2.87038542 4.6566,2.80930833 4.67134687,2.76168958 C4.68702812,2.71054792 4.75576562,2.72392708 4.79630937,2.70385833 C4.89559687,2.67563542 4.9606375,2.57509375 4.95482812,2.47621458 C4.94840937,2.32520417 4.8893,2.18313958 4.84440937,2.04024375 C4.8218625,1.97730625 4.80622187,1.91159792 4.78005937,1.850125 C4.77697187,1.84482083 4.77071562,1.8403875 4.76421562,1.84141667 L4.76421563,1.84141667 Z M4.51859688,2.70484792 C4.573725,2.70136458 4.59769375,2.76738958 4.58603438,2.81120833 C4.56539688,2.87070208 4.49028125,2.83258333 4.47512813,2.789675 C4.44717813,2.75135833 4.46444375,2.69982083 4.51859688,2.70484792 L4.51859688,2.70484792 Z"></path>
                                            <path d="M2.4765,2.20926458 C2.45184062,2.20875 2.42421562,2.21773542 2.396875,2.23645833 C2.2530625,2.334625 2.21621563,2.45072292 2.314,2.496125 C2.38578437,2.52965208 2.367625,2.56895833 2.2546875,2.62409792 C2.093,2.70275 1.95028438,2.69297292 1.67915313,2.58372292 C1.61252813,2.55680625 1.59522188,2.56709792 1.61065938,2.62647292 C1.62552813,2.68481875 1.68025,2.71672292 1.81622188,2.74680625 C1.96247188,2.77954167 2.1393125,2.76897292 2.2530625,2.72123542 C2.30859688,2.698 2.37440938,2.64919375 2.42990313,2.59033333 L2.5179375,2.496125 L2.6203125,2.50851458 C2.74653438,2.52355625 2.74897187,2.52490208 2.74897187,2.58372292 C2.74897187,2.63043125 2.75165312,2.6315 2.86759687,2.64206875 C2.93284062,2.648125 3.01872188,2.65366667 3.05877813,2.65366667 C3.10996563,2.65394375 3.13897188,2.66265208 3.15603438,2.68584792 C3.17878438,2.71672292 3.1923125,2.71830625 3.38296563,2.70168125 C3.5611875,2.68584792 3.596125,2.68719375 3.6765625,2.71383333 C3.73372187,2.73283333 3.79652812,2.74047292 3.84422188,2.73548542 C3.98072188,2.72044375 4.1689375,2.61170833 4.19627813,2.53175 C4.19952813,2.52197292 4.24909063,2.50483333 4.30625,2.49375 C4.44409062,2.46683333 4.4500625,2.43754167 4.32140312,2.42198542 C4.265625,2.41509792 4.1819375,2.39530625 4.13534063,2.377375 C4.0885,2.35944375 4.02459688,2.34440208 3.99315313,2.34440208 C3.92384687,2.34440208 3.8585625,2.38659792 3.8585625,2.43013958 C3.8585625,2.45863958 3.86884063,2.46156875 3.95090313,2.453375 C4.02809063,2.44573542 4.05059688,2.44993125 4.09122188,2.48136042 C4.11803438,2.50194375 4.13590938,2.52620833 4.13022188,2.53491667 C4.1120625,2.56369375 3.95090313,2.63518125 3.8796875,2.64626458 C3.83203438,2.65366667 3.7935625,2.64863958 3.7561875,2.62991667 C3.693625,2.59825 3.60152813,2.5935 3.58422188,2.62069375 C3.57690938,2.63256875 3.557125,2.62488958 3.53002813,2.60011042 L3.48777813,2.56131875 L3.3921875,2.60011042 C3.29497188,2.63941667 3.25922187,2.63783333 3.25922187,2.59270833 C3.25922187,2.572125 3.23078437,2.56975 3.0875,2.57873542 C2.92959063,2.58875 2.91309687,2.58609792 2.8835625,2.55391667 C2.85622188,2.52434792 2.85565313,2.51405625 2.87515313,2.48373542 C2.89302813,2.45575 2.89302813,2.44359792 2.87596563,2.42697292 C2.85890312,2.41034792 2.83672188,2.410625 2.77440313,2.42697292 C2.61734688,2.46790208 2.57290313,2.44494375 2.57290313,2.32540208 C2.57290313,2.25359792 2.53065313,2.21005625 2.4765,2.20926458 L2.4765,2.20926458 Z M2.4388494,2.31906949 C2.44746279,2.31906949 2.45466142,2.32439905 2.46577144,2.33569262 C2.47991904,2.35007396 2.48740894,2.37515669 2.48129219,2.39122995 C2.46685331,2.42929818 2.39861197,2.42790235 2.38421471,2.38953803 C2.37726574,2.37092689 2.38612879,2.35007396 2.40668442,2.33484666 C2.42108168,2.32414526 2.43023601,2.31877341 2.4388494,2.31906949 L2.4388494,2.31906949 Z"></path>
                                            <path d="M2.15584687,2.43041667 C2.2514375,2.37131875 2.24928438,2.37579167 2.26309687,2.21163958 C2.2725625,2.09581875 2.2709375,2.08711042 2.23872187,2.08711042 C2.19184062,2.08711042 2.16746562,2.13722292 2.16746562,2.23277708 C2.16746562,2.29397292 2.15771562,2.32144375 2.12415937,2.35390208 C2.04453437,2.43148542 1.8468125,2.39609792 1.82190937,2.29979167 C1.8135,2.26681875 1.82434687,2.23697292 1.86578437,2.17973542 C1.95215312,2.06019375 1.93265312,2.03090208 1.82678437,2.12166667 C1.75390312,2.18369375 1.74090312,2.18551458 1.75471562,2.13195833 C1.76747188,2.08259792 1.74090312,2.06308333 1.68159062,2.07761042 C1.65128437,2.08497292 1.63475,2.10345833 1.6274375,2.13936042 C1.62040937,2.17443125 1.603875,2.19398542 1.57515312,2.20083333 C1.52721562,2.21270833 1.4454375,2.168375 1.4454375,2.13065208 C1.4454375,2.10266667 1.56784062,1.957 1.7249375,1.79815208 C1.78425,1.73798542 1.83271562,1.68201458 1.83271562,1.67358333 C1.83271562,1.66515208 1.80102813,1.65826458 1.7623125,1.65826458 C1.70572188,1.65826458 1.69190937,1.66436042 1.69190937,1.68993125 C1.69190937,1.70734792 1.6128125,1.80844375 1.51584062,1.91476458 C1.3138125,2.13643125 1.29703437,2.182625 1.39697187,2.24172292 C1.47740938,2.28977708 1.58059687,2.28605625 1.6615625,2.2325 L1.72709062,2.18895833 L1.72709062,2.26784792 C1.72709062,2.36866667 1.7476875,2.40480625 1.8289375,2.44676458 C1.93102812,2.49929167 2.05452812,2.49295833 2.15584687,2.43041667 L2.15584687,2.43041667 Z M6.396,1.06055625 C6.32104687,1.10417708 6.37970937,1.19577292 6.39104375,1.2566125 C6.36045312,1.33961875 6.25096875,1.36198333 6.17118125,1.37738125 C6.0581625,1.39562917 5.97805,1.48777917 5.93506875,1.58566875 C5.91175,1.64923958 5.855525,1.74780208 5.7942625,1.65102083 C5.7409625,1.59841458 5.64305625,1.55673333 5.5800875,1.61816667 C5.53223125,1.6625 5.52008437,1.7278125 5.50225,1.78710833 C5.47401562,1.74154792 5.46134062,1.67370208 5.4015,1.65929375 C5.30595,1.67239583 5.34048125,1.78976042 5.3854125,1.83817083 C5.42624062,1.89457708 5.46544375,1.96899375 5.42542812,2.03600833 C5.39016562,2.11652083 5.2680875,2.17082917 5.196425,2.10195417 C5.12943437,2.06751667 5.17424375,1.94457083 5.10826875,1.93780208 C5.0756875,1.96076042 5.07296562,2.08940625 5.02080312,2.01966042 C4.98314375,1.96004792 5.00309062,1.87842708 4.95702187,1.82479167 C4.90258437,1.83140208 4.85879062,1.92276042 4.87690937,1.97180417 C4.94954687,2.06727917 4.97940625,2.18701875 5.00772187,2.30078125 C5.02539375,2.34634167 5.0051625,2.43872917 5.04891562,2.45673958 C5.07922187,2.38343125 5.05106875,2.30026667 5.07491562,2.22624583 C5.14584687,2.2175375 5.2247,2.24908542 5.29908437,2.23234167 C5.40548125,2.21888333 5.48770625,2.13140417 5.525,2.038225 C5.53629375,1.9681625 5.52284687,1.89711042 5.52085625,1.82669167 C5.60495,1.83935833 5.69225312,1.83912083 5.7731375,1.86572083 C5.81319375,1.92561042 5.76038125,2.0094875 5.74929062,2.07495833 C5.70708125,2.208275 5.5999125,2.30505625 5.49562812,2.39419792 C5.4520375,2.41933333 5.4461875,2.48595208 5.51057812,2.45008958 C5.65069375,2.39170417 5.75514062,2.26804583 5.815225,2.13421458 C5.85905937,2.03125833 5.82379687,1.91658542 5.8524375,1.81129375 C5.89472812,1.73220625 5.996575,1.74887083 6.07189375,1.74914792 C6.14989375,1.74621875 6.2164375,1.65771042 6.19039687,1.5838875 C6.165575,1.49818958 6.25860625,1.45690417 6.32218437,1.42630625 C6.40644062,1.3848625 6.471075,1.30070833 6.464575,1.20574792 C6.46108125,1.15717917 6.46355937,1.06502917 6.396,1.06059583 L6.396,1.06055625 Z M6.09724375,1.55534792 C6.1875125,1.57870208 6.0809125,1.74673333 6.03293437,1.64029375 C6.01814687,1.59968125 6.05324687,1.55388333 6.09724375,1.55534792 L6.09724375,1.55534792 Z M5.67827812,1.67568125 C5.79576562,1.66899167 5.75355625,1.83615208 5.65430938,1.76027083 C5.6028375,1.73509583 5.61985937,1.67259375 5.67827812,1.67568125 L5.67827812,1.67568125 Z M1.46177567,2.33705712 C1.46693425,2.31146286 1.45313503,2.29318125 1.42863174,2.29318125 C1.37665898,2.29318125 1.34525607,2.33626492 1.36975936,2.37362034 C1.39510093,2.41225548 1.45100712,2.39031755 1.46177567,2.33705712 L1.46177567,2.33705712 Z M2.83512823,2.18740066 C2.83512823,2.15041408 2.82097702,2.13645463 2.7893949,2.1424202 C2.7205216,2.15518654 2.71286901,2.24109086 2.78046688,2.24109086 C2.81812248,2.24109086 2.83512823,2.22438724 2.83512823,2.18740066 L2.83512823,2.18740066 Z M1.0976875,1.36641667 C1.04272187,1.3554125 1.00815,1.40073542 0.989340625,1.44392083 C0.94826875,1.5112125 0.89805625,1.5800875 0.824321875,1.6157125 C0.77130625,1.63008125 0.71345625,1.61040833 0.667753125,1.58376875 C0.61319375,1.5572875 0.625584375,1.49336042 0.602184375,1.44918542 C0.5627375,1.41898333 0.492740625,1.46216875 0.494325,1.50911458 C0.4899375,1.57205208 0.5503875,1.60846875 0.6006,1.63277292 C0.64325625,1.658225 0.7050875,1.67239583 0.722109375,1.72389375 C0.72093125,1.76767292 0.739009375,1.81778542 0.793690625,1.80088333 C0.8549125,1.79989375 0.87075625,1.87252917 0.84605625,1.91611042 C0.82086875,1.96523333 0.8038875,2.0227875 0.815953125,2.07749167 C0.845203125,2.10147917 0.8750625,2.03711667 0.896228125,2.01875 L0.9394125,1.96266042 C1.04771875,1.96836042 1.15590312,1.98181875 1.2644125,1.97809792 C1.34164062,1.9767125 1.4074125,1.93028125 1.4564875,1.87581458 C1.52591562,1.80507917 1.58295312,1.72199375 1.66225312,1.66095625 C1.71868125,1.64749792 1.68833437,1.54394792 1.6293875,1.57387292 C1.57629062,1.59326875 1.55959375,1.65173333 1.5227875,1.68902083 C1.46010312,1.7629625 1.39611875,1.8380125 1.31710312,1.89600208 C1.25957812,1.9192375 1.19331875,1.90906458 1.13420937,1.89600208 C1.10955,1.87498333 1.18320312,1.85784375 1.19348125,1.83448958 C1.2273625,1.80147708 1.26762187,1.77016667 1.28728437,1.72682292 C1.268475,1.68684375 1.21099062,1.68359792 1.1704875,1.68276667 C1.07067187,1.69444375 0.99441875,1.77610417 0.8935875,1.78378333 C0.817090625,1.78639583 0.856903125,1.70564583 0.89139375,1.67809583 C0.958871875,1.6000375 1.03179375,1.52649167 1.1022375,1.45096667 C1.12226562,1.42753333 1.19457813,1.4052875 1.14830625,1.37235417 C1.1321375,1.36665417 1.11466875,1.36665417 1.0976875,1.36641667 L1.0976875,1.36641667 Z M1.1467625,1.76147611 C1.1971375,1.80139911 1.11466875,1.86684758 1.07993437,1.85789932 C1.03435312,1.87717249 1.03354062,1.8116093 1.07400312,1.79853107 C1.09675312,1.78178177 1.12080312,1.76434414 1.1467625,1.76141875 L1.1467625,1.76147611 Z M0.998603869,1.86450058 C1.03553077,1.86350395 1.11294631,1.91548227 1.04024484,1.94867787 C0.989647131,2.00617601 0.93244972,1.89025975 0.998603869,1.86450058 L0.998603869,1.86450058 Z"></path>
                                            <path d="M2.23548227,1.95099646 C2.23548227,1.88699725 2.14563056,1.89605246 2.1356648,1.96093676 C2.12926966,2.0027405 2.13955517,2.0126808 2.18149663,2.00498728 C2.21134062,1.99954054 2.23548227,1.9755068 2.23548227,1.95099646 L2.23548227,1.95099646 Z M5.26477073,1.68160083 C5.27345514,1.63740046 5.21086752,1.60793355 5.17792666,1.64034715 C5.14498581,1.67276076 5.17528141,1.73434661 5.21985139,1.72580121 C5.24051429,1.72187228 5.2607779,1.701933 5.26477073,1.68160083 L5.26477073,1.68160083 Z M0.52325,1.308625 C0.570903125,1.26876458 0.571471875,1.26615208 0.550875,1.17851458 C0.521625,1.05580625 0.523534375,1.042625 0.571471875,1.03102708 C0.632125,1.01598542 0.786215625,1.09645833 0.820340625,1.16086042 C0.846909375,1.21073542 0.846096875,1.21413958 0.801125,1.25479167 C0.752659375,1.29833333 0.752903125,1.34927708 0.801409375,1.34927708 C0.841465625,1.34927708 0.95225,1.24715208 0.95225,1.21045833 C0.95225,1.15951458 0.829278125,1.03918125 0.7320625,0.995125 C0.6719375,0.96769375 0.6118125,0.955027083 0.542221875,0.95475 C0.417625,0.95475 0.400846875,0.980875 0.434403125,1.12206875 C0.473971875,1.28752708 0.420346875,1.30993125 0.2835625,1.185125 C0.182,1.0925 0.141903125,0.99619375 0.142471875,0.84443125 C0.142715625,0.681625 0.206659375,0.601152083 0.350715625,0.582152083 C0.446346875,0.569722917 0.443909375,0.547833333 0.345596875,0.533583333 C0.202028125,0.512485417 0.080721875,0.605902083 0.034653125,0.772666667 C-0.016534375,0.957639583 0.10075,1.18302708 0.308221875,1.299125 C0.4168125,1.35980625 0.460159375,1.36166667 0.52325,1.308625 L0.52325,1.308625 Z M6.17934688,1.10568125 C6.19096563,1.09436042 6.20047188,1.06875 6.20047188,1.04895833 C6.20047188,1.02916667 6.22021563,0.98669375 6.24434688,0.95475 C6.26872188,0.92280625 6.28846563,0.890110417 6.28846563,0.88219375 C6.28846563,0.849735417 6.2335,0.850764583 6.19015313,0.884291667 C6.14575,0.91805625 6.1124375,0.918847917 6.1124375,0.885875 C6.1124375,0.87768125 6.1335625,0.86081875 6.1595625,0.848389583 C6.22403438,0.817791667 6.2294375,0.78743125 6.175,0.763166667 C6.105125,0.732291667 6.03496563,0.788777083 6.02765313,0.881916667 C6.0230625,0.94418125 6.02822188,0.955027083 6.0775,0.98325 C6.12247188,1.00909792 6.13084062,1.02283333 6.12328438,1.05976458 C6.11028438,1.12388958 6.137625,1.14633333 6.17934688,1.10568125 L6.17934688,1.10568125 Z M6.71096563,1.04709792 C6.74996562,1.01305625 6.78165313,0.974264583 6.78165313,0.961360417 C6.78165313,0.948416667 6.81525,0.914097917 6.85640312,0.885360417 C6.97315938,0.803541667 6.998875,0.72093125 6.94659063,0.594027083 C6.92627813,0.544152083 6.862375,0.475277083 6.7234375,0.353360417 C6.61671563,0.259389583 6.51840312,0.182597917 6.5056875,0.182597917 C6.46778438,0.182597917 6.47452813,0.318527083 6.513,0.330402083 C6.58234688,0.352014583 6.6243125,0.379722917 6.73347188,0.475514583 C6.86022188,0.587139583 6.91872188,0.691402083 6.88675,0.74943125 C6.85615938,0.805639583 6.81553438,0.788222917 6.70365313,0.671333333 C6.64490938,0.609860417 6.58665313,0.559708333 6.57475,0.559708333 C6.56175,0.559985417 6.55252813,0.582152083 6.55252813,0.613264583 C6.55252813,0.652333333 6.5739375,0.689541667 6.63190938,0.752360417 C6.72640313,0.854722917 6.735625,0.916235417 6.66465313,0.970583333 C6.63922188,0.990097917 6.6129375,1.00620833 6.6064375,1.00620833 C6.60022188,1.00620833 6.57934063,0.975610417 6.56040938,0.938402083 C6.52084063,0.860264583 6.279,0.61144375 6.24272188,0.61144375 C6.2261875,0.61144375 6.2180625,0.631472917 6.2180625,0.67105625 C6.2180625,0.718833333 6.2278125,0.735735417 6.2668125,0.75525 C6.31475,0.779514583 6.433375,0.895889583 6.55252813,1.03629167 C6.58665313,1.07638958 6.62025,1.10884792 6.6275625,1.109125 C6.63459063,1.109125 6.67225,1.08113958 6.71096563,1.04709792 L6.71096563,1.04709792 Z M6.94821563,0.385541667 C6.93253438,0.33618125 6.6080625,0.01080625 6.57475,0.01080625 C6.55740313,0.01080625 6.552,0.030875 6.5560625,0.0826104167 C6.56065313,0.145389583 6.56772188,0.156235417 6.612125,0.16755625 C6.63975,0.17468125 6.72534688,0.240152083 6.80196563,0.312708333 C6.87834063,0.385264583 6.94553438,0.44044375 6.9509375,0.434902083 C6.95634063,0.429597917 6.95528438,0.40743125 6.94821563,0.385541667 L6.94821563,0.385541667 Z M5.01552188,4.054725 C5.01552188,4.08233924 4.99278633,4.104725 4.96474063,4.104725 C4.93669492,4.104725 4.91395938,4.08233924 4.91395938,4.054725 C4.91395938,4.02711076 4.93669492,4.004725 4.96474063,4.004725 C4.99278633,4.004725 5.01552188,4.02711076 5.01552188,4.054725 L5.01552188,4.054725 Z M5.18590312,3.99930833 C5.18590312,4.02692257 5.16316758,4.04930833 5.13512187,4.04930833 C5.10707617,4.04930833 5.08434062,4.02692257 5.08434062,3.99930833 C5.08434062,3.9716941 5.10707617,3.94930833 5.13512187,3.94930833 C5.16316758,3.94930833 5.18590312,3.9716941 5.18590312,3.99930833 L5.18590312,3.99930833 Z"></path>
                                        </g>
                                    </g>
                                </g>
                            </g>
                        </g>
                    </g>
                </g>
            </g>
        </g>
    </g>
</svg>