<?xml version="1.0" encoding="UTF-8" standalone="no"?>
<svg width="24px" height="17px" viewBox="0 0 24 17" version="1.1" xmlns="http://www.w3.org/2000/svg" xmlns:xlink="http://www.w3.org/1999/xlink">
    <!-- Generator: sketchtool 39.1 (31720) - http://www.bohemiancoding.com/sketch -->
    <title>A12BBCDD-712E-40DB-815D-36E9622C28E1</title>
    <desc>Created with sketchtool.</desc>
    <defs>
        <rect id="path-1" x="0" y="0" width="24" height="18"></rect>
    </defs>
    <g id="Exports" stroke="none" stroke-width="1" fill="none" fill-rule="evenodd">
        <g id="04-NS-country-S" transform="translate(-24.000000, -352.000000)">
            <g id="Group-6" transform="translate(0.000000, 268.000000)">
                <g id="Group-7" transform="translate(24.000000, 82.000000)">
                    <g id="ca" transform="translate(0.000000, 2.000000)">
                        <mask id="mask-2" fill="white">
                            <use xlink:href="#path-1"></use>
                        </mask>
                        <g id="Mask"></g>
                        <g id="Page-1" mask="url(#mask-2)">
                            <polygon id="Fill-1" fill="#FFFFFF" points="5.99350588 17 17.9805882 17 17.9805882 0 5.99350588 0"></polygon>
                            <g id="Group-4" fill="#BF0930">
                                <path d="M7.78599176,8.21478604 L7.32053294,8.37440896 L9.48635647,10.281809 C9.65015647,10.772011 9.42946235,10.916511 9.28881529,11.173636 L11.6400741,10.8741527 L11.5788741,13.2485923 L12.0658624,13.2345319 L11.9596271,10.8798194 L14.3132153,11.1597881 C14.1675565,10.8510965 14.0379212,10.6872235 14.1726741,10.1936569 L16.3371212,8.38655687 L15.9583447,8.24896312 C15.6486388,8.00915687 16.09218,7.09402562 16.1590624,6.51648604 C16.1590624,6.51648604 14.8952506,6.95260687 14.8124506,6.72438187 L14.4906035,6.10398812 L13.3408624,7.37137354 C13.2152859,7.40158396 13.16178,7.35143396 13.1322741,7.24493604 L13.6634506,4.59644229 L12.8223565,5.07113187 C12.7519447,5.10137771 12.6815329,5.07531104 12.6351565,4.99296729 L11.8261447,3.36401312 L10.9919682,5.05572562 C10.9291094,5.11632354 10.8661447,5.12333604 10.8139094,5.08214646 L10.0130153,4.63129229 L10.4937918,7.25910271 C10.4555682,7.36336937 10.36398,7.39272979 10.2562271,7.33627562 L9.15716824,6.08326937 C9.01341529,6.31443396 8.91596824,6.69208187 8.72594471,6.77672771 C8.53588588,6.85599021 7.89939176,6.61657354 7.47279176,6.52314437 C7.61848588,7.05092354 8.07420353,7.92769854 7.78578,8.21506937 L7.78599176,8.21478604 Z M17.9805918,-3.54166667e-06 L23.9740976,-3.54166667e-06 L23.9740976,16.9999965 L17.9806271,16.9999965 L17.9805918,-3.54166667e-06 Z M3.52941174e-06,16.9999965 L5.99354471,16.9999965 L5.99354471,-3.54166667e-06 L3.52941174e-06,-3.54166667e-06 L3.52941174e-06,16.9999965 Z" id="Fill-2"></path>
                            </g>
                        </g>
                    </g>
                </g>
            </g>
        </g>
    </g>
</svg>