<?xml version="1.0" encoding="UTF-8" standalone="no"?>
<svg width="24px" height="17px" viewBox="0 0 24 17" version="1.1" xmlns="http://www.w3.org/2000/svg" xmlns:xlink="http://www.w3.org/1999/xlink">
    <!-- Generator: sketchtool 39.1 (31720) - http://www.bohemiancoding.com/sketch -->
    <title>A29D6374-3D05-4C1A-833A-620487407ADF</title>
    <desc>Created with sketchtool.</desc>
    <defs>
        <rect id="path-1" x="0" y="0" width="24" height="18"></rect>
        <polygon id="path-3" points="0.0192982456 0 23.9726316 0 23.9726316 18 0.0192982456 18"></polygon>
    </defs>
    <g id="Exports" stroke="none" stroke-width="1" fill="none" fill-rule="evenodd">
        <g id="04-NS-country-L" transform="translate(-395.000000, -528.000000)">
            <g id="Group-10" transform="translate(72.000000, 344.000000)">
                <g id="Group-6" transform="translate(323.000000, 41.000000)">
                    <g id="Group-8-Copy-13" transform="translate(0.000000, 141.000000)">
                        <g id="fi" transform="translate(0.000000, 2.000000)">
                            <mask id="mask-2" fill="white">
                                <use xlink:href="#path-1"></use>
                            </mask>
                            <g id="Mask"></g>
                            <g mask="url(#mask-2)" id="Clipped">
                                <g>
                                    <mask id="mask-4" fill="white">
                                        <use xlink:href="#path-3"></use>
                                    </mask>
                                    <g id="Shape"></g>
                                    <g id="Group" mask="url(#mask-4)">
                                        <g transform="translate(-2.154737, 0.000000)" id="Shape">
                                            <polygon fill="#FFFFFF" points="0.0125333333 10.7620453 8.23670877 10.7620453 8.23670877 16.92 0.0125333333 16.92"></polygon>
                                            <polygon fill="#0062DA" points="8.23143158 0 13.1768211 0 13.1768211 16.92 8.23143158 16.92"></polygon>
                                            <polygon fill="#0062DA" points="0.0125333333 6.15266719 29.6198947 6.15266719 29.6198947 10.7673328 0.0125333333 10.7673328"></polygon>
                                            <path d="M0.0125333333,9.9140625e-05 L8.23670877,9.9140625e-05 L8.23670877,6.15805383 L0.0125333333,6.15805383 L0.0125333333,9.9140625e-05 Z M13.1715439,10.7620453 L29.6198947,10.7620453 L29.6198947,16.92 L13.1715439,16.92 L13.1715439,10.7620453 Z M13.1715439,6.609375e-05 L29.6198947,6.609375e-05 L29.6198947,6.15802078 L13.1715439,6.15802078 L13.1715439,6.609375e-05 Z M0.0125333333,10.7620453 L8.23670877,10.7620453 L8.23670877,16.92 L0.0125333333,16.92 L0.0125333333,10.7620453 Z" fill="#FFFFFF"></path>
                                            <polygon fill="#0062DA" points="8.23143158 0 13.1768211 0 13.1768211 16.92 8.23143158 16.92"></polygon>
                                            <path d="M0.0125333333,9.9140625e-05 L8.23670877,9.9140625e-05 L8.23670877,6.15805383 L0.0125333333,6.15805383 L0.0125333333,9.9140625e-05 Z M13.1715439,10.7620453 L29.6198947,10.7620453 L29.6198947,16.92 L13.1715439,16.92 L13.1715439,10.7620453 Z M13.1715439,6.609375e-05 L29.6198947,6.609375e-05 L29.6198947,6.15802078 L13.1715439,6.15802078 L13.1715439,6.609375e-05 Z" fill="#FFFFFF"></path>
                                        </g>
                                    </g>
                                </g>
                            </g>
                        </g>
                    </g>
                </g>
            </g>
        </g>
    </g>
</svg>