<?xml version="1.0" encoding="UTF-8" standalone="no"?>
<svg width="24px" height="18px" viewBox="0 0 24 18" version="1.1" xmlns="http://www.w3.org/2000/svg" xmlns:xlink="http://www.w3.org/1999/xlink">
    <!-- Generator: sketchtool 39.1 (31720) - http://www.bohemiancoding.com/sketch -->
    <title>62067F57-D44D-4099-9A15-BFA092C519AD</title>
    <desc>Created with sketchtool.</desc>
    <defs>
        <rect id="path-1" x="0" y="0" width="24" height="18"></rect>
    </defs>
    <g id="Exports" stroke="none" stroke-width="1" fill="none" fill-rule="evenodd">
        <g id="04-NS-country-L" transform="translate(-688.000000, -606.000000)">
            <g id="Group-10" transform="translate(72.000000, 344.000000)">
                <g id="Group-9" transform="translate(616.000000, 41.000000)">
                    <g id="Group-8-Copy-8" transform="translate(0.000000, 220.000000)">
                        <g id="hk" transform="translate(0.000000, 1.000000)">
                            <mask id="mask-2" fill="white">
                                <use xlink:href="#path-1"></use>
                            </mask>
                            <g id="Mask"></g>
                            <g mask="url(#mask-2)" id="Clipped">
                                <g transform="translate(-2.000000, 0.000000)">
                                    <g>
                                        <g id="Group" transform="translate(0.617895, 0.000000)">
                                            <polygon id="Shape" fill="#BA0000" points="27.1610526 18.8 0.02115 18.8 0.02115 0 27.1610526 0"></polygon>
                                            <path d="M13.2047984,9.09901641 C13.2047984,9.09901641 11.2894247,8.28290547 11.5642634,6.16823594 C11.8303824,5.15028203 12.3003205,4.45706875 13.1516266,4.07974687 C13.5506195,3.95688594 13.9585918,3.90423125 14.3753582,3.86912812 C14.2658976,3.9715 14.1743589,4.07390859 14.1270497,4.20260781 C14.0353997,4.43367891 14.1033766,4.65597422 14.2245624,4.87823281 C14.3782524,5.13563125 14.4698282,5.40184219 14.4994382,5.74699844 C14.5555784,6.23253047 14.3457482,6.70058438 13.9585176,6.98431016 C13.7131776,7.17157578 13.4235339,7.23590703 13.187025,7.44942656 C13.0037992,7.62787969 12.8914816,7.80633281 12.8501092,8.1163125 C12.8441724,8.70711719 13.0068047,8.78907344 13.2048355,9.09912656 L13.2047984,9.09901641 Z" id="Shape" fill="#FFFFFF"></path>
                                            <path d="" id="Shape" stroke="#000000" stroke-width="0.5" fill="#BA0000"></path>
                                            <path d="M12.9622413,8.87943828 C12.2172418,8.22709297 12.2823616,6.58635234 12.8499237,6.03935312" id="Shape" stroke="#BA0000" stroke-width="0.5"></path>
                                            <polyline id="Shape" fill="#BA0000" points="13.3072089 5.6723125 13.4296563 5.87492656 13.2025721 5.78338672 13.0328526 5.96367578 13.0625368 5.72702344 12.83523 5.63581406 13.0806442 5.58110312 13.1098461 5.34441406 13.2319224 5.54728516 13.4771882 5.49220703"></polyline>
                                            <path d="M13.3675421,8.95908125 C13.3675421,8.95908125 13.5948118,6.90775156 15.7185316,6.54812812 C16.7800018,6.50160547 17.5874495,6.74310469 18.2014674,7.43797031 C18.4370858,7.77952812 18.6074732,8.15005703 18.7635008,8.53409844 C18.6325192,8.4605875 18.5068066,8.40393047 18.3685895,8.39691719 C18.1185,8.37789687 17.9236232,8.50736719 17.7443305,8.68714219 C17.5406968,8.90800547 17.3103474,9.07261562 16.9855279,9.20175547 C16.5328437,9.39720937 16.0191584,9.33577891 15.6315568,9.05256719 C15.37887,8.87528906 15.2317847,8.62013047 14.9562411,8.45889844 C14.7300845,8.3378 14.5247068,8.28382344 14.2130968,8.33552344 C13.6404884,8.50303438 13.6090232,8.6809 13.3674679,8.95911797 L13.3675421,8.95908125 Z" id="Shape" fill="#FFFFFF"></path>
                                            <path d="" id="Shape" stroke="#000000" stroke-width="0.5" fill="#BA0000"></path>
                                            <path d="M13.5086163,8.66525781 C13.9206332,7.76924688 15.5249163,7.35006563 16.2197495,7.72672656" id="Shape" stroke="#BA0000" stroke-width="0.5"></path>
                                            <polyline id="Shape" fill="#BA0000" points="16.7084258 8.05187109 16.5485021 8.22701953 16.5703942 7.98541016 16.3464639 7.87767734 16.5837892 7.83644219 16.6053103 7.59468594 16.7300582 7.81084922 16.9672721 7.7691 16.8070516 7.94402812 16.9321705 8.15993437"></polyline>
                                            <g transform="translate(13.506316, 9.032812)" id="Shape">
                                                <path d="M0.00437842105,0.0744289062 C0.00437842105,0.0744289062 2.04219947,-0.363809375 3.06118421,1.51472188 C3.44288605,2.49595703 3.46793211,3.33035391 2.99710342,4.1271875 C2.74467632,4.45673828 2.44371553,4.73433203 2.12531526,5.00270938 C2.15414605,4.85645859 2.16850579,4.72045234 2.13132632,4.58852188 C2.07010263,4.34783047 1.88420526,4.20609609 1.65496895,4.09502188 C1.37868316,3.97399688 1.14774,3.81015781 0.920878421,3.54644375 C0.589899474,3.1836625 0.485559474,2.68215781 0.633832105,2.22853438 C0.723441316,1.93504141 0.921286579,1.71605078 0.988187368,1.40625469 C1.03241684,1.1556125 1.01891053,0.945801562 0.870415263,0.669786719 C0.528045,0.185723438 0.347602105,0.212638281 0.00430421053,0.0743921875 L0.00437842105,0.0744289062 Z" fill="#FFFFFF"></path>
                                                <path d="" stroke="#000000" stroke-width="0.5" fill="#BA0000"></path>
                                                <path d="M0.330719211,0.113460938 C1.32013105,0.215539063 2.23125079,1.58771875 2.09099289,2.35936328" stroke="#BA0000" stroke-width="0.5"></path>
                                                <polyline fill="#BA0000" points="1.93466842 2.92116016 1.71600711 2.82671953 1.95459395 2.77053984 1.98665289 2.52621328 2.101605 2.73573047 2.34011763 2.67918359 2.17258737 2.86490703 2.28798474 3.07420391 2.06950895 2.97946953 1.90227553 3.16541328"></polyline>
                                            </g>
                                            <g transform="translate(9.276316, 9.289844)" id="Shape">
                                                <path d="M4.18844211,0.0253359375 C4.18844211,0.0253359375 5.18583158,1.8377 3.65004474,3.33307109 C2.80560316,3.97124297 2.00338737,4.22926563 1.09831579,4.00586875 C0.70782,3.85862656 0.354095526,3.65079844 0.00437842105,3.42376641 C0.154283684,3.41007031 0.290237368,3.38550547 0.407712632,3.31316953 C0.624036316,3.18748125 0.709267105,2.97106094 0.752680263,2.72218125 C0.792382895,2.4257875 0.886444737,2.16045781 1.07853868,1.87089375 C1.33734789,1.45468672 1.79448474,1.21472969 2.27611105,1.22820547 C2.58594,1.23092266 2.85384,1.35727187 3.17313079,1.33384531 C3.42860053,1.30546172 3.62830105,1.23371328 3.85430921,1.01512656 C4.22766237,0.554049219 4.15085447,0.390173437 4.18855342,0.0253359375 L4.18844211,0.0253359375 Z" fill="#FFFFFF"></path>
                                                <path d="" stroke="#000000" stroke-width="0.5" fill="#BA0000"></path>
                                                <path d="M4.24224474,0.346257813 C4.42120342,1.31464141 3.34615263,2.56539219 2.55840789,2.64881719" stroke="#BA0000" stroke-width="0.5"></path>
                                                <polyline fill="#BA0000" points="1.96965868 2.65814375 1.99982526 2.42395156 2.121345 2.63471719 2.36735289 2.59652969 2.19629763 2.76459141 2.31815132 2.97524687 2.09106711 2.86832188 1.92038289 3.03664063 1.95095763 2.80248516 1.72361368 2.69592734"></polyline>
                                            </g>
                                            <g transform="translate(8.385789, 6.499219)" id="Shape">
                                                <path d="M4.85307158,2.77667188 C4.85307158,2.77667188 3.45709737,4.30967969 1.52153842,3.37316797 C0.632756053,2.79697734 0.120221053,2.13398359 0.0325042105,1.21506016 C0.043005,0.801680469 0.123560526,0.402474219 0.223781842,0.00062421875 C0.286675263,0.135969531 0.355245789,0.254717969 0.463259211,0.340346094 C0.654945,0.500439844 0.889598684,0.508077344 1.14117237,0.465924219 C1.43690132,0.40449375 1.72101632,0.404126563 2.06082632,0.487221094 C2.54349158,0.590510937 2.92404316,0.937392969 3.07127684,1.39142031 C3.17164658,1.68149844 3.14021842,1.97355937 3.26867684,2.26374766 C3.38058632,2.4927625 3.51531553,2.65531641 3.79868842,2.79359922 C4.36224316,2.98894297 4.49292789,2.86281406 4.85322,2.77670859 L4.85307158,2.77667188 Z" fill="#FFFFFF"></path>
                                                <path d="" stroke="#000000" stroke-width="0.5" fill="#BA0000"></path>
                                                <path d="M4.56506053,2.93346094 C3.70162105,3.42226094 2.15225368,2.83446719 1.81099658,2.12693359" stroke="#BA0000" stroke-width="0.5"></path>
                                                <polyline fill="#BA0000" points="1.60650947 1.58048516 1.83975316 1.53084141 1.67919868 1.714325 1.79730474 1.93122266 1.58035026 1.82745547 1.42005553 2.01112266 1.44654868 1.76363828 1.22940868 1.66023828 1.46272658 1.61103516 1.48877447 1.36340391"></polyline>
                                            </g>
                                        </g>
                                    </g>
                                </g>
                            </g>
                        </g>
                    </g>
                </g>
            </g>
        </g>
    </g>
</svg>