<?xml version="1.0" encoding="UTF-8" standalone="no"?>
<svg width="24px" height="18px" viewBox="0 0 24 18" version="1.1" xmlns="http://www.w3.org/2000/svg" xmlns:xlink="http://www.w3.org/1999/xlink">
    <!-- Generator: sketchtool 39.1 (31720) - http://www.bohemiancoding.com/sketch -->
    <title>25E1A05F-0A41-4983-9C27-C684F6109BCD</title>
    <desc>Created with sketchtool.</desc>
    <defs>
        <rect id="path-1" x="0" y="0" width="24" height="18"></rect>
    </defs>
    <g id="Exports" stroke="none" stroke-width="1" fill="none" fill-rule="evenodd">
        <g id="04-NS-country-L" transform="translate(-104.000000, -941.000000)">
            <g id="Group-10" transform="translate(72.000000, 344.000000)">
                <g id="Group-5" transform="translate(32.000000, 41.000000)">
                    <g id="Group-8-Copy-5" transform="translate(0.000000, 554.000000)">
                        <g id="hn" transform="translate(0.000000, 2.000000)">
                            <mask id="mask-2" fill="white">
                                <use xlink:href="#path-1"></use>
                            </mask>
                            <g id="Mask"></g>
                            <g mask="url(#mask-2)" id="Group">
                                <g>
                                    <polygon id="Shape" fill="#0073CF" points="0.0234035088 0 23.9766316 0 23.9766316 18 0.0234035088 18"></polygon>
                                    <polygon id="Shape" fill="#FFFFFF" points="0.0234035088 6.00001172 23.9766316 6.00001172 23.9766316 12.0000234 0.0234035088 12.0000234"></polygon>
                                    <g id="c" transform="translate(10.003899, 7.000000)" fill="#0073CF">
                                        <g id="b" transform="translate(0.998051, 1.000000)">
                                            <polygon id="a" points="0.688654863 0.949999852 1.16472496 1.10599983 0.998050526 0"></polygon>
                                            <g id="a-link" transform="translate(0.998051, 1.000000) scale(-1, 1) translate(-0.998051, -1.000000) ">
                                                <polygon id="a" points="0.688654863 0.949999852 1.16472496 1.10599983 0.998050526 0"></polygon>
                                            </g>
                                        </g>
                                        <g id="b-link" transform="translate(1.996101, 2.000000) rotate(72.000000) translate(-1.996101, -2.000000) translate(0.998051, 1.000000)">
                                            <g id="b">
                                                <polygon id="a" points="0.688654863 0.949999852 1.16472496 1.10599983 0.998050526 0"></polygon>
                                                <g id="a-link" transform="translate(0.998051, 1.000000) scale(-1, 1) translate(-0.998051, -1.000000) ">
                                                    <polygon id="a" points="0.688654863 0.949999852 1.16472496 1.10599983 0.998050526 0"></polygon>
                                                </g>
                                            </g>
                                        </g>
                                        <g id="b-link" transform="translate(1.996101, 2.000000) rotate(-72.000000) translate(-1.996101, -2.000000) translate(0.998051, 1.000000)">
                                            <g id="b">
                                                <polygon id="a" points="0.688654863 0.949999852 1.16472496 1.10599983 0.998050526 0"></polygon>
                                                <g id="a-link" transform="translate(0.998051, 1.000000) scale(-1, 1) translate(-0.998051, -1.000000) ">
                                                    <polygon id="a" points="0.688654863 0.949999852 1.16472496 1.10599983 0.998050526 0"></polygon>
                                                </g>
                                            </g>
                                        </g>
                                        <g id="b-link" transform="translate(1.996101, 2.000000) rotate(144.000000) translate(-1.996101, -2.000000) translate(0.998051, 1.000000)">
                                            <g id="b">
                                                <polygon id="a" points="0.688654863 0.949999852 1.16472496 1.10599983 0.998050526 0"></polygon>
                                                <g id="a-link" transform="translate(0.998051, 1.000000) scale(-1, 1) translate(-0.998051, -1.000000) ">
                                                    <polygon id="a" points="0.688654863 0.949999852 1.16472496 1.10599983 0.998050526 0"></polygon>
                                                </g>
                                            </g>
                                        </g>
                                        <g id="b-link" transform="translate(1.996101, 2.000000) rotate(216.000000) translate(-1.996101, -2.000000) translate(0.998051, 1.000000)">
                                            <g id="b">
                                                <polygon id="a" points="0.688654863 0.949999852 1.16472496 1.10599983 0.998050526 0"></polygon>
                                                <g id="a-link" transform="translate(0.998051, 1.000000) scale(-1, 1) translate(-0.998051, -1.000000) ">
                                                    <polygon id="a" points="0.688654863 0.949999852 1.16472496 1.10599983 0.998050526 0"></polygon>
                                                </g>
                                            </g>
                                        </g>
                                    </g>
                                    <g id="c-link" transform="translate(14.990246, 5.396133)" fill="#0073CF">
                                        <g id="c" transform="translate(0.003899, 0.003907)">
                                            <g id="b" transform="translate(0.998051, 1.000000)">
                                                <polygon id="a" points="0.688654863 0.949999852 1.16472496 1.10599983 0.998050526 0"></polygon>
                                                <g id="a-link" transform="translate(0.998051, 1.000000) scale(-1, 1) translate(-0.998051, -1.000000) ">
                                                    <polygon id="a" points="0.688654863 0.949999852 1.16472496 1.10599983 0.998050526 0"></polygon>
                                                </g>
                                            </g>
                                            <g id="b-link" transform="translate(1.996101, 2.000000) rotate(72.000000) translate(-1.996101, -2.000000) translate(0.998051, 1.000000)">
                                                <g id="b">
                                                    <polygon id="a" points="0.688654863 0.949999852 1.16472496 1.10599983 0.998050526 0"></polygon>
                                                    <g id="a-link" transform="translate(0.998051, 1.000000) scale(-1, 1) translate(-0.998051, -1.000000) ">
                                                        <polygon id="a" points="0.688654863 0.949999852 1.16472496 1.10599983 0.998050526 0"></polygon>
                                                    </g>
                                                </g>
                                            </g>
                                            <g id="b-link" transform="translate(1.996101, 2.000000) rotate(-72.000000) translate(-1.996101, -2.000000) translate(0.998051, 1.000000)">
                                                <g id="b">
                                                    <polygon id="a" points="0.688654863 0.949999852 1.16472496 1.10599983 0.998050526 0"></polygon>
                                                    <g id="a-link" transform="translate(0.998051, 1.000000) scale(-1, 1) translate(-0.998051, -1.000000) ">
                                                        <polygon id="a" points="0.688654863 0.949999852 1.16472496 1.10599983 0.998050526 0"></polygon>
                                                    </g>
                                                </g>
                                            </g>
                                            <g id="b-link" transform="translate(1.996101, 2.000000) rotate(144.000000) translate(-1.996101, -2.000000) translate(0.998051, 1.000000)">
                                                <g id="b">
                                                    <polygon id="a" points="0.688654863 0.949999852 1.16472496 1.10599983 0.998050526 0"></polygon>
                                                    <g id="a-link" transform="translate(0.998051, 1.000000) scale(-1, 1) translate(-0.998051, -1.000000) ">
                                                        <polygon id="a" points="0.688654863 0.949999852 1.16472496 1.10599983 0.998050526 0"></polygon>
                                                    </g>
                                                </g>
                                            </g>
                                            <g id="b-link" transform="translate(1.996101, 2.000000) rotate(216.000000) translate(-1.996101, -2.000000) translate(0.998051, 1.000000)">
                                                <g id="b">
                                                    <polygon id="a" points="0.688654863 0.949999852 1.16472496 1.10599983 0.998050526 0"></polygon>
                                                    <g id="a-link" transform="translate(0.998051, 1.000000) scale(-1, 1) translate(-0.998051, -1.000000) ">
                                                        <polygon id="a" points="0.688654863 0.949999852 1.16472496 1.10599983 0.998050526 0"></polygon>
                                                    </g>
                                                </g>
                                            </g>
                                        </g>
                                    </g>
                                    <g id="c-link" transform="translate(14.990246, 8.396086)" fill="#0073CF">
                                        <g id="c" transform="translate(0.003899, 0.003907)">
                                            <g id="b" transform="translate(0.998051, 1.000000)">
                                                <polygon id="a" points="0.688654863 0.949999852 1.16472496 1.10599983 0.998050526 0"></polygon>
                                                <g id="a-link" transform="translate(0.998051, 1.000000) scale(-1, 1) translate(-0.998051, -1.000000) ">
                                                    <polygon id="a" points="0.688654863 0.949999852 1.16472496 1.10599983 0.998050526 0"></polygon>
                                                </g>
                                            </g>
                                            <g id="b-link" transform="translate(1.996101, 2.000000) rotate(72.000000) translate(-1.996101, -2.000000) translate(0.998051, 1.000000)">
                                                <g id="b">
                                                    <polygon id="a" points="0.688654863 0.949999852 1.16472496 1.10599983 0.998050526 0"></polygon>
                                                    <g id="a-link" transform="translate(0.998051, 1.000000) scale(-1, 1) translate(-0.998051, -1.000000) ">
                                                        <polygon id="a" points="0.688654863 0.949999852 1.16472496 1.10599983 0.998050526 0"></polygon>
                                                    </g>
                                                </g>
                                            </g>
                                            <g id="b-link" transform="translate(1.996101, 2.000000) rotate(-72.000000) translate(-1.996101, -2.000000) translate(0.998051, 1.000000)">
                                                <g id="b">
                                                    <polygon id="a" points="0.688654863 0.949999852 1.16472496 1.10599983 0.998050526 0"></polygon>
                                                    <g id="a-link" transform="translate(0.998051, 1.000000) scale(-1, 1) translate(-0.998051, -1.000000) ">
                                                        <polygon id="a" points="0.688654863 0.949999852 1.16472496 1.10599983 0.998050526 0"></polygon>
                                                    </g>
                                                </g>
                                            </g>
                                            <g id="b-link" transform="translate(1.996101, 2.000000) rotate(144.000000) translate(-1.996101, -2.000000) translate(0.998051, 1.000000)">
                                                <g id="b">
                                                    <polygon id="a" points="0.688654863 0.949999852 1.16472496 1.10599983 0.998050526 0"></polygon>
                                                    <g id="a-link" transform="translate(0.998051, 1.000000) scale(-1, 1) translate(-0.998051, -1.000000) ">
                                                        <polygon id="a" points="0.688654863 0.949999852 1.16472496 1.10599983 0.998050526 0"></polygon>
                                                    </g>
                                                </g>
                                            </g>
                                            <g id="b-link" transform="translate(1.996101, 2.000000) rotate(216.000000) translate(-1.996101, -2.000000) translate(0.998051, 1.000000)">
                                                <g id="b">
                                                    <polygon id="a" points="0.688654863 0.949999852 1.16472496 1.10599983 0.998050526 0"></polygon>
                                                    <g id="a-link" transform="translate(0.998051, 1.000000) scale(-1, 1) translate(-0.998051, -1.000000) ">
                                                        <polygon id="a" points="0.688654863 0.949999852 1.16472496 1.10599983 0.998050526 0"></polygon>
                                                    </g>
                                                </g>
                                            </g>
                                        </g>
                                    </g>
                                    <g id="c-link" transform="translate(5.009754, 5.396133)" fill="#0073CF">
                                        <g id="c" transform="translate(0.003899, 0.003907)">
                                            <g id="b" transform="translate(0.998051, 1.000000)">
                                                <polygon id="a" points="0.688654863 0.949999852 1.16472496 1.10599983 0.998050526 0"></polygon>
                                                <g id="a-link" transform="translate(0.998051, 1.000000) scale(-1, 1) translate(-0.998051, -1.000000) ">
                                                    <polygon id="a" points="0.688654863 0.949999852 1.16472496 1.10599983 0.998050526 0"></polygon>
                                                </g>
                                            </g>
                                            <g id="b-link" transform="translate(1.996101, 2.000000) rotate(72.000000) translate(-1.996101, -2.000000) translate(0.998051, 1.000000)">
                                                <g id="b">
                                                    <polygon id="a" points="0.688654863 0.949999852 1.16472496 1.10599983 0.998050526 0"></polygon>
                                                    <g id="a-link" transform="translate(0.998051, 1.000000) scale(-1, 1) translate(-0.998051, -1.000000) ">
                                                        <polygon id="a" points="0.688654863 0.949999852 1.16472496 1.10599983 0.998050526 0"></polygon>
                                                    </g>
                                                </g>
                                            </g>
                                            <g id="b-link" transform="translate(1.996101, 2.000000) rotate(-72.000000) translate(-1.996101, -2.000000) translate(0.998051, 1.000000)">
                                                <g id="b">
                                                    <polygon id="a" points="0.688654863 0.949999852 1.16472496 1.10599983 0.998050526 0"></polygon>
                                                    <g id="a-link" transform="translate(0.998051, 1.000000) scale(-1, 1) translate(-0.998051, -1.000000) ">
                                                        <polygon id="a" points="0.688654863 0.949999852 1.16472496 1.10599983 0.998050526 0"></polygon>
                                                    </g>
                                                </g>
                                            </g>
                                            <g id="b-link" transform="translate(1.996101, 2.000000) rotate(144.000000) translate(-1.996101, -2.000000) translate(0.998051, 1.000000)">
                                                <g id="b">
                                                    <polygon id="a" points="0.688654863 0.949999852 1.16472496 1.10599983 0.998050526 0"></polygon>
                                                    <g id="a-link" transform="translate(0.998051, 1.000000) scale(-1, 1) translate(-0.998051, -1.000000) ">
                                                        <polygon id="a" points="0.688654863 0.949999852 1.16472496 1.10599983 0.998050526 0"></polygon>
                                                    </g>
                                                </g>
                                            </g>
                                            <g id="b-link" transform="translate(1.996101, 2.000000) rotate(216.000000) translate(-1.996101, -2.000000) translate(0.998051, 1.000000)">
                                                <g id="b">
                                                    <polygon id="a" points="0.688654863 0.949999852 1.16472496 1.10599983 0.998050526 0"></polygon>
                                                    <g id="a-link" transform="translate(0.998051, 1.000000) scale(-1, 1) translate(-0.998051, -1.000000) ">
                                                        <polygon id="a" points="0.688654863 0.949999852 1.16472496 1.10599983 0.998050526 0"></polygon>
                                                    </g>
                                                </g>
                                            </g>
                                        </g>
                                    </g>
                                    <g id="c-link" transform="translate(5.009754, 8.396086)" fill="#0073CF">
                                        <g id="c" transform="translate(0.003899, 0.003907)">
                                            <g id="b" transform="translate(0.998051, 1.000000)">
                                                <polygon id="a" points="0.688654863 0.949999852 1.16472496 1.10599983 0.998050526 0"></polygon>
                                                <g id="a-link" transform="translate(0.998051, 1.000000) scale(-1, 1) translate(-0.998051, -1.000000) ">
                                                    <polygon id="a" points="0.688654863 0.949999852 1.16472496 1.10599983 0.998050526 0"></polygon>
                                                </g>
                                            </g>
                                            <g id="b-link" transform="translate(1.996101, 2.000000) rotate(72.000000) translate(-1.996101, -2.000000) translate(0.998051, 1.000000)">
                                                <g id="b">
                                                    <polygon id="a" points="0.688654863 0.949999852 1.16472496 1.10599983 0.998050526 0"></polygon>
                                                    <g id="a-link" transform="translate(0.998051, 1.000000) scale(-1, 1) translate(-0.998051, -1.000000) ">
                                                        <polygon id="a" points="0.688654863 0.949999852 1.16472496 1.10599983 0.998050526 0"></polygon>
                                                    </g>
                                                </g>
                                            </g>
                                            <g id="b-link" transform="translate(1.996101, 2.000000) rotate(-72.000000) translate(-1.996101, -2.000000) translate(0.998051, 1.000000)">
                                                <g id="b">
                                                    <polygon id="a" points="0.688654863 0.949999852 1.16472496 1.10599983 0.998050526 0"></polygon>
                                                    <g id="a-link" transform="translate(0.998051, 1.000000) scale(-1, 1) translate(-0.998051, -1.000000) ">
                                                        <polygon id="a" points="0.688654863 0.949999852 1.16472496 1.10599983 0.998050526 0"></polygon>
                                                    </g>
                                                </g>
                                            </g>
                                            <g id="b-link" transform="translate(1.996101, 2.000000) rotate(144.000000) translate(-1.996101, -2.000000) translate(0.998051, 1.000000)">
                                                <g id="b">
                                                    <polygon id="a" points="0.688654863 0.949999852 1.16472496 1.10599983 0.998050526 0"></polygon>
                                                    <g id="a-link" transform="translate(0.998051, 1.000000) scale(-1, 1) translate(-0.998051, -1.000000) ">
                                                        <polygon id="a" points="0.688654863 0.949999852 1.16472496 1.10599983 0.998050526 0"></polygon>
                                                    </g>
                                                </g>
                                            </g>
                                            <g id="b-link" transform="translate(1.996101, 2.000000) rotate(216.000000) translate(-1.996101, -2.000000) translate(0.998051, 1.000000)">
                                                <g id="b">
                                                    <polygon id="a" points="0.688654863 0.949999852 1.16472496 1.10599983 0.998050526 0"></polygon>
                                                    <g id="a-link" transform="translate(0.998051, 1.000000) scale(-1, 1) translate(-0.998051, -1.000000) ">
                                                        <polygon id="a" points="0.688654863 0.949999852 1.16472496 1.10599983 0.998050526 0"></polygon>
                                                    </g>
                                                </g>
                                            </g>
                                        </g>
                                    </g>
                                </g>
                            </g>
                        </g>
                    </g>
                </g>
            </g>
        </g>
    </g>
</svg>