<?xml version="1.0" encoding="UTF-8" standalone="no"?>
<svg width="24px" height="15px" viewBox="0 0 24 15" version="1.1" xmlns="http://www.w3.org/2000/svg" xmlns:xlink="http://www.w3.org/1999/xlink">
    <!-- Generator: sketchtool 39.1 (31720) - http://www.bohemiancoding.com/sketch -->
    <title>74EF4F84-C388-4230-8E61-81E7567FA88A</title>
    <desc>Created with sketchtool.</desc>
    <defs>
        <rect id="path-1" x="0" y="0" width="24" height="18"></rect>
    </defs>
    <g id="Exports" stroke="none" stroke-width="1" fill="none" fill-rule="evenodd">
        <g id="04-NS-country-L" transform="translate(-688.000000, -1451.000000)">
            <g id="Group-10" transform="translate(72.000000, 344.000000)">
                <g id="Group-9" transform="translate(616.000000, 41.000000)">
                    <g id="Group-7-Copy-14" transform="translate(0.000000, 1062.000000)">
                        <g id="il" transform="translate(0.000000, 2.000000)">
                            <mask id="mask-2" fill="white">
                                <use xlink:href="#path-1"></use>
                            </mask>
                            <g id="Mask"></g>
                            <g mask="url(#mask-2)" id="Clipped">
                                <g transform="translate(0.000000, 2.000000)">
                                    <g>
                                        <g id="Group" transform="translate(0.275789, 0.000000)">
                                            <path d="M24.1243579,2.80799141 L0,2.80799141 L0,0.586349141 L24.1243579,0.586349141 L24.1243579,2.80799141 Z M24.1243579,14.3892688 L0,14.3892688 L0,12.1676265 L24.1243579,12.1676265 L24.1243579,14.3892688 Z M8.19383158,5.30468281 L11.8258596,11.6344813 L15.5360561,5.33078984 L8.19383158,5.30468281 L8.19383158,5.30468281 Z" id="Shape" fill="#0000CC"></path>
                                            <polygon id="Shape" fill="#FFFFFF" points="11.1398246 9.50262734 11.830807 10.6759897 12.5366316 9.50745219 11.1398246 9.50266039"></polygon>
                                            <polygon id="Shape" fill="#0000CC" points="8.18030877 9.59416719 11.8126667 3.26436875 15.5225333 9.56806016 8.18030877 9.59416719"></polygon>
                                            <path d="M11.1398246,5.33211172 L11.830807,4.15874938 L12.5366316,5.32728688 L11.1398246,5.33207867 L11.1398246,5.33211172 Z M9.69585263,7.95933828 L8.98211228,9.14843094 L10.3310947,9.14423398 L9.69585263,7.95933828 L9.69585263,7.95933828 Z M8.99431579,5.76172109 L10.3540175,5.77130469 L9.69984351,6.96958438 L8.99434877,5.76172109 L8.99431579,5.76172109 Z M13.9825825,7.9728875 L14.669607,9.14856313 L13.2939088,9.13094914 L13.9825825,7.9728875 L13.9825825,7.9728875 Z M14.6570737,5.76172109 L13.2973719,5.77130469 L13.9515789,6.96958438 L14.6570737,5.76172109 L14.6570737,5.76172109 Z M10.8881684,5.76039922 L9.95166456,7.46280898 L10.9015593,9.12496766 L12.6407242,9.1651857 L13.697614,7.46277594 L12.7210035,5.74698219 L10.8881025,5.76036617 L10.8881684,5.76039922 Z" id="Shape" fill="#FFFFFF"></path>
                                        </g>
                                    </g>
                                </g>
                            </g>
                        </g>
                    </g>
                </g>
            </g>
        </g>
    </g>
</svg>