<?xml version="1.0" encoding="UTF-8" standalone="no"?>
<svg width="24px" height="18px" viewBox="0 0 24 18" version="1.1" xmlns="http://www.w3.org/2000/svg" xmlns:xlink="http://www.w3.org/1999/xlink">
    <!-- Generator: sketchtool 39.1 (31720) - http://www.bohemiancoding.com/sketch -->
    <title>87209D3F-8857-4FFA-B4C9-48173B20BD2D</title>
    <desc>Created with sketchtool.</desc>
    <defs>
        <rect id="path-1" x="0" y="0" width="24" height="18"></rect>
        <rect id="path-3" x="0" y="0" width="24" height="18"></rect>
    </defs>
    <g id="Exports" stroke="none" stroke-width="1" fill="none" fill-rule="evenodd">
        <g id="04-NS-country-XL" transform="translate(-605.000000, -620.000000)">
            <g id="Group-10" transform="translate(282.000000, 344.000000)">
                <g id="Group-6" transform="translate(323.000000, 41.000000)">
                    <g id="Group-8-Copy-11" transform="translate(0.000000, 233.000000)">
                        <g id="is" transform="translate(0.000000, 2.000000)">
                            <mask id="mask-2" fill="white">
                                <use xlink:href="#path-1"></use>
                            </mask>
                            <g id="Mask"></g>
                            <g mask="url(#mask-2)" id="islenskifaninn">
                                <g>
                                    <g id="flag-Clipped">
                                        <mask id="mask-4" fill="white">
                                            <use xlink:href="#path-3"></use>
                                        </mask>
                                        <g id="rect3903"></g>
                                        <g id="flag" mask="url(#mask-4)">
                                            <rect id="blarfeldur" fill="#003897" x="0" y="0" width="25.000125" height="18"></rect>
                                            <polygon id="hviturkross" fill="#FFFFFF" points="0 7.000125 7.000125 7.000125 7.000125 0 11.00025 0 11.00025 7.000125 25.000125 7.000125 25.000125 11.00025 11.00025 11.00025 11.00025 18.000375 7.000125 18.000375 7.000125 11.00025 -1.0658141e-15 11.00025 -1.0658141e-15 7.000125"></polygon>
                                            <polygon id="raudurkross" fill="#D72828" points="0 7.999875 7.999875 7.999875 7.999875 0 9.9998625 0 9.9998625 7.999875 24.9998625 7.999875 24.9998625 9.9998625 9.9998625 9.9998625 9.9998625 17.9997375 7.999875 17.9997375 7.999875 9.9998625 0 9.9998625"></polygon>
                                        </g>
                                    </g>
                                </g>
                            </g>
                        </g>
                    </g>
                </g>
            </g>
        </g>
    </g>
</svg>