<?xml version="1.0" encoding="UTF-8" standalone="no"?>
<svg width="24px" height="18px" viewBox="0 0 24 18" version="1.1" xmlns="http://www.w3.org/2000/svg" xmlns:xlink="http://www.w3.org/1999/xlink">
    <!-- Generator: sketchtool 39.1 (31720) - http://www.bohemiancoding.com/sketch -->
    <title>1028D143-7E9A-4ED3-8361-963053044F36</title>
    <desc>Created with sketchtool.</desc>
    <defs>
        <rect id="path-1" x="0" y="0" width="24" height="18"></rect>
    </defs>
    <g id="Exports" stroke="none" stroke-width="1" fill="none" fill-rule="evenodd">
        <g id="04-NS-country-L" transform="translate(-688.000000, -1253.000000)">
            <g id="Group-10" transform="translate(72.000000, 344.000000)">
                <g id="Group-9" transform="translate(616.000000, 41.000000)">
                    <g id="Group-8-Copy-27" transform="translate(0.000000, 866.000000)">
                        <g id="nz" transform="translate(0.000000, 2.000000)">
                            <mask id="mask-2" fill="white">
                                <use xlink:href="#path-1"></use>
                            </mask>
                            <g id="Mask"></g>
                            <g mask="url(#mask-2)" id="svg566">
                                <g transform="translate(0.000000, -1.000000)">
                                    <g>
                                        <g id="flag">
                                            <rect id="rect580" fill="#00006A" x="0.0406631333" y="0.0395010395" width="25.9190031" height="18.960499"></rect>
                                            <g id="g560" transform="translate(0.040446, 0.034939)">
                                                <polygon id="path572" fill="#FFFFFF" points="1.77922026e-05 0.00464614341 12.9184911 12.0263529 15.5683763 12.0263529 2.92883833 0.0103186551 1.77922026e-05 0.00464614341"></polygon>
                                                <polygon id="path577" fill="#FF0000" transform="translate(7.784038, 6.015183) scale(-1, -1) translate(-7.784038, -6.015183) " points="0.967726745 0.00467408533 13.6160059 12.025905 14.6003495 12.0112201 1.8991014 0.00446057279 0.967751849 0.00446057279"></polygon>
                                                <polygon id="path581" fill="#FFFFFF" transform="translate(7.784429, 6.015500) scale(-1, 1) translate(-7.784429, -6.015500) " points="0.000249272905 0.00464614341 12.9187226 12.0263529 15.5686078 12.0263529 2.92906981 0.0103186551 0.000249272905 0.00464614341"></polygon>
                                                <polygon id="path579" fill="#FF0000" transform="translate(7.783922, 6.015552) scale(-1, 1) translate(-7.783922, -6.015552) " points="0.97026736 0.00469957695 13.6136175 12.0259305 14.5975775 12.026405 1.90127906 0.00469957695 0.970292454 0.00469957695"></polygon>
                                                <rect id="rect570" fill="#FFFFFF" x="6.53871732" y="0.00470637505" width="2.49086488" height="12.0214266"></rect>
                                                <rect id="rect569" fill="#FFFFFF" x="0.000268211869" y="4.8132521" width="15.5677017" height="2.40428531"></rect>
                                                <rect id="rect574" fill="#FF0000" x="7.08383688" y="0.00470637505" width="1.40111489" height="12.0214266"></rect>
                                                <rect id="rect575" fill="#FF0000" x="0.00026815752" y="5.41457244" width="15.5677017" height="1.20214266"></rect>
                                            </g>
                                            <g id="g8203" transform="translate(15.951094, 4.654667)">
                                                <g id="g591" transform="translate(3.059066, 0.006433)">
                                                    <polygon id="polygon589" fill="#FFFFFF" points="2.08986719 2.4619981 1.29703485 1.89046875 0.475051609 2.42070824 0.78455493 1.50484966 0.0161949412 0.902194103 1.00012759 0.907664128 1.34705922 0.00493360932 1.6461258 0.924144783 2.6286189 0.968893114 1.82966847 1.53152926"></polygon>
                                                    <polygon id="polygon590" fill="#FF0000" transform="translate(1.303155, 1.283850) rotate(2.772134) translate(-1.303155, -1.283850) " points="1.80663743 1.97621458 1.32186875 1.66802274 0.858693327 2.00667028 1.00804671 1.45935007 0.536233981 1.13203079 1.11349379 1.10196329 1.28516021 0.561030666 1.4924555 1.08978807 2.0700752 1.08280055 1.62165517 1.43965798"></polygon>
                                                </g>
                                                <g id="g594" transform="translate(0.016392, 4.932930)">
                                                    <polygon id="polygon595" fill="#FFFFFF" points="2.08986719 2.4619981 1.29703485 1.89046875 0.475051609 2.42070824 0.78455493 1.50484966 0.0161949412 0.902194103 1.00012759 0.907664128 1.34705922 0.00493360932 1.6461258 0.924144783 2.6286189 0.968893114 1.82966847 1.53152926"></polygon>
                                                    <polygon id="polygon596" fill="#FF0000" transform="translate(1.303155, 1.283850) rotate(2.772134) translate(-1.303155, -1.283850) " points="1.80663743 1.97621458 1.32186875 1.66802274 0.858693327 2.00667028 1.00804671 1.45935007 0.536233981 1.13203079 1.11349379 1.10196329 1.28516021 0.561030666 1.4924555 1.08978807 2.0700752 1.08280055 1.62165517 1.43965798"></polygon>
                                                </g>
                                                <g id="g597" transform="translate(6.243261, 4.447391)">
                                                    <polygon id="polygon598" fill="#FFFFFF" points="2.08986719 2.4619981 1.29703485 1.89046875 0.475051609 2.42070824 0.78455493 1.50484966 0.0161949412 0.902194103 1.00012759 0.907664128 1.34705922 0.00493360932 1.6461258 0.924144783 2.6286189 0.968893114 1.82966847 1.53152926"></polygon>
                                                    <polygon id="polygon599" fill="#FF0000" transform="translate(1.303155, 1.283850) rotate(2.772134) translate(-1.303155, -1.283850) " points="1.80663743 1.97621458 1.32186875 1.66802274 0.858693327 2.00667028 1.00804671 1.45935007 0.536233981 1.13203079 1.11349379 1.10196329 1.28516021 0.561030666 1.4924555 1.08978807 2.0700752 1.08280055 1.62165517 1.43965798"></polygon>
                                                </g>
                                                <g id="g600" transform="translate(2.988304, 11.455565)">
                                                    <polygon id="polygon601" fill="#FFFFFF" points="2.08986719 2.4619981 1.29703485 1.89046875 0.475051609 2.42070824 0.78455493 1.50484966 0.0161949412 0.902194103 1.00012759 0.907664128 1.34705922 0.00493360932 1.6461258 0.924144783 2.6286189 0.968893114 1.82966847 1.53152926"></polygon>
                                                    <polygon id="polygon602" fill="#FF0000" transform="translate(1.303155, 1.283850) rotate(2.772134) translate(-1.303155, -1.283850) " points="1.80663743 1.97621458 1.32186875 1.66802274 0.858693327 2.00667028 1.00804671 1.45935007 0.536233981 1.13203079 1.11349379 1.10196329 1.28516021 0.561030666 1.4924555 1.08978807 2.0700752 1.08280055 1.62165517 1.43965798"></polygon>
                                                </g>
                                            </g>
                                        </g>
                                    </g>
                                </g>
                            </g>
                        </g>
                    </g>
                </g>
            </g>
        </g>
    </g>
</svg>