<?xml version="1.0" encoding="UTF-8" standalone="no"?>
<svg width="24px" height="18px" viewBox="0 0 24 18" version="1.1" xmlns="http://www.w3.org/2000/svg" xmlns:xlink="http://www.w3.org/1999/xlink">
    <!-- Generator: sketchtool 39.1 (31720) - http://www.bohemiancoding.com/sketch -->
    <title>832E9358-8C68-45E3-AD4A-C71CC537BF65</title>
    <desc>Created with sketchtool.</desc>
    <defs>
        <rect id="path-1" x="0" y="0" width="24" height="18"></rect>
    </defs>
    <g id="Exports" stroke="none" stroke-width="1" fill="none" fill-rule="evenodd">
        <g id="04-NS-country-L" transform="translate(-688.000000, -941.000000)">
            <g id="Group-10" transform="translate(72.000000, 344.000000)">
                <g id="Group-9" transform="translate(616.000000, 41.000000)">
                    <g id="Group-7-Copy-2" transform="translate(0.000000, 554.000000)">
                        <g id="ph" transform="translate(0.000000, 2.000000)">
                            <mask id="mask-2" fill="white">
                                <use xlink:href="#path-1"></use>
                            </mask>
                            <g id="Mask"></g>
                            <g mask="url(#mask-2)" id="Group">
                                <g transform="translate(-1.000000, 0.000000)">
                                    <g>
                                        <polygon id="Shape" fill="#0038A8" points="0.241112828 0 25.9598145 0 25.9598145 9.5 0.241112828 9.5"></polygon>
                                        <polygon id="Shape" fill="#CE1126" points="0.241112828 9.5 25.9598145 9.5 25.9598145 19 0.241112828 19"></polygon>
                                        <polyline id="Shape" fill="#FFFFFF" points="16.9458918 9.5 0.241112828 19 0.241112828 0"></polyline>
                                        <g transform="translate(0.026781, 1.055561)" fill="#FCD116">
                                            <ellipse id="Oval" cx="6.21534903" cy="8.44443917" rx="1.92890142" ry="1.89999881"></ellipse>
                                            <g id="d" transform="translate(0.214322, 2.533332)">
                                                <g id="c">
                                                    <g id="b" transform="translate(1.928901, 1.688888)">
                                                        <polygon id="Shape" points="0 4.22221958 0.252471764 4.47090832 4.07212522 4.22221958 0.252471764 3.97353085"></polygon>
                                                        <polygon id="a" points="0.427255866 4.69333898 0.633413635 4.89640769 4.07212522 4.22221958"></polygon>
                                                        <g id="a-link" transform="translate(2.464707, 2.111110) scale(1, -1) translate(-2.464707, -2.111110) translate(0.214322, 0.000000)">
                                                            <polygon id="a" points="0.212933485 0.471119399 0.419091255 0.674188105 3.85780284 0"></polygon>
                                                        </g>
                                                    </g>
                                                    <g id="b-link" transform="translate(4.788636, 4.716883) rotate(45.000000) translate(-4.788636, -4.716883) translate(2.431090, 0.494664)">
                                                        <g id="b">
                                                            <polygon id="Shape" points="0 4.22221958 0.252471764 4.47090832 4.07212522 4.22221958 0.252471764 3.97353085"></polygon>
                                                            <polygon id="a" points="0.427255866 4.69333898 0.633413635 4.89640769 4.07212522 4.22221958"></polygon>
                                                            <g id="a-link" transform="translate(2.464707, 2.111110) scale(1, -1) translate(-2.464707, -2.111110) translate(0.214322, 0.000000)">
                                                                <polygon id="a" points="0.212933485 0.471119399 0.419091255 0.674188105 3.85780284 0"></polygon>
                                                            </g>
                                                        </g>
                                                    </g>
                                                </g>
                                                <g id="c-link" transform="translate(6.858316, 4.749997) rotate(90.000000) translate(-6.858316, -4.749997) translate(2.036063, -0.316666)">
                                                    <g id="c">
                                                        <g id="b" transform="translate(1.928901, 1.688888)">
                                                            <polygon id="Shape" points="0 4.22221958 0.252471764 4.47090832 4.07212522 4.22221958 0.252471764 3.97353085"></polygon>
                                                            <polygon id="a" points="0.427255866 4.69333898 0.633413635 4.89640769 4.07212522 4.22221958"></polygon>
                                                            <g id="a-link" transform="translate(2.464707, 2.111110) scale(1, -1) translate(-2.464707, -2.111110) translate(0.214322, 0.000000)">
                                                                <polygon id="a" points="0.212933485 0.471119399 0.419091255 0.674188105 3.85780284 0"></polygon>
                                                            </g>
                                                        </g>
                                                        <g id="b-link" transform="translate(4.788636, 4.716883) rotate(45.000000) translate(-4.788636, -4.716883) translate(2.431090, 0.494664)">
                                                            <g id="b">
                                                                <polygon id="Shape" points="0 4.22221958 0.252471764 4.47090832 4.07212522 4.22221958 0.252471764 3.97353085"></polygon>
                                                                <polygon id="a" points="0.427255866 4.69333898 0.633413635 4.89640769 4.07212522 4.22221958"></polygon>
                                                                <g id="a-link" transform="translate(2.464707, 2.111110) scale(1, -1) translate(-2.464707, -2.111110) translate(0.214322, 0.000000)">
                                                                    <polygon id="a" points="0.212933485 0.471119399 0.419091255 0.674188105 3.85780284 0"></polygon>
                                                                </g>
                                                            </g>
                                                        </g>
                                                    </g>
                                                </g>
                                            </g>
                                            <g id="d-link" transform="translate(6.215349, 9.288883) scale(-1, -1) translate(-6.215349, -9.288883) translate(0.214322, 4.222220)">
                                                <g id="d">
                                                    <g id="c">
                                                        <g id="b" transform="translate(1.928901, 1.688888)">
                                                            <polygon id="Shape" points="0 4.22221958 0.252471764 4.47090832 4.07212522 4.22221958 0.252471764 3.97353085"></polygon>
                                                            <polygon id="a" points="0.427255866 4.69333898 0.633413635 4.89640769 4.07212522 4.22221958"></polygon>
                                                            <g id="a-link" transform="translate(2.464707, 2.111110) scale(1, -1) translate(-2.464707, -2.111110) translate(0.214322, 0.000000)">
                                                                <polygon id="a" points="0.212933485 0.471119399 0.419091255 0.674188105 3.85780284 0"></polygon>
                                                            </g>
                                                        </g>
                                                        <g id="b-link" transform="translate(4.788636, 4.716883) rotate(45.000000) translate(-4.788636, -4.716883) translate(2.431090, 0.494664)">
                                                            <g id="b">
                                                                <polygon id="Shape" points="0 4.22221958 0.252471764 4.47090832 4.07212522 4.22221958 0.252471764 3.97353085"></polygon>
                                                                <polygon id="a" points="0.427255866 4.69333898 0.633413635 4.89640769 4.07212522 4.22221958"></polygon>
                                                                <g id="a-link" transform="translate(2.464707, 2.111110) scale(1, -1) translate(-2.464707, -2.111110) translate(0.214322, 0.000000)">
                                                                    <polygon id="a" points="0.212933485 0.471119399 0.419091255 0.674188105 3.85780284 0"></polygon>
                                                                </g>
                                                            </g>
                                                        </g>
                                                    </g>
                                                    <g id="c-link" transform="translate(6.858316, 4.749997) rotate(90.000000) translate(-6.858316, -4.749997) translate(2.036063, -0.316666)">
                                                        <g id="c">
                                                            <g id="b" transform="translate(1.928901, 1.688888)">
                                                                <polygon id="Shape" points="0 4.22221958 0.252471764 4.47090832 4.07212522 4.22221958 0.252471764 3.97353085"></polygon>
                                                                <polygon id="a" points="0.427255866 4.69333898 0.633413635 4.89640769 4.07212522 4.22221958"></polygon>
                                                                <g id="a-link" transform="translate(2.464707, 2.111110) scale(1, -1) translate(-2.464707, -2.111110) translate(0.214322, 0.000000)">
                                                                    <polygon id="a" points="0.212933485 0.471119399 0.419091255 0.674188105 3.85780284 0"></polygon>
                                                                </g>
                                                            </g>
                                                            <g id="b-link" transform="translate(4.788636, 4.716883) rotate(45.000000) translate(-4.788636, -4.716883) translate(2.431090, 0.494664)">
                                                                <g id="b">
                                                                    <polygon id="Shape" points="0 4.22221958 0.252471764 4.47090832 4.07212522 4.22221958 0.252471764 3.97353085"></polygon>
                                                                    <polygon id="a" points="0.427255866 4.69333898 0.633413635 4.89640769 4.07212522 4.22221958"></polygon>
                                                                    <g id="a-link" transform="translate(2.464707, 2.111110) scale(1, -1) translate(-2.464707, -2.111110) translate(0.214322, 0.000000)">
                                                                        <polygon id="a" points="0.212933485 0.471119399 0.419091255 0.674188105 3.85780284 0"></polygon>
                                                                    </g>
                                                                </g>
                                                            </g>
                                                        </g>
                                                    </g>
                                                </g>
                                            </g>
                                            <g transform="translate(0.210036, 0.000000)">
                                                <g id="f" transform="translate(12.636876, 7.388884)">
                                                    <polygon id="e" points="2.1432238 1.0555549 1.41838551 1.30382141 1.40273998 2.05959871 0.93916067 1.45708798 0.204677873 1.67601006 0.642967141 1.0555549"></polygon>
                                                    <g id="e-link" transform="translate(1.071612, 0.527777) scale(1, -1) translate(-1.071612, -0.527777) ">
                                                        <polygon id="e" points="2.1432238 0 1.41838551 0.248266511 1.40273998 1.00404382 0.93916067 0.401533082 0.204677873 0.620455168 0.642967141 0"></polygon>
                                                    </g>
                                                </g>
                                                <g id="f-link" transform="translate(1.553837, 15.300469) rotate(120.000000) translate(-1.553837, -15.300469) translate(0.375064, 14.244914)">
                                                    <g id="f" transform="translate(0.206178, 0.000000)">
                                                        <polygon id="e" points="2.1432238 1.0555549 1.41838551 1.30382141 1.40273998 2.05959871 0.93916067 1.45708798 0.204677873 1.67601006 0.642967141 1.0555549"></polygon>
                                                        <g id="e-link" transform="translate(1.071612, 0.527777) scale(1, -1) translate(-1.071612, -0.527777) ">
                                                            <polygon id="e" points="2.1432238 0 1.41838551 0.248266512 1.40273998 1.00404382 0.93916067 0.401533082 0.204677873 0.620455168 0.642967141 0"></polygon>
                                                        </g>
                                                    </g>
                                                </g>
                                                <g id="f-link" transform="translate(1.553837, 1.588409) rotate(240.000000) translate(-1.553837, -1.588409) translate(0.375064, 0.532854)">
                                                    <g id="f" transform="translate(0.206178, 0.000000)">
                                                        <polygon id="e" points="2.1432238 1.0555549 1.41838551 1.30382141 1.40273998 2.05959871 0.93916067 1.45708798 0.204677873 1.67601006 0.642967141 1.0555549"></polygon>
                                                        <g id="e-link" transform="translate(1.071612, 0.527777) scale(1, -1) translate(-1.071612, -0.527777) ">
                                                            <polygon id="e" points="2.1432238 0 1.41838551 0.248266511 1.40273998 1.00404382 0.93916067 0.401533082 0.204677873 0.620455168 0.642967141 0"></polygon>
                                                        </g>
                                                    </g>
                                                </g>
                                            </g>
                                        </g>
                                    </g>
                                </g>
                            </g>
                        </g>
                    </g>
                </g>
            </g>
        </g>
    </g>
</svg>