<?xml version="1.0" encoding="UTF-8" standalone="no"?>
<svg width="24px" height="18px" viewBox="0 0 24 18" version="1.1" xmlns="http://www.w3.org/2000/svg" xmlns:xlink="http://www.w3.org/1999/xlink">
    <!-- Generator: sketchtool 39.1 (31720) - http://www.bohemiancoding.com/sketch -->
    <title>127EAE3C-F7D3-4039-9E98-02ACB759D516</title>
    <desc>Created with sketchtool.</desc>
    <defs>
        <rect id="path-1" x="0" y="0" width="24" height="18"></rect>
    </defs>
    <g id="Exports" stroke="none" stroke-width="1" fill="none" fill-rule="evenodd">
        <g id="04-NS-country-L" transform="translate(-395.000000, -1101.000000)">
            <g id="Group-10" transform="translate(72.000000, 344.000000)">
                <g id="Group-6" transform="translate(323.000000, 41.000000)">
                    <g id="Group-8-Copy-18" transform="translate(0.000000, 714.000000)">
                        <g id="pt" transform="translate(0.000000, 2.000000)">
                            <mask id="mask-2" fill="white">
                                <use xlink:href="#path-1"></use>
                            </mask>
                            <g id="Mask"></g>
                            <g mask="url(#mask-2)" id="Group">
                                <g transform="translate(0.000000, -1.000000)">
                                    <g>
                                        <polygon id="Shape" fill="#FF0000" points="10.4 0 26 0 26 19 10.4 19"></polygon>
                                        <polygon id="Shape" fill="#006600" points="0 0 10.4 0 10.4 19 0 19"></polygon>
                                        <g transform="translate(6.012500, 5.225000)" id="Shape" stroke="#000000" stroke-width="0.5" fill="#FFFF00">
                                            <path d="M7.7779,6.89446667 C6.4688,6.85607083 0.46580625,3.20510208 0.424653125,2.62370208 L0.756153125,2.08505208 C1.35159375,2.92805833 7.48840625,6.47872292 8.0912,6.35292708 L7.7779,6.89430833"></path>
                                            <path d="M0.6864,2.01190208 C0.56899375,2.31986042 2.2529,3.33422292 4.27886875,4.534825 C6.3048375,5.7353875 8.0517125,6.47729792 8.18114375,6.37089792 C8.18906562,6.35712292 8.244925,6.26362708 8.23976562,6.26433958 C8.21547187,6.29996458 8.15640312,6.31120625 8.06426563,6.28531875 C7.51688438,6.13149792 6.08932188,5.49301875 4.3213625,4.44841458 C2.55344375,3.40373125 1.0153,2.44098542 0.776221875,2.03197083 C0.759565625,2.00362917 0.747784375,1.95189375 0.750140625,1.9116375 L0.74433125,1.9116375 L0.693428125,1.998325 L0.6864,2.0118625 L0.6864,2.01190208 Z M7.80865312,6.91136875 C7.78647187,6.95055625 7.745075,6.95190208 7.66646562,6.94351042 C7.1768125,6.89070625 5.69095312,6.18667708 3.93278437,5.16115208 C1.88699062,3.96795208 0.1974375,2.88075625 0.3807375,2.59654792 L0.430625,2.51065208 L0.44045625,2.51366042 C0.2756,2.99519167 3.77483437,4.94475 3.98084375,5.06904167 C6.00559375,6.29125625 7.71249375,7.00498333 7.86357812,6.81949583 L7.8086125,6.91156667 L7.8086125,6.9114875 L7.80865312,6.91136875 Z"></path>
                                            <path d="M4.3948125,2.975875 C5.70513125,2.96574167 7.32204687,2.8013125 8.2525625,2.44003542 L8.0520375,2.12265625 C7.50205625,2.41925417 5.87628437,2.61428125 4.38380312,2.64345417 C2.618525,2.62762083 1.37251562,2.46746667 0.748271875,2.05932292 L0.558959375,2.39728542 C1.70661562,2.87046458 2.88262812,2.97096667 4.39485312,2.97583542"></path>
                                            <path d="M8.30659375,2.4472 C8.2745,2.497075 7.66768438,2.70100833 6.77373125,2.85150417 C6.16760625,2.94151667 5.37692188,3.01854583 4.3902625,3.01941667 C3.4528,3.0202875 2.68701875,2.95529167 2.10725938,2.87869792 C1.16882188,2.73532708 0.684571875,2.53590625 0.505496875,2.46536875 C0.522559375,2.43219792 0.533609375,2.40892292 0.550103125,2.37788958 C1.06555313,2.57790417 1.55215938,2.69851458 2.12220938,2.78393542 C2.69815,2.85993542 3.45470938,2.92592083 4.38745938,2.92508958 C5.36960938,2.9241 6.15155938,2.84129167 6.75419063,2.75393125 C7.67089375,2.60984792 8.17167813,2.42443958 8.242,2.33830625 L8.30671563,2.44723958 L8.30663438,2.44723958 L8.30659375,2.4472 Z M8.13060625,2.1253875 C8.0312375,2.20308958 7.53618125,2.37416875 6.66514063,2.50974167 C6.08379688,2.5908875 5.34466563,2.6635625 4.40029688,2.66443333 C3.50313438,2.66530417 2.7701375,2.60640417 2.21264063,2.52727708 C1.32803125,2.41470208 0.8571875,2.21163958 0.68745625,2.15242292 C0.70435625,2.12392292 0.72158125,2.09573958 0.7392125,2.06739792 C0.87124375,2.13215625 1.32563438,2.31186458 2.22235,2.43564167 C2.77355,2.5118 3.50764375,2.5685625 4.40037813,2.56765208 C5.34027813,2.56674167 6.071,2.49268125 6.64856563,2.41193125 C7.52415625,2.29456667 7.99528438,2.07638333 8.06678438,2.02175833 L8.13064688,2.12522917 L8.13064688,2.12534792 L8.13060625,2.1253875 Z M0.0923,4.51396458 C0.89821875,4.93631875 2.6882375,5.14915833 4.38205625,5.16380417 C5.92430313,5.16617917 7.93349375,4.93152917 8.68489375,4.54353333 L8.664175,4.1208625 C8.42915937,4.478775 6.27599375,4.82212083 4.36531875,4.80802917 C2.45460312,4.79401667 0.680346875,4.50648333 0.0888875,4.13424167 L0.0923,4.51384583 L0.0923,4.51396458 Z"></path>
                                            <path d="M8.72604688,4.453125 L8.72604688,4.55398333 C8.61310938,4.68555833 7.90509687,4.88438542 7.01711563,5.02443125 C6.34131875,5.12536875 5.46024375,5.20152708 4.36239375,5.20152708 C3.31942813,5.20152708 2.48767188,5.12908958 1.84266875,5.03258542 C0.82298125,4.88786875 0.17086875,4.63453542 0.039934375,4.55893125 L0.04054375,4.44136875 C0.43379375,4.6960875 1.49918438,4.88240625 1.8568875,4.93948542 C2.49774688,5.03527708 3.32454688,5.10723958 4.3623125,5.10723958 C5.45504375,5.10723958 6.33112188,5.03163542 7.00269375,4.93133125 C7.63969375,4.84163542 8.54725625,4.60845 8.725925,4.45316458 L8.72604688,4.453125 Z M8.72645313,4.09461875 L8.72645313,4.1954375 C8.61359688,4.32685417 7.90550312,4.52576042 7.0175625,4.66576667 C6.34176562,4.76670417 5.46073125,4.8428625 4.36288125,4.8428625 C3.319875,4.8428625 2.48815937,4.77050417 1.84311562,4.67392083 C0.823509375,4.52932292 0.171396875,4.27598958 0.040421875,4.20034583 L0.040990625,4.08278333 C0.434240625,4.3374625 1.49963125,4.52386042 1.85741563,4.58082083 C2.49823437,4.67673125 3.32503437,4.74865417 4.36275938,4.74865417 C5.45549063,4.74865417 6.33160938,4.67305 7.00314062,4.57266667 C7.64014062,4.48301042 8.54770312,4.249825 8.72637187,4.0945 L8.72637187,4.09461875 L8.72645313,4.09461875 Z M4.3784,6.82179167 C2.52496563,6.81110417 0.9368125,6.32957292 0.60149375,6.24997083 L0.84605625,6.62300417 C1.43836875,6.86576875 2.987725,7.2276 4.39619375,7.18754167 C5.8046625,7.1475625 7.0356,7.04120208 7.90306563,6.62973333 L8.15380313,6.24320208 C7.5625875,6.51446667 5.55079688,6.81906042 4.37831875,6.82183125 L4.3784,6.82179167 Z"></path>
                                            <path d="M7.99715313,6.543125 C7.96060047,6.59766428 7.92308447,6.65158481 7.88462188,6.7048625 C7.47552813,6.84538333 6.83080938,6.99302917 6.55878438,7.03605625 C6.00303438,7.14760208 5.1432875,7.23001458 4.38026875,7.23041042 C2.73836875,7.20697708 1.39433125,6.89379375 0.762084375,6.62664583 L0.71101875,6.54114583 L0.719346875,6.52836042 L0.805878125,6.56105625 C1.93029688,6.95301042 3.19316563,7.10940417 4.38940938,7.13746875 C5.14950313,7.14008125 5.91024688,7.05260208 6.52547188,6.94541042 C7.46886563,6.76122917 7.85033438,6.62241042 7.967375,6.55947292 L7.99719375,6.54324375 L7.99715313,6.543125 Z M8.21457812,6.1937625 C8.2155125,6.19487083 8.2164875,6.1959 8.21742187,6.19704792 C8.18941266,6.24315923 8.16106924,6.28907705 8.13239375,6.33479792 C7.91415625,6.41079792 7.321925,6.57962083 6.45714062,6.69746042 C5.887375,6.77306458 5.53320625,6.84629375 4.39972812,6.86774792 C2.27577187,6.81510208 0.900615625,6.41044167 0.573909375,6.3106125 L0.525484375,6.220125 C1.75642187,6.53322917 3.01376562,6.75184792 4.39989062,6.77417292 C5.43684375,6.75263958 5.87803125,6.67822292 6.44308437,6.60317292 C7.45151875,6.45038125 7.95961562,6.28864375 8.11208125,6.24193542 C8.10999696,6.23903776 8.10777366,6.23623743 8.10541875,6.23354375 L8.21478125,6.1937625 L8.2147,6.19384167 L8.21457812,6.1937625 Z"></path>
                                            <path d="M8.2368,4.18039583 C8.2428125,5.36841042 7.61889375,6.43450833 7.11628125,6.90479792 C6.4052625,7.57019375 5.46255938,7.99820833 4.36162187,8.01788125 C3.13230938,8.03992917 1.97311563,7.25906875 1.66217188,6.91596042 C1.0543,6.24522083 0.55940625,5.39350625 0.543521875,4.24566875 C0.6188,2.9490375 1.14119688,2.04586458 1.89844688,1.42654375 C2.65569688,0.807183333 3.66400938,0.50551875 4.50372812,0.527091667 C5.4725125,0.552029167 6.60424375,1.01515417 7.386275,1.9344375 C7.89855625,2.53689583 8.12045,3.19053542 8.23675937,4.18039583 L8.2368,4.18039583 Z M4.3720625,0.11269375 C6.73310625,0.11269375 8.6749,1.98474792 8.6749,4.28014583 C8.6749,6.57546458 6.73310625,8.44759792 4.3720625,8.44759792 C2.01105938,8.44759792 0.0853125,6.57550417 0.0853125,4.28010625 C0.0853125,1.98466875 2.01105938,0.112614583 4.3720625,0.112614583 L4.3720625,0.11269375 Z"></path>
                                            <path d="M4.3836,0.0983645833 C6.74675625,0.0983645833 8.6740875,1.97659375 8.6740875,4.27931458 C8.6740875,6.58199583 6.74671562,8.46010625 4.3836,8.46010625 C2.02044375,8.46010625 0.0931125,6.58203542 0.0931125,4.27931458 C0.0931125,1.97651458 2.02048437,0.098325 4.3836,0.098325 L4.3836,0.0983645833 Z M0.187565625,4.27935417 C0.187565625,6.52808333 2.08272187,8.36819375 4.3836,8.36819375 C6.68447812,8.36819375 8.57975625,6.52808333 8.57975625,4.27931458 C8.57975625,2.03042708 6.6844375,0.19035625 4.3836,0.19035625 C2.0827625,0.19035625 0.187565625,2.03058542 0.187565625,4.27931458 L0.187565625,4.27935417 Z"></path>
                                            <path d="M4.38709375,0.445866667 C6.5420875,0.445866667 8.31715625,2.16940417 8.31715625,4.27555417 C8.31715625,6.38178333 6.54204688,8.10524167 4.38709375,8.10524167 C2.2321,8.10524167 0.45703125,6.38178333 0.45703125,4.27555417 C0.45703125,2.16940417 2.23214062,0.445866667 4.38709375,0.445866667 L4.38709375,0.445866667 Z M0.551403125,4.27555417 C0.551403125,6.33111667 2.28385625,8.01325 4.38705312,8.01325 C6.49020938,8.01325 8.2226625,6.33115625 8.2226625,4.27555417 C8.2226625,2.21999167 6.49029062,0.537858333 4.3870125,0.537858333 C2.283775,0.537858333 0.551321875,2.21995208 0.551321875,4.27555417 L0.551403125,4.27555417 Z"></path>
                                            <polygon points="4.55429687 0.0815416667 4.19229687 0.0815416667 4.19269687 8.48203542 4.55597687 8.48203542"></polygon>
                                            <path d=""></path>
                                            <polygon points="8.67709375 4.44113125 8.67709375 4.1306 8.4175 3.895 6.94415312 3.515 4.82084687 3.3038625 2.26415312 3.43052917 0.444153125 3.85276458 0.0767 4.11797292 0.0767 4.42854375 1.0075 4.02166667 3.2175 3.6838625 5.34084688 3.6838625 6.90084688 3.85276458 7.98415313 4.10609792"></polygon>
                                            <path d="M4.38534688,3.63196875 C5.39861563,3.63014792 6.38165938,3.72550417 7.16149688,3.87342708 C7.96615625,4.03017708 8.53242813,4.22623333 8.72604688,4.44643542 L8.72580313,4.55552708 C8.49229063,4.28149167 7.7302875,4.08060625 7.1433375,3.96573542 C6.36943125,3.81907917 5.39296875,3.72435625 4.38530625,3.72625625 C3.3219875,3.72811667 2.331875,3.82624375 1.56930313,3.97127708 C0.957490625,4.0895125 0.14145625,4.32451875 0.03956875,4.55631875 L0.03956875,4.44279375 C0.095509375,4.2823625 0.7031375,4.04260625 1.55553125,3.87635625 C2.32383125,3.73029375 3.3158125,3.63386875 4.38534688,3.63200833 L4.38534688,3.63196875 Z M4.38575312,3.27334375 C5.39902187,3.27160208 6.38214688,3.36699792 7.16190313,3.51488125 C7.9665625,3.67171042 8.53283438,3.8676875 8.72645313,4.08788958 L8.72625,4.19690208 C8.4927375,3.92298542 7.73073438,3.72202083 7.14378437,3.60722917 C6.36995937,3.46049375 5.39345625,3.36577083 4.38575312,3.36767083 C3.32243437,3.36953125 2.33715625,3.4677375 1.57450313,3.6126125 C0.984059375,3.72170417 0.134753125,3.9660125 0.040015625,4.1978125 L0.040015625,4.08420833 C0.09595625,3.92547917 0.715853125,3.67713333 1.55601875,3.51777083 C2.3242375,3.37170833 3.31621875,3.2753625 4.38575313,3.27342292 L4.38575312,3.27334375 Z M4.36495313,1.44439583 C5.96175938,1.4366375 7.35454688,1.66194583 7.99175,1.97995833 L8.224125,2.37183333 C7.670325,2.080975 6.16776875,1.77855833 4.36730938,1.82380208 C2.90034063,1.83258958 1.33278438,1.98114583 0.546325,2.39000208 L0.82379375,1.93780208 C1.469325,1.61163542 2.9914625,1.44617708 4.365075,1.444475 L4.36495313,1.44439583 Z"></path>
                                            <path d="M4.3862,1.76779167 C5.29693125,1.76549583 6.17695,1.81552917 6.8768375,1.93859375 C7.52858438,2.05678958 8.1501875,2.2341625 8.23899375,2.32955833 L8.307975,2.44822917 C8.09185,2.31067708 7.553975,2.15756875 6.86326875,2.02995208 C6.16967813,1.90288958 5.29026875,1.86085208 4.38461563,1.8631875 C3.3566,1.85974375 2.55799375,1.91266667 1.87256875,2.02904167 C1.14769688,2.16125 0.644759375,2.3500625 0.520690625,2.43971875 L0.588209375,2.31431875 C0.829278125,2.19446042 1.21180313,2.05002083 1.85457188,1.9372875 C2.56335625,1.81113542 3.37049375,1.77329375 4.3862,1.76787083 L4.3862,1.76779167 Z M4.38579375,1.4095625 C5.2573625,1.40738542 6.11792188,1.4546875 6.7887625,1.57225 C7.31778125,1.67255417 7.84095,1.829225 8.03257813,1.9686375 L8.13332813,2.124675 C7.9620125,1.93910833 7.31717188,1.76327917 6.7478125,1.66471667 C6.08217188,1.55289375 5.2573625,1.50863958 4.38579375,1.50155417 C3.47112188,1.50404792 2.62579688,1.55863333 1.969825,1.67500833 C1.34407813,1.7909875 0.940265625,1.92842083 0.76935625,2.03569167 L0.858040625,1.90538333 C1.09386875,1.78441667 1.47480937,1.67334583 1.95450938,1.58250208 C2.61531563,1.46525625 3.46584063,1.41205625 4.38591563,1.40952292 L4.38579375,1.4095625 Z M6.51734688,6.0170625 C5.72788125,5.87349375 4.93703438,5.85263333 4.38461563,5.85896667 C1.72359688,5.88936667 0.863971875,6.3913625 0.759078125,6.5433625 L0.56021875,6.2274875 C1.23772188,5.74900417 2.68673438,5.48070833 4.39899688,5.50813958 C5.28811563,5.52231042 6.0554,5.57986458 6.70080937,5.70170208 L6.51726563,6.01718125 L6.51734688,6.0170625 Z"></path>
                                            <path d="M4.3693,5.81439583 C5.1094875,5.82520208 5.83610625,5.85496875 6.53745625,5.9823875 L6.48659375,6.06974792 C5.83525312,5.95266042 5.14089062,5.90785208 4.37181875,5.91141458 C3.38975,5.90397292 2.39646875,5.99335208 1.531725,6.23520625 C1.25884687,6.30914792 0.8071375,6.48006875 0.76106875,6.62134167 L0.71053125,6.54019583 C0.72515625,6.456675 0.99815625,6.28337917 1.5084875,6.14368958 C2.49900625,5.86731875 3.4255,5.82068958 4.3693,5.81435625 L4.3693,5.814475 L4.3693,5.81439583 Z M4.40289688,5.45141667 C5.169775,5.46542917 5.96175938,5.49998542 6.73160313,5.64854167 L6.67875,5.73958333 C5.983575,5.60511875 5.3194375,5.56027083 4.40740625,5.54661458 C3.42225,5.54835625 2.3772125,5.61679583 1.42703438,5.8859625 C1.12031562,5.97304583 0.59085,6.16126458 0.573178125,6.31029583 L0.522640625,6.22309375 C0.5341375,6.08771875 0.99246875,5.91117708 1.4048125,5.7942875 C2.36234375,5.52302292 3.4100625,5.45327708 4.4029375,5.45149583 L4.40289688,5.45141667 Z"></path>
                                            <polygon points="8.1826875 6.27554167 7.8628875 6.75885417 6.94415312 5.96390208 4.56084687 4.40166667 1.87415312 2.96609792 0.479253125 2.50123125 0.776546875 1.96408542 0.8775 1.91052917 1.74415312 2.12162708 4.60415312 3.55719583 6.25084687 4.57052917 7.6375 5.54166667 8.20084687 6.175"></polygon>
                                            <path d="M0.429,2.5139375 C0.67364375,2.35223958 2.47170625,3.132625 4.35305,4.23802917 C6.2294375,5.34652083 8.02238125,6.599175 7.86053125,6.83350833 L7.8073125,6.91512917 L7.7829375,6.93389167 C7.7881375,6.93025 7.8151125,6.89810833 7.78025625,6.81118333 C7.70030625,6.55488125 6.42845938,5.56601042 4.31819375,4.32455833 C2.26094375,3.12926042 0.54640625,2.40884375 0.37496875,2.61475625 L0.429,2.51389792 L0.429,2.5139375 Z M8.24809375,6.26861458 C8.40275313,5.97086875 6.73505625,4.74675417 4.66740625,3.5549 C2.5520625,2.38679583 1.02760937,1.69923333 0.749125,1.904275 L0.68729375,2.01392083 C0.686725,2.01997708 0.689528125,2.00647917 0.702609375,1.9966625 C0.753228125,1.95359583 0.837159375,1.95648542 0.875021875,1.95589167 C1.35447812,1.96281875 2.72386563,2.576875 4.64526563,3.6501375 C5.4871375,4.12790833 8.20165938,5.82417292 8.1913,6.30123125 C8.19203125,6.34216042 8.19479375,6.35063125 8.17895,6.37089792 L8.2480125,6.26861458 L8.2480125,6.26849583 L8.24809375,6.26861458 Z"></path>
                                        </g>
                                        <g transform="translate(7.800024, 6.586697)">
                                            <path d="M0.0260000812,3.37821056 C0.0260000812,4.06516826 0.314730984,4.68655465 0.782472445,5.14065606 C1.25112391,5.5957286 1.8879959,5.88292505 2.59424477,5.88292505 C3.30404699,5.88292505 3.94824234,5.60197751 4.41490046,5.14867831 C4.88160192,4.69542134 5.17076616,4.06981272 5.17089616,3.38040612 L5.17080949,3.38040612 L5.17080949,0.0368178928 L0.0253934127,0.0309067633 L0.0259134143,3.37821056 L0.0260000813,3.37821056 L0.0260000812,3.37821056 Z" id="Shape" stroke="#000000" stroke-width="0.5" fill="#FFFFFF"></path>
                                            <path d="M0.122200382,3.38285502 L0.122200382,3.38475502 C0.122200382,4.04160819 0.401267921,4.63977228 0.84911932,5.07407141 C1.29779406,5.50913055 1.91572932,5.77960695 2.59173143,5.77960695 C3.27120022,5.77960695 3.88783548,5.51107278 4.33460355,5.07766031 C4.78137161,4.64424785 5.05818581,4.04604153 5.05827247,3.38690836 L5.05818581,3.38690836 L5.05818581,0.143133781 L0.125103724,0.142289334 L0.122070381,3.38285502 L0.122200382,3.38285502 Z M4.06636937,1.11348792 L4.06654271,3.17773882 L4.06480937,3.39615506 C4.06480937,3.45357746 4.06125602,3.51910655 4.05440934,3.57488228 C4.01428254,3.90126108 3.8602754,4.18571308 3.63208135,4.40700044 C3.36497385,4.6660768 2.99637936,4.82677508 2.59004143,4.82677508 C2.1859135,4.82677508 1.82572571,4.66050345 1.55749153,4.40032931 C1.28232401,4.13348403 1.12285684,3.76758511 1.12285684,3.38923059 L1.12229351,1.10829457 L4.06636937,1.1134457 L4.06636937,1.11353015 L4.06636937,1.11348792 Z" id="Shape" stroke="#000000" stroke-width="0.5" fill="#FF0000"></path>
                                            <g id="e" transform="translate(0.216667, 0.168889)">
                                                <g id="d">
                                                    <path d="" id="Shape" fill="#FFFF00"></path>
                                                    <path d="" id="Shape" stroke="#000000" stroke-width="0.5" fill="#FFFF00"></path>
                                                    <path d="M0.303767616,0.8034914 C0.304547618,0.66360874 0.401787922,0.624046395 0.402307924,0.624130839 C0.402307924,0.624130839 0.503794908,0.664917633 0.50457491,0.8034914 L0.303767616,0.8034914 L0.303767616,0.8034914 Z M0.0524334972,0.424363359 L0.756385697,0.424363359 C0.771205743,0.424363359 0.783382448,0.44691655 0.783382448,0.474363359 C0.783382448,0.501810168 0.771249077,0.524292437 0.756385697,0.524292437 L0.0524334972,0.524292437 C0.0376134509,0.524292437 0.0254367462,0.50188109 0.0254367462,0.474292437 C0.0254367462,0.446845629 0.0375701174,0.424292437 0.0524334972,0.424292437 L0.0524334972,0.424363359 Z M0.0671668766,0.484290402 L0.740482314,0.484290402 C0.754652358,0.484290402 0.766265728,0.506804607 0.766265728,0.534290402 C0.766265728,0.56184722 0.754652358,0.584290402 0.740482314,0.584290402 L0.0671668766,0.584290402 C0.0529968323,0.584290402 0.0413834627,0.56184722 0.0413834627,0.534290402 C0.0413834627,0.506804607 0.0529968323,0.484290402 0.0671668766,0.484290402 L0.0671668766,0.484290402 Z M0.28470089,0.0371556717 L0.337871056,0.0372401164 L0.337871056,0.0739735645 L0.37665451,0.0739735645 L0.37665451,0.0363956693 L0.431124681,0.0366067811 L0.431124681,0.0740580092 L0.469951469,0.0740580092 L0.469951469,0.036480114 L0.524464972,0.036480114 L0.524378305,0.121347046 C0.524378305,0.134731532 0.513371604,0.14330267 0.500544898,0.14330267 L0.3094443,0.14330267 C0.296617594,0.14330267 0.284744223,0.133338194 0.284744223,0.121135934 L0.284570889,0.0371134493 L0.28470089,0.0371556717 Z M0.484901515,0.150733804 L0.496904886,0.423067989 L0.31044097,0.422434653 L0.322791009,0.150016024 L0.484858182,0.150733804 L0.484901515,0.150733804 Z" id="Shape" stroke="#000000" stroke-width="0.5" fill="#FFFF00"></path>
                                                    <polygon id="a" stroke="#000000" stroke-width="0.5" fill="#FFFF00" points="0.254738129 0.276978643 0.260284813 0.425373774 0.0843269302 0.425373774 0.089276279 0.276978643 0.254823463 0.276978643"></polygon>
                                                    <g id="a-link" transform="translate(0.503058, 0.253334)" stroke-width="0.5" stroke="#000000" fill="#FFFF00">
                                                        <polygon id="a" points="0.210773992 0.023893408 0.216320676 0.172288538 0.0403627928 0.172288538 0.0453121416 0.023893408 0.210859326 0.023893408"></polygon>
                                                    </g>
                                                    <path d="" id="b" stroke="#000000" stroke-width="0.5" fill="#FFFF00"></path>
                                                    <g id="b-link" transform="translate(0.503058, 0.168889)" stroke="#000000" stroke-width="0.5" fill="#FFFF00">
                                                        <path d="" id="b"></path>
                                                    </g>
                                                    <path d="" id="Shape" fill="#000000"></path>
                                                    <path d="" id="c" fill="#000000"></path>
                                                    <g id="c-link" transform="translate(0.591112, 0.295556)" fill="#000000">
                                                        <path d="" id="c"></path>
                                                    </g>
                                                </g>
                                                <g id="d-link" transform="translate(0.000000, 1.955739)">
                                                    <g id="d">
                                                        <path d="" id="Shape" fill="#FFFF00"></path>
                                                        <path d="" id="Shape" stroke="#000000" stroke-width="0.5" fill="#FFFF00"></path>
                                                        <path d="M0.303767616,0.8034914 C0.304547618,0.66360874 0.401787922,0.624046395 0.402307924,0.624130839 C0.402307924,0.624130839 0.503794908,0.664917633 0.50457491,0.8034914 L0.303767616,0.8034914 L0.303767616,0.8034914 Z M0.0524334972,0.424363359 L0.756385697,0.424363359 C0.771205743,0.424363359 0.783382448,0.44691655 0.783382448,0.474363359 C0.783382448,0.501810168 0.771249077,0.524292437 0.756385697,0.524292437 L0.0524334972,0.524292437 C0.0376134509,0.524292437 0.0254367462,0.50188109 0.0254367462,0.474292437 C0.0254367462,0.446845629 0.0375701174,0.424292437 0.0524334972,0.424292437 L0.0524334972,0.424363359 Z M0.0671668766,0.484290402 L0.740482314,0.484290402 C0.754652358,0.484290402 0.766265728,0.506804607 0.766265728,0.534290402 C0.766265728,0.56184722 0.754652358,0.584290402 0.740482314,0.584290402 L0.0671668766,0.584290402 C0.0529968323,0.584290402 0.0413834627,0.56184722 0.0413834627,0.534290402 C0.0413834627,0.506804607 0.0529968323,0.484290402 0.0671668766,0.484290402 L0.0671668766,0.484290402 Z M0.28470089,0.0371556717 L0.337871056,0.0372401164 L0.337871056,0.0739735645 L0.37665451,0.0739735645 L0.37665451,0.0363956693 L0.431124681,0.0366067811 L0.431124681,0.0740580092 L0.469951469,0.0740580092 L0.469951469,0.036480114 L0.524464972,0.036480114 L0.524378305,0.121347046 C0.524378305,0.134731532 0.513371604,0.14330267 0.500544898,0.14330267 L0.3094443,0.14330267 C0.296617594,0.14330267 0.284744223,0.133338194 0.284744223,0.121135934 L0.284570889,0.0371134493 L0.28470089,0.0371556717 Z M0.484901515,0.150733804 L0.496904886,0.423067989 L0.31044097,0.422434653 L0.322791009,0.150016024 L0.484858182,0.150733804 L0.484901515,0.150733804 Z" id="Shape" stroke="#000000" stroke-width="0.5" fill="#FFFF00"></path>
                                                        <polygon id="a" stroke="#000000" stroke-width="0.5" fill="#FFFF00" points="0.254738129 0.276978643 0.260284813 0.425373774 0.0843269302 0.425373774 0.089276279 0.276978643 0.254823463 0.276978643"></polygon>
                                                        <g id="a-link" transform="translate(0.503058, 0.253334)" stroke-width="0.5" stroke="#000000" fill="#FFFF00">
                                                            <polygon id="a" points="0.210773992 0.023893408 0.216320676 0.172288538 0.0403627928 0.172288538 0.0453121416 0.023893408 0.210859326 0.023893408"></polygon>
                                                        </g>
                                                        <path d="" id="b" stroke="#000000" stroke-width="0.5" fill="#FFFF00"></path>
                                                        <g id="b-link" transform="translate(0.503058, 0.168889)" stroke="#000000" stroke-width="0.5" fill="#FFFF00">
                                                            <path d="" id="b"></path>
                                                        </g>
                                                        <path d="" id="Shape" fill="#000000"></path>
                                                        <path d="" id="c" fill="#000000"></path>
                                                        <g id="c-link" transform="translate(0.591112, 0.295556)" fill="#000000">
                                                            <path d="" id="c"></path>
                                                        </g>
                                                    </g>
                                                </g>
                                                <g id="d-link" transform="translate(0.864537, 4.417014) rotate(-45.202000) translate(-0.864537, -4.417014) translate(0.452869, 3.973679)">
                                                    <g id="d">
                                                        <path d="" id="Shape" fill="#FFFF00"></path>
                                                        <path d="" id="Shape" stroke="#000000" stroke-width="0.5" fill="#FFFF00"></path>
                                                        <path d="M0.303767616,0.8034914 C0.304547618,0.66360874 0.401787922,0.624046395 0.402307924,0.624130839 C0.402307924,0.624130839 0.503794908,0.664917633 0.50457491,0.8034914 L0.303767616,0.8034914 L0.303767616,0.8034914 Z M0.0524334972,0.424363359 L0.756385697,0.424363359 C0.771205743,0.424363359 0.783382448,0.44691655 0.783382448,0.474363359 C0.783382448,0.501810168 0.771249077,0.524292437 0.756385697,0.524292437 L0.0524334972,0.524292437 C0.0376134509,0.524292437 0.0254367462,0.50188109 0.0254367462,0.474292437 C0.0254367462,0.446845629 0.0375701174,0.424292437 0.0524334972,0.424292437 L0.0524334972,0.424363359 Z M0.0671668766,0.484290402 L0.740482314,0.484290402 C0.754652358,0.484290402 0.766265728,0.506804607 0.766265728,0.534290402 C0.766265728,0.56184722 0.754652358,0.584290402 0.740482314,0.584290402 L0.0671668766,0.584290402 C0.0529968323,0.584290402 0.0413834627,0.56184722 0.0413834627,0.534290402 C0.0413834627,0.506804607 0.0529968323,0.484290402 0.0671668766,0.484290402 L0.0671668766,0.484290402 Z M0.28470089,0.0371556717 L0.337871056,0.0372401164 L0.337871056,0.0739735645 L0.37665451,0.0739735645 L0.37665451,0.0363956693 L0.431124681,0.0366067811 L0.431124681,0.0740580092 L0.469951469,0.0740580092 L0.469951469,0.036480114 L0.524464972,0.036480114 L0.524378305,0.121347046 C0.524378305,0.134731532 0.513371604,0.14330267 0.500544898,0.14330267 L0.3094443,0.14330267 C0.296617594,0.14330267 0.284744223,0.133338194 0.284744223,0.121135934 L0.284570889,0.0371134493 L0.28470089,0.0371556717 Z M0.484901515,0.150733804 L0.496904886,0.423067989 L0.31044097,0.422434653 L0.322791009,0.150016024 L0.484858182,0.150733804 L0.484901515,0.150733804 Z" id="Shape" stroke="#000000" stroke-width="0.5" fill="#FFFF00"></path>
                                                        <polygon id="a" stroke="#000000" stroke-width="0.5" fill="#FFFF00" points="0.254738129 0.276978643 0.260284813 0.425373774 0.0843269302 0.425373774 0.089276279 0.276978643 0.254823463 0.276978643"></polygon>
                                                        <g id="a-link" transform="translate(0.503058, 0.253334)" stroke-width="0.5" stroke="#000000" fill="#FFFF00">
                                                            <polygon id="a" points="0.210773992 0.023893408 0.216320676 0.172288538 0.0403627928 0.172288538 0.0453121416 0.023893408 0.210859326 0.023893408"></polygon>
                                                        </g>
                                                        <path d="" id="b" stroke="#000000" stroke-width="0.5" fill="#FFFF00"></path>
                                                        <g id="b-link" transform="translate(0.503058, 0.168889)" stroke="#000000" stroke-width="0.5" fill="#FFFF00">
                                                            <path d="" id="b"></path>
                                                        </g>
                                                        <path d="" id="Shape" fill="#000000"></path>
                                                        <path d="" id="c" fill="#000000"></path>
                                                        <g id="c-link" transform="translate(0.591112, 0.295556)" fill="#000000">
                                                            <path d="" id="c"></path>
                                                        </g>
                                                    </g>
                                                </g>
                                            </g>
                                            <g id="d-link" transform="translate(2.197614, 0.168889)">
                                                <g id="d">
                                                    <path d="" id="Shape" fill="#FFFF00"></path>
                                                    <path d="" id="Shape" stroke="#000000" stroke-width="0.5" fill="#FFFF00"></path>
                                                    <path d="M0.303767616,0.8034914 C0.304547618,0.66360874 0.401787922,0.624046395 0.402307924,0.624130839 C0.402307924,0.624130839 0.503794908,0.664917633 0.50457491,0.8034914 L0.303767616,0.8034914 L0.303767616,0.8034914 Z M0.0524334972,0.424363359 L0.756385697,0.424363359 C0.771205743,0.424363359 0.783382448,0.44691655 0.783382448,0.474363359 C0.783382448,0.501810168 0.771249077,0.524292437 0.756385697,0.524292437 L0.0524334972,0.524292437 C0.0376134509,0.524292437 0.0254367462,0.50188109 0.0254367462,0.474292437 C0.0254367462,0.446845629 0.0375701174,0.424292437 0.0524334972,0.424292437 L0.0524334972,0.424363359 Z M0.0671668766,0.484290402 L0.740482314,0.484290402 C0.754652358,0.484290402 0.766265728,0.506804607 0.766265728,0.534290402 C0.766265728,0.56184722 0.754652358,0.584290402 0.740482314,0.584290402 L0.0671668766,0.584290402 C0.0529968323,0.584290402 0.0413834627,0.56184722 0.0413834627,0.534290402 C0.0413834627,0.506804607 0.0529968323,0.484290402 0.0671668766,0.484290402 L0.0671668766,0.484290402 Z M0.28470089,0.0371556717 L0.337871056,0.0372401164 L0.337871056,0.0739735645 L0.37665451,0.0739735645 L0.37665451,0.0363956693 L0.431124681,0.0366067811 L0.431124681,0.0740580092 L0.469951469,0.0740580092 L0.469951469,0.036480114 L0.524464972,0.036480114 L0.524378305,0.121347046 C0.524378305,0.134731532 0.513371604,0.14330267 0.500544898,0.14330267 L0.3094443,0.14330267 C0.296617594,0.14330267 0.284744223,0.133338194 0.284744223,0.121135934 L0.284570889,0.0371134493 L0.28470089,0.0371556717 Z M0.484901515,0.150733804 L0.496904886,0.423067989 L0.31044097,0.422434653 L0.322791009,0.150016024 L0.484858182,0.150733804 L0.484901515,0.150733804 Z" id="Shape" stroke="#000000" stroke-width="0.5" fill="#FFFF00"></path>
                                                    <polygon id="a" stroke="#000000" stroke-width="0.5" fill="#FFFF00" points="0.254738129 0.276978643 0.260284813 0.425373774 0.0843269302 0.425373774 0.089276279 0.276978643 0.254823463 0.276978643"></polygon>
                                                    <g id="a-link" transform="translate(0.503058, 0.253334)" stroke-width="0.5" stroke="#000000" fill="#FFFF00">
                                                        <polygon id="a" points="0.210773992 0.023893408 0.216320676 0.172288538 0.0403627928 0.172288538 0.0453121416 0.023893408 0.210859326 0.023893408"></polygon>
                                                    </g>
                                                    <path d="" id="b" stroke="#000000" stroke-width="0.5" fill="#FFFF00"></path>
                                                    <g id="b-link" transform="translate(0.503058, 0.168889)" stroke="#000000" stroke-width="0.5" fill="#FFFF00">
                                                        <path d="" id="b"></path>
                                                    </g>
                                                    <path d="" id="Shape" fill="#000000"></path>
                                                    <path d="" id="c" fill="#000000"></path>
                                                    <g id="c-link" transform="translate(0.591112, 0.295556)" fill="#000000">
                                                        <path d="" id="c"></path>
                                                    </g>
                                                </g>
                                            </g>
                                            <g id="e-link" transform="translate(4.216000, 2.681119) scale(-1, 1) translate(-4.216000, -2.681119) translate(3.457664, 0.168889)">
                                                <g id="e">
                                                    <g id="d">
                                                        <path d="" id="Shape" fill="#FFFF00"></path>
                                                        <path d="" id="Shape" stroke="#000000" stroke-width="0.5" fill="#FFFF00"></path>
                                                        <path d="M0.303767616,0.8034914 C0.304547618,0.66360874 0.401787922,0.624046395 0.402307924,0.624130839 C0.402307924,0.624130839 0.503794908,0.664917633 0.50457491,0.8034914 L0.303767616,0.8034914 L0.303767616,0.8034914 Z M0.0524334972,0.424363359 L0.756385697,0.424363359 C0.771205743,0.424363359 0.783382448,0.44691655 0.783382448,0.474363359 C0.783382448,0.501810168 0.771249077,0.524292437 0.756385697,0.524292437 L0.0524334972,0.524292437 C0.0376134509,0.524292437 0.0254367462,0.50188109 0.0254367462,0.474292437 C0.0254367462,0.446845629 0.0375701174,0.424292437 0.0524334972,0.424292437 L0.0524334972,0.424363359 Z M0.0671668766,0.484290402 L0.740482314,0.484290402 C0.754652358,0.484290402 0.766265728,0.506804607 0.766265728,0.534290402 C0.766265728,0.56184722 0.754652358,0.584290402 0.740482314,0.584290402 L0.0671668766,0.584290402 C0.0529968323,0.584290402 0.0413834627,0.56184722 0.0413834627,0.534290402 C0.0413834627,0.506804607 0.0529968323,0.484290402 0.0671668766,0.484290402 L0.0671668766,0.484290402 Z M0.28470089,0.0371556717 L0.337871056,0.0372401164 L0.337871056,0.0739735645 L0.37665451,0.0739735645 L0.37665451,0.0363956693 L0.431124681,0.0366067811 L0.431124681,0.0740580092 L0.469951469,0.0740580092 L0.469951469,0.036480114 L0.524464972,0.036480114 L0.524378305,0.121347046 C0.524378305,0.134731532 0.513371604,0.14330267 0.500544898,0.14330267 L0.3094443,0.14330267 C0.296617594,0.14330267 0.284744223,0.133338194 0.284744223,0.121135934 L0.284570889,0.0371134493 L0.28470089,0.0371556717 Z M0.484901515,0.150733804 L0.496904886,0.423067989 L0.31044097,0.422434653 L0.322791009,0.150016024 L0.484858182,0.150733804 L0.484901515,0.150733804 Z" id="Shape" stroke="#000000" stroke-width="0.5" fill="#FFFF00"></path>
                                                        <polygon id="a" stroke="#000000" stroke-width="0.5" fill="#FFFF00" points="0.254738129 0.276978643 0.260284813 0.425373774 0.0843269302 0.425373774 0.089276279 0.276978643 0.254823463 0.276978643"></polygon>
                                                        <g id="a-link" transform="translate(0.503058, 0.253334)" stroke-width="0.5" stroke="#000000" fill="#FFFF00">
                                                            <polygon id="a" points="0.210773992 0.023893408 0.216320676 0.172288538 0.0403627928 0.172288538 0.0453121416 0.023893408 0.210859326 0.023893408"></polygon>
                                                        </g>
                                                        <path d="" id="b" stroke="#000000" stroke-width="0.5" fill="#FFFF00"></path>
                                                        <g id="b-link" transform="translate(0.503058, 0.168889)" stroke="#000000" stroke-width="0.5" fill="#FFFF00">
                                                            <path d="" id="b"></path>
                                                        </g>
                                                        <path d="" id="Shape" fill="#000000"></path>
                                                        <path d="" id="c" fill="#000000"></path>
                                                        <g id="c-link" transform="translate(0.591112, 0.295556)" fill="#000000">
                                                            <path d="" id="c"></path>
                                                        </g>
                                                    </g>
                                                    <g id="d-link" transform="translate(0.000000, 1.955739)">
                                                        <g id="d">
                                                            <path d="" id="Shape" fill="#FFFF00"></path>
                                                            <path d="" id="Shape" stroke="#000000" stroke-width="0.5" fill="#FFFF00"></path>
                                                            <path d="M0.303767616,0.8034914 C0.304547618,0.66360874 0.401787922,0.624046395 0.402307924,0.624130839 C0.402307924,0.624130839 0.503794908,0.664917633 0.50457491,0.8034914 L0.303767616,0.8034914 L0.303767616,0.8034914 Z M0.0524334972,0.424363359 L0.756385697,0.424363359 C0.771205743,0.424363359 0.783382448,0.44691655 0.783382448,0.474363359 C0.783382448,0.501810168 0.771249077,0.524292437 0.756385697,0.524292437 L0.0524334972,0.524292437 C0.0376134509,0.524292437 0.0254367462,0.50188109 0.0254367462,0.474292437 C0.0254367462,0.446845629 0.0375701174,0.424292437 0.0524334972,0.424292437 L0.0524334972,0.424363359 Z M0.0671668766,0.484290402 L0.740482314,0.484290402 C0.754652358,0.484290402 0.766265728,0.506804607 0.766265728,0.534290402 C0.766265728,0.56184722 0.754652358,0.584290402 0.740482314,0.584290402 L0.0671668766,0.584290402 C0.0529968323,0.584290402 0.0413834627,0.56184722 0.0413834627,0.534290402 C0.0413834627,0.506804607 0.0529968323,0.484290402 0.0671668766,0.484290402 L0.0671668766,0.484290402 Z M0.28470089,0.0371556717 L0.337871056,0.0372401164 L0.337871056,0.0739735645 L0.37665451,0.0739735645 L0.37665451,0.0363956693 L0.431124681,0.0366067811 L0.431124681,0.0740580092 L0.469951469,0.0740580092 L0.469951469,0.036480114 L0.524464972,0.036480114 L0.524378305,0.121347046 C0.524378305,0.134731532 0.513371604,0.14330267 0.500544898,0.14330267 L0.3094443,0.14330267 C0.296617594,0.14330267 0.284744223,0.133338194 0.284744223,0.121135934 L0.284570889,0.0371134493 L0.28470089,0.0371556717 Z M0.484901515,0.150733804 L0.496904886,0.423067989 L0.31044097,0.422434653 L0.322791009,0.150016024 L0.484858182,0.150733804 L0.484901515,0.150733804 Z" id="Shape" stroke="#000000" stroke-width="0.5" fill="#FFFF00"></path>
                                                            <polygon id="a" stroke="#000000" stroke-width="0.5" fill="#FFFF00" points="0.254738129 0.276978643 0.260284813 0.425373774 0.0843269302 0.425373774 0.089276279 0.276978643 0.254823463 0.276978643"></polygon>
                                                            <g id="a-link" transform="translate(0.503058, 0.253334)" stroke-width="0.5" stroke="#000000" fill="#FFFF00">
                                                                <polygon id="a" points="0.210773992 0.023893408 0.216320676 0.172288538 0.0403627928 0.172288538 0.0453121416 0.023893408 0.210859326 0.023893408"></polygon>
                                                            </g>
                                                            <path d="" id="b" stroke="#000000" stroke-width="0.5" fill="#FFFF00"></path>
                                                            <g id="b-link" transform="translate(0.503058, 0.168889)" stroke="#000000" stroke-width="0.5" fill="#FFFF00">
                                                                <path d="" id="b"></path>
                                                            </g>
                                                            <path d="" id="Shape" fill="#000000"></path>
                                                            <path d="" id="c" fill="#000000"></path>
                                                            <g id="c-link" transform="translate(0.591112, 0.295556)" fill="#000000">
                                                                <path d="" id="c"></path>
                                                            </g>
                                                        </g>
                                                    </g>
                                                    <g id="d-link" transform="translate(0.864537, 4.417014) rotate(-45.202000) translate(-0.864537, -4.417014) translate(0.452869, 3.973679)">
                                                        <g id="d">
                                                            <path d="" id="Shape" fill="#FFFF00"></path>
                                                            <path d="" id="Shape" stroke="#000000" stroke-width="0.5" fill="#FFFF00"></path>
                                                            <path d="M0.303767616,0.8034914 C0.304547618,0.66360874 0.401787922,0.624046395 0.402307924,0.624130839 C0.402307924,0.624130839 0.503794908,0.664917633 0.50457491,0.8034914 L0.303767616,0.8034914 L0.303767616,0.8034914 Z M0.0524334972,0.424363359 L0.756385697,0.424363359 C0.771205743,0.424363359 0.783382448,0.44691655 0.783382448,0.474363359 C0.783382448,0.501810168 0.771249077,0.524292437 0.756385697,0.524292437 L0.0524334972,0.524292437 C0.0376134509,0.524292437 0.0254367462,0.50188109 0.0254367462,0.474292437 C0.0254367462,0.446845629 0.0375701174,0.424292437 0.0524334972,0.424292437 L0.0524334972,0.424363359 Z M0.0671668766,0.484290402 L0.740482314,0.484290402 C0.754652358,0.484290402 0.766265728,0.506804607 0.766265728,0.534290402 C0.766265728,0.56184722 0.754652358,0.584290402 0.740482314,0.584290402 L0.0671668766,0.584290402 C0.0529968323,0.584290402 0.0413834627,0.56184722 0.0413834627,0.534290402 C0.0413834627,0.506804607 0.0529968323,0.484290402 0.0671668766,0.484290402 L0.0671668766,0.484290402 Z M0.28470089,0.0371556717 L0.337871056,0.0372401164 L0.337871056,0.0739735645 L0.37665451,0.0739735645 L0.37665451,0.0363956693 L0.431124681,0.0366067811 L0.431124681,0.0740580092 L0.469951469,0.0740580092 L0.469951469,0.036480114 L0.524464972,0.036480114 L0.524378305,0.121347046 C0.524378305,0.134731532 0.513371604,0.14330267 0.500544898,0.14330267 L0.3094443,0.14330267 C0.296617594,0.14330267 0.284744223,0.133338194 0.284744223,0.121135934 L0.284570889,0.0371134493 L0.28470089,0.0371556717 Z M0.484901515,0.150733804 L0.496904886,0.423067989 L0.31044097,0.422434653 L0.322791009,0.150016024 L0.484858182,0.150733804 L0.484901515,0.150733804 Z" id="Shape" stroke="#000000" stroke-width="0.5" fill="#FFFF00"></path>
                                                            <polygon id="a" stroke="#000000" stroke-width="0.5" fill="#FFFF00" points="0.254738129 0.276978643 0.260284813 0.425373774 0.0843269302 0.425373774 0.089276279 0.276978643 0.254823463 0.276978643"></polygon>
                                                            <g id="a-link" transform="translate(0.503058, 0.253334)" stroke-width="0.5" stroke="#000000" fill="#FFFF00">
                                                                <polygon id="a" points="0.210773992 0.023893408 0.216320676 0.172288538 0.0403627928 0.172288538 0.0453121416 0.023893408 0.210859326 0.023893408"></polygon>
                                                            </g>
                                                            <path d="" id="b" stroke="#000000" stroke-width="0.5" fill="#FFFF00"></path>
                                                            <g id="b-link" transform="translate(0.503058, 0.168889)" stroke="#000000" stroke-width="0.5" fill="#FFFF00">
                                                                <path d="" id="b"></path>
                                                            </g>
                                                            <path d="" id="Shape" fill="#000000"></path>
                                                            <path d="" id="c" fill="#000000"></path>
                                                            <g id="c-link" transform="translate(0.591112, 0.295556)" fill="#000000">
                                                                <path d="" id="c"></path>
                                                            </g>
                                                        </g>
                                                    </g>
                                                </g>
                                            </g>
                                            <g id="f" transform="translate(2.253340, 2.533341)">
                                                <path d="M0.0275600861,0.481588172 L0.0275600861,0.481799283 C0.0272009096,0.570806678 0.0614487014,0.656644504 0.123413719,0.722044479 C0.182563904,0.783984672 0.264030825,0.822449237 0.35316777,0.822449237 C0.44273805,0.822449237 0.524074971,0.784238006 0.582965155,0.722593369 C0.641812006,0.660948732 0.678385453,0.575997356 0.678385453,0.482221507 L0.678385453,0.0275711973 L0.0287300898,0.0270223067 L0.0275167527,0.481545949" id="Shape" fill="#003399"></path>
                                                <circle id="Oval" fill="#FFFFFF" cx="0.175549882" cy="0.200583293" r="0.0634028648"></circle>
                                                <circle id="Oval" fill="#FFFFFF" cx="0.535997675" cy="0.20087885" r="0.0634028648"></circle>
                                                <circle id="Oval" fill="#FFFFFF" cx="0.355427111" cy="0.36947271" r="0.0634028648"></circle>
                                                <circle id="Oval" fill="#FFFFFF" cx="0.175549882" cy="0.546004373" r="0.0634028648"></circle>
                                                <circle id="Oval" fill="#FFFFFF" cx="0.535607674" cy="0.545539927" r="0.0634028648"></circle>
                                            </g>
                                            <g id="f-link" transform="translate(2.253340, 1.434884)">
                                                <g id="f">
                                                    <path d="M0.0275600861,0.481588172 L0.0275600861,0.481799283 C0.0272009096,0.570806678 0.0614487014,0.656644504 0.123413719,0.722044479 C0.182563904,0.783984672 0.264030825,0.822449237 0.35316777,0.822449237 C0.44273805,0.822449237 0.524074971,0.784238006 0.582965155,0.722593369 C0.641812006,0.660948732 0.678385453,0.575997356 0.678385453,0.482221507 L0.678385453,0.0275711973 L0.0287300898,0.0270223067 L0.0275167527,0.481545949" id="Shape" fill="#003399"></path>
                                                    <circle id="Oval" fill="#FFFFFF" cx="0.175549882" cy="0.200583293" r="0.0634028648"></circle>
                                                    <circle id="Oval" fill="#FFFFFF" cx="0.535997675" cy="0.20087885" r="0.0634028648"></circle>
                                                    <circle id="Oval" fill="#FFFFFF" cx="0.355427111" cy="0.36947271" r="0.0634028648"></circle>
                                                    <circle id="Oval" fill="#FFFFFF" cx="0.175549882" cy="0.546004373" r="0.0634028648"></circle>
                                                    <circle id="Oval" fill="#FFFFFF" cx="0.535607674" cy="0.545539927" r="0.0634028648"></circle>
                                                </g>
                                            </g>
                                            <g id="f-link" transform="translate(1.352048, 2.533341)">
                                                <g id="f" transform="translate(0.000000, 0.000000)">
                                                    <path d="M0.0275600861,0.481588172 L0.0275600861,0.481799283 C0.0272009096,0.570806678 0.0614487014,0.656644504 0.123413719,0.722044479 C0.182563904,0.783984672 0.264030825,0.822449237 0.35316777,0.822449237 C0.44273805,0.822449237 0.524074971,0.784238006 0.582965155,0.722593369 C0.641812006,0.660948732 0.678385453,0.575997356 0.678385453,0.482221507 L0.678385453,0.0275711973 L0.0287300898,0.0270223067 L0.0275167527,0.481545949" id="Shape" fill="#003399"></path>
                                                    <circle id="Oval" fill="#FFFFFF" cx="0.175549882" cy="0.200583293" r="0.0634028648"></circle>
                                                    <circle id="Oval" fill="#FFFFFF" cx="0.535997675" cy="0.20087885" r="0.0634028648"></circle>
                                                    <circle id="Oval" fill="#FFFFFF" cx="0.355427111" cy="0.36947271" r="0.0634028648"></circle>
                                                    <circle id="Oval" fill="#FFFFFF" cx="0.175549882" cy="0.546004373" r="0.0634028648"></circle>
                                                    <circle id="Oval" fill="#FFFFFF" cx="0.535607674" cy="0.545539927" r="0.0634028648"></circle>
                                                </g>
                                            </g>
                                            <g id="f-link" transform="translate(3.152293, 2.533341)">
                                                <g id="f">
                                                    <path d="M0.0275600861,0.481588172 L0.0275600861,0.481799283 C0.0272009096,0.570806678 0.0614487014,0.656644504 0.123413719,0.722044479 C0.182563904,0.783984672 0.264030825,0.822449237 0.35316777,0.822449237 C0.44273805,0.822449237 0.524074971,0.784238006 0.582965155,0.722593369 C0.641812006,0.660948732 0.678385453,0.575997356 0.678385453,0.482221507 L0.678385453,0.0275711973 L0.0287300898,0.0270223067 L0.0275167527,0.481545949" id="Shape" fill="#003399"></path>
                                                    <circle id="Oval" fill="#FFFFFF" cx="0.175549882" cy="0.200583293" r="0.0634028648"></circle>
                                                    <circle id="Oval" fill="#FFFFFF" cx="0.535997675" cy="0.20087885" r="0.0634028648"></circle>
                                                    <circle id="Oval" fill="#FFFFFF" cx="0.355427111" cy="0.36947271" r="0.0634028648"></circle>
                                                    <circle id="Oval" fill="#FFFFFF" cx="0.175549882" cy="0.546004373" r="0.0634028648"></circle>
                                                    <circle id="Oval" fill="#FFFFFF" cx="0.535607674" cy="0.545539927" r="0.0634028648"></circle>
                                                </g>
                                            </g>
                                            <g id="f-link" transform="translate(2.253340, 3.622002)">
                                                <g id="f">
                                                    <path d="M0.0275600861,0.481588172 L0.0275600861,0.481799283 C0.0272009096,0.570806678 0.0614487014,0.656644504 0.123413719,0.722044479 C0.182563904,0.783984672 0.264030825,0.822449237 0.35316777,0.822449237 C0.44273805,0.822449237 0.524074971,0.784238006 0.582965155,0.722593369 C0.641812006,0.660948732 0.678385453,0.575997356 0.678385453,0.482221507 L0.678385453,0.0275711973 L0.0287300898,0.0270223067 L0.0275167527,0.481545949" id="Shape" fill="#003399"></path>
                                                    <circle id="Oval" fill="#FFFFFF" cx="0.175549882" cy="0.200583293" r="0.0634028648"></circle>
                                                    <circle id="Oval" fill="#FFFFFF" cx="0.535997675" cy="0.20087885" r="0.0634028648"></circle>
                                                    <circle id="Oval" fill="#FFFFFF" cx="0.355427111" cy="0.36947271" r="0.0634028648"></circle>
                                                    <circle id="Oval" fill="#FFFFFF" cx="0.175549882" cy="0.546004373" r="0.0634028648"></circle>
                                                    <circle id="Oval" fill="#FFFFFF" cx="0.535607674" cy="0.545539927" r="0.0634028648"></circle>
                                                </g>
                                            </g>
                                        </g>
                                    </g>
                                </g>
                            </g>
                        </g>
                    </g>
                </g>
            </g>
        </g>
    </g>
</svg>