<?xml version="1.0" encoding="UTF-8" standalone="no"?>
<svg width="24px" height="15px" viewBox="0 0 24 15" version="1.1" xmlns="http://www.w3.org/2000/svg" xmlns:xlink="http://www.w3.org/1999/xlink">
    <!-- Generator: sketchtool 39.1 (31720) - http://www.bohemiancoding.com/sketch -->
    <title>B6C104DD-042D-426C-AA41-7379E7A86F9D</title>
    <desc>Created with sketchtool.</desc>
    <defs>
        <rect id="path-1" x="0" y="0" width="24" height="18"></rect>
    </defs>
    <g id="Exports" stroke="none" stroke-width="1" fill="none" fill-rule="evenodd">
        <g id="04-NS-country-L" transform="translate(-104.000000, -1163.000000)">
            <g id="Group-10" transform="translate(72.000000, 344.000000)">
                <g id="Group-5" transform="translate(32.000000, 41.000000)">
                    <g id="Group-8-Copy-23" transform="translate(0.000000, 774.000000)">
                        <g id="sa" transform="translate(0.000000, 2.000000)">
                            <mask id="mask-2" fill="white">
                                <use xlink:href="#path-1"></use>
                            </mask>
                            <g id="Mask"></g>
                            <g mask="url(#mask-2)">
                                <g transform="translate(0.000000, 2.000000)">
                                    <polygon id="Fill-1" fill="#FFFFFF" points="0 14.6987143 23.6894118 14.6987143 23.6894118 0.713714286 0 0.713714286"></polygon>
                                    <polygon id="Fill-2" fill="#D03033" points="4.15101176 0.714 11.0608941 5.374 23.6898353 5.374 23.6898353 0.714"></polygon>
                                    <polygon id="Fill-3" fill="#FFFFFF" points="11.0611059 5.37407143 12.4432235 6.3055 23.6893412 6.3055 23.6893412 5.37407143"></polygon>
                                    <polygon id="Fill-4" fill="#FFFFFF" points="12.4435059 9.10457143 11.0613882 10.0395714 23.6896235 10.0395714 23.6896235 9.10457143"></polygon>
                                    <polygon id="Fill-5" fill="#1F189B" points="11.0611059 10.0392857 4.15122353 14.6985714 23.6893412 14.6985714 23.6893412 10.0392857"></polygon>
                                    <polygon id="Fill-6" fill="#000000" points="0 5.37407143 2.75576471 5.37407143 0 3.51335714"></polygon>
                                    <polygon id="Fill-7" fill="#000000" points="0 5.37407143 0 10.0390714 2.75576471 10.0390714 6.21176471 7.70407143 2.75576471 5.37407143"></polygon>
                                    <polygon id="Fill-8" fill="#000000" points="0 10.0392857 0 11.8971429 2.75576471 10.0392857"></polygon>
                                    <polygon id="Fill-9" fill="#F2B126" points="0 3.513 6.21176471 7.70371429 0 11.8972857 0 13.0165714 7.87341176 7.70371429 0 2.39371429"></polygon>
                                    <polygon id="Fill-10" fill="#32784C" points="0 0.714 0 2.394 7.87341176 7.704 0 13.0161429 0 14.699 2.49035294 14.699 10.7830588 9.10471429 23.6894118 9.10471429 23.6894118 6.30542857 10.7830588 6.30542857 2.49035294 0.714"></polygon>
                                </g>
                            </g>
                        </g>
                    </g>
                </g>
            </g>
        </g>
    </g>
</svg>