<?xml version="1.0" encoding="UTF-8" standalone="no"?>
<svg width="24px" height="18px" viewBox="0 0 24 18" version="1.1" xmlns="http://www.w3.org/2000/svg" xmlns:xlink="http://www.w3.org/1999/xlink">
    <!-- Generator: sketchtool 39.1 (31720) - http://www.bohemiancoding.com/sketch -->
    <title>EBF09A02-AE40-4D7C-B600-DEC96EB691C8</title>
    <desc>Created with sketchtool.</desc>
    <defs>
        <rect id="path-1" x="0" y="0" width="24" height="18"></rect>
        <rect id="path-3" x="0" y="0" width="26" height="19"></rect>
    </defs>
    <g id="Exports" stroke="none" stroke-width="1" fill="none" fill-rule="evenodd">
        <g id="04-NS-country-L" transform="translate(-688.000000, -803.000000)">
            <g id="Group-10" transform="translate(72.000000, 344.000000)">
                <g id="Group-9" transform="translate(616.000000, 41.000000)">
                    <g id="Group-7-Copy" transform="translate(0.000000, 416.000000)">
                        <g id="sg" transform="translate(0.000000, 2.000000)">
                            <mask id="mask-2" fill="white">
                                <use xlink:href="#path-1"></use>
                            </mask>
                            <g id="Mask"></g>
                            <g mask="url(#mask-2)" id="svg378">
                                <g>
                                    <g id="flag-Clipped">
                                        <mask id="mask-4" fill="white">
                                            <use xlink:href="#path-3"></use>
                                        </mask>
                                        <g id="rect15253"></g>
                                        <g id="flag" mask="url(#mask-4)">
                                            <g transform="translate(-0.812500, 0.000000)" id="g15168">
                                                <g transform="translate(0.000020, -0.000000)">
                                                    <rect id="rect149" fill="#FFFFFF" x="0" y="8.94929687e-08" width="29.25" height="19"></rect>
                                                    <rect id="rect148" fill="#DF0000" x="0" y="8.94929687e-08" width="29.25" height="9.5"></rect>
                                                    <path d="M6.74578125,1.59232617 C5.39525391,1.89402539 4.39180371,2.86836914 4.10810156,4.19298828 C3.72263379,5.99279297 4.9256543,7.75511719 6.77663086,8.13103516 C4.90661133,8.65056641 2.9745498,7.60333984 2.44625977,5.79833984 C1.91827441,3.99333984 2.99309766,2.11070703 4.84567383,1.59607422 C5.49599121,1.41537383 6.09470215,1.41423828 6.74585742,1.5923284 L6.74578125,1.59232617 Z" id="path141" fill="#FFFFFF"></path>
                                                    <polygon id="polygon142" fill="#FFFFFF" points="6.21476711 4.35230729 6.41360976 4.9507504 6.41360976 4.9507504 5.88824125 4.58539031 5.36539613 4.95419255 5.55969668 4.35476597 5.03836559 3.98448852 5.68334249 3.97907942 5.88369916 3.38112804 6.08809325 3.97760421 6.73357482 3.97858768"></polygon>
                                                    <polygon id="polygon144" fill="#FFFFFF" points="6.92811672 6.41299088 7.12695937 7.01143399 7.12695937 7.01143399 6.60159086 6.6460739 6.07874574 7.01487615 6.27304629 6.41544956 5.7517152 6.04517211 6.3966921 6.03976301 6.59704877 5.44181163 6.80144286 6.0382878 7.44692443 6.03927127"></polygon>
                                                    <polygon id="polygon145" fill="#FFFFFF" points="9.30163235 6.39814713 9.50047499 6.99659024 9.50047499 6.99659024 8.97510649 6.63123015 8.45226137 7.0000324 8.64656192 6.40060581 8.12523083 6.03032836 8.77020772 6.02491926 8.9705644 5.42696788 9.17495848 6.02344405 9.82044006 6.02442752"></polygon>
                                                    <polygon id="polygon146" fill="#FFFFFF" points="10.0096499 4.35416276 10.2084926 4.95260587 10.2084926 4.95260587 9.68312406 4.58724578 9.16027894 4.95604802 9.3545795 4.35662144 8.8332484 3.98634398 9.4782253 3.98093488 9.67858197 3.38298351 9.88297606 3.97945968 10.5284576 3.98044315"></polygon>
                                                    <polygon id="polygon147" fill="#FFFFFF" points="8.13048977 2.9981862 8.32933241 3.59662931 8.32933241 3.59662931 7.80396391 3.23126921 7.28111879 3.60007146 7.47541934 3.00064488 6.95408825 2.63036742 7.59906514 2.62495832 7.79942182 2.02700695 8.0038159 2.62348311 8.64929748 2.62446659"></polygon>
                                                </g>
                                            </g>
                                        </g>
                                    </g>
                                </g>
                            </g>
                        </g>
                    </g>
                </g>
            </g>
        </g>
    </g>
</svg>