<?xml version="1.0" encoding="UTF-8" standalone="no"?>
<svg width="24px" height="18px" viewBox="0 0 24 18" version="1.1" xmlns="http://www.w3.org/2000/svg" xmlns:xlink="http://www.w3.org/1999/xlink">
    <!-- Generator: sketchtool 39.1 (31720) - http://www.bohemiancoding.com/sketch -->
    <title>66CFF946-401A-4F29-B6B8-42B9FC78140A</title>
    <desc>Created with sketchtool.</desc>
    <defs>
        <rect id="path-1" x="0" y="0" width="24" height="18"></rect>
        <rect id="path-3" x="0.0368289474" y="-6.33164063e-07" width="26.9475" height="20"></rect>
    </defs>
    <g id="Exports" stroke="none" stroke-width="1" fill="none" fill-rule="evenodd">
        <g id="04-NS-country-L" transform="translate(-395.000000, -1260.000000)">
            <g id="Group-10" transform="translate(72.000000, 344.000000)">
                <g id="Group-6" transform="translate(323.000000, 41.000000)">
                    <g id="Group-7-Copy-10" transform="translate(0.000000, 874.000000)">
                        <g id="si" transform="translate(0.000000, 1.000000)">
                            <mask id="mask-2" fill="white">
                                <use xlink:href="#path-1"></use>
                            </mask>
                            <g id="Mask"></g>
                            <g mask="url(#mask-2)" id="svg552">
                                <g>
                                    <g id="flag-Clipped">
                                        <mask id="mask-4" fill="white">
                                            <use xlink:href="#path-3"></use>
                                        </mask>
                                        <g id="rect9828"></g>
                                        <g id="flag" mask="url(#mask-4)">
                                            <g transform="translate(-1.105263, 0.000001)">
                                                <rect id="rect555" fill="#FFFFFF" x="0" y="-6.28381348e-07" width="37.8947368" height="18.75"></rect>
                                                <rect id="rect556" fill="#DE2918" x="0" y="12.4998779" width="37.8947368" height="6.25012207"></rect>
                                                <rect id="rect563" fill="#08399C" x="0" y="6.25012207" width="37.8947368" height="6.25012207"></rect>
                                                <path d="M10.7456003,3.40488281 C10.5968672,5.66260986 10.5116484,6.89985352 10.164264,7.4723877 C9.7886472,8.08721924 9.42320724,8.53736572 7.95756168,9.07939453 C6.49173109,8.53703613 6.12647615,8.08696289 5.75074836,7.47209473 C5.4033676,6.89970703 5.31814145,5.66264648 5.16941201,3.40495605 L5.38601151,3.33275757 C5.82206003,3.20116699 6.14738487,3.09531738 6.38803865,3.04833984 C6.73268832,2.97615967 7.02558799,2.89454956 7.95182566,2.87539673 C8.87806332,2.89116357 9.17241365,2.97785156 9.51705592,3.05003174 C9.75571505,3.10039307 10.0949877,3.1994751 10.5277796,3.33362549 L10.7455337,3.40495605 L10.7456003,3.40488281 Z" id="path694" fill="#DE2918"></path>
                                                <path d="M10.5320724,3.33087158 C10.3913734,5.58372803 10.2736628,6.61541748 10.0901028,7.1116333 C9.73387007,7.96098633 9.1698972,8.42666016 7.95611842,8.8708374 C6.74230263,8.42625732 6.17832237,7.96043701 5.82217105,7.11119385 C5.63858141,6.61534424 5.5226028,5.5862915 5.3859375,3.32823486 C5.81277138,3.19631104 6.14742188,3.09321899 6.38807566,3.04622314 C6.73272533,2.97402466 7.025625,2.88900146 7.95186266,2.87323242 C8.87810033,2.88900366 9.17444901,2.97402466 9.51909128,3.04622314 C9.75974507,3.09321533 10.1012788,3.19630737 10.5320724,3.33049438 L10.5320724,3.33087158 Z" id="path675" fill="#08399C"></path>
                                                <polygon id="path651" fill="#FFCC00" points="7.95493421 4.02062988 8.01313076 4.15695557 8.26885732 4.19164929 8.10314556 4.29052625 8.26336554 4.39651135 8.03032031 4.43516125 7.9593972 4.55869519 7.87964433 4.43147717 7.65778988 4.40032214 7.80877303 4.29203357 7.65332319 4.19347888 7.89888775 4.15622791 7.95493051 4.02063098"></polygon>
                                                <path d="M10.0021382,6.57788086 L9.86037336,6.46699951 L9.75793174,6.30020874 L9.55726727,6.12795044 L9.45269778,5.95388306 L9.25203331,5.77619751 L9.15385485,5.60216675 L9.04715378,5.51692383 L8.97671546,5.44985229 L8.79544613,5.60714355 L8.69664597,5.77796631 L8.57352138,5.88843018 L8.43828084,5.78388428 L8.33601686,5.60567139 L7.95640337,4.93854492 L7.57675288,5.60567139 L7.4744889,5.78388428 L7.33924836,5.88843018 L7.21612377,5.77796631 L7.1173236,5.60714355 L6.93605428,5.44985229 L6.86561595,5.51692383 L6.75891488,5.60216675 L6.66073643,5.77619751 L6.46007196,5.95388306 L6.35550247,6.12795044 L6.15483799,6.30020874 L6.05239638,6.46699951 L5.91098684,6.58048096 C5.98440049,7.19886475 6.38274671,7.68336182 6.5997903,7.90499268 C6.84199836,8.13772339 7.34136513,8.44910889 7.95201069,8.6552124 C8.56439556,8.45351074 9.07068257,8.13771973 9.31289062,7.90499268 C9.52993421,7.68334717 9.92827303,7.19886475 10.0021382,6.57788086 L10.0021382,6.57788086 Z" id="path627" fill="#FFFFFF"></path>
                                                <polygon id="path654" fill="#FFCC00" points="8.5651727 3.07214355 8.62336924 3.20846924 8.87909581 3.24316296 8.71338405 3.34203992 8.87360403 3.44802502 8.6405588 3.48667493 8.56963569 3.61020886 8.48988281 3.48299084 8.26802837 3.45183545 8.41901151 3.34354687 8.26356168 3.24499219 8.50912623 3.20774121 8.565169 3.07214429"></polygon>
                                                <polygon id="path655" fill="#FFCC00" points="7.34469572 3.07009277 7.40289227 3.20641846 7.65861883 3.24111218 7.49290707 3.33998914 7.65312706 3.44597424 7.42008183 3.48462415 7.34915872 3.60815808 7.26940584 3.48094006 7.0475514 3.44978467 7.19853454 3.34149609 7.0430847 3.24294141 7.28864926 3.20569043 7.34469202 3.07009351"></polygon>
                                                <polygon id="path664" fill="#08399C" points="9.68536184 7.44323904 9.40897821 7.44408654 9.15394367 7.42486066 8.84502385 7.27132441 8.49682525 7.27344691 8.19527344 7.42273816 7.95741365 7.44404866 7.71955387 7.42273816 7.41800206 7.27344691 7.06980345 7.27132441 6.76088363 7.42486066 6.5058491 7.44408654 6.22600164 7.44018729 6.09084992 7.20820479 6.09586542 7.20287716 6.50930292 7.27217716 6.76433746 7.25295129 7.07325728 7.09941504 7.42145588 7.10153754 7.72300769 7.25082879 7.96086748 7.27213929 8.19872726 7.25082879 8.50027907 7.10153754 8.84847767 7.09941504 9.15739749 7.25295129 9.41243203 7.27217716 9.81484157 7.20067966 9.82016793 7.21141216 9.68537146 7.44324091"></polygon>
                                                <polygon id="path665" fill="#08399C" points="6.48540296 7.79152561 6.7589926 7.77229973 7.06791242 7.61876348 7.41611102 7.62088598 7.71766283 7.77017723 7.95552262 7.79148773 8.1933824 7.77017723 8.49493421 7.62088598 8.84313281 7.61876348 9.15205263 7.77229973 9.42936883 7.79152561 9.60828454 7.56803311 9.6022484 7.56297548 9.41055062 7.61961173 9.15551608 7.60038586 8.84659626 7.44684961 8.49839766 7.44897211 8.19684585 7.59826336 7.95898606 7.61957423 7.72112627 7.59826336 7.41957447 7.44897211 7.07137586 7.44684961 6.76245604 7.60038586 6.5074215 7.61961173 6.3195391 7.57162298 6.3172743 7.58096573 6.48540259 7.79152448"></polygon>
                                            </g>
                                        </g>
                                    </g>
                                </g>
                            </g>
                        </g>
                    </g>
                </g>
            </g>
        </g>
    </g>
</svg>