<?xml version="1.0" encoding="UTF-8" standalone="no"?>
<svg width="24px" height="18px" viewBox="0 0 24 18" version="1.1" xmlns="http://www.w3.org/2000/svg" xmlns:xlink="http://www.w3.org/1999/xlink">
    <!-- Generator: sketchtool 39.1 (31720) - http://www.bohemiancoding.com/sketch -->
    <title>D275D095-B8B4-477C-950D-A16212764B7D</title>
    <desc>Created with sketchtool.</desc>
    <defs>
        <rect id="path-1" x="0" y="0" width="24" height="18"></rect>
    </defs>
    <g id="Exports" stroke="none" stroke-width="1" fill="none" fill-rule="evenodd">
        <g id="04-NS-country-L" transform="translate(-395.000000, -1376.000000)">
            <g id="Group-10" transform="translate(72.000000, 344.000000)">
                <g id="Group-8-Copy-26" transform="translate(323.000000, 1030.000000)">
                    <g id="tr" transform="translate(0.000000, 2.000000)">
                        <mask id="mask-2" fill="white">
                            <use xlink:href="#path-1"></use>
                        </mask>
                        <g id="Mask"></g>
                        <g mask="url(#mask-2)" id="Group">
                            <g>
                                <polygon id="Shape" fill="#F31930" points="0 0 26 0 26 19 0 19"></polygon>
                                <path d="M16.5334406,9.79580625 C16.5334406,12.4168167 14.3150719,14.5414521 11.5784094,14.5414521 C8.84174687,14.5414521 6.6235,12.4167375 6.6235,9.79576667 C6.6235,7.17479583 8.84186875,5.05012083 11.57845,5.05012083 C14.3150313,5.05012083 16.5334812,7.17483542 16.5334812,9.79576667 L16.5334406,9.79580625 Z" id="Shape" fill="#FFFFFF"></path>
                                <path d="M16.7812531,9.79556875 C16.7812531,11.8922979 15.0065094,13.5920063 12.8172688,13.5920063 C10.6280281,13.5920063 8.853325,11.8922979 8.853325,9.79556875 C8.853325,7.69883958 10.6280687,5.99913125 12.8172688,5.99913125 C15.0064688,5.99913125 16.7812531,7.69883958 16.7812531,9.79556875 L16.7812531,9.79556875 Z" id="Shape" fill="#F31830"></path>
                                <polygon id="Shape" fill="#FFFFFF" points="17.4982438 7.57882292 17.4582281 9.33307708 15.7785875 9.7774 17.4343 10.3519125 17.394325 11.9606583 18.4741375 10.7043625 20.1058 11.2559167 19.1619594 9.90770833 20.3137594 8.5671 18.5460437 9.04202083 17.4982031 7.5788625"></polygon>
                            </g>
                        </g>
                    </g>
                </g>
            </g>
        </g>
    </g>
</svg>