<?xml version="1.0" encoding="UTF-8" standalone="no"?>
<svg width="24px" height="18px" viewBox="0 0 24 18" version="1.1" xmlns="http://www.w3.org/2000/svg" xmlns:xlink="http://www.w3.org/1999/xlink">
    <!-- Generator: sketchtool 39.1 (31720) - http://www.bohemiancoding.com/sketch -->
    <title>B21E88A1-A5AC-42D4-A3EF-72968B64BA2C</title>
    <desc>Created with sketchtool.</desc>
    <defs>
        <rect id="path-1" x="0" y="0" width="24" height="18"></rect>
        <rect id="path-3" x="0" y="-4.18242187e-07" width="26.9869546" height="20"></rect>
    </defs>
    <g id="Exports" stroke="none" stroke-width="1" fill="none" fill-rule="evenodd">
        <g id="04-NS-country-L" transform="translate(-688.000000, -676.000000)">
            <g id="Group-10" transform="translate(72.000000, 344.000000)">
                <g id="Group-9" transform="translate(616.000000, 41.000000)">
                    <g id="Group-8-Copy-28" transform="translate(0.000000, 288.000000)">
                        <g id="tw" transform="translate(0.000000, 3.000000)">
                            <mask id="mask-2" fill="white">
                                <use xlink:href="#path-1"></use>
                            </mask>
                            <g id="Mask"></g>
                            <g mask="url(#mask-2)" id="svg977">
                                <g>
                                    <g id="flag-Clipped">
                                        <mask id="mask-4" fill="white">
                                            <use xlink:href="#path-3"></use>
                                        </mask>
                                        <g id="rect3733"></g>
                                        <g id="flag" mask="url(#mask-4)">
                                            <g transform="translate(0.000000, 0.000000)">
                                                <rect id="rect983" fill="#DE2110" x="0" y="-1.43034668e-07" width="28.4626647" height="18.75"></rect>
                                                <rect id="rect984" fill="#08399C" x="0" y="-4.41174316e-07" width="14.293965" height="9.375"></rect>
                                                <polygon id="polygon1007" fill="#FFFFFF" points="10.4547657 6.5388713 8.70060177 6.18244907 9.07430829 7.9131568 7.73516138 6.73805955 7.18282543 8.42152148 6.61786685 6.74183921 5.28790003 7.92714155 5.64860141 6.19378806 3.89711506 6.56268318 5.08632036 5.2398011 3.38268527 4.69401775 5.08211281 4.13576151 3.8829624 2.82145927 5.63712629 3.17776811 5.26380227 1.44698479 6.60256668 2.62227102 7.15490263 0.938809083 7.71986121 2.61818899 9.04982803 1.43311342 8.68912665 3.1665803 10.440613 2.79742061 9.2514077 4.12064286 10.955081 4.66604824 9.25561524 5.22430448"></polygon>
                                                <polygon id="polygon1009" fill="#005387" points="8.83790262 6.40591692 8.28438729 6.69638291 7.74441007 7.01162618 7.11740214 6.9902796 6.49039421 6.99752219 5.95815305 6.67008087 5.41121338 6.36703564 5.11646936 5.82117305 4.79658314 5.28941444 4.81785732 4.67150713 4.81089486 4.05321863 5.14315878 3.52881697 5.4506673 2.98989201 6.00418263 2.69934978 6.54415985 2.38414463 7.17116778 2.40537685 7.79856252 2.39832486 8.33080367 2.72568994 8.87735655 3.02873517 9.17210056 3.57444529 9.49198678 4.10620389 9.4707126 4.72411121 9.47767506 5.34239971 9.14541114 5.86691572"></polygon>
                                                <path d="M9.06642265,4.6977869 C9.06642265,5.74679459 8.20582664,6.59718099 7.14422471,6.59718099 C6.08262278,6.59718099 5.22202676,5.74679459 5.22202676,4.6977869 C5.22202676,3.64877921 6.08262278,2.79839281 7.14422471,2.79839281 C8.20582664,2.79839281 9.06642265,3.64877921 9.06642265,4.6977869 L9.06642265,4.6977869 Z" id="path1011" fill="#FFFFFF"></path>
                                            </g>
                                        </g>
                                    </g>
                                </g>
                            </g>
                        </g>
                    </g>
                </g>
            </g>
        </g>
    </g>
</svg>