<?xml version="1.0" encoding="UTF-8" standalone="no"?>
<svg width="24px" height="18px" viewBox="0 0 24 18" version="1.1" xmlns="http://www.w3.org/2000/svg" xmlns:xlink="http://www.w3.org/1999/xlink">
    <!-- Generator: sketchtool 39.1 (31720) - http://www.bohemiancoding.com/sketch -->
    <title>3240C1B5-9E16-4F28-AC06-B3CC23DF95CA</title>
    <desc>Created with sketchtool.</desc>
    <defs>
        <rect id="path-1" x="0" y="0" width="24" height="18"></rect>
    </defs>
    <g id="Exports" stroke="none" stroke-width="1" fill="none" fill-rule="evenodd">
        <g id="04-NS-country-L" transform="translate(-104.000000, -491.000000)">
            <g id="Group-10" transform="translate(72.000000, 344.000000)">
                <g id="Group-5" transform="translate(32.000000, 41.000000)">
                    <g id="Group-8" transform="translate(0.000000, 104.000000)">
                        <g id="us" transform="translate(0.000000, 2.000000)">
                            <mask id="mask-2" fill="white">
                                <use xlink:href="#path-1"></use>
                            </mask>
                            <g id="Mask"></g>
                            <g id="Page-1" mask="url(#mask-2)">
                                <polygon id="Fill-1" fill="#BD3D44" points="0 1.38465 23.9626708 1.38465 23.9626708 0 0 0"></polygon>
                                <polygon id="Fill-2" fill="#BD3D44" points="0 4.1539125 23.9626708 4.1539125 23.9626708 2.7693 0 2.7693"></polygon>
                                <polygon id="Fill-3" fill="#BD3D44" points="0 6.923175 23.9626708 6.923175 23.9626708 5.5385625 0 5.5385625"></polygon>
                                <polygon id="Fill-4" fill="#BD3D44" points="0 9.6924375 23.9626708 9.6924375 23.9626708 8.307825 0 8.307825"></polygon>
                                <polygon id="Fill-5" fill="#BD3D44" points="0 12.4616625 23.9626708 12.4616625 23.9626708 11.07705 0 11.07705"></polygon>
                                <polygon id="Fill-6" fill="#BD3D44" points="0 15.230925 23.9626708 15.230925 23.9626708 13.8463125 0 13.8463125"></polygon>
                                <polygon id="Fill-7" fill="#BD3D44" points="0 18 23.9626708 18 23.9626708 16.6155375 0 16.6155375"></polygon>
                                <polygon id="Fill-8" fill="#FFFFFF" points="0 2.7693 23.9626708 2.7693 23.9626708 1.3846875 0 1.3846875"></polygon>
                                <polygon id="Fill-9" fill="#FFFFFF" points="0 5.538525 23.9626708 5.538525 23.9626708 4.1539125 0 4.1539125"></polygon>
                                <polygon id="Fill-10" fill="#FFFFFF" points="0 8.3077875 23.9626708 8.3077875 23.9626708 6.923175 0 6.923175"></polygon>
                                <polygon id="Fill-11" fill="#FFFFFF" points="0 11.07705 23.9626708 11.07705 23.9626708 9.6924375 0 9.6924375"></polygon>
                                <polygon id="Fill-12" fill="#FFFFFF" points="0 13.8463125 23.9626708 13.8463125 23.9626708 12.4617 0 12.4617"></polygon>
                                <polygon id="Fill-13" fill="#FFFFFF" points="0 16.615575 23.9626708 16.615575 23.9626708 15.2309625 0 15.2309625"></polygon>
                                <polygon id="Fill-14" fill="#192F5D" points="0 9.69225 13.6586583 9.69225 13.6586583 0 0 0"></polygon>
                                <polygon id="Fill-15" fill="#FFFFFF" points="1.13822902 0.4148475 1.26249735 0.7979475 1.66465647 0.7979475 1.3393273 1.034685 1.46359563 1.417785 1.13822902 1.18101 0.812862402 1.417785 0.937130733 1.034685 0.61180156 0.7979475 1.01396069 0.7979475"></polygon>
                                <polygon id="Fill-16" fill="#FFFFFF" points="3.41469828 0.4148475 3.53896661 0.7979475 3.94112574 0.7979475 3.61579657 1.034685 3.7400649 1.417785 3.41469828 1.18101 3.08933167 1.417785 3.2136 1.034685 2.88827083 0.7979475 3.29042995 0.7979475"></polygon>
                                <polygon id="Fill-17" fill="#FFFFFF" points="5.69120874 0.4148475 5.81547707 0.7979475 6.21763619 0.7979475 5.89230702 1.034685 6.01657535 1.417785 5.69120874 1.18101 5.36584212 1.417785 5.49011045 1.034685 5.16478128 0.7979475 5.56694041 0.7979475"></polygon>
                                <polygon id="Fill-18" fill="#FFFFFF" points="7.96758066 0.4148475 8.09184899 0.7979475 8.49400811 0.7979475 8.16867894 1.034685 8.29294727 1.417785 7.96758066 1.18101 7.64221404 1.417785 7.76648237 1.034685 7.4411532 0.7979475 7.84331232 0.7979475"></polygon>
                                <polygon id="Fill-19" fill="#FFFFFF" points="10.2440949 0.4148475 10.3683632 0.7979475 10.7705223 0.7979475 10.4451931 1.034685 10.5694615 1.417785 10.2440949 1.18101 9.91872824 1.417785 10.0429966 1.034685 9.71766739 0.7979475 10.1198265 0.7979475"></polygon>
                                <polygon id="Fill-20" fill="#FFFFFF" points="12.5206053 0.4148475 12.6448736 0.7979475 13.0470328 0.7979475 12.7217036 1.034685 12.8459719 1.417785 12.5206053 1.18101 12.1952387 1.417785 12.3195445 1.034685 11.9941778 0.7979475 12.396337 0.7979475"></polygon>
                                <polygon id="Fill-21" fill="#FFFFFF" points="2.27651045 1.3840875 2.40077878 1.7671875 2.80293791 1.7671875 2.47760874 2.003925 2.60187707 2.387025 2.27651045 2.15025 1.95114384 2.387025 2.07541217 2.003925 1.750083 1.7671875 2.15224212 1.7671875"></polygon>
                                <polygon id="Fill-22" fill="#FFFFFF" points="4.55288612 1.3840875 4.67715445 1.7671875 5.07931357 1.7671875 4.7539844 2.003925 4.87825273 2.387025 4.55288612 2.15025 4.2275195 2.387025 4.35178783 2.003925 4.02645866 1.7671875 4.42861778 1.7671875"></polygon>
                                <polygon id="Fill-23" fill="#FFFFFF" points="6.82939657 1.3840875 6.9536649 1.7671875 7.35582402 1.7671875 7.03049485 2.003925 7.15476318 2.387025 6.82939657 2.15025 6.50402995 2.387025 6.62829828 2.003925 6.30296911 1.7671875 6.70512824 1.7671875"></polygon>
                                <polygon id="Fill-24" fill="#FFFFFF" points="9.10590702 1.3840875 9.23017535 1.7671875 9.63233448 1.7671875 9.3070053 2.003925 9.43127363 2.387025 9.10590702 2.15025 8.78054041 2.387025 8.90480874 2.003925 8.57947956 1.7671875 8.98163869 1.7671875"></polygon>
                                <polygon id="Fill-25" fill="#FFFFFF" points="11.3822789 1.3840875 11.5065473 1.7671875 11.9087064 1.7671875 11.5833772 2.003925 11.7076456 2.387025 11.3822789 2.15025 11.0569123 2.387025 11.1811807 2.003925 10.8558515 1.7671875 11.2580106 1.7671875"></polygon>
                                <polygon id="Fill-26" fill="#FFFFFF" points="1.13822902 2.3533275 1.26249735 2.7364275 1.66465647 2.7364275 1.3393273 2.973165 1.46359563 3.356265 1.13822902 3.11949 0.812862402 3.356265 0.937130733 2.973165 0.61180156 2.7364275 1.01396069 2.7364275"></polygon>
                                <polygon id="Fill-27" fill="#FFFFFF" points="3.41469828 2.3533275 3.53896661 2.7364275 3.94112574 2.7364275 3.61579657 2.973165 3.7400649 3.356265 3.41469828 3.11949 3.08933167 3.356265 3.2136 2.973165 2.88827083 2.7364275 3.29042995 2.7364275"></polygon>
                                <polygon id="Fill-28" fill="#FFFFFF" points="5.69120874 2.3533275 5.81547707 2.7364275 6.21763619 2.7364275 5.89230702 2.973165 6.01657535 3.356265 5.69120874 3.11949 5.36584212 3.356265 5.49011045 2.973165 5.16478128 2.7364275 5.56694041 2.7364275"></polygon>
                                <polygon id="Fill-29" fill="#FFFFFF" points="7.96758066 2.3533275 8.09184899 2.7364275 8.49400811 2.7364275 8.16867894 2.973165 8.29294727 3.356265 7.96758066 3.11949 7.64221404 3.356265 7.76648237 2.973165 7.4411532 2.7364275 7.84331232 2.7364275"></polygon>
                                <polygon id="Fill-30" fill="#FFFFFF" points="10.2440949 2.3533275 10.3683632 2.7364275 10.7705223 2.7364275 10.4451931 2.973165 10.5694615 3.356265 10.2440949 3.11949 9.91872824 3.356265 10.0429966 2.973165 9.71766739 2.7364275 10.1198265 2.7364275"></polygon>
                                <polygon id="Fill-31" fill="#FFFFFF" points="12.5206053 2.3533275 12.6448736 2.7364275 13.0470328 2.7364275 12.7217036 2.973165 12.8459719 3.356265 12.5206053 3.11949 12.1952387 3.356265 12.3195445 2.973165 11.9941778 2.7364275 12.396337 2.7364275"></polygon>
                                <polygon id="Fill-32" fill="#FFFFFF" points="2.27651045 3.3225675 2.40077878 3.7056675 2.80293791 3.7056675 2.47760874 3.942405 2.60187707 4.325505 2.27651045 4.08873 1.95114384 4.325505 2.07541217 3.942405 1.750083 3.7056675 2.15224212 3.7056675"></polygon>
                                <polygon id="Fill-33" fill="#FFFFFF" points="4.55288612 3.3225675 4.67715445 3.7056675 5.07931357 3.7056675 4.7539844 3.942405 4.87825273 4.325505 4.55288612 4.08873 4.2275195 4.325505 4.35178783 3.942405 4.02645866 3.7056675 4.42861778 3.7056675"></polygon>
                                <polygon id="Fill-34" fill="#FFFFFF" points="6.82939657 3.3225675 6.9536649 3.7056675 7.35582402 3.7056675 7.03049485 3.942405 7.15476318 4.325505 6.82939657 4.08873 6.50402995 4.325505 6.62829828 3.942405 6.30296911 3.7056675 6.70512824 3.7056675"></polygon>
                                <polygon id="Fill-35" fill="#FFFFFF" points="9.10590702 3.3225675 9.23017535 3.7056675 9.63233448 3.7056675 9.3070053 3.942405 9.43127363 4.325505 9.10590702 4.08873 8.78054041 4.325505 8.90480874 3.942405 8.57947956 3.7056675 8.98163869 3.7056675"></polygon>
                                <polygon id="Fill-36" fill="#FFFFFF" points="11.3822789 3.3225675 11.5065473 3.7056675 11.9087064 3.7056675 11.5833772 3.942405 11.7076456 4.325505 11.3822789 4.08873 11.0569123 4.325505 11.1811807 3.942405 10.8558515 3.7056675 11.2580106 3.7056675"></polygon>
                                <polygon id="Fill-37" fill="#FFFFFF" points="1.13822902 4.2918075 1.26249735 4.6749075 1.66465647 4.6749075 1.3393273 4.911645 1.46359563 5.294745 1.13822902 5.05797 0.812862402 5.294745 0.937130733 4.911645 0.61180156 4.6749075 1.01396069 4.6749075"></polygon>
                                <polygon id="Fill-38" fill="#FFFFFF" points="3.41469828 4.2918075 3.53896661 4.6749075 3.94112574 4.6749075 3.61579657 4.911645 3.7400649 5.294745 3.41469828 5.05797 3.08933167 5.294745 3.2136 4.911645 2.88827083 4.6749075 3.29042995 4.6749075"></polygon>
                                <polygon id="Fill-39" fill="#FFFFFF" points="5.69120874 4.2918075 5.81547707 4.6749075 6.21763619 4.6749075 5.89230702 4.911645 6.01657535 5.294745 5.69120874 5.05797 5.36584212 5.294745 5.49011045 4.911645 5.16478128 4.6749075 5.56694041 4.6749075"></polygon>
                                <polygon id="Fill-40" fill="#FFFFFF" points="7.96758066 4.2918075 8.09184899 4.6749075 8.49400811 4.6749075 8.16867894 4.911645 8.29294727 5.294745 7.96758066 5.05797 7.64221404 5.294745 7.76648237 4.911645 7.4411532 4.6749075 7.84331232 4.6749075"></polygon>
                                <polygon id="Fill-41" fill="#FFFFFF" points="10.2440949 4.2918075 10.3683632 4.6749075 10.7705223 4.6749075 10.4451931 4.911645 10.5694615 5.294745 10.2440949 5.05797 9.91872824 5.294745 10.0429966 4.911645 9.71766739 4.6749075 10.1198265 4.6749075"></polygon>
                                <polygon id="Fill-42" fill="#FFFFFF" points="12.5206053 4.2918075 12.6448736 4.6749075 13.0470328 4.6749075 12.7217036 4.911645 12.8459719 5.294745 12.5206053 5.05797 12.1952387 5.294745 12.3195445 4.911645 11.9941778 4.6749075 12.396337 4.6749075"></polygon>
                                <polygon id="Fill-43" fill="#FFFFFF" points="2.27651045 5.2610475 2.40077878 5.6441475 2.80293791 5.6441475 2.47760874 5.880885 2.60187707 6.263985 2.27651045 6.02721 1.95114384 6.263985 2.07541217 5.880885 1.750083 5.6441475 2.15224212 5.6441475"></polygon>
                                <polygon id="Fill-44" fill="#FFFFFF" points="4.55288612 5.2610475 4.67715445 5.6441475 5.07931357 5.6441475 4.7539844 5.880885 4.87825273 6.263985 4.55288612 6.02721 4.2275195 6.263985 4.35178783 5.880885 4.02645866 5.6441475 4.42861778 5.6441475"></polygon>
                                <polygon id="Fill-45" fill="#FFFFFF" points="6.82939657 5.2610475 6.9536649 5.6441475 7.35582402 5.6441475 7.03049485 5.880885 7.15476318 6.263985 6.82939657 6.02721 6.50402995 6.263985 6.62829828 5.880885 6.30296911 5.6441475 6.70512824 5.6441475"></polygon>
                                <polygon id="Fill-46" fill="#FFFFFF" points="9.10590702 5.2610475 9.23017535 5.6441475 9.63233448 5.6441475 9.3070053 5.880885 9.43127363 6.263985 9.10590702 6.02721 8.78054041 6.263985 8.90480874 5.880885 8.57947956 5.6441475 8.98163869 5.6441475"></polygon>
                                <polygon id="Fill-47" fill="#FFFFFF" points="11.3822789 5.2610475 11.5065473 5.6441475 11.9087064 5.6441475 11.5833772 5.880885 11.7076456 6.263985 11.3822789 6.02721 11.0569123 6.263985 11.1811807 5.880885 10.8558515 5.6441475 11.2580106 5.6441475"></polygon>
                                <polygon id="Fill-48" fill="#FFFFFF" points="1.13822902 6.2302875 1.26249735 6.6133875 1.66465647 6.6133875 1.3393273 6.850125 1.46359563 7.233225 1.13822902 6.99645 0.812862402 7.233225 0.937130733 6.850125 0.61180156 6.6133875 1.01396069 6.6133875"></polygon>
                                <polygon id="Fill-49" fill="#FFFFFF" points="3.41469828 6.2302875 3.53896661 6.6133875 3.94112574 6.6133875 3.61579657 6.850125 3.7400649 7.233225 3.41469828 6.99645 3.08933167 7.233225 3.2136 6.850125 2.88827083 6.6133875 3.29042995 6.6133875"></polygon>
                                <polygon id="Fill-50" fill="#FFFFFF" points="5.69120874 6.2302875 5.81547707 6.6133875 6.21763619 6.6133875 5.89230702 6.850125 6.01657535 7.233225 5.69120874 6.99645 5.36584212 7.233225 5.49011045 6.850125 5.16478128 6.6133875 5.56694041 6.6133875"></polygon>
                                <polygon id="Fill-51" fill="#FFFFFF" points="7.96758066 6.2302875 8.09184899 6.6133875 8.49400811 6.6133875 8.16867894 6.850125 8.29294727 7.233225 7.96758066 6.99645 7.64221404 7.233225 7.76648237 6.850125 7.4411532 6.6133875 7.84331232 6.6133875"></polygon>
                                <polygon id="Fill-52" fill="#FFFFFF" points="10.2440949 6.2302875 10.3683632 6.6133875 10.7705223 6.6133875 10.4451931 6.850125 10.5694615 7.233225 10.2440949 6.99645 9.91872824 7.233225 10.0429966 6.850125 9.71766739 6.6133875 10.1198265 6.6133875"></polygon>
                                <polygon id="Fill-53" fill="#FFFFFF" points="12.5206053 6.2302875 12.6448736 6.6133875 13.0470328 6.6133875 12.7217036 6.850125 12.8459719 7.233225 12.5206053 6.99645 12.1952387 7.233225 12.3195445 6.850125 11.9941778 6.6133875 12.396337 6.6133875"></polygon>
                                <polygon id="Fill-54" fill="#FFFFFF" points="2.27651045 7.1995275 2.40077878 7.5826275 2.80293791 7.5826275 2.47760874 7.819365 2.60187707 8.202465 2.27651045 7.96569 1.95114384 8.202465 2.07541217 7.819365 1.750083 7.5826275 2.15224212 7.5826275"></polygon>
                                <polygon id="Fill-55" fill="#FFFFFF" points="4.55288612 7.1995275 4.67715445 7.5826275 5.07931357 7.5826275 4.7539844 7.819365 4.87825273 8.202465 4.55288612 7.96569 4.2275195 8.202465 4.35178783 7.819365 4.02645866 7.5826275 4.42861778 7.5826275"></polygon>
                                <polygon id="Fill-56" fill="#FFFFFF" points="6.82939657 7.1995275 6.9536649 7.5826275 7.35582402 7.5826275 7.03049485 7.819365 7.15476318 8.202465 6.82939657 7.96569 6.50402995 8.202465 6.62829828 7.819365 6.30296911 7.5826275 6.70512824 7.5826275"></polygon>
                                <polygon id="Fill-57" fill="#FFFFFF" points="9.10590702 7.1995275 9.23017535 7.5826275 9.63233448 7.5826275 9.3070053 7.819365 9.43127363 8.202465 9.10590702 7.96569 8.78054041 8.202465 8.90480874 7.819365 8.57947956 7.5826275 8.98163869 7.5826275"></polygon>
                                <polygon id="Fill-58" fill="#FFFFFF" points="11.3822789 7.1995275 11.5065473 7.5826275 11.9087064 7.5826275 11.5833772 7.819365 11.7076456 8.202465 11.3822789 7.96569 11.0569123 8.202465 11.1811807 7.819365 10.8558515 7.5826275 11.2580106 7.5826275"></polygon>
                                <polygon id="Fill-59" fill="#FFFFFF" points="1.13822902 8.1687675 1.26249735 8.5518675 1.66465647 8.5518675 1.3393273 8.788605 1.46359563 9.171705 1.13822902 8.93493 0.812862402 9.171705 0.937130733 8.788605 0.61180156 8.5518675 1.01396069 8.5518675"></polygon>
                                <polygon id="Fill-60" fill="#FFFFFF" points="3.41469828 8.1687675 3.53896661 8.5518675 3.94112574 8.5518675 3.61579657 8.788605 3.7400649 9.171705 3.41469828 8.93493 3.08933167 9.171705 3.2136 8.788605 2.88827083 8.5518675 3.29042995 8.5518675"></polygon>
                                <polygon id="Fill-61" fill="#FFFFFF" points="5.69120874 8.1687675 5.81547707 8.5518675 6.21763619 8.5518675 5.89230702 8.788605 6.01657535 9.171705 5.69120874 8.93493 5.36584212 9.171705 5.49011045 8.788605 5.16478128 8.5518675 5.56694041 8.5518675"></polygon>
                                <polygon id="Fill-62" fill="#FFFFFF" points="7.96758066 8.1687675 8.09184899 8.5518675 8.49400811 8.5518675 8.16867894 8.788605 8.29294727 9.171705 7.96758066 8.93493 7.64221404 9.171705 7.76648237 8.788605 7.4411532 8.5518675 7.84331232 8.5518675"></polygon>
                                <polygon id="Fill-63" fill="#FFFFFF" points="10.2440949 8.1687675 10.3683632 8.5518675 10.7705223 8.5518675 10.4451931 8.788605 10.5694615 9.171705 10.2440949 8.93493 9.91872824 9.171705 10.0429966 8.788605 9.71766739 8.5518675 10.1198265 8.5518675"></polygon>
                                <polygon id="Fill-64" fill="#FFFFFF" points="12.5206053 8.1687675 12.6448736 8.5518675 13.0470328 8.5518675 12.7217036 8.788605 12.8459719 9.171705 12.5206053 8.93493 12.1952387 9.171705 12.3195445 8.788605 11.9941778 8.5518675 12.396337 8.5518675"></polygon>
                            </g>
                        </g>
                    </g>
                </g>
            </g>
        </g>
    </g>
</svg>