<?xml version="1.0" encoding="UTF-8" standalone="no"?>
<svg width="44px" height="89px" viewBox="0 0 44 89" version="1.1" xmlns="http://www.w3.org/2000/svg" xmlns:xlink="http://www.w3.org/1999/xlink">
    <!-- Generator: sketchtool 40.1 (33804) - http://www.bohemiancoding.com/sketch -->
    <title>3E3C3A65-7B28-4841-8496-6D5C77F3CACD</title>
    <desc>Created with sketchtool.</desc>
    <defs>
        <rect id="path-1" x="0" y="0" width="96" height="96"></rect>
        <path d="M5.5,15.2656949 L5.5,22.0030687 L37.7666667,22.0030687 L37.7666667,15.2656949 C37.7666531,15.2641454 37.7666667,15.2625955 37.7666667,15.2610453 C37.7666667,14.1311505 30.5435273,13.2151899 21.6333333,13.2151899 C12.7231394,13.2151899 5.5,14.1311505 5.5,15.2610453 C5.5,15.2625955 5.5000136,15.2641454 5.50004078,15.2656949 Z" id="path-3"></path>
        <mask id="mask-4" maskContentUnits="userSpaceOnUse" maskUnits="objectBoundingBox" x="0" y="0" width="32.2666667" height="8.78787879" fill="white">
            <use xlink:href="#path-3"></use>
        </mask>
        <path d="M0,26.8232805 L0,81.5970116 C0,84.1890152 2.09885507,86.287927 4.68792401,86.287927 L39.312076,86.287927 C41.9073891,86.287927 44,84.1877326 44,81.5970116 L44,26.8232805 C43.9992859,26.7745393 44,26.725717 44,26.6768159 C44,20.9336123 33.4663935,18.721519 21.316129,18.721519 C9.16586452,18.721519 0,20.9336123 0,26.6768159 C0,26.725717 0.000714091316,26.7745393 0.00213761385,26.8232805 Z" id="path-5"></path>
        <mask id="mask-6" maskContentUnits="userSpaceOnUse" maskUnits="objectBoundingBox" x="0" y="0" width="44" height="67.566408" fill="white">
            <use xlink:href="#path-5"></use>
        </mask>
    </defs>
    <g id="MEC-3138" stroke="none" stroke-width="1" fill="none" fill-rule="evenodd">
        <g id="01-NS-Alerts-Notifications-errors-L" transform="translate(-490.000000, -197.000000)">
            <g id="broken_bottle" transform="translate(464.000000, 194.000000)">
                <mask id="mask-2" fill="white">
                    <use xlink:href="#path-1"></use>
                </mask>
                <g id="Mask"></g>
                <g id="Group-43" mask="url(#mask-2)">
                    <g transform="translate(26.000000, 5.000000)">
                        <g id="Group-42" stroke="none" stroke-width="1" fill-rule="evenodd">
                            <path d="M40.26,14.6464646 C40.26,15.9407077 31.9862222,16.989899 21.78,16.989899 C11.5737778,16.989899 3.3,15.9407077 3.3,14.6464646 L3.3,3.80808081 C3.30028473,3.79588917 3.3,3.78368369 3.3,3.77146465 C3.3,1.68854224 11.5737778,0 21.78,0 C31.9862222,0 40.26,1.68854224 40.26,3.77146465 C40.26,3.78368369 40.2597153,3.79588917 40.2591471,3.80808081 L40.26,14.6464646 Z" id="Combined-Shape" stroke="#727272" stroke-width="2.2" fill="#727272"></path>
                            <path d="M3.3,14.6464646 L3.3,3.80808081 C3.30028473,3.79588917 3.3,3.78368369 3.3,3.77146465 C3.3,1.68854224 11.5737778,0 21.78,0 C31.9862222,0 40.26,1.68854224 40.26,3.77146465 C40.26,3.78368369 40.2597153,3.79588917 40.2591471,3.80808081 L40.26,14.6464646 C40.26,13.3522216 31.9862222,12.3030303 21.78,12.3030303 C11.5737778,12.3030303 3.3,13.3522216 3.3,14.6464646 Z" id="Combined-Shape" stroke="#727272" stroke-width="2.2" fill="#FFFFFF"></path>
                            <use id="Combined-Shape" stroke="#727272" mask="url(#mask-4)" stroke-width="4.4" fill="#FFFFFF" xlink:href="#path-3"></use>
                            <use id="Combined-Shape" stroke="#727272" mask="url(#mask-6)" stroke-width="4.4" fill="#FFFFFF" xlink:href="#path-5"></use>
                        </g>
                        <g id="Group-40" stroke="none" stroke-width="1" fill-rule="evenodd" transform="translate(8.800000, 56.164557)">
                            <path d="M18.56305,17.5514241 C17.42675,17.5514241 16.50055,16.6263608 16.50055,15.4865506 L16.50055,12.3897911 L20.62555,12.3897911 L20.62555,15.4865506 C20.62445,16.6263608 19.69935,17.5514241 18.56305,17.5514241 M4.12445,11.3568038 C4.12445,11.9272595 4.58535,12.3897911 5.15625,12.3897911 L14.43805,12.3897911 L14.43805,15.4865506 C14.43805,17.7628671 16.28715,19.6162975 18.56305,19.6162975 C20.83895,19.6162975 22.68805,17.7628671 22.68805,15.4865506 L22.68805,11.3568038 C22.68805,10.7863481 22.22715,10.3238165 21.65625,10.3238165 L5.15625,10.3238165 C4.58535,10.3249177 4.12445,10.7863481 4.12445,11.3568038" id="Fill-1" fill="#727272"></path>
                            <path d="M0.30195,5.89232278 C0.50435,6.09385443 0.76725,6.19406962 1.03125,6.19406962 C1.29525,6.19406962 1.55815,6.09275316 1.76055,5.89232278 L3.09375,4.55758861 L4.42695,5.89232278 C4.62935,6.09385443 4.89225,6.19406962 5.15625,6.19406962 C5.42025,6.19406962 5.68315,6.09275316 5.88555,5.89232278 C6.28815,5.48925949 6.28815,4.83510759 5.88555,4.4320443 L4.55235,3.09731013 L5.88555,1.76257595 C6.28815,1.35951266 6.28815,0.705360759 5.88555,0.302297468 C5.48295,-0.100765823 4.82955,-0.100765823 4.42695,0.302297468 L3.09375,1.63703165 L1.76055,0.302297468 C1.35795,-0.100765823 0.70455,-0.100765823 0.30195,0.302297468 C-0.10065,0.705360759 -0.10065,1.35951266 0.30195,1.76257595 L1.63515,3.09731013 L0.30195,4.4320443 C-0.10065,4.83510759 -0.10065,5.48925949 0.30195,5.89232278" id="Fill-3" fill="#727272"></path>
                            <path d="M20.92695,5.89232278 C21.12935,6.09385443 21.39225,6.19406962 21.65625,6.19406962 C21.92025,6.19406962 22.18315,6.09275316 22.38555,5.89232278 L23.71875,4.55758861 L25.05195,5.89232278 C25.25435,6.09385443 25.51725,6.19406962 25.78125,6.19406962 C26.04525,6.19406962 26.30815,6.09275316 26.51055,5.89232278 C26.91315,5.48925949 26.91315,4.83510759 26.51055,4.4320443 L25.17735,3.09731013 L26.51055,1.76257595 C26.91315,1.35951266 26.91315,0.705360759 26.51055,0.302297468 C26.10795,-0.100765823 25.45455,-0.100765823 25.05195,0.302297468 L23.71875,1.63703165 L22.38555,0.302297468 C21.98295,-0.100765823 21.32955,-0.100765823 20.92695,0.302297468 C20.52435,0.705360759 20.52435,1.35951266 20.92695,1.76257595 L22.26015,3.09731013 L20.92695,4.4320443 C20.52435,4.83510759 20.52435,5.48925949 20.92695,5.89232278" id="Fill-5" fill="#727272"></path>
                        </g>
                        <polyline id="Path-2" stroke="#727272" stroke-width="1.1" stroke-linecap="round" points="2.2 25.3291139 5.89720994 28.4730033 9.38074845 26.9616814 11.7049073 26.5492921 14.6993928 27.3740707"></polyline>
                        <polyline id="Path-3" stroke="#727272" stroke-width="1.1" stroke-linecap="round" points="8.74648369 27.7113898 10.35975 31.9558045 14.3817028 33.910576"></polyline>
                        <path d="M12.9697965,26.3408522 L15.4214269,24.0297123" id="Path-4" stroke="#727272" stroke-width="1.1" stroke-linecap="round"></path>
                    </g>
                </g>
            </g>
        </g>
    </g>
</svg>