<?xml version="1.0" encoding="UTF-8" standalone="no"?>
<svg width="75px" height="94px" viewBox="0 0 75 94" version="1.1" xmlns="http://www.w3.org/2000/svg" xmlns:xlink="http://www.w3.org/1999/xlink">
    <!-- Generator: sketchtool 41.1 (35376) - http://www.bohemiancoding.com/sketch -->
    <title>6FDCE668-50CB-41B5-BC15-9535DCE6101C</title>
    <desc>Created with sketchtool.</desc>
    <defs>
        <rect id="path-1" x="0" y="0" width="96" height="96"></rect>
    </defs>
    <g id="MEC-11252" stroke="none" stroke-width="1" fill="none" fill-rule="evenodd">
        <g id="01-NS-Alerts-Notifications-expired-link-M" transform="translate(-347.000000, -201.000000)">
            <g id="Group" transform="translate(179.000000, 200.000000)">
                <g id="broken_link" transform="translate(157.000000, 0.000000)">
                    <mask id="mask-2" fill="white">
                        <use xlink:href="#path-1"></use>
                    </mask>
                    <g id="Mask"></g>
                    <g id="Page-1" mask="url(#mask-2)" stroke="#FFFFFF" stroke-width="4" fill="#6F6F6F">
                        <g transform="translate(13.000000, 3.000000)">
                            <path d="M54.214,28.4752 L46.074,28.4752 C43.814,28.4752 41.983,30.3062 41.983,32.5662 C41.983,34.8252 43.814,36.6572 46.074,36.6572 L54.214,36.6572 C58.803,36.6662 62.538,40.4002 62.546,44.9902 C62.549,47.2802 61.595,49.3872 60.102,50.8802 C58.61,52.3722 56.502,53.3262 54.213,53.3232 L46.073,53.3232 C43.813,53.3232 41.982,55.1542 41.982,57.4142 C41.982,59.6732 43.813,61.5052 46.073,61.5052 L54.213,61.5052 C58.777,61.5022 62.925,59.6282 65.887,56.6652 C68.85,53.7022 70.724,49.5542 70.726,44.9902 C70.722,35.8712 63.332,28.4812 54.214,28.4752" id="Fill-1"></path>
                            <path d="M16.514,36.6571 L24.653,36.6571 C26.912,36.6571 28.743,34.8251 28.743,32.5661 C28.743,30.3071 26.911,28.4751 24.653,28.4751 L16.514,28.4751 C11.949,28.4781 7.801,30.3521 4.839,33.3141 C1.876,36.2771 0.002,40.4251 0,44.9891 C0.005,54.1081 7.395,61.4981 16.515,61.5031 L24.654,61.5031 C26.913,61.5031 28.744,59.6711 28.744,57.4121 C28.744,55.1531 26.912,53.3211 24.654,53.3211 L16.515,53.3211 C11.925,53.3121 8.19,49.5781 8.181,44.9881 C8.178,42.6981 9.132,40.5911 10.625,39.0981 C12.117,37.6081 14.223,36.6541 16.514,36.6571" id="Fill-3"></path>
                            <path d="M52.671,22.6042 L55.414,19.8182 C56.999,18.2082 56.979,15.6182 55.369,14.0332 C53.76,12.4482 51.17,12.4682 49.584,14.0782 L46.841,16.8642 C45.256,18.4742 45.276,21.0642 46.886,22.6492 C48.495,24.2342 51.085,24.2142 52.671,22.6042" id="Fill-5"></path>
                            <path d="M35.29,0.0001 C33.031,0.0191 31.215,1.8671 31.234,4.1261 L31.311,13.1151 C31.33,15.3741 33.177,17.1901 35.437,17.1711 C37.696,17.1521 39.512,15.3041 39.493,13.0451 L39.416,4.0561 C39.396,1.7971 37.549,-0.0189 35.29,0.0001" id="Fill-7"></path>
                            <path d="M18.055,22.6042 C19.64,24.2142 22.23,24.2342 23.84,22.6492 C25.45,21.0642 25.47,18.4742 23.885,16.8642 L21.142,14.0782 C19.557,12.4682 16.967,12.4482 15.357,14.0332 C13.747,15.6182 13.727,18.2082 15.312,19.8182 L18.055,22.6042 Z" id="Fill-10"></path>
                            <path d="M18.032,67.3962 L15.289,70.1822 C13.704,71.7922 13.724,74.3822 15.334,75.9672 C16.944,77.5522 19.534,77.5322 21.119,75.9222 L23.862,73.1362 C25.447,71.5262 25.427,68.9362 23.817,67.3512 C22.207,65.7662 19.617,65.7862 18.032,67.3962" id="Fill-12"></path>
                            <path d="M35.267,72.8292 C33.008,72.8482 31.192,74.6962 31.211,76.9552 L31.288,85.9442 C31.307,88.2032 33.154,90.0192 35.414,90.0002 C37.674,89.9812 39.489,88.1332 39.47,85.8742 L39.393,76.8852 C39.373,74.6262 37.526,72.8102 35.267,72.8292" id="Fill-14"></path>
                            <path d="M52.649,67.3962 C51.064,65.7862 48.474,65.7662 46.864,67.3512 C45.254,68.9362 45.234,71.5262 46.819,73.1362 L49.562,75.9222 C51.147,77.5322 53.737,77.5522 55.347,75.9672 C56.957,74.3822 56.977,71.7922 55.392,70.1822 L52.649,67.3962 Z" id="Fill-17"></path>
                        </g>
                    </g>
                </g>
            </g>
        </g>
    </g>
</svg>