<?xml version="1.0" encoding="UTF-8" standalone="no"?>
<svg width="41px" height="27px" viewBox="0 0 41 27" version="1.1" xmlns="http://www.w3.org/2000/svg" xmlns:xlink="http://www.w3.org/1999/xlink">
    <!-- Generator: sketchtool 39 (31667) - http://www.bohemiancoding.com/sketch -->
    <title>7E66AAB0-08F4-49DF-87B9-8BA4486CADD9</title>
    <desc>Created with sketchtool.</desc>
    <defs></defs>
    <g id="3656-–-Send-Invite/Sign-Up-Link-Generation-(without-market)" stroke="none" stroke-width="1" fill="none" fill-rule="evenodd">
        <g id="01-1-SignUpLink-SM-00" transform="translate(-111.000000, -324.000000)">
            <g id="Group-3" transform="translate(111.000000, 324.000000)">
                <path d="M37.2804,26.0326 L13.6694,26.0326 C13.1304,26.0326 12.6084,25.8416 12.1974,25.4926 L1.1844,14.5696 C0.5104,13.9006 0.5104,12.8106 1.1844,12.1416 L12.1974,1.2196 C12.6084,0.8706 13.1304,0.6786 13.6694,0.6786 L37.2804,0.6786 C38.5374,0.6786 39.5564,1.6986 39.5564,2.9556 L39.5564,23.7566 C39.5564,25.0136 38.5374,26.0326 37.2804,26.0326 L37.2804,26.0326 Z" id="Stroke-1" stroke="#CCCCCC" stroke-width="1.358"></path>
                <path d="M7.0514,13.4632 C7.0514,14.1722 6.4764,14.7472 5.7674,14.7472 C5.0574,14.7472 4.4824,14.1722 4.4824,13.4632 C4.4824,12.7542 5.0574,12.1792 5.7674,12.1792 C6.4764,12.1792 7.0514,12.7542 7.0514,13.4632" id="Fill-3" fill="#CCCCCC"></path>
                <path d="M21.9591,11.3245 C21.9591,11.9625 21.4421,12.4805 20.8031,12.4805 C20.1651,12.4805 19.6471,11.9625 19.6471,11.3245 C19.6471,10.6865 20.1651,10.1685 20.8031,10.1685 C21.4421,10.1685 21.9591,10.6865 21.9591,11.3245" id="Fill-5" fill="#CCCCCC"></path>
                <path d="M27.2841,11.3245 C27.2841,11.9625 26.7671,12.4805 26.1281,12.4805 C25.4901,12.4805 24.9721,11.9625 24.9721,11.3245 C24.9721,10.6865 25.4901,10.1685 26.1281,10.1685 C26.7671,10.1685 27.2841,10.6865 27.2841,11.3245" id="Fill-7" fill="#CCCCCC"></path>
                <path d="M32.2942,13.3558 C32.2942,18.2318 28.3412,22.1838 23.4662,22.1838 C18.5902,22.1838 14.6372,18.2318 14.6372,13.3558 C14.6372,8.4798 18.5902,4.5278 23.4662,4.5278 C28.3412,4.5278 32.2942,8.4798 32.2942,13.3558 L32.2942,13.3558 Z" id="Stroke-9" stroke="#CCCCCC" stroke-width="1.358"></path>
                <path d="M18.9837,15.4644 C18.7447,15.4644 18.6137,15.7354 18.7527,15.9294 C19.8057,17.4044 21.5147,18.3754 23.4657,18.3754 C25.4167,18.3754 27.1257,17.4044 28.1787,15.9294 C28.3177,15.7354 28.1867,15.4644 27.9477,15.4644 L18.9837,15.4644 Z" id="Fill-11" fill="#CCCCCC"></path>
            </g>
        </g>
    </g>
</svg>