<?xml version="1.0" encoding="UTF-8" standalone="no"?>
<svg width="33px" height="29px" viewBox="0 0 33 29" version="1.1" xmlns="http://www.w3.org/2000/svg" xmlns:xlink="http://www.w3.org/1999/xlink">
    <!-- Generator: sketchtool 39 (31667) - http://www.bohemiancoding.com/sketch -->
    <title>9BDF95A0-6C19-47F6-9436-6B65BACA71C9</title>
    <desc>Created with sketchtool.</desc>
    <defs></defs>
    <g id="3656-–-Send-Invite/Sign-Up-Link-Generation-(without-market)" stroke="none" stroke-width="1" fill="none" fill-rule="evenodd">
        <g id="01-1-SignUpLink-SM-00" transform="translate(-114.000000, -470.000000)" stroke="#CCCCCC" stroke-width="1.285">
            <g id="Group-4" transform="translate(114.000000, 471.000000)">
                <path d="M27.6485,7.4645 C27.6485,10.3145 25.9585,12.6245 23.8725,12.6245 C21.7875,12.6245 20.0975,10.3145 20.0975,7.4645 C20.0975,4.6145 21.7875,2.9485 23.8725,2.9485 C25.9585,2.9485 27.6485,4.6145 27.6485,7.4645 L27.6485,7.4645 Z" id="Stroke-1"></path>
                <path d="M21.2002,24.0236 L30.0762,24.0236 C31.4182,24.0236 32.4172,22.6616 32.0162,21.3216 C30.9262,17.6816 27.6922,15.0426 23.8732,15.0426 C21.4492,15.0426 19.2612,16.1056 17.7072,17.8126" id="Stroke-3"></path>
                <path d="M15.64,5.7833 C15.64,9.3423 13.529,12.2273 10.925,12.2273 C8.321,12.2273 6.209,9.3423 6.209,5.7833 C6.209,2.2243 8.321,0.1423 10.925,0.1423 C13.529,0.1423 15.64,2.2243 15.64,5.7833 L15.64,5.7833 Z" id="Stroke-5"></path>
                <path d="M18.6713,26.4637 C20.3473,26.4637 21.5963,24.7627 21.0943,23.0887 C19.7333,18.5437 15.6953,15.2477 10.9243,15.2477 C6.1543,15.2477 2.1163,18.5437 0.7543,23.0887 C0.2533,24.7627 1.5023,26.4637 3.1783,26.4637 L18.6713,26.4637 L18.6713,26.4637 Z" id="Stroke-7"></path>
            </g>
        </g>
    </g>
</svg>