<?xml version="1.0" encoding="UTF-8" standalone="no"?>
<svg width="13px" height="18px" viewBox="0 0 13 18" version="1.1" xmlns="http://www.w3.org/2000/svg" xmlns:xlink="http://www.w3.org/1999/xlink">
    <!-- Generator: sketchtool 3.8.3 (29802) - http://www.bohemiancoding.com/sketch -->
    <title>72CEF3B3-184C-4B20-912F-55183B141F30</title>
    <desc>Created with sketchtool.</desc>
    <defs></defs>
    <g id="Page-1" stroke="none" stroke-width="1" fill="none" fill-rule="evenodd">
        <g id="02-MediaCenter-Small---Filter3" transform="translate(-58.000000, -613.000000)" stroke="#FFFFFF">
            <g id="ic-audio" transform="translate(58.745194, 613.526166)">
                <path d="M5.60346439,0.0278715654 C3.76818817,0.0278715654 2.28013997,1.51591976 2.28013997,3.35119598 L2.28013997,8.44689299 C2.28013997,10.2821692 3.76818817,11.7697142 5.60346439,11.7697142 C7.43874061,11.7697142 8.9267888,10.2821692 8.9267888,8.44689299 L8.9267888,3.35119598 C8.9267888,1.51591976 7.43874061,0.0278715654 5.60346439,0.0278715654 L5.60346439,0.0278715654 Z" id="Stroke-1"></path>
                <path d="M0.267223906,10.3618653 C0.267223906,12.603563 3.30201917,14.4207061 5.54371695,14.4207061 C7.78541472,14.4207061 10.82021,12.603563 10.82021,10.3618653" id="Stroke-3"></path>
                <path d="M5.80645161,14.3876974 L5.80645161,16.6381375" id="Stroke-5"></path>
                <path d="M3.14300201,16.4516129 L8.38347498,16.4516129" id="Stroke-126-Copy" stroke-linecap="round" stroke-linejoin="round"></path>
            </g>
        </g>
    </g>
</svg>