<?xml version="1.0" encoding="UTF-8" standalone="no"?>
<svg width="24px" height="35px" viewBox="0 0 24 35" version="1.1" xmlns="http://www.w3.org/2000/svg" xmlns:xlink="http://www.w3.org/1999/xlink">
    <!-- Generator: sketchtool 3.8.3 (29802) - http://www.bohemiancoding.com/sketch -->
    <title>5FB3E1E2-79B1-410D-95E9-48A8ECD5A11A</title>
    <desc>Created with sketchtool.</desc>
    <defs></defs>
    <g id="UGC-Upload-Flow" stroke="none" stroke-width="1" fill="none" fill-rule="evenodd">
        <g id="02-MediaCenter-Small---UGC-Upload---Landing" transform="translate(-85.000000, -777.000000)" stroke="#37B0C9">
            <g id="ic-audio" transform="translate(86.000000, 777.000000)">
                <g id="Group-12-Copy">
                    <path d="M11.1653713,0.904639565 C7.49481887,0.904639565 4.51872248,3.88073596 4.51872248,7.5512884 L4.51872248,17.7426824 C4.51872248,21.4132349 7.49481887,24.3883248 11.1653713,24.3883248 C14.8359238,24.3883248 17.8120201,21.4132349 17.8120201,17.7426824 L17.8120201,7.5512884 C17.8120201,3.88073596 14.8359238,0.904639565 11.1653713,0.904639565 L11.1653713,0.904639565 Z" id="Stroke-1"></path>
                    <path d="M0.492890353,21.572627 C0.492890353,26.0560225 6.56248089,29.6903086 11.0458764,29.6903086 C15.529272,29.6903086 21.5988625,26.0560225 21.5988625,21.572627" id="Stroke-3"></path>
                    <path d="M11.5713458,29.6242912 L11.5713458,34.1251715" id="Stroke-5"></path>
                    <path d="M6.24444656,33.7521222 L16.7253925,33.7521222" id="Stroke-126-Copy" stroke-linecap="round" stroke-linejoin="round"></path>
                </g>
            </g>
        </g>
    </g>
</svg>