<?xml version="1.0" encoding="UTF-8" standalone="no"?>
<svg width="40px" height="44px" viewBox="0 0 40 44" version="1.1" xmlns="http://www.w3.org/2000/svg" xmlns:xlink="http://www.w3.org/1999/xlink">
    <!-- Generator: sketchtool 39.1 (31720) - http://www.bohemiancoding.com/sketch -->
    <title>09877B3F-DC89-46AA-A866-E4B6157E5F22</title>
    <desc>Created with sketchtool.</desc>
    <defs>
        <polygon id="path-1" points="8.30127469 0.603317873 0.343934011 0.603317873 0.343934011 3.08511436 8.30127469 3.08511436 8.30127469 0.603317873"></polygon>
    </defs>
    <g id="•-5852-–-Landing-Page-for-Customer" stroke="none" stroke-width="1" fill="none" fill-rule="evenodd">
        <g id="01-NS-CustomerLandingPage-01-XL" transform="translate(-402.000000, -722.000000)">
            <g id="ic-clock" transform="translate(402.000000, 720.250000)">
                <path d="M39.0483217,25.5800006 C39.0483217,36.1070286 30.5149739,44.6378936 19.9904288,44.6378936 C9.46340085,44.6378936 0.930052985,36.1070286 0.930052985,25.5800006 C0.930052985,15.0529727 9.46340085,6.52210766 19.9904288,6.52210766 C30.5149739,6.52210766 39.0483217,15.0529727 39.0483217,25.5800006 L39.0483217,25.5800006 Z" id="Stroke-1" stroke="#00C0BC" stroke-width="0.75"></path>
                <path d="M21.681705,25.41564 C21.681705,26.3491689 20.9244542,27.1089025 19.9884425,27.1089025 C19.0549136,27.1089025 18.2976628,26.3491689 18.2976628,25.41564 C18.2976628,24.4821111 19.0549136,23.7223775 19.9884425,23.7223775 C20.9244542,23.7223775 21.681705,24.4821111 21.681705,25.41564" id="Fill-3" fill="#00C0BC"></path>
                <path d="M36.8654531,11.0479848 L32.2772579,6.45978964 L33.0742188,5.60546875 C33.0742188,5.60546875 34.3365328,6.86485306 35.4835816,8.01190186 C36.6306304,9.15895065 37.6647949,10.1669922 37.6647949,10.1669922 L36.8654531,11.0479848 Z" id="Fill-5" fill="#00C0BC"></path>
                <g id="Group-9" transform="translate(15.896738, 0.879472)">
                    <mask id="mask-2" fill="white">
                        <use xlink:href="#path-1"></use>
                    </mask>
                    <g id="Clip-8"></g>
                    <polygon id="Fill-7" fill="#00C0BC" mask="url(#mask-2)" points="8.27892958 2.29310448 0.343934011 2.23148326 0.366279118 1.40025239 8.30127469 1.4631847"></polygon>
                </g>
                <g id="Group-13" transform="translate(10.931158, 16.776209)">
                    <path d="M9.05852551,8.63943063 L0.266967534,0.354361728" id="Fill-10" fill="#FFFFFF"></path>
                    <path d="M9.05852551,8.63943063 L0.266967534,0.354361728" id="Stroke-12" stroke="#00C0BC" stroke-width="0.75"></path>
                </g>
                <g id="Group-17" transform="translate(19.862317, 19.258999)">
                    <path d="M12.7017033,0.971831502 L0.126373991,6.15589619" id="Fill-14" fill="#FFFFFF"></path>
                    <path d="M12.7017033,0.971831502 L0.126373991,6.15589619" id="Stroke-16" stroke="#00C0BC" stroke-width="0.75"></path>
                </g>
                <path d="M20.2315076,2.3276829 L20.2315076,6.2926979" id="Stroke-18" stroke="#00C0BC" stroke-width="0.75"></path>
            </g>
        </g>
    </g>
</svg>