<?xml version="1.0" encoding="UTF-8" standalone="no"?>
<svg width="38px" height="38px" viewBox="0 0 38 38" version="1.1" xmlns="http://www.w3.org/2000/svg" xmlns:xlink="http://www.w3.org/1999/xlink">
    <!-- Generator: sketchtool 39.1 (31720) - http://www.bohemiancoding.com/sketch -->
    <title>B1606DFB-0F29-4FEA-9212-1B0865C6020E</title>
    <desc>Created with sketchtool.</desc>
    <defs>
        <circle id="path-1" cx="18" cy="18" r="18"></circle>
        <mask id="mask-2" maskContentUnits="userSpaceOnUse" maskUnits="objectBoundingBox" x="-1" y="-1" width="38" height="38">
            <rect x="-1" y="-1" width="38" height="38" fill="white"></rect>
            <use xlink:href="#path-1" fill="black"></use>
        </mask>
    </defs>
    <g id="Distributor-Checkout-RC-15" stroke="none" stroke-width="1" fill="none" fill-rule="evenodd">
        <g id="04-Checkout-Distributor-00-Flow" transform="translate(-2237.000000, -2662.000000)">
            <g id="ic-delivery-active" transform="translate(2238.000000, 2663.000000)">
                <g id="Group-4">
                    <g id="Oval-157-Copy-2">
                        <use fill="#1CD8D2" fill-rule="evenodd" xlink:href="#path-1"></use>
                        <use stroke="#FFFFFF" mask="url(#mask-2)" stroke-width="2" xlink:href="#path-1"></use>
                    </g>
                    <g id="Group" transform="translate(7.542969, 10.953125)" stroke="#FFFFFF">
                        <path d="M6.23318629,12.4605427 L15.0542855,12.4605427 L15.0542855,1.14876651 C15.0542855,0.905176665 14.8561502,0.707624137 14.6125604,0.707624137 L1.41267148,0.707624137 C1.16849889,0.707624137 0.970946361,0.905176665 0.970946361,1.14876651 L0.970946361,12.4605427 L2.0251426,12.4605427" id="Stroke-1"></path>
                        <path d="M15.3691458,9.95389833 L16.1669316,9.95389833 M15.0538776,12.4603096 L16.7007314,12.4603096 M15.3539942,4.8659009 L17.0212443,4.8659009 L18.8615714,7.66601861 L18.8382614,8.30179975 L15.3539942,8.30179975" id="Stroke-3"></path>
                        <path d="M17.6846479,12.4605427 C17.6846479,11.802617 18.2184476,11.2688173 18.8763733,11.2688173 C19.534299,11.2688173 20.0680987,11.802617 20.0680987,12.4605427 C20.0680987,13.1184684 19.534299,13.6522682 18.8763733,13.6522682 C18.2184476,13.6522682 17.6846479,13.1184684 17.6846479,12.4605427 L17.6846479,12.4605427 Z" id="Stroke-5"></path>
                        <path d="M2.94192619,12.4605427 C2.94192619,11.802617 3.47572595,11.2688173 4.13365162,11.2688173 C4.7915773,11.2688173 5.32537706,11.802617 5.32537706,12.4605427 C5.32537706,13.1184684 4.7915773,13.6522682 4.13365162,13.6522682 C3.47572595,13.6522682 2.94192619,13.1184684 2.94192619,12.4605427 L2.94192619,12.4605427 Z" id="Stroke-7"></path>
                        <path d="M15.0540524,3.40267186 L17.077946,3.40267186 C17.077946,3.40267186 17.9613962,3.33798652 18.5592986,4.38169325 C19.1577837,5.42481722 19.8838912,6.81409518 19.8838912,6.81409518 C19.8838912,6.81409518 20.3792294,7.79836132 20.6845908,7.90325647 C20.6845908,7.90325647 21.0802786,8.33041282 21.507435,8.33041282 C21.9345913,8.33041282 22.5330764,8.54369962 22.5330764,9.18472552 L22.5330764,11.9195751 C22.5330764,11.9195751 22.5330764,12.4603679 22.0627965,12.4603679 L21.1653603,12.4603679" id="Stroke-9"></path>
                        <path d="M0.971062911,10.3811712 L15.0538193,10.3811712" id="Stroke-11"></path>
                    </g>
                </g>
            </g>
        </g>
    </g>
</svg>