<?xml version="1.0" encoding="UTF-8" standalone="no"?>
<svg width="14px" height="17px" viewBox="0 0 14 17" version="1.1" xmlns="http://www.w3.org/2000/svg" xmlns:xlink="http://www.w3.org/1999/xlink">
    <!-- Generator: sketchtool 3.8.3 (29802) - http://www.bohemiancoding.com/sketch -->
    <title>67A6D3E2-35F9-4BE3-AA90-2E90C029D895</title>
    <desc>Created with sketchtool.</desc>
    <defs>
        <path d="M4.33688448,0.0180953229 C4.33702289,0.0225936834 11.578472,0.0180953229 11.578472,0.0180953229 C12.3614391,0.0180953229 12.9961593,0.655773834 12.9961593,1.43929463 L12.9961593,14.6116131 C12.9961593,15.3965198 12.3610081,16.0328124 11.5765414,16.0328124 L1.60776823,16.0328124 C0.823734938,16.0328124 0.188150374,15.399619 0.188150374,14.6194841 L0.188150374,3.72003842 C0.188150374,3.72003842 2.72354585,1.27281081 3.97985306,0.0165035953" id="path-1"></path>
        <mask id="mask-2" maskContentUnits="userSpaceOnUse" maskUnits="objectBoundingBox" x="0" y="0" width="12.8080089" height="16.0163088" fill="white">
            <use xlink:href="#path-1"></use>
        </mask>
    </defs>
    <g id="Page-1" stroke="none" stroke-width="1" fill="none" fill-rule="evenodd">
        <g id="02-MediaCenter-Small---Filter3" transform="translate(-58.000000, -470.000000)" stroke="#FFFFFF">
            <g id="ic-document" transform="translate(58.058594, 469.984451)">
                <g id="Group-6-Copy-4" transform="translate(0.074084, 0.793928)">
                    <path d="M3.23295999,8.36106004 L10.3912763,8.36106004" id="Stroke-122-Copy" stroke-linecap="round" stroke-linejoin="round"></path>
                    <path d="M3.23295999,3.7883741 L10.3912763,3.7883741" id="Stroke-123-Copy" stroke-linecap="round" stroke-linejoin="round"></path>
                    <path d="M3.23295999,12.933746 L10.3912763,12.933746" id="Stroke-124-Copy" stroke-linecap="round" stroke-linejoin="round"></path>
                    <path d="M3.23295999,10.9014411 L8.52391022,10.9014411" id="Stroke-125-Copy" stroke-linecap="round" stroke-linejoin="round"></path>
                    <path d="M3.23295999,5.82067896 L8.52391022,5.82067896" id="Stroke-126-Copy" stroke-linecap="round" stroke-linejoin="round"></path>
                    <use id="Rectangle-8" mask="url(#mask-2)" stroke-width="2" xlink:href="#path-1"></use>
                </g>
            </g>
        </g>
    </g>
</svg>