<?xml version="1.0" encoding="UTF-8" standalone="no"?>
<svg width="47px" height="45px" viewBox="0 0 47 45" version="1.1" xmlns="http://www.w3.org/2000/svg" xmlns:xlink="http://www.w3.org/1999/xlink">
    <!-- Generator: sketchtool 39.1 (31720) - http://www.bohemiancoding.com/sketch -->
    <title>83EE9D37-453B-4E1E-AD04-67D97B1FD082</title>
    <desc>Created with sketchtool.</desc>
    <defs>
        <polygon id="path-1" points="0.718595166 1.95962685 3.40139487 1.95962685 3.40139487 0.329217311 0.718595166 0.329217311 0.718595166 1.95962685"></polygon>
        <polygon id="path-3" points="0 44.9614849 45.9179764 44.9614849 45.9179764 0.999216149 0 0.999216149"></polygon>
    </defs>
    <g id="UGC-Upload-Flow" stroke="none" stroke-width="1" fill="none" fill-rule="evenodd">
        <g id="02-MediaCenter---LG---UGC-Upload---Landing" transform="translate(-488.000000, -454.000000)">
            <g id="ic-DragDrop" transform="translate(488.566715, 453.240646)">
                <path d="M44.9381629,30.7210726 C44.9381629,33.9681742 42.3063841,36.5999531 39.0592824,36.5999531 L16.1963159,36.5999531 C12.9492142,36.5999531 10.3174354,33.9681742 10.3174354,30.7210726 L10.3174354,7.85810609 C10.3174354,4.6110044 12.9492142,1.97922554 16.1963159,1.97922554 L39.0592824,1.97922554 C42.3063841,1.97922554 44.9381629,4.6110044 44.9381629,7.85810609 L44.9381629,30.7210726 L44.9381629,30.7210726 Z" id="Stroke-1" stroke="#A7A7A7"></path>
                <g id="Group-5" transform="translate(27.434776, 43.001858)">
                    <mask id="mask-2" fill="white">
                        <use xlink:href="#path-1"></use>
                    </mask>
                    <g id="Clip-4"></g>
                    <path d="M3.40132432,1.73818902 L2.84087104,0.329217311 C2.84674993,0.36057134 2.31765068,0.425239027 1.7865918,0.472270071 C1.2535733,0.501664474 0.718595166,0.485987459 0.718595166,0.485987459 L0.802859121,1.9557076 C0.802859121,1.9557076 1.45933412,1.97334424 2.11188986,1.92827282 C2.76248597,1.86360513 3.40916283,1.77738155 3.40132432,1.73818902" id="Fill-3" fill="#A7A7A7" mask="url(#mask-2)"></path>
                </g>
                <path d="M34.5813391,42.1037611 L33.3408953,41.1866557 C33.3408953,41.1866557 33.0097183,41.6060159 32.664824,42.0116586 C32.2513427,42.3487144 31.8457,42.6994876 31.8280633,42.6720529 L32.7314513,43.9203352 C32.7530072,43.9536488 33.2487928,43.5264502 33.7524169,43.1110093 C34.1776559,42.6191429 34.5813391,42.1037611 34.5813391,42.1037611" id="Fill-6" fill="#A7A7A7"></path>
                <path d="M35.6599177,37.6362038 L34.1901975,37.5343032 C34.1901975,37.5343032 34.2137131,38.0692813 34.166682,38.6003402 C34.135328,39.1353183 34.0373467,39.6585387 34.0079522,39.6526598 L35.4110451,40.2307497 C35.4443587,40.2366286 35.5756537,39.5997499 35.6187655,38.9452345 C35.6873525,38.2946384 35.6599177,37.6362038 35.6599177,37.6362038" id="Fill-8" fill="#A7A7A7"></path>
                <mask id="mask-4" fill="white">
                    <use xlink:href="#path-3"></use>
                </mask>
                <g id="Clip-11"></g>
                <polygon id="Fill-10" fill="#A7A7A7" mask="url(#mask-4)" points="14.9970243 44.9575657 17.4485175 44.9575657 17.4485175 43.4878455 14.9970243 43.4878455"></polygon>
                <polygon id="Fill-12" fill="#A7A7A7" mask="url(#mask-4)" points="19.3944269 44.9575657 21.8459201 44.9575657 21.8459201 43.4878455 19.3944269 43.4878455"></polygon>
                <polygon id="Fill-13" fill="#A7A7A7" mask="url(#mask-4)" points="23.7781122 44.9575657 26.2296054 44.9575657 26.2296054 43.4878455 23.7781122 43.4878455"></polygon>
                <path d="M4.04917696,44.4923502 L4.74876375,43.1343288 C4.73700599,43.1637232 4.26669554,42.912891 3.79834472,42.6542203 C3.36918644,42.34068 2.96746294,41.9879471 2.96746294,41.9879471 L1.87203153,43.0814189 C1.87203153,43.0814189 2.36193824,43.5144964 2.88907787,43.8985833 C3.45736965,44.2199621 4.03349995,44.5276235 4.04917696,44.4923502" id="Fill-14" fill="#A7A7A7" mask="url(#mask-4)"></path>
                <path d="M8.63548764,44.9583495 L8.63548764,43.4886294 C8.54730443,43.4807909 6.37799751,43.5082256 6.40151303,43.4690331 L6.06837647,44.9230762 C6.06837647,44.9230762 6.71897258,44.966188 7.3774072,44.9583495 L8.63548764,44.9583495 Z" id="Fill-15" fill="#A7A7A7" mask="url(#mask-4)"></path>
                <polygon id="Fill-16" fill="#A7A7A7" mask="url(#mask-4)" points="10.5682676 44.9575657 13.0197608 44.9575657 13.0197608 43.4878455 10.5682676 43.4878455"></polygon>
                <polygon id="Fill-17" fill="#A7A7A7" mask="url(#mask-4)" points="0 32.4081153 1.46972014 32.4081153 1.46972014 29.9566221 0 29.9566221"></polygon>
                <polygon id="Fill-18" fill="#A7A7A7" mask="url(#mask-4)" points="0 36.805518 1.46972014 36.805518 1.46972014 34.3540248 0 34.3540248"></polygon>
                <path d="M0.670584308,41.3624342 L1.98941318,40.5785835 C1.9619784,40.5903413 1.76993497,40.0965153 1.62884184,39.5791738 C1.50146609,39.0618323 1.48578908,38.5248946 1.48578908,38.5248946 L0.0297863281,38.8501926 C0.0297863281,38.8501926 0.0474229698,39.0128416 0.0748577457,39.2558354 C0.12188879,39.4968695 0.096413641,39.8339253 0.219870133,40.1396271 C0.398196176,40.7706269 0.639230279,41.3761516 0.670584308,41.3624342" id="Fill-19" fill="#A7A7A7" mask="url(#mask-4)"></path>
                <polygon id="Fill-20" fill="#A7A7A7" mask="url(#mask-4)" points="0 19.196703 1.46972014 19.196703 1.46972014 16.7981197 0 16.7138558"></polygon>
                <polygon id="Fill-21" fill="#A7A7A7" mask="url(#mask-4)" points="0 23.5956734 1.46972014 23.5956734 1.46972014 21.1441802 0 21.1441802"></polygon>
                <polygon id="Fill-22" fill="#A7A7A7" mask="url(#mask-4)" points="0 27.9793586 1.46972014 27.9793586 1.46972014 25.5278654 0 25.5278654"></polygon>
                <polygon id="Fill-23" fill="#A7A7A7" mask="url(#mask-4)" points="6.82048125 9.30097934 7.01644394 10.7687398 9.34056138 10.7687398 9.34056138 9.29901971"></polygon>
                <path d="M2.45051338,10.69447 L3.44208456,11.8780846 C3.44208456,11.8780846 3.54398516,11.7938207 3.69879568,11.6664449 C3.86732359,11.5586654 4.10639806,11.4391282 4.33959366,11.3097928 C4.80402522,11.0452432 5.34684186,10.9629389 5.33704373,10.941383 L4.76679231,9.5343709 C4.77855007,9.56180567 4.1161962,9.67154478 3.54790441,9.99488321 C3.26375852,10.1555726 2.97177412,10.3025446 2.7660133,10.4357992 C2.57592949,10.5906098 2.45051338,10.69447 2.45051338,10.69447" id="Fill-24" fill="#A7A7A7" mask="url(#mask-4)"></path>
                <path d="M0.11894935,14.6096085 L1.55143658,15.0818785 C1.52008255,15.0759997 1.64941792,14.5606178 1.82186508,14.0530745 C2.01782777,13.5592485 2.30197366,13.1026554 2.30197366,13.1026554 L1.05565098,12.1933886 C1.05565098,12.1933886 0.704877778,12.7499226 0.463843675,13.3534877 C0.246325095,13.9727297 0.0836760665,14.60177 0.11894935,14.6096085" id="Fill-25" fill="#A7A7A7" mask="url(#mask-4)"></path>
            </g>
        </g>
    </g>
</svg>