<?xml version="1.0" encoding="UTF-8" standalone="no"?>
<svg width="25px" height="23px" viewBox="0 0 25 23" version="1.1" xmlns="http://www.w3.org/2000/svg" xmlns:xlink="http://www.w3.org/1999/xlink">
    <!-- Generator: sketchtool 3.8.3 (29802) - http://www.bohemiancoding.com/sketch -->
    <title>A155F5B5-79C1-404C-8786-9D7B1DC4DD99</title>
    <desc>Created with sketchtool.</desc>
    <defs></defs>
    <g id="Page-1" stroke="none" stroke-width="1" fill="none" fill-rule="evenodd">
        <g id="04---Product-Search---SM---Results---Article---Grid" transform="translate(-199.000000, -678.000000)">
            <g id="ic-download-copy-14" transform="translate(199.871094, 678.347656)">
                <path d="M9.66437241,15.5519517 L5.11264828,15.5519517 C2.91568276,15.5519517 0.379613793,13.5582966 0.379613793,11.1079517 C0.379613793,9.28422759 1.40526897,7.61829655 2.93313103,6.96057241 C3.08030345,6.8976069 3.17588966,6.70036552 3.17588966,6.53271034 C3.17588966,4.25988276 4.93209655,2.4096069 7.09264828,2.4096069 C7.99768276,2.4096069 8.88071724,2.74264138 9.58016552,3.34726207 C9.66892414,3.42464138 9.78651034,3.45650345 9.89954483,3.43450345 C10.0140966,3.41250345 10.1119586,3.33891724 10.1696138,3.23271034 C11.1247172,1.47271034 12.911269,0.379537931 14.8320966,0.379537931 C17.7937517,0.379537931 20.203131,2.91484828 20.203131,6.03126207 C20.203131,6.18526207 20.1947862,6.33471034 20.1841655,6.48491724 C20.171269,6.66850345 20.2767172,6.83995172 20.4420966,6.90215862 C22.0541655,7.51664138 23.1382345,9.20684828 23.1382345,11.1079517 C23.1382345,13.5582966 20.9640276,15.5519517 18.7678207,15.5519517 L14.2160966,15.5519517" id="Stroke-148" stroke="#008AB0" stroke-linecap="round"></path>
                <path d="M11.9402345,21.6209172 L11.9402345,12.517469" id="Fill-149" fill="#008AB0"></path>
                <path d="M11.9402345,21.6209172 L11.9402345,12.517469" id="Stroke-150" stroke="#008AB0" stroke-linecap="round"></path>
                <path d="M11.9402345,21.6209172 L8.90575172,18.5864345" id="Fill-152" fill="#008AB0"></path>
                <path d="M11.9402345,21.6209172 L8.90575172,18.5864345" id="Stroke-153" stroke="#008AB0" stroke-linecap="round"></path>
                <path d="M11.9402345,21.6209172 L14.9747172,18.5864345" id="Fill-155" fill="#008AB0"></path>
                <path d="M11.9402345,21.6209172 L14.9747172,18.5864345" id="Stroke-156" stroke="#008AB0" stroke-linecap="round"></path>
            </g>
        </g>
    </g>
</svg>