<?xml version="1.0" encoding="UTF-8" standalone="no"?>
<svg width="29px" height="23px" viewBox="0 0 29 23" version="1.1" xmlns="http://www.w3.org/2000/svg" xmlns:xlink="http://www.w3.org/1999/xlink">
    <!-- Generator: sketchtool 3.8.3 (29802) - http://www.bohemiancoding.com/sketch -->
    <title>0EA30073-216E-4645-AA18-F2F51A7EB266</title>
    <desc>Created with sketchtool.</desc>
    <defs>
        <polygon id="path-1" points="9.09494702e-13 22.1235762 28.5434358 22.1235762 28.5434358 0 9.09494702e-13 0"></polygon>
    </defs>
    <g id="Page-1" stroke="none" stroke-width="1" fill="none" fill-rule="evenodd">
        <g id="02-MediaCenter-Large-Category-Page" transform="translate(-29.000000, -97.000000)">
            <g id="ic-mediacenter" transform="translate(29.300781, 97.121094)">
                <path d="M27.8727562,18.7715192 C27.8727562,20.2531284 26.6727198,21.4531648 25.1911106,21.4531648 L3.35178884,21.4531648 C1.87152047,21.4531648 0.670143236,20.2531284 0.670143236,18.7715192 L0.670143236,3.352057 C0.670143236,1.87044781 1.87152047,0.6704114 3.35178884,0.6704114 L25.1911106,0.6704114 C26.6727198,0.6704114 27.8727562,1.87044781 27.8727562,3.352057 L27.8727562,18.7715192 L27.8727562,18.7715192 Z" id="Stroke-1" stroke="#444444" stroke-linecap="round" stroke-linejoin="round"></path>
                <path d="M8.85425745,4.12270306 L19.6894465,4.12270306" id="Stroke-3" stroke="#444444" stroke-linecap="round" stroke-linejoin="round"></path>
                <path d="M3.89629698,8.24540613 L11.2091445,8.24540613" id="Stroke-5" stroke="#444444" stroke-linecap="round" stroke-linejoin="round"></path>
                <path d="M3.89629698,12.3681092 L11.2091445,12.3681092" id="Stroke-7" stroke="#444444" stroke-linecap="round" stroke-linejoin="round"></path>
                <path d="M3.89629698,16.4908123 L11.2091445,16.4908123" id="Stroke-9" stroke="#444444" stroke-linecap="round" stroke-linejoin="round"></path>
                <mask id="mask-2" fill="white">
                    <use xlink:href="#path-1"></use>
                </mask>
                <g id="Clip-12"></g>
                <polygon id="Stroke-11" stroke="#444444" stroke-linecap="round" stroke-linejoin="round" mask="url(#mask-2)" points="14.2717179 17.4722619 24.1160389 17.4722619 24.1160389 9.60833619 14.2717179 9.60833619"></polygon>
            </g>
        </g>
    </g>
</svg>