<?xml version="1.0" encoding="UTF-8" standalone="no"?>
<svg width="39px" height="39px" viewBox="0 0 39 39" version="1.1" xmlns="http://www.w3.org/2000/svg" xmlns:xlink="http://www.w3.org/1999/xlink">
    <!-- Generator: sketchtool 39.1 (31720) - http://www.bohemiancoding.com/sketch -->
    <title>4060E992-4F32-4EC9-B18E-806B91CF7C1C</title>
    <desc>Created with sketchtool.</desc>
    <defs>
        <path d="M18.5429688,36.953125 C28.4840942,36.953125 36.5429688,28.8942505 36.5429688,18.953125 C36.5429688,9.0119995 28.4840942,0.953125 18.5429688,0.953125 C8.60184325,0.953125 0.54296875,9.0119995 0.54296875,18.953125 C0.54296875,28.8942505 8.60184325,36.953125 18.5429688,36.953125 Z" id="path-1"></path>
        <mask id="mask-2" maskContentUnits="userSpaceOnUse" maskUnits="objectBoundingBox" x="-1" y="-1" width="38" height="38">
            <rect x="-0.45703125" y="-0.046875" width="38" height="38" fill="white"></rect>
            <use xlink:href="#path-1" fill="black"></use>
        </mask>
    </defs>
    <g id="Distributor-Checkout-RC-15" stroke="none" stroke-width="1" fill="none" fill-rule="evenodd">
        <g id="04-Checkout-Distributor-00-Flow" transform="translate(-2368.000000, -2661.000000)">
            <g id="ic-order-active" transform="translate(2369.000000, 2662.000000)">
                <g id="Group-8">
                    <g id="Oval-157-Copy-3">
                        <use fill="#1CD8D2" fill-rule="evenodd" xlink:href="#path-1"></use>
                        <use stroke="#FFFFFF" mask="url(#mask-2)" stroke-width="2" xlink:href="#path-1"></use>
                    </g>
                    <g id="Page-1-Copy" transform="translate(9.542969, 7.953125)" stroke="#FFFFFF">
                        <path d="M0.161132812,0.779033174 L7.49578016,0.779033174 L7.49578016,1.11349309 C7.49578016,1.11349309 6.88615516,4.0220282 6.80091884,5.56585566 C6.65638768,8.18718141 5.99024729,19.7719095 5.99024729,19.7719095 C5.99024729,19.7719095 3.9056633,20.6211844 1.51225206,19.7719095 C1.51225206,19.7333061 0.701580512,5.68166588 0.701580512,5.68166588 C0.701580512,5.68166588 0.624373698,2.94082397 0.161132812,1.20367065 L0.161132812,0.779033174 L0.161132812,0.779033174 Z" id="Stroke-1"></path>
                        <path d="M1.55274834,14.6844193 C1.55274834,14.6844193 2.93398637,16.1160801 6.17919922,14.9833984" id="Stroke-3"></path>
                        <path d="M10.152174,14.479276 L10.152174,18.7186885 C10.152174,18.7186885 10.1429586,20.5525666 12.4970647,20.6610713 C15.0131847,20.7770078 13.2866222,20.7449023 17.4234755,20.6610713 C17.8732498,20.590023 19.2945127,20.4003628 19.2945127,18.2923988 L19.2945127,14.479276 C19.2945127,14.479276 15.3155115,15.6870968 10.152174,14.479276 L10.152174,14.479276 Z" id="Stroke-5"></path>
                        <path d="M10.152174,14.479276 L10.152174,12.7898726 C10.152174,12.7898726 10.2389778,11.5425145 11.9444339,11.3055878 C13.6495927,11.0686611 14.9602701,11.0686611 14.9602701,11.0686611 C14.9602701,11.0686611 19.3179973,10.8792981 19.3179973,12.6002124 L19.3179973,14.479276" id="Stroke-7"></path>
                    </g>
                </g>
            </g>
        </g>
    </g>
</svg>