<?xml version="1.0" encoding="UTF-8" standalone="no"?>
<svg width="32px" height="32px" viewBox="0 0 32 32" version="1.1" xmlns="http://www.w3.org/2000/svg" xmlns:xlink="http://www.w3.org/1999/xlink">
    <!-- Generator: Sketch 3.8.3 (29802) - http://www.bohemiancoding.com/sketch -->
    <title>profile-icon</title>
    <desc>Created with Sketch.</desc>
    <defs></defs>
    <g id="PDP---Variations" stroke="none" stroke-width="1" fill="none" fill-rule="evenodd">
        <g id="04-PDP-var-color-SM-Copy" transform="translate(-210.000000, -23.000000)" stroke-width="1.1" stroke="#FFFFFF">
            <g id="Group-11" transform="translate(-51.000000, -1.000000)">
                <g id="Group-8">
                    <g id="Group-4" transform="translate(51.000000, 0.000000)">
                        <g id="navigation" transform="translate(25.000000, 24.000000)">
                            <g id="profile-icon" transform="translate(185.000000, 1.000000)">
                                <path d="M26.2163587,25.8624025 C20.3871843,31.6655409 10.9369163,31.6655409 5.10774194,25.8624025 C-0.721432477,20.0592641 -0.721432477,10.6512058 5.10774194,4.84806743 C10.9369163,-0.955070968 20.3871843,-0.955070968 26.2163587,4.84806743 C32.0455331,10.6512058 32.0455331,20.0592641 26.2163587,25.8624025 L26.2163587,25.8624025 Z" id="Stroke-78"></path>
                                <path d="M25.6127436,26.2521182 C25.5241815,25.3238934 25.6127436,22.9087259 23.3031646,22.4490714 C19.517883,21.6090131 18.4292663,21.3296541 18.6471886,18.3270402 C21.0721968,16.841088 21.0413494,13.9306031 20.9925905,10.8001973 C20.8552695,6.16105473 17.0082931,5.44878835 15.6619508,5.44878835 C14.3156085,5.44878835 10.468632,6.16105473 10.3313111,10.8001973 C10.2825522,13.9306031 10.2507097,16.841088 12.676713,18.3270402 C12.8946353,21.3296541 11.8060186,21.6090131 8.02073701,22.4490714 C5.71115801,22.9087259 5.79972007,25.3238934 5.71115801,26.2521182" id="Stroke-79" stroke-linecap="round"></path>
                            </g>
                        </g>
                    </g>
                </g>
            </g>
        </g>
    </g>
</svg>