<?xml version="1.0" encoding="UTF-8" standalone="no"?>
<svg width="17px" height="21px" viewBox="0 0 17 21" version="1.1" xmlns="http://www.w3.org/2000/svg" xmlns:xlink="http://www.w3.org/1999/xlink">
    <!-- Generator: sketchtool 3.8.3 (29802) - http://www.bohemiancoding.com/sketch -->
    <title>87975782-55A0-4FA3-A1C1-F8729B52E13F</title>
    <desc>Created with sketchtool.</desc>
    <defs></defs>
    <g id="Page-1" stroke="none" stroke-width="1" fill="none" fill-rule="evenodd">
        <g id="02-MediaCenter-Small---Filter3" transform="translate(-57.000000, -561.000000)" stroke="#FFFFFF">
            <g id="ic-pdf-copy-9" transform="translate(57.967039, 561.449817)">
                <path d="M3.90642452,13.5420173 C4.2097787,13.2553213 4.72355197,12.9747625 5.43371638,12.7056014 C5.75460548,12.0699604 6.07461784,11.370317 6.326244,10.7487039 C6.11407142,10.3050703 5.97817576,9.83776462 5.91943377,9.35643096 C5.70024722,7.54945707 7.74569607,7.68447598 7.43532792,9.36695191 C7.37570918,9.68959451 7.2336763,10.1419955 7.01185951,10.7136341 C7.33362537,11.2870261 7.75621703,11.7183852 8.09288756,12.0042044 C8.55230256,11.9305578 9.20723197,11.8551576 9.66840046,11.922667 C10.8923381,12.1024 10.7371541,13.4517124 9.64998879,13.4517124 C9.08098052,13.4517124 8.36730912,13.0072021 7.92104531,12.6661478 C7.23806003,12.7923993 6.50685371,12.9861602 5.8782267,13.207977 C5.67745182,13.5937453 5.40829074,14.0855999 5.16718554,14.4319146 C4.16506465,15.8750389 2.84380814,14.5432614 3.90642452,13.5420173 L3.90642452,13.5420173 L3.90642452,13.5420173 L3.90642452,13.5420173 Z M0.414982678,19.107355 L0.38079834,0.944396973 L9.18865967,1.0112915 L15.2067261,6.29327393 L15.1000366,19.1463013 L0.414982678,19.107355 L0.414982678,19.107355 L0.414982678,19.107355 L0.414982678,19.107355 Z" id="Page-1-Copy-2"></path>
                <polyline id="Path-524" points="9.02984619 1.09680176 9.02984619 6.35858295 14.7334916 6.35858295"></polyline>
            </g>
        </g>
    </g>
</svg>