<?xml version="1.0" encoding="UTF-8" standalone="no"?>
<svg width="36px" height="32px" viewBox="0 0 36 32" version="1.1" xmlns="http://www.w3.org/2000/svg" xmlns:xlink="http://www.w3.org/1999/xlink">
    <!-- Generator: sketchtool 3.8.3 (29802) - http://www.bohemiancoding.com/sketch -->
    <title>EC6A5AC4-B786-43F4-9B8A-56AE1BA32CFE</title>
    <desc>Created with sketchtool.</desc>
    <defs>
        <path d="M1.48008159,3.89743516 L33.0155075,3.94143677 L33.0032085,22.8224863 C33.0023113,24.1997739 31.8792215,25.3162861 30.5006927,25.3162861 L3.96704937,25.3162861 C2.58584524,25.3162861 1.46688705,24.1948726 1.46778252,22.8173526 L1.48008159,3.89743516 Z" id="path-1"></path>
        <mask id="mask-2" maskContentUnits="userSpaceOnUse" maskUnits="objectBoundingBox" x="0" y="0" width="31.5477255" height="21.4188509" fill="white">
            <use xlink:href="#path-1"></use>
        </mask>
        <rect id="path-3" x="0.0809923771" y="0.0486698676" width="34.9543239" height="4.59925314"></rect>
        <mask id="mask-4" maskContentUnits="userSpaceOnUse" maskUnits="objectBoundingBox" x="0" y="0" width="34.9543239" height="4.59925314" fill="white">
            <use xlink:href="#path-3"></use>
        </mask>
    </defs>
    <g id="UGC-Upload-Flow" stroke="none" stroke-width="1" fill="none" fill-rule="evenodd">
        <g id="02-MediaCenter-Small---UGC-Upload---Landing" transform="translate(-79.000000, -1062.000000)" stroke="#37B0C9">
            <g id="ic-presentation" transform="translate(79.000000, 1062.000000)">
                <path d="M14.2089214,15.3226202 C13.6261744,16.7171317 12.2491903,17.6970678 10.6433299,17.6970678 C8.51000666,17.6970678 6.78060649,15.9676676 6.78060649,13.8343444 C6.78060649,11.7986805 8.35529373,10.1308046 10.3530184,9.98236639 L10.4441582,13.9527912 L14.2089214,15.3226202 Z" id="Combined-Shape"></path>
                <use id="Rectangle-6-Copy" mask="url(#mask-2)" stroke-width="2" xlink:href="#path-1"></use>
                <path d="M17.6690622,27.1599932 L17.6690622,25.2135893" id="Path-210"></path>
                <path d="M19.7160631,17.6416133 L19.7160632,11.444058" id="Path-210-Copy"></path>
                <path d="M23.3035127,17.6416133 L23.3035127,13.7631682" id="Path-210-Copy-2"></path>
                <path d="M26.8909623,17.6416133 L26.8909623,9.89967768" id="Path-210-Copy-3"></path>
                <ellipse id="Oval-7" cx="17.6386714" cy="29.055662" rx="1.83970126" ry="1.83970126"></ellipse>
                <use id="Rectangle-13" mask="url(#mask-4)" stroke-width="2" xlink:href="#path-3"></use>
            </g>
        </g>
    </g>
</svg>