<?xml version="1.0" encoding="UTF-8" standalone="no"?>
<svg width="31px" height="37px" viewBox="0 0 31 37" version="1.1" xmlns="http://www.w3.org/2000/svg" xmlns:xlink="http://www.w3.org/1999/xlink">
    <!-- Generator: sketchtool 3.8.3 (29802) - http://www.bohemiancoding.com/sketch -->
    <title>2E3DCE78-BABF-4F6D-B592-4334A47D422F</title>
    <desc>Created with sketchtool.</desc>
    <defs></defs>
    <g id="UGC-Upload-Flow" stroke="none" stroke-width="1" fill="none" fill-rule="evenodd">
        <g id="02-MediaCenter-Small---UGC-Upload---Landing" transform="translate(-261.000000, -1059.000000)" stroke="#37B0C9">
            <g id="ic-pdf" transform="translate(261.000000, 1060.000000)">
                <path d="M7.81893657,24.5801698 C8.4060737,24.0252743 9.40047357,23.4822573 10.7749853,22.9613003 C11.396061,21.7310275 12.0154398,20.3768788 12.5024581,19.1737568 C12.0918015,18.3151112 11.8287777,17.4106485 11.7150835,16.479035 C11.2908515,12.9816662 15.2497847,13.2429931 14.6490722,16.4993981 C14.5336811,17.1238677 14.2587787,17.9994826 13.8294559,19.1058797 C14.4522285,20.2156707 15.2701479,21.0505593 15.9217683,21.6037579 C16.8109586,21.4612159 18.0785639,21.3152801 18.9711481,21.4459435 C21.3400597,21.7938138 21.0397034,24.4053862 18.9355126,24.4053862 C17.8342062,24.4053862 16.4529068,23.5450436 15.5891704,22.8849386 C14.2672634,23.1292962 12.8520253,23.5043173 11.6353279,23.9336401 C11.2467313,24.6802885 10.7257744,25.6322652 10.2591192,26.3025518 C8.31953036,29.0956954 5.76225971,26.5180616 7.81893657,24.5801698 L7.81893657,24.5801698 L7.81893657,24.5801698 L7.81893657,24.5801698 Z M1.0613072,35.3517912 L0.995143964,0.197678882 L18.0426175,0.327152168 L29.690488,10.550344 L29.4839923,35.4271711 L1.0613072,35.3517912 L1.0613072,35.3517912 L1.0613072,35.3517912 L1.0613072,35.3517912 Z" id="Page-1-Copy-2"></path>
                <polyline id="Path-524" points="17.7352366 0.492655885 17.7352366 10.6767485 28.7745503 10.6767485"></polyline>
            </g>
        </g>
    </g>
</svg>