<?xml version="1.0" encoding="UTF-8" standalone="no"?>
<svg width="19px" height="16px" viewBox="0 0 19 16" version="1.1" xmlns="http://www.w3.org/2000/svg" xmlns:xlink="http://www.w3.org/1999/xlink">
    <!-- Generator: sketchtool 3.8.3 (29802) - http://www.bohemiancoding.com/sketch -->
    <title>85BF82E6-A5A1-496F-ABAD-802379B0AB0A</title>
    <desc>Created with sketchtool.</desc>
    <defs>
        <path d="M1.08274635,1.85233158 L17.1177087,1.87470528 L17.1122532,10.2498038 C17.1113561,11.6269087 15.9830815,12.7432727 14.6051661,12.7432727 L3.58112945,12.7432727 C2.19740052,12.7432727 1.07639758,11.6187711 1.07729083,10.2446708 L1.08274635,1.85233158 Z" id="path-1"></path>
        <mask id="mask-2" maskContentUnits="userSpaceOnUse" maskUnits="objectBoundingBox" x="0" y="0" width="16.0404184" height="10.8909411" fill="white">
            <use xlink:href="#path-1"></use>
        </mask>
        <rect id="path-3" x="0.371345051" y="0.403806851" width="17.773385" height="2.33860329"></rect>
        <mask id="mask-4" maskContentUnits="userSpaceOnUse" maskUnits="objectBoundingBox" x="0" y="0" width="17.773385" height="2.33860329" fill="white">
            <use xlink:href="#path-3"></use>
        </mask>
    </defs>
    <g id="Page-1" stroke="none" stroke-width="1" fill="none" fill-rule="evenodd">
        <g id="02-MediaCenter-Small---Filter3" transform="translate(-55.000000, -519.000000)" stroke="#FFFFFF">
            <g id="ic-presentation" transform="translate(55.183594, 517.984451)">
                <g id="Group-19-Copy-2" transform="translate(0.359456, 0.795854)">
                    <path d="M7.55503776,7.6617477 C7.25872572,8.37082134 6.55856433,8.86909393 5.74202514,8.86909393 C4.65728452,8.86909393 3.7779285,7.98973791 3.7779285,6.90499729 C3.7779285,5.86991397 4.57861693,5.02184145 5.59440912,4.9463644 L5.6407514,6.96522447 L7.55503776,7.6617477 Z" id="Combined-Shape"></path>
                    <use id="Rectangle-6-Copy" mask="url(#mask-2)" stroke-width="2" xlink:href="#path-1"></use>
                    <path d="M9.31443138,13.6807509 L9.31443138,12.691054" id="Path-210"></path>
                    <path d="M10.3552793,8.84089675 L10.3552794,5.68959745" id="Path-210-Copy"></path>
                    <path d="M12.1794062,8.84089675 L12.1794062,6.86880599" id="Path-210-Copy-2"></path>
                    <path d="M14.0035331,8.84089675 L14.0035331,4.9043193" id="Path-210-Copy-3"></path>
                    <ellipse id="Oval-7" cx="9.29897846" cy="14.6446503" rx="0.935441317" ry="0.935441317"></ellipse>
                    <use id="Rectangle-13" mask="url(#mask-4)" stroke-width="2" xlink:href="#path-3"></use>
                </g>
            </g>
        </g>
    </g>
</svg>