<?xml version="1.0" encoding="UTF-8" standalone="no"?>
<svg width="38px" height="38px" viewBox="0 0 38 38" version="1.1" xmlns="http://www.w3.org/2000/svg" xmlns:xlink="http://www.w3.org/1999/xlink">
    <!-- Generator: sketchtool 39.1 (31720) - http://www.bohemiancoding.com/sketch -->
    <title>5CE83D81-16ED-4D4D-8C28-208A14FA68EF</title>
    <desc>Created with sketchtool.</desc>
    <defs>
        <circle id="path-1" cx="18" cy="18" r="18"></circle>
        <mask id="mask-2" maskContentUnits="userSpaceOnUse" maskUnits="objectBoundingBox" x="-1" y="-1" width="38" height="38">
            <rect x="-1" y="-1" width="38" height="38" fill="white"></rect>
            <use xlink:href="#path-1" fill="black"></use>
        </mask>
    </defs>
    <g id="Distributor-Checkout-RC-15" stroke="none" stroke-width="1" fill="none" fill-rule="evenodd">
        <g id="04-Checkout-Distributor-00-Flow" transform="translate(-2303.000000, -2662.000000)">
            <g id="ic-payment-active" transform="translate(2304.000000, 2663.000000)">
                <g id="Group-6">
                    <g id="Oval-157-Copy-6">
                        <use fill="#1CD8D2" fill-rule="evenodd" xlink:href="#path-1"></use>
                        <use stroke="#FFFFFF" mask="url(#mask-2)" stroke-width="2" xlink:href="#path-1"></use>
                    </g>
                    <g id="Group-2-Copy-2" transform="translate(7.542969, 9.953125)" stroke="#FFFFFF">
                        <path d="M19.8842677,15.1992188 L5.85862466,15.1992188 C5.01643964,15.1992188 4.33342211,14.7681434 4.33342211,14.2369971 L4.33342211,4.61478005 C4.33342211,4.08363367 5.01643964,3.65255835 5.85862466,3.65255835 L19.8842677,3.65255835 C20.7264527,3.65255835 21.4088604,4.08363367 21.4088604,4.61478005 L21.4088604,14.2369971 C21.4088604,14.7681434 20.7264527,15.1992188 19.8842677,15.1992188 L19.8842677,15.1992188 Z" id="Stroke-130-Copy-2" stroke-linecap="round" stroke-linejoin="round"></path>
                        <path d="M2.24575604,12.4863887 L2.24575604,12.4863887 C1.40357102,12.4863887 0.72055349,12.0553134 0.72055349,11.524167 L0.72055349,1.90194998 C0.72055349,1.3708036 1.40357102,0.939728275 2.24575604,0.939728275 L16.2713991,0.939728275 C17.1135841,0.939728275 17.7959918,1.3708036 17.7959918,1.90194998" id="Stroke-130-Copy-3" stroke-linecap="round" stroke-linejoin="round"></path>
                        <path d="M4.31815369,5.53125 L21.3179765,5.53125" id="Line-Copy-6" stroke-linecap="square"></path>
                        <path d="M4.31815369,7.53125 L21.3179765,7.53125" id="Line-Copy-7" stroke-linecap="square"></path>
                    </g>
                </g>
            </g>
        </g>
    </g>
</svg>