<?xml version="1.0" encoding="UTF-8" standalone="no"?>
<svg width="39px" height="55px" viewBox="0 0 39 55" version="1.1" xmlns="http://www.w3.org/2000/svg" xmlns:xlink="http://www.w3.org/1999/xlink">
    <!-- Generator: sketchtool 39.1 (31720) - http://www.bohemiancoding.com/sketch -->
    <title>F1B953DA-4A2E-4CD7-B863-5AA11CE7EE2F</title>
    <desc>Created with sketchtool.</desc>
    <defs></defs>
    <g id="•-5852-–-Landing-Page-for-Customer" stroke="none" stroke-width="1" fill="none" fill-rule="evenodd">
        <g id="01-NS-CustomerLandingPage-01-XL" transform="translate(-1009.000000, -715.000000)">
            <g id="ic-recommend" transform="translate(1008.500000, 714.750000)">
                <polygon id="Stroke-1" stroke="#00C0BC" stroke-width="0.75" points="0.942791071 0.882542814 4.4964968 54.7247148 18.1794406 54.7247148 22.9757666 0.882542814"></polygon>
                <path d="M3.76010308,43.5658435 L19.1728308,43.5658435" id="Stroke-3" stroke="#00C0BC" stroke-width="0.75"></path>
                <g id="Group-8" transform="translate(12.767238, 11.890814)">
                    <path d="M13.3223755,0.804152857 C6.20790367,0.804152857 0.439603839,4.74147053 0.439603839,9.59898618 C0.439603839,12.3831146 2.37178424,14.8354069 5.32771431,16.4475184 C4.58637834,17.833699 3.30374945,19.1092676 1.50806901,20.0200517 C1.50806901,20.0200517 5.94431755,21.3756375 10.1734627,18.0996386 C11.1854451,18.2737937 12.2303758,18.396173 13.3223755,18.396173 C20.4368473,18.396173 26.2051471,14.4588553 26.2051471,9.59898618 C26.2051471,4.74147053 20.4368473,0.804152857 13.3223755,0.804152857" id="Fill-4" fill="#FFFFFF"></path>
                    <path d="M13.3223755,0.804152857 C6.20790367,0.804152857 0.439603839,4.74147053 0.439603839,9.59898618 C0.439603839,12.3831146 2.37178424,14.8354069 5.32771431,16.4475184 C4.58637834,17.833699 3.30374945,19.1092676 1.50806901,20.0200517 C1.50806901,20.0200517 5.94431755,21.3756375 10.1734627,18.0996386 C11.1854451,18.2737937 12.2303758,18.396173 13.3223755,18.396173 C20.4368473,18.396173 26.2051471,14.4588553 26.2051471,9.59898618 C26.2051471,4.74147053 20.4368473,0.804152857 13.3223755,0.804152857 L13.3223755,0.804152857 Z" id="Stroke-6" stroke="#00C0BC" stroke-width="0.75"></path>
                </g>
            </g>
        </g>
    </g>
</svg>