<?xml version="1.0" encoding="UTF-8" standalone="no"?>
<svg width="19px" height="13px" viewBox="0 0 19 13" version="1.1" xmlns="http://www.w3.org/2000/svg" xmlns:xlink="http://www.w3.org/1999/xlink">
    <!-- Generator: sketchtool 3.8.3 (29802) - http://www.bohemiancoding.com/sketch -->
    <title>A25B8FC1-F08C-4D59-8736-5AD84D1E3881</title>
    <desc>Created with sketchtool.</desc>
    <defs></defs>
    <g id="Page-1" stroke="none" stroke-width="1" fill="none" fill-rule="evenodd" stroke-linecap="round" stroke-linejoin="round">
        <g id="02-MediaCenter-XLarge-Category-Page" transform="translate(-51.000000, -525.000000)" stroke="#008AB0">
            <g id="ic-refine" transform="translate(52.085938, 525.394531)">
                <path d="M9.7213875,1.8218875 C9.7213875,2.5558875 9.1263875,3.1518875 8.3913875,3.1518875 C7.6573875,3.1518875 7.0623875,2.5558875 7.0623875,1.8218875 C7.0623875,1.0878875 7.6573875,0.4918875 8.3913875,0.4918875 C9.1263875,0.4918875 9.7213875,1.0878875 9.7213875,1.8218875 L9.7213875,1.8218875 Z" id="Stroke-1"></path>
                <path d="M9.7210875,1.8218875 L16.6800875,1.8218875" id="Stroke-3"></path>
                <path d="M0.1796875,1.8218875 L7.0626875,1.8218875" id="Stroke-5"></path>
                <path d="M15.0066875,5.8182875 C15.0066875,6.5522875 14.4116875,7.1482875 13.6766875,7.1482875 C12.9426875,7.1482875 12.3476875,6.5522875 12.3476875,5.8182875 C12.3476875,5.0842875 12.9426875,4.4882875 13.6766875,4.4882875 C14.4116875,4.4882875 15.0066875,5.0842875 15.0066875,5.8182875 L15.0066875,5.8182875 Z" id="Stroke-7"></path>
                <path d="M15.0061875,5.8182875 L16.6801875,5.8182875" id="Stroke-9"></path>
                <path d="M0.1796875,5.8182875 L12.3476875,5.8182875" id="Stroke-11"></path>
                <path d="M5.5963875,9.8146875 C5.5963875,9.8686875 5.5933875,9.9226875 5.5863875,9.9746875 C5.5073875,10.6336875 4.9473875,11.1446875 4.2663875,11.1446875 C3.5323875,11.1446875 2.9373875,10.5486875 2.9373875,9.8146875 C2.9373875,9.0806875 3.5323875,8.4846875 4.2663875,8.4846875 C5.0013875,8.4846875 5.5963875,9.0806875 5.5963875,9.8146875 L5.5963875,9.8146875 Z" id="Stroke-13"></path>
                <polyline id="Stroke-15" points="5.5964875 9.8146875 6.8884875 9.8146875 16.6794875 9.8146875"></polyline>
                <path d="M0.1796875,9.8146875 L2.9376875,9.8146875" id="Stroke-17"></path>
                <path d="M5.70947266,9.8146875 L16.6020508,9.88916016" id="Stroke-17-Copy"></path>
            </g>
        </g>
    </g>
</svg>