<?xml version="1.0" encoding="UTF-8" standalone="no"?>
<svg width="49px" height="41px" viewBox="0 0 49 41" version="1.1" xmlns="http://www.w3.org/2000/svg" xmlns:xlink="http://www.w3.org/1999/xlink">
    <!-- Generator: sketchtool 39.1 (31720) - http://www.bohemiancoding.com/sketch -->
    <title>D027C1F6-419D-4CF3-9204-E29536FB361B</title>
    <desc>Created with sketchtool.</desc>
    <defs></defs>
    <g id="•-5852-–-Landing-Page-for-Customer" stroke="none" stroke-width="1" fill="none" fill-rule="evenodd">
        <g id="01-NS-CustomerLandingPage-01-XL" transform="translate(-808.000000, -722.000000)">
            <g id="ic-review" transform="translate(807.666667, 721.750000)">
                <path d="M40.631089,9.80463182 C40.631089,13.0458141 31.720607,15.6733207 20.7320464,15.6733207 C9.74127036,15.6733207 0.830788352,13.0458141 0.830788352,9.80463182 C0.830788352,6.56344953 9.74127036,3.9359429 20.7320464,3.9359429 C31.720607,3.9359429 40.631089,6.56344953 40.631089,9.80463182 L40.631089,9.80463182 Z" id="Stroke-1" stroke="#00C0BC" stroke-width="0.75"></path>
                <path d="M40.631089,17.449657 C40.631089,20.6908393 31.720607,23.8655585 20.7320464,23.8655585 C9.74127036,23.8655585 0.830788352,20.6908393 0.830788352,17.449657" id="Stroke-3" stroke="#00C0BC" stroke-width="0.75"></path>
                <path d="M40.631089,9.80463182 L40.631089,32.6634964 C40.631089,35.9024633 31.720607,40.00545 20.7320464,40.00545 C9.74127036,40.00545 0.830788352,35.9024633 0.830788352,32.6634964 L0.830788352,9.80463182" id="Stroke-5" stroke="#00C0BC" stroke-width="0.75"></path>
                <path d="M48.2442119,8.46517945 C48.2442119,12.6811534 44.8257948,16.0995705 40.6098208,16.0995705 C36.3938469,16.0995705 32.9754297,12.6811534 32.9754297,8.46517945 C32.9754297,4.24920549 36.3938469,0.830788352 40.6098208,0.830788352 C44.8257948,0.830788352 48.2442119,4.24920549 48.2442119,8.46517945" id="Fill-7" fill="#FFFFFF"></path>
                <path d="M48.2442119,8.46517945 C48.2442119,12.6811534 44.8257948,16.0995705 40.6098208,16.0995705 C36.3938469,16.0995705 32.9754297,12.6811534 32.9754297,8.46517945 C32.9754297,4.24920549 36.3938469,0.830788352 40.6098208,0.830788352 C44.8257948,0.830788352 48.2442119,4.24920549 48.2442119,8.46517945 L48.2442119,8.46517945 Z" id="Stroke-9" stroke="#00C0BC" stroke-width="0.75"></path>
                <g id="Group-14" transform="translate(35.446970, 5.388604)">
                    <polyline id="Fill-11" fill="#FFFFFF" points="0.965265294 3.20440606 3.33578139 5.57492216 8.78353755 0.127166004"></polyline>
                    <polyline id="Stroke-13" stroke="#00C0BC" stroke-width="0.75" points="0.965265294 3.20440606 3.33578139 5.57492216 8.78353755 0.127166004"></polyline>
                </g>
            </g>
        </g>
    </g>
</svg>