<?xml version="1.0" encoding="UTF-8" standalone="no"?>
<svg width="32px" height="32px" viewBox="0 0 32 32" version="1.1" xmlns="http://www.w3.org/2000/svg" xmlns:xlink="http://www.w3.org/1999/xlink">
    <!-- Generator: sketchtool 3.8.1 (29687) - http://www.bohemiancoding.com/sketch -->
    <title>A8B55DCC-D4C0-48F9-B10B-7C00A9B4D64C</title>
    <desc>Created with sketchtool.</desc>
    <defs></defs>
    <g id="nuskin-icons" stroke="none" stroke-width="1" fill="none" fill-rule="evenodd" stroke-linecap="square">
        <g id="icons" transform="translate(-43.000000, -171.000000)" stroke="#7F7F7F">
            <g id="ic-search" transform="translate(43.000000, 171.000000)">
                <path d="M24.7394,12.5003 C24.7394,19.1273 19.3664,24.5003 12.7394,24.5003 C6.1124,24.5003 0.7394,19.1273 0.7394,12.5003 C0.7394,5.8733 6.1124,0.5003 12.7394,0.5003 C19.3664,0.5003 24.7394,5.8733 24.7394,12.5003 L24.7394,12.5003 Z" id="Stroke-27"></path>
                <path d="M30.1886,27.2789 L22.6186,19.3129 C21.9106,20.3679 21.0296,21.2969 20.0076,22.0449 L27.5176,29.9499 C28.2526,30.6839 29.4546,30.6839 30.1886,29.9499 C30.9226,29.2149 30.9226,28.0129 30.1886,27.2789 L30.1886,27.2789 Z" id="Stroke-29"></path>
            </g>
        </g>
    </g>
</svg>