<?xml version="1.0" encoding="UTF-8" standalone="no"?>
<svg width="36px" height="36px" viewBox="0 0 36 36" version="1.1" xmlns="http://www.w3.org/2000/svg" xmlns:xlink="http://www.w3.org/1999/xlink">
    <!-- Generator: sketchtool 39.1 (31720) - http://www.bohemiancoding.com/sketch -->
    <title>E5BD1C56-2925-4FBC-9D6D-DB2027C334F7</title>
    <desc>Created with sketchtool.</desc>
    <defs></defs>
    <g id="Distributor-Checkout-RC-15" stroke="none" stroke-width="1" fill="none" fill-rule="evenodd">
        <g id="04-Checkout-Distributor-00-Flow" transform="translate(-2174.000000, -2723.000000)">
            <g id="ic-shipping-inactive" transform="translate(2174.000000, 2723.000000)">
                <g id="Group-19">
                    <g id="Group-2">
                        <path d="M18,36 C27.9411255,36 36,27.9411255 36,18 C36,8.0588745 27.9411255,0 18,0 C8.0588745,0 0,8.0588745 0,18 C0,27.9411255 8.0588745,36 18,36 Z" id="Oval-157-Copy-4" fill="#008AB0"></path>
                        <g id="ic-package-copy-4" transform="translate(7.866690, 7.128140)" stroke-linecap="round" stroke="#FFFFFF">
                            <polygon id="Stroke-160" stroke-linejoin="round" points="10.187655 0.378193015 0.579811887 5.18211458 10.187655 10.6723107 19.7954982 5.18211458"></polygon>
                            <path d="M5.81176287,2.68160478 L14.9913707,7.92748713" id="Stroke-161"></path>
                            <polyline id="Stroke-162" stroke-linejoin="round" points="0.579811887 5.18211458 0.579811887 15.4762322 10.187655 20.9664283 19.7954982 15.4762322 19.7954982 5.18211458"></polyline>
                            <path d="M10.187655,10.6723107 L10.187655,20.9664283" id="Stroke-163" stroke-linejoin="round"></path>
                        </g>
                    </g>
                </g>
            </g>
        </g>
    </g>
</svg>