<svg width="24px" height="29px" viewBox="0 0 24 29" version="1.1" xmlns="http://www.w3.org/2000/svg" xmlns:xlink="http://www.w3.org/1999/xlink">
<!-- Generator: Sketch 46.1 (44463) - http://www.bohemiancoding.com/sketch -->
<desc>Created with Sketch.</desc>
<defs></defs>
<g id="Icon-repository" stroke="none" stroke-width="1" fill="none" fill-rule="evenodd">
<path d="M17,9 L17,5.711 C17,3.109 14.761,1 12,1 C9.239,1 7,3.109 7,5.711 L7,9" id="Stroke-1" stroke="#7F7F7F" stroke-linecap="round"></path>
<path d="M1,25.867 C1,27.04 1.99,28 3.2,28 L20.8,28 C22.01,28 23,27.04 23,25.867 L22,6 L2,6 L1,25.867 Z" id="Stroke-3" stroke="#7F7F7F" stroke-linecap="round"></path>
<circle id="Oval-9" stroke="#727272" cx="7" cy="10" r="1"></circle>
<circle id="Oval-9-Copy" stroke="#727272" cx="17" cy="10" r="1"></circle>
<g id="Group-12" transform="translate(8.000000, 15.000000)" stroke="#7F7F7F" stroke-linecap="round" stroke-linejoin="round">
<path d="M0,8.39340621 L8.39340621,0" id="Stroke-117"></path>
<path d="M0,8.39340621 L8.39340621,0" id="Stroke-117" transform="translate(4.196703, 4.196703) scale(1, -1) translate(-4.196703, -4.196703) "></path>
</g>
</g>
</svg>