<?xml version="1.0" encoding="UTF-8" standalone="no"?>
<svg width="21px" height="17px" viewBox="0 0 21 17" version="1.1" xmlns="http://www.w3.org/2000/svg" xmlns:xlink="http://www.w3.org/1999/xlink">
    <!-- Generator: sketchtool 3.8.3 (29802) - http://www.bohemiancoding.com/sketch -->
    <title>9CC7D33A-B7C6-4EC3-A4FB-DCBECED049A8</title>
    <desc>Created with sketchtool.</desc>
    <defs></defs>
    <g id="Page-1" stroke="none" stroke-width="1" fill="none" fill-rule="evenodd">
        <g id="02-MediaCenter-Medium-My-Content" transform="translate(-118.000000, -436.000000)">
            <g id="ic-upload" transform="translate(118.609375, 436.734375)">
                <path d="M8.3982165,12.9191033 L4.5264215,12.9191033 C2.65763511,12.9191033 0.5004,11.2232571 0.5004,9.13894081 C0.5004,7.58764162 1.37284447,6.17056465 2.672477,5.61109027 C2.79766503,5.55753044 2.87897273,5.38975266 2.87897273,5.24714154 C2.87897273,3.31382524 4.3728403,1.73994057 6.21065233,1.73994057 C6.98049423,1.73994057 7.73162246,2.0232269 8.32658829,2.53753034 C8.4020883,2.60335085 8.50210967,2.63045342 8.59825924,2.61173974 C8.69569942,2.59302607 8.77894301,2.53043205 8.82798575,2.44009017 C9.6404174,0.942996099 11.1600969,0.01312 12.7939944,0.01312 C15.3132424,0.01312 17.3627125,2.16970981 17.3627125,4.82059879 C17.3627125,4.95159452 17.3556142,5.07871846 17.34658,5.20648769 C17.33561,5.36265009 17.4253065,5.5084877 17.5659818,5.56140223 C18.9372425,6.08409456 19.859375,7.5218211 19.859375,9.13894081 C19.859375,11.2232571 18.0099476,12.9191033 16.1418065,12.9191033 L12.2700115,12.9191033" id="Stroke-138" stroke="#008AB0" stroke-linecap="round"></path>
                <path d="M10,7.75671 L10,15.5003" id="Fill-139"></path>
                <path d="M10.4418945,7.75671 L10.4418945,15.5003" id="Stroke-140" stroke="#008AB0" stroke-linecap="round"></path>
                <path d="M10.334114,7.75671 L12.9153107,10.3379067" id="Fill-142"></path>
                <path d="M10.334114,7.75671 L12.9153107,10.3379067" id="Stroke-143" stroke="#008AB0" stroke-linecap="round"></path>
                <path d="M10.334114,7.75671 L7.75291733,10.3379067" id="Fill-145"></path>
                <path d="M10.334114,7.75671 L7.75291733,10.3379067" id="Stroke-146" stroke="#008AB0" stroke-linecap="round"></path>
            </g>
        </g>
    </g>
</svg>