<?xml version="1.0" encoding="UTF-8" standalone="no"?>
<svg width="25px" height="20px" viewBox="0 0 25 20" version="1.1" xmlns="http://www.w3.org/2000/svg" xmlns:xlink="http://www.w3.org/1999/xlink">
    <!-- Generator: sketchtool 3.8.3 (29802) - http://www.bohemiancoding.com/sketch -->
    <title>ic-upload copy</title>
    <desc>Created with sketchtool.</desc>
    <defs></defs>
    <g id="Account-Settings-" stroke="none" stroke-width="1" fill="none" fill-rule="evenodd">
        <g id="01-NS-AccountSettings-Personal-Edit-Name--Small" transform="translate(-183.000000, -90.000000)">
            <g id="Group-12" transform="translate(25.000000, 24.453125)">
                <g id="ic-upload-copy" transform="translate(158.644531, 65.857422)">
                    <path d="M9.89486663,15.9228641 L5.23458438,15.9228641 C2.98522147,15.9228641 0.38866754,13.8816604 0.38866754,11.3728752 C0.38866754,9.50565539 1.43878448,7.79999209 3.00308589,7.1265813 C3.15376835,7.06211406 3.25163427,6.8601685 3.25163427,6.68851477 C3.25163427,4.36148049 5.04972651,2.46707576 7.26180716,2.46707576 C8.18842661,2.46707576 9.09252137,2.80805307 9.80865141,3.4270939 C9.89952692,3.5063187 10.0199175,3.53894068 10.1356479,3.51641598 C10.2529317,3.49389128 10.3531277,3.41855005 10.412158,3.30981013 C11.3900405,1.50783432 13.2192013,0.388589869 15.1858404,0.388589869 C18.2181307,0.388589869 20.6849735,2.98436709 20.6849735,6.17510701 C20.6849735,6.33277989 20.6764296,6.48579249 20.6655556,6.6395818 C20.6523515,6.82754652 20.7603147,7.00308382 20.9296383,7.06677434 C22.5801549,7.69591245 23.6900788,9.42643059 23.6900788,11.3728752 C23.6900788,13.8816604 21.4640173,15.9228641 19.2154311,15.9228641 L14.5551489,15.9228641" id="Stroke-138" stroke="#008AB0" stroke-linecap="round"></path>
                    <path d="M12.2250078,9.70915439 L12.2250078,19.0297189" id="Fill-139" fill="#808286"></path>
                    <path d="M12.2250078,9.70915439 L12.2250078,19.0297189" id="Stroke-140" stroke="#008AB0" stroke-linecap="round"></path>
                    <path d="M12.2250078,9.70915439 L15.3318626,12.8160092" id="Fill-142" fill="#808286"></path>
                    <path d="M12.2250078,9.70915439 L15.3318626,12.8160092" id="Stroke-143" stroke="#008AB0" stroke-linecap="round"></path>
                    <path d="M12.2250078,9.70915439 L9.11815292,12.8160092" id="Fill-145" fill="#808286"></path>
                    <path d="M12.2250078,9.70915439 L9.11815292,12.8160092" id="Stroke-146" stroke="#008AB0" stroke-linecap="round"></path>
                </g>
            </g>
        </g>
    </g>
</svg>