<?xml version="1.0" encoding="UTF-8" standalone="no"?>
<svg width="20px" height="24px" viewBox="0 0 20 24" version="1.1" xmlns="http://www.w3.org/2000/svg" xmlns:xlink="http://www.w3.org/1999/xlink">
    <!-- Generator: sketchtool 39.1 (31720) - http://www.bohemiancoding.com/sketch -->
    <title>EB24CD6F-41F7-4BE6-B5A3-7ADE642604D1</title>
    <desc>Created with sketchtool.</desc>
    <defs>
        <rect id="path-1" x="0" y="0" width="24" height="24"></rect>
    </defs>
    <g id="Exports" stroke="none" stroke-width="1" fill="none" fill-rule="evenodd">
        <g id="04-NS-Order-History_my-orders_recent_M" transform="translate(-169.000000, -960.000000)">
            <g id="Group-23" transform="translate(135.000000, 936.000000)">
                <g id="Group-16-Copy" transform="translate(32.000000, 24.000000)">
                    <g id="Group-7">
                        <g id="recurring">
                            <mask id="mask-2" fill="white">
                                <use xlink:href="#path-1"></use>
                            </mask>
                            <g id="Mask"></g>
                            <g id="Page-1" mask="url(#mask-2)" stroke="#FFFFFF" fill="#444444">
                                <g transform="translate(3.375000, 1.125000)">
                                    <path d="M16.52625,7.392675 C16.249125,6.7683 15.517875,6.487425 14.893875,6.76455 C14.2695,7.041675 13.98825,7.77255 14.26575,8.396925 C15.317625,10.7643 14.82825,13.46355 13.018875,15.27255 C11.2455,17.045925 8.6205,17.548425 6.2895,16.5783 L7.44675,15.6708 C7.9305,15.2913 8.01525,14.59155 7.635375,14.107425 C7.255875,13.623675 6.55575,13.538925 6.072,13.9188 L3.132375,16.224675 C2.799375,16.485675 2.643,16.913175 2.729625,17.32755 L3.493875,20.99655 C3.603375,21.521925 4.0665,21.88305 4.582875,21.88305 C4.657875,21.88305 4.734375,21.875175 4.810875,21.8598 C5.41275,21.734175 5.799375,21.144675 5.674125,20.542425 L5.322375,18.8553 C6.422625,19.316175 7.570125,19.544175 8.70525,19.544175 C10.936875,19.544175 13.114875,18.67455 14.76825,17.0208 C17.307375,14.4828 17.997375,10.703175 16.52625,7.392675" id="Fill-4"></path>
                                    <path d="M4.270875,6.52605 C6.081375,4.7163 8.78175,4.226925 11.148375,5.279925 C11.170875,5.289675 11.194125,5.2938 11.216625,5.302425 L10.057125,6.212175 C9.573375,6.591675 9.488625,7.291425 9.8685,7.77555 C10.08825,8.0553 10.414875,8.201925 10.74525,8.201925 C10.986,8.201925 11.227875,8.1243 11.431875,7.964175 L14.37075,5.658675 C14.70375,5.397675 14.85975,4.970175 14.7735,4.555425 L14.008875,0.886425 C13.883625,0.284925 13.294875,-0.1017 12.6915,0.02355 C12.089625,0.1488 11.703,0.738675 11.82825,1.340925 L12.1815,3.035925 C8.844,1.54755 5.064,2.2368 2.5215,4.77705 C-0.018375,7.3188 -0.707625,11.0988 0.765375,14.407425 C0.970125,14.867925 1.422,15.1413 1.896,15.1413 C2.064,15.1413 2.235,15.1068 2.398125,15.03405 C3.0225,14.756175 3.303,14.024925 3.025125,13.400925 C1.972125,11.0358 2.461125,8.336925 4.270875,6.52605 Z" id="Fill-1"></path>
                                </g>
                            </g>
                        </g>
                    </g>
                </g>
            </g>
        </g>
    </g>
</svg>