<svg xmlns="http://www.w3.org/2000/svg" width="17" height="21" viewBox="0 0 17 21">
    <path fill="#FFF" fill-rule="evenodd" d="M4.439.281C1.772 1.902 0 4.801 0 8.095c0 4.922 3.972 8.944 8.947 9.174v1.107H6.711c-.23.002-.364.176-.434.314l-.447 1.532c-.078.26.155.563.433.56h6.263c.278.003.512-.3.434-.56l-.448-1.532a.46.46 0 0 0-.433-.314H9.842v-1.107a9.574 9.574 0 0 0 3.313-.76.45.45 0 0 0 .228-.577.47.47 0 0 0-.591-.222 8.612 8.612 0 0 1-3.397.697c-4.7 0-8.5-3.716-8.5-8.312 0-2.986 1.606-5.602 4.02-7.069A.447.447 0 0 0 5.13.534C4.96.214 4.7.151 4.439.281zm4.956.376C5.2.657 1.789 3.992 1.789 8.095c0 4.102 3.41 7.437 7.606 7.437 4.195 0 7.605-3.335 7.605-7.437 0-3.04-1.874-5.656-4.55-6.809-.003-.001-.005-.005-.008-.007h-.006A7.705 7.705 0 0 0 9.395.657zm0 .875c.867 0 1.693.16 2.453.451.473.795.442 1.605.455 2.181.013.61-.258.966-.602 1.51-.185.295-.508.57-.831.849-.324.277-.696.552-.797 1.045-.117.573-.202 1.209-.378 1.648-.088.22-.195.383-.307.478-.112.096-.224.151-.44.15a.486.486 0 0 1-.364-.143 1.7 1.7 0 0 1-.357-.492c-.283-.545-.325-.999-.328-1.497-.004-.498.05-1.045-.077-1.675-.136-.679-.557-1.109-.86-1.442-.303-.334-.475-.535-.475-.875 0-.906.225-1.443.706-1.825a6.842 6.842 0 0 1 2.202-.363zm3.649 1.053c1.843 1.169 3.061 3.197 3.061 5.51 0 .894-.18 1.746-.51 2.522-.553-.246-1.24-.294-1.93-.335h-.027c-1.132 0-1.977.366-2.314 1.046-.334.675-.043 1.493.65 2.106l.014.013c.199.192.383.335.552.445a6.815 6.815 0 0 1-3.145.765c-3.712 0-6.71-2.933-6.71-6.562 0-2.306 1.212-4.326 3.047-5.496-.095.342-.14.718-.14 1.12 0 .66.386 1.111.7 1.457.312.345.565.614.65 1.032.096.483.058.956.062 1.51.004.556.067 1.195.427 1.887.143.277.313.54.559.752.245.213.583.362.957.363.405 0 .772-.144 1.035-.37.263-.225.425-.513.545-.813.24-.6.32-1.277.427-1.798.014-.072.192-.293.503-.56.311-.268.71-.588 1-1.046.32-.507.76-1.1.74-1.99-.007-.338.01-.913-.153-1.558zm.594 8.572c.612.038 1.205.141 1.545.26a6.632 6.632 0 0 1-1.762 1.935v-.007s-.005.005-.147-.055-.373-.188-.67-.478a.273.273 0 0 0-.015-.014c-.52-.454-.58-.83-.454-1.087.126-.256.568-.554 1.503-.554zm-6.585 8.094h4.683l.196.656H6.857l.196-.656z"/>
</svg>
