<?xml version="1.0" encoding="utf-8"?>
<!-- Generator: Adobe Illustrator 21.1.0, SVG Export Plug-In . SVG Version: 6.00 Build 0)  -->
<svg version="1.1" id="Layer_1" xmlns="http://www.w3.org/2000/svg" xmlns:xlink="http://www.w3.org/1999/xlink" x="0px" y="0px"
	 viewBox="0 0 25 25" style="enable-background:new 0 0 25 25;" xml:space="preserve">
<style type="text/css">
	.st0{clip-path:url(#SVGID_2_);fill:#A4A5A6;}
	.st1{clip-path:url(#SVGID_4_);fill:#FFFFFF;}
</style>
<g>
	<defs>
		<circle id="SVGID_1_" cx="12.5" cy="12.5" r="12.5"/>
	</defs>
	<clipPath id="SVGID_2_">
		<use xlink:href="#SVGID_1_"  style="overflow:visible;"/>
	</clipPath>
	<rect x="-5" y="-5" class="st0" width="35" height="35"/>
</g>
<g>
	<defs>
		<path id="SVGID_3_" d="M9,14.4L8.6,9.8H7.5l-1.1,8.8L9.4,19L9,14.4z M18.1,19l-0.9-9.2h-2.1v1.1c0,0.1-0.1,0.2-0.2,0.2
			c-0.1,0-0.2-0.1-0.2-0.2V9.8h-3.1v1.1c0,0.1-0.1,0.2-0.2,0.2c-0.1,0-0.2-0.1-0.2-0.2V9.8H9L9.8,19H18.1z M14.7,8
			c0-0.1,0-1.6-1.4-1.6l-0.4,0c-0.1,0-0.2,0-0.3,0c0.5,0.4,0.7,1.2,0.7,1.6v1.4h1.4L14.7,8z M12.3,6.6C11.6,7,11.6,8,11.6,8v1.4H13
			V8C13,8,13,7,12.3,6.6z M11.6,6.4l-0.4,0C9.9,6.4,9.9,8,9.9,8v1.4h1.4V8c0-0.4,0.2-1.1,0.7-1.6C11.8,6.4,11.7,6.4,11.6,6.4
			L11.6,6.4z M7.2,9.4h2.3V8c0-0.7,0.4-2,1.7-2l0.5,0c0,0,0.1,0,0.1,0c0.2,0,0.4,0.1,0.5,0.1C12.5,6.1,12.7,6,13,6h0.5
			c0,0,0.1,0,0.1,0c1.2,0.1,1.6,1.4,1.6,2v1.4l2.4,0l0.9,10h-9L6,18.9L7.2,9.4z"/>
	</defs>
	<clipPath id="SVGID_4_">
		<use xlink:href="#SVGID_3_"  style="overflow:visible;"/>
	</clipPath>
	<rect x="1" y="1" class="st1" width="22.5" height="23.4"/>
</g>
</svg>
