<?xml version="1.0" encoding="utf-8"?>
<!-- Generator: Adobe Illustrator 21.1.0, SVG Export Plug-In . SVG Version: 6.00 Build 0)  -->
<svg version="1.1" id="Layer_1" xmlns="http://www.w3.org/2000/svg" xmlns:xlink="http://www.w3.org/1999/xlink" x="0px" y="0px"
	 viewBox="0 0 42.6 61.1" style="enable-background:new 0 0 42.6 61.1;" xml:space="preserve">
<style type="text/css">
	.st0{fill:none;stroke:#444444;stroke-linecap:round;stroke-linejoin:round;stroke-miterlimit:10;}
	.st1{fill:none;stroke:#444444;stroke-linecap:round;stroke-miterlimit:10;}
</style>
<g>
	<rect x="0.9" y="45.1" class="st0" width="6.6" height="11.9"/>
	<path class="st0" d="M8.1,45.9c7.8,0.1,9.6,3.8,11.6,3.8c2,0,8.2-0.8,7.5,3.1c2.8,0.8,6.6-4.5,8.4-4.5c1.8,0,2.9,1,2.9,3
		c0,2.8-11.9,9.1-16.8,9.1c-4.7,0-11.7-4.8-14-4.8"/>
	<line class="st0" x1="15.6" y1="52.9" x2="27.8" y2="52.9"/>
	<path class="st1" d="M39.4,22.2l2.5-5c0.5-1.1,0.1-2.4-1-3l-4.9-2.6l-1-5.5c-0.2-1.2-1.3-2-2.5-1.8L26.9,5l-4-3.9
		c-0.9-0.8-2.3-0.8-3.2,0l-4,3.9l-5.5-0.8C9,4.1,7.8,4.9,7.6,6.1l-1,5.5l-4.9,2.6c-1.1,0.6-1.5,1.9-1,3l2.5,5l-2.5,5
		c-0.5,1.1-0.1,2.4,1,3l4.9,2.6l1,5.5c0.2,1.2,1.3,2,2.5,1.8l5.5-0.8l4,3.9c0.9,0.8,2.3,0.8,3.2,0l4-3.9l5.5,0.8
		c1.2,0.1,2.3-0.6,2.5-1.8l1-5.5l4.9-2.6c1.1-0.6,1.5-1.9,1-3L39.4,22.2z"/>
	<line class="st1" x1="28" y1="13.3" x2="15.1" y2="30.1"/>
	<circle class="st1" cx="17.1" cy="15.5" r="3.2"/>
	<circle class="st1" cx="25.5" cy="28.4" r="3.2"/>
</g>
</svg>
