<?xml version="1.0" encoding="UTF-8" standalone="no"?>
<svg width="31px" height="31px" viewBox="0 0 31 31" version="1.1" xmlns="http://www.w3.org/2000/svg" xmlns:xlink="http://www.w3.org/1999/xlink">
    <!-- Generator: Sketch 39.1 (31720) - http://www.bohemiancoding.com/sketch -->
    <title>instagram</title>
    <desc>Created with Sketch.</desc>
    <defs></defs>
    <g id="Assets" stroke="none" stroke-width="1" fill="none" fill-rule="evenodd">
        <g id="instagram" transform="translate(1.000000, 1.000000)">
            <ellipse id="Oval-48-Copy-6" stroke="#B9E1EA" transform="translate(14.634146, 14.634146) rotate(-270.000000) translate(-14.634146, -14.634146) " cx="14.6341463" cy="14.6341463" rx="14.6341463" ry="14.6341463"></ellipse>
            <path d="M19.6067073,7 L9.56402439,7 C8.69969512,7 8,7.69969512 8,8.56402439 L8,18.6067073 C8,19.4710366 8.69969512,20.1707317 9.56402439,20.1707317 L19.6067073,20.1707317 C20.4710366,20.1707317 21.1707317,19.4710366 21.1707317,18.6067073 L21.1707317,8.56402439 C21.1707317,7.69969512 20.4710366,7 19.6067073,7 L19.6067073,7 Z M17.8780488,8.64634146 L19.1128049,8.64634146 C19.3597561,8.64634146 19.5243902,8.81097561 19.5243902,9.05792683 L19.5243902,10.2926829 C19.5243902,10.5396341 19.3597561,10.7042683 19.1128049,10.7042683 L17.8780488,10.7042683 C17.6310976,10.7042683 17.4664634,10.5396341 17.4664634,10.2926829 L17.4664634,9.05792683 C17.4664634,8.81097561 17.6310976,8.64634146 17.8780488,8.64634146 L17.8780488,8.64634146 Z M14.5853659,11.0746951 C15.9847561,11.0746951 17.1371951,12.1859756 17.1371951,13.5853659 C17.1371951,14.9847561 15.9847561,16.0960366 14.5853659,16.0960366 C13.1859756,16.0960366 12.0335366,14.9847561 12.0335366,13.5853659 C12.0746951,12.1859756 13.1859756,11.0746951 14.5853659,11.0746951 L14.5853659,11.0746951 Z M19.5243902,18.9359756 L9.64634146,18.9359756 C9.39939024,18.9359756 9.2347561,18.7713415 9.2347561,18.5243902 L9.2347561,12.3506098 L10.8810976,12.3506098 C10.6753049,12.679878 10.5929878,13.214939 10.5929878,13.5853659 C10.5929878,15.8079268 12.4039634,17.5777439 14.5853659,17.5777439 C16.8079268,17.5777439 18.5777439,15.7667683 18.5777439,13.5853659 C18.5777439,13.214939 18.5365854,12.6387195 18.2484756,12.3506098 L19.8948171,12.3506098 L19.8948171,18.5243902 C19.9359756,18.7713415 19.7713415,18.9359756 19.5243902,18.9359756 L19.5243902,18.9359756 Z" id="Shape-Copy" fill="#B9E1EA"></path>
        </g>
    </g>
</svg>