<?xml version="1.0" encoding="UTF-8" standalone="no"?>
<svg width="22px" height="9px" viewBox="0 0 22 9" version="1.1" xmlns="http://www.w3.org/2000/svg" xmlns:xlink="http://www.w3.org/1999/xlink">
    <!-- Generator: sketchtool 39 (31667) - http://www.bohemiancoding.com/sketch -->
    <title>725304E4-5B56-4CF8-9867-62C5AE44E340</title>
    <desc>Created with sketchtool.</desc>
    <defs></defs>
    <g id="3656-–-Send-Invite/Sign-Up-Link-Generation-(without-market)" stroke="none" stroke-width="1" fill="none" fill-rule="evenodd">
        <g id="01-1-SignUpLink-SM-00" transform="translate(-208.000000, -145.000000)" fill="#FFFFFF">
            <g id="link" transform="translate(208.000000, 145.000000)">
                <g id="Layer_1">
                    <g id="Group">
                        <path d="M8.325,8.775 L4.6125,8.775 C2.3625,8.775 0.5625,6.975 0.5625,4.725 C0.5625,2.3625 2.3625,0.5625 4.6125,0.5625 L9.3375,0.5625 C11.5875,0.5625 13.3875,2.3625 13.3875,4.6125 C13.3875,5.2875 13.275,5.7375 13.05,6.3 C12.9375,6.6375 12.6,6.75 12.2625,6.6375 C11.925,6.525 11.8125,6.1875 11.925,5.85 C12.0375,5.5125 12.15,5.0625 12.15,4.725 C12.15,3.0375 10.8,1.6875 9.225,1.6875 L4.5,1.6875 C2.8125,1.6875 1.575,3.0375 1.575,4.6125 C1.575,6.3 2.925,7.65 4.5,7.65 L8.2125,7.65 C8.55,7.65 8.775,7.875 8.775,8.2125 C8.775,8.55 8.6625,8.775 8.325,8.775 L8.325,8.775 Z" id="Shape"></path>
                        <path d="M17.6625,8.775 L12.9375,8.775 C10.6875,8.775 8.8875,6.975 8.8875,4.725 C8.8875,4.05 9,3.6 9.225,3.0375 C9.3375,2.7 9.675,2.5875 10.0125,2.7 C10.35,2.8125 10.4625,3.15 10.35,3.4875 C10.2375,3.825 10.125,4.275 10.125,4.6125 C10.125,6.3 11.475,7.65 13.05,7.65 L17.775,7.65 C19.4625,7.65 20.7,6.3 20.7,4.725 C20.7,3.0375 19.35,1.6875 17.775,1.6875 L14.0625,1.6875 C13.725,1.6875 13.5,1.4625 13.5,1.125 C13.5,0.7875 13.725,0.5625 14.0625,0.5625 L17.775,0.5625 C20.025,0.5625 21.825,2.3625 21.825,4.6125 C21.7125,6.975 19.9125,8.775 17.6625,8.775 L17.6625,8.775 Z" id="Shape"></path>
                    </g>
                </g>
            </g>
        </g>
    </g>
</svg>