<?xml version="1.0" encoding="UTF-8" standalone="no"?>
<svg width="533px" height="120px" viewBox="0 0 533 120" version="1.1" xmlns="http://www.w3.org/2000/svg" xmlns:xlink="http://www.w3.org/1999/xlink">
    <!-- Generator: Sketch 3.8.3 (29802) - http://www.bohemiancoding.com/sketch -->
    <title>Group 2</title>
    <desc>Created with Sketch.</desc>
    <defs></defs>
    <g id="Page-1" stroke="none" stroke-width="1" fill="none" fill-rule="evenodd">
        <g id="Logos-exports" transform="translate(-496.000000, -54.000000)" fill="#FFFFFF">
            <g id="Group" transform="translate(489.000000, 54.000000)">
                <g id="Group-2" transform="translate(7.000000, 0.000000)">
                    <path d="M526.9,99.9 L526,99.9 L526,97.7 L527.1,97.7 C527.9,97.7 528.5,98 528.5,98.8 C528.4,99.3 528.1,99.9 526.9,99.9 M529,98.8 C529,98.2 528.7,97 526.8,97 L525.2,97 L525.2,103.1 L526,103.1 L526,100.4 L527.3,100.4 L528.4,103.1 L529.1,103.1 L528.1,100.4 C528.6,100.3 529,99.6 529,98.8 M526.9,104.6 C524.4,104.6 522.3,102.5 522.3,100 C522.3,97.5 524.4,95.5 526.9,95.5 C529.5,95.5 531.4,97.6 531.4,100 C531.4,102.4 529.5,104.6 526.9,104.6 M526.9,94.9 C524.1,94.9 521.8,97.3 521.8,100.1 C521.8,102.8 524.1,105.3 526.9,105.3 C529.9,105.3 532.1,102.9 532.1,100.1 C532.1,97.1 530,94.9 526.9,94.9" id="Shape"></path>
                    <polygon id="Shape" points="202.4 103.9 151.6 39.2 151.6 102.8 145.9 102.8 145.9 25.7 147.2 25.4 197.6 89.3 197.6 26.5 203.4 26.5 203.4 103.7"></polygon>
                    <g id="Group" transform="translate(220.000000, 25.000000)">
                        <path d="M29.2,78.8 C11.5,78.8 0.9,68.5 0.9,50.1 L0.9,1.5 L6.7,1.5 L6.7,50 C6.7,65.6 15.5,73.5 29.2,73.5 C42.8,73.5 51.9,65.4 51.9,50 L51.9,1.5 L57.8,1.5 L57.8,50.1 C57.8,68 46.4,78.8 29.2,78.8" id="Shape"></path>
                        <path d="M113.3,79 C105.2,79 97.9,76.3 91.2,71.9 L94,66.8 C100.1,71 106.9,73.7 113.8,73.7 C123.9,73.7 130.7,67.2 130.7,58.8 C130.7,50 124.8,46.1 114,41.2 C102.2,36 95.1,30.6 95.1,20.1 C95.1,9.1 104.4,0.2 118,0.2 C124.7,0.2 130.7,2.4 135.2,5.4 L132.4,10.3 C128.6,7.6 123.2,5.5 117.5,5.5 C107.3,5.5 101,11.7 101,19.6 C101,27.8 107.4,31.8 116.7,36 C129.8,41.9 136.8,47 136.8,57.9 C136.6,70.6 126.2,79 113.3,79" id="Shape"></path>
                    </g>
                    <polygon id="Shape" points="413.9 102.8 377 65.1 377 102.8 371.2 102.8 371.2 26.5 377 26.5 377 62 412.7 26.5 420.2 26.5 382.6 63.5 421.6 102.8"></polygon>
                    <rect id="Rectangle-path" x="433.3" y="26.5" width="5.8" height="76.2"></rect>
                    <polygon id="Shape" points="514.1 103.9 463.3 39.2 463.3 102.8 457.6 102.8 457.6 25.7 458.9 25.4 509.3 89.3 509.3 26.5 515.1 26.5 515.1 103.7"></polygon>
                    <path d="M93,31.3 C93,31.3 103.8,30.7 112,39.8 C114.7,42.8 117.3,46.7 118.8,52 C114.9,22.9 89.9,0.4 59.7,0.4 L59.7,0.4 L59.7,0.4 C29.5,0.4 4.5,22.9 0.6,52 C2.1,46.6 4.7,42.8 7.4,39.8 C15.6,30.8 26.4,31.3 26.4,31.3 C53.3,32.7 53.4,59.7 53.4,59.7 L53.4,119.3 C54.7,119.4 55.9,119.5 57.2,119.6 L57.2,56 C57.2,47.3 54.5,38.9 48.4,32.9 C42.8,27.3 35.6,24.3 28.1,24.1 C31.3,18.5 35.8,13.8 41.1,10.5 C46.7,7 53.1,5.2 59.7,5.2 L59.7,5.2 L59.7,5.2 L59.7,5.2 L59.7,5.2 C66.2,5.2 72.7,7 78.3,10.5 C83.6,13.8 88.1,18.5 91.3,24.1 C83.8,24.2 76.6,27.3 71,32.9 C65,38.9 62.2,47.3 62.2,56 L62.2,119.6 C63.5,119.5 64.8,119.4 66,119.3 L66,59.7 C66,59.7 66.1,32.7 93,31.3 M95.5,63.5 C95.5,63.5 91.5,63.6 88,65.7 C83.9,68.2 79.7,73.4 79.7,84 L79.7,116.2 C91.7,111.9 101.9,103.9 109,93.5 C113.7,85.9 113.9,79.9 112.7,75.5 C111,69.9 105.9,62.9 95.5,63.5 M110.7,49.5 C107.1,46.7 101.7,44.5 93.7,44.5 C93.7,44.5 71,44.6 71,64.5 L71,118.6 C72.3,118.3 73.5,118.1 74.8,117.7 L74.8,69.8 C74.8,69.8 74.7,66 76.8,61.7 C79.1,56.8 84.1,51.5 94.8,51.2 C94.8,51.2 103.8,50.4 110.5,57.7 C113.7,61.3 116.5,65.6 116.6,77.7 C122.3,60.9 113.6,52 110.7,49.5 M25.8,44.5 C17.8,44.5 12.4,46.6 8.7,49.5 C5.8,52 -2.9,60.9 2.8,77.7 C2.9,65.6 5.7,61.3 8.9,57.7 C15.6,50.4 24.6,51.2 24.6,51.2 C35.3,51.5 40.3,56.8 42.6,61.7 C44.8,66 44.6,69.8 44.6,69.8 L44.6,117.7 C45.9,118 47.1,118.3 48.4,118.6 L48.4,64.5 C48.4,44.6 25.8,44.5 25.8,44.5 M31.4,65.7 C28,63.6 24,63.5 24,63.5 C13.6,62.9 8.4,69.9 6.8,75.6 C5.6,80 5.8,86 10.5,93.6 C17.5,103.9 27.8,112 39.8,116.3 L39.8,84 C39.7,73.3 35.5,68.2 31.4,65.7" id="Shape"></path>
                </g>
            </g>
        </g>
    </g>
</svg>