<?xml version="1.0" encoding="UTF-8" standalone="no"?>
<svg width="50px" height="50px" viewBox="0 0 50 50" version="1.1" xmlns="http://www.w3.org/2000/svg" xmlns:xlink="http://www.w3.org/1999/xlink">
    <!-- Generator: Sketch 3.6.1 (26313) - http://www.bohemiancoding.com/sketch -->
    <title>nuskin-fountain-mark</title>
    <desc>Created with Sketch.</desc>
    <defs></defs>
    <g id="Page-1" stroke="none" stroke-width="1" fill="none" fill-rule="evenodd">
        <g id="STYLE-GUIDE-v4.1" transform="translate(-695.000000, -24.000000)" fill="#FFFFFF">
            <path d="M741.477273,44.5617978 C739.943182,43.3820225 737.670455,42.4831461 734.318182,42.4831461 C734.318182,42.4831461 724.772727,42.5393258 724.772727,50.7977528 L724.772727,73.3258427 C725.284091,73.2134831 725.852273,73.1011236 726.363636,72.988764 L726.363636,53.0449438 C726.363636,53.0449438 726.534091,45.5168539 734.886364,45.2921348 C734.886364,45.2921348 737.727273,45.1235955 740.170455,46.9775281 C740.397727,47.1460674 740.625,47.3146067 740.852273,47.5393258 C741.022727,47.7078652 741.534091,48.1011236 742.045455,48.8314607 C742.272727,49.1123596 742.443182,49.4494382 742.613636,49.7865169 C743.352273,51.1910112 744.034091,53.3258427 743.920455,56.3033708 C744.204545,55.3483146 744.488636,54.3932584 744.659091,53.3820225 C745.284091,48.4382022 742.727273,45.5730337 741.477273,44.5617978 M734.034091,36.9775281 C734.034091,36.9775281 738.579545,36.752809 742.045455,40.5168539 C743.181818,41.752809 744.261364,43.3820225 744.886364,45.6292135 C743.238636,33.494382 732.727273,24.1123596 720,24.1123596 C707.159091,24.1123596 696.534091,33.6629213 695.056818,46.0224719 C695.681818,43.5505618 696.818182,41.8651685 698.011364,40.5168539 C701.420455,36.752809 706.022727,36.9775281 706.022727,36.9775281 C717.329545,37.5393258 717.386364,48.7752809 717.386364,48.7752809 L717.386364,73.6067416 C717.897727,73.6629213 718.465909,73.7191011 718.977273,73.7191011 L718.977273,47.2022472 C718.977273,43.6629213 717.954545,40.3483146 715.568182,37.8202247 C713.181818,35.3483146 710.113636,34 706.818182,33.9438202 C708.181818,31.6404494 710.056818,29.6741573 712.272727,28.2696629 C714.602273,26.8089888 717.329545,26.0786517 720.056818,26.0786517 C722.784091,26.0786517 725.511364,26.8651685 727.840909,28.2696629 C730.056818,29.6179775 731.931818,31.5842697 733.295455,33.9438202 C730.113636,34 727.102273,35.2921348 724.772727,37.5955056 C722.215909,40.1235955 721.079545,43.6067416 721.079545,47.2022472 L721.079545,73.6629213 C721.647727,73.6629213 722.159091,73.6067416 722.670455,73.5505618 L722.670455,48.7191011 C722.670455,48.8314607 722.727273,37.5393258 734.034091,36.9775281 M735.113636,50.3483146 C735.113636,50.3483146 733.579545,50.3483146 731.988636,51.247191 C730.284091,52.258427 728.522727,54.4494382 728.522727,58.8876404 L728.522727,72.3146067 C733.579545,70.5168539 737.840909,67.2022472 740.795455,62.8764045 C742.784091,59.7303371 742.840909,57.2022472 742.386364,55.4044944 C741.647727,53.0449438 739.772727,50.2921348 735.113636,50.3483146 M705.738636,42.4831461 C702.386364,42.4831461 700.113636,43.3820225 698.579545,44.5617978 C697.272727,45.6853933 694.375,48.8876404 695.568182,54.5617978 C695.738636,55.2359551 695.909091,55.8539326 696.079545,56.4719101 C695.909091,53.3820225 696.590909,51.1910112 697.329545,49.7303371 C697.5,49.3932584 697.670455,49.0561798 697.897727,48.7752809 C698.409091,48.0449438 698.920455,47.5955056 699.090909,47.4831461 C699.318182,47.258427 699.545455,47.0898876 699.772727,46.9213483 C702.215909,45.0674157 705.056818,45.2359551 705.056818,45.2359551 C713.465909,45.4606742 713.579545,52.988764 713.579545,52.988764 L713.579545,72.9325843 C714.090909,73.0449438 714.659091,73.1573034 715.170455,73.2696629 L715.170455,50.741573 C715.227273,42.5393258 705.738636,42.4831461 705.738636,42.4831461 M708.068182,51.3033708 C706.477273,50.3483146 704.943182,50.4044944 704.943182,50.4044944 C700.284091,50.2921348 698.409091,53.1011236 697.727273,55.4606742 C697.159091,57.4269663 697.329545,60.2921348 699.943182,63.9438202 C702.840909,67.7640449 706.875,70.741573 711.534091,72.4269663 L711.534091,59 C711.534091,54.505618 709.829545,52.3146067 708.068182,51.3033708" id="nuskin-fountain-mark"></path>
        </g>
    </g>
</svg>