<?xml version="1.0" encoding="UTF-8" standalone="no"?>
<svg width="23px" height="24px" viewBox="0 0 23 24" version="1.1" xmlns="http://www.w3.org/2000/svg" xmlns:xlink="http://www.w3.org/1999/xlink">
    <!-- Generator: sketchtool 39.1 (31720) - http://www.bohemiancoding.com/sketch -->
    <title>A734B3AF-16FE-47B5-B6F8-4FA56A14D715</title>
    <desc>Created with sketchtool.</desc>
    <defs>
        <rect id="path-1" x="0" y="0" width="32" height="32"></rect>
    </defs>
    <g id="Exports_Sayanee" stroke="none" stroke-width="1" fill="none" fill-rule="evenodd">
        <g id="Account_nav_Distributor_SM" transform="translate(-284.000000, -293.000000)">
            <g id="Group-11" transform="translate(241.000000, 262.000000)">
                <g id="my_store" transform="translate(39.000000, 25.000000)">
                    <mask id="mask-2" fill="white">
                        <use xlink:href="#path-1"></use>
                    </mask>
                    <g id="Mask"></g>
                    <g id="Page-1-Copy" mask="url(#mask-2)" stroke="#727272">
                        <g transform="translate(5.000000, 6.000000)">
                            <path d="M0.177246094,0.853226809 L8.24535818,0.853226809 L8.24535818,1.21954005 C8.24535818,1.21954005 7.57477068,4.4050785 7.48101072,6.09593715 C7.32202645,8.96691298 6.58927202,21.6549485 6.58927202,21.6549485 C6.58927202,21.6549485 4.29622963,22.5851068 1.66347727,21.6549485 C1.66347727,21.6126686 0.771738563,6.22277691 0.771738563,6.22277691 C0.771738563,6.22277691 0.686811068,3.22090245 0.177246094,1.31830595 L0.177246094,0.853226809 L0.177246094,0.853226809 Z" id="Stroke-1"></path>
                            <path d="M1.70802318,16.0829354 C1.70802318,16.0829354 3.227385,17.6509449 6.79711914,16.4103888" id="Stroke-3"></path>
                            <path d="M11.1673914,15.8582547 L11.1673914,20.5014207 C11.1673914,20.5014207 11.1572544,22.5099539 13.7467712,22.6287924 C16.5145032,22.7557705 14.6152844,22.7206073 19.165823,22.6287924 C19.6605747,22.5509776 21.223964,22.3432544 21.223964,20.034532 L21.223964,15.8582547 C21.223964,15.8582547 16.8470627,17.1811061 11.1673914,15.8582547 L11.1673914,15.8582547 Z" id="Stroke-5"></path>
                            <path d="M11.1673914,15.8582547 L11.1673914,14.0079558 C11.1673914,14.0079558 11.2628756,12.6418016 13.1388773,12.3823104 C15.014552,12.1228193 16.4562971,12.1228193 16.4562971,12.1228193 C16.4562971,12.1228193 21.249797,11.9154217 21.249797,13.8002326 L21.249797,15.8582547" id="Stroke-7"></path>
                        </g>
                    </g>
                </g>
            </g>
        </g>
    </g>
</svg>
