<?xml version="1.0" encoding="UTF-8" standalone="no"?>
<svg width="252px" height="59px" viewBox="0 0 252 59" version="1.1" xmlns="http://www.w3.org/2000/svg" xmlns:xlink="http://www.w3.org/1999/xlink">
    <!-- Generator: Sketch 3.6.1 (26313) - http://www.bohemiancoding.com/sketch -->
    <title>nuskin-logo-white-full</title>
    <desc>Created with Sketch.</desc>
    <defs>
        <path id="path-1" d="M0,59 L251.946,59 L251.946,0.652 L0,0.652 L0,59 Z"></path>
    </defs>
    <g id="Page-1" stroke="none" stroke-width="1" fill="none" fill-rule="evenodd">
        <g id="nuskin-logo-white-full" transform="translate(0.000000, -1.000000)">
            <path d="M98.8098,51.6913 L73.9558,20.0123 L73.9558,51.1313 L71.1548,51.1313 L71.1548,13.3913 L71.8168,13.2383 L96.4678,44.5613 L96.4678,13.7993 L99.3188,13.7993 L99.3188,51.5893 L98.8098,51.6913 Z" id="Fill-1" fill="#FFFFFF"></path>
            <g id="Group-18" transform="translate(0.000000, 0.347800)">
                <path d="M121.7259,51.2923 C113.0679,51.2923 107.8729,46.2503 107.8729,37.2363 L107.8729,13.4513 L110.7249,13.4513 L110.7249,37.1843 C110.7249,44.8243 115.0539,48.6953 121.7259,48.6953 C128.3979,48.6953 132.8289,44.7223 132.8289,37.1843 L132.8289,13.4513 L135.7319,13.4513 L135.7319,37.2363 C135.7319,45.9953 130.1799,51.2923 121.7259,51.2923 L121.7259,51.2923 Z" id="Fill-2" fill="#FFFFFF"></path>
                <path d="M162.925,51.3943 C158.952,51.3943 155.387,50.0703 152.127,47.9313 L153.503,45.4353 C156.508,47.4723 159.818,48.7973 163.179,48.7973 C168.119,48.7973 171.43,45.6393 171.43,41.5133 C171.43,37.1843 168.528,35.3003 163.231,32.9063 C157.475,30.3603 153.961,27.7113 153.961,22.5683 C153.961,17.1693 158.494,12.8403 165.165,12.8403 C168.425,12.8403 171.379,13.9093 173.569,15.3863 L172.194,17.7803 C170.309,16.4553 167.712,15.4373 164.911,15.4373 C159.92,15.4373 156.813,18.4933 156.813,22.3643 C156.813,26.3873 159.971,28.3223 164.504,30.4113 C170.92,33.3143 174.333,35.8093 174.333,41.1573 C174.333,47.2693 169.24,51.3943 162.925,51.3943" id="Fill-4" fill="#FFFFFF"></path>
                <path d="M202.3943,50.7832 L184.3133,32.3472 L184.3133,50.7832 L181.4623,50.7832 L181.4623,13.4512 L184.3133,13.4512 L184.3133,30.8182 L201.7833,13.4512 L205.4493,13.4512 L187.0643,31.5822 L206.1633,50.7832 L202.3943,50.7832 Z" id="Fill-6" fill="#FFFFFF"></path>
                <mask id="mask-2" fill="white">
                    <use xlink:href="#path-1"></use>
                </mask>
                <g id="Clip-9"></g>
                <path d="M211.864,50.783 L214.717,50.783 L214.717,13.451 L211.864,13.451 L211.864,50.783 Z" id="Fill-8" fill="#FFFFFF" mask="url(#mask-2)"></path>
                <path d="M251.4363,51.3435 L226.5823,19.6645 L226.5823,50.7835 L223.7803,50.7835 L223.7803,13.0435 L224.4433,12.8905 L249.0933,44.2135 L249.0933,13.4515 L251.9463,13.4515 L251.9463,51.2415 L251.4363,51.3435 Z" id="Fill-10" fill="#FFFFFF" mask="url(#mask-2)"></path>
                <path d="M98.8098,51.3435 L73.9558,19.6645 L73.9558,50.7835 L71.1548,50.7835 L71.1548,13.0435 L71.8168,12.8905 L96.4678,44.2135 L96.4678,13.4515 L99.3188,13.4515 L99.3188,51.2415 L98.8098,51.3435 Z" id="Fill-11" fill="#FFFFFF" mask="url(#mask-2)"></path>
                <path d="M121.7259,51.2923 C113.0679,51.2923 107.8729,46.2503 107.8729,37.2363 L107.8729,13.4513 L110.7249,13.4513 L110.7249,37.1843 C110.7249,44.8243 115.0539,48.6953 121.7259,48.6953 C128.3979,48.6953 132.8289,44.7223 132.8289,37.1843 L132.8289,13.4513 L135.7319,13.4513 L135.7319,37.2363 C135.7319,45.9953 130.1799,51.2923 121.7259,51.2923" id="Fill-12" fill="#FFFFFF" mask="url(#mask-2)"></path>
                <path d="M162.925,51.3943 C158.952,51.3943 155.387,50.0703 152.127,47.9313 L153.503,45.4353 C156.508,47.4723 159.818,48.7973 163.179,48.7973 C168.119,48.7973 171.43,45.6393 171.43,41.5133 C171.43,37.1843 168.528,35.3003 163.231,32.9063 C157.475,30.3603 153.961,27.7113 153.961,22.5683 C153.961,17.1693 158.494,12.8403 165.165,12.8403 C168.425,12.8403 171.379,13.9093 173.569,15.3863 L172.194,17.7803 C170.309,16.4553 167.712,15.4373 164.911,15.4373 C159.92,15.4373 156.813,18.4933 156.813,22.3643 C156.813,26.3873 159.971,28.3223 164.504,30.4113 C170.92,33.3143 174.333,35.8093 174.333,41.1573 C174.333,47.2693 169.24,51.3943 162.925,51.3943" id="Fill-13" fill="#FFFFFF" mask="url(#mask-2)"></path>
                <path d="M202.3943,50.7832 L184.3133,32.3472 L184.3133,50.7832 L181.4623,50.7832 L181.4623,13.4512 L184.3133,13.4512 L184.3133,30.8182 L201.7833,13.4512 L205.4493,13.4512 L187.0643,31.5822 L206.1633,50.7832 L202.3943,50.7832 Z" id="Fill-14" fill="#FFFFFF" mask="url(#mask-2)"></path>
                <path d="M211.864,50.783 L214.717,50.783 L214.717,13.451 L211.864,13.451 L211.864,50.783 Z" id="Fill-15" fill="#FFFFFF" mask="url(#mask-2)"></path>
                <path d="M251.4363,51.3435 L226.5823,19.6645 L226.5823,50.7835 L223.7803,50.7835 L223.7803,13.0435 L224.4433,12.8905 L249.0933,44.2135 L249.0933,13.4515 L251.9463,13.4515 L251.9463,51.2415 L251.4363,51.3435 Z" id="Fill-16" fill="#FFFFFF" mask="url(#mask-2)"></path>
                <path d="M15.0964,32.624 C13.4284,31.576 11.4534,31.545 11.4534,31.545 C6.3534,31.259 3.8224,34.703 3.0114,37.452 C2.4364,39.582 2.5444,42.537 4.8254,46.251 C8.2704,51.313 13.2954,55.239 19.1574,57.345 L19.1574,41.59 C19.1574,36.38 17.0784,33.86 15.0964,32.624 M12.3394,22.255 C8.4054,22.255 5.7694,23.305 3.9904,24.694 C2.5584,25.929 -1.6696,30.296 1.0894,38.507 C1.1274,32.583 2.5224,30.501 4.0694,28.726 C7.3604,25.139 11.7714,25.551 11.7714,25.551 C17.0074,25.7 19.4454,28.296 20.5844,30.675 C21.6424,32.762 21.5764,34.647 21.5764,34.647 L21.5764,58.097 C22.1954,58.257 22.8144,58.399 23.4434,58.523 L23.4434,32.048 C23.4434,22.322 12.3394,22.255 12.3394,22.255 M53.9184,24.694 C52.1424,23.305 49.5054,22.255 45.5714,22.255 C45.5714,22.255 34.4764,22.322 34.4764,32.048 L34.4764,58.523 C35.1054,58.399 35.7224,58.257 36.3354,58.097 L36.3354,34.647 C36.3354,34.647 36.2774,32.762 37.3324,30.675 C38.4724,28.296 40.9124,25.7 46.1424,25.551 C46.1424,25.551 50.5554,25.139 53.8424,28.726 C55.3904,30.501 56.7914,32.583 56.8194,38.507 C59.5874,30.296 55.3564,25.929 53.9184,24.694 M46.4634,31.545 C46.4634,31.545 44.4864,31.576 42.8154,32.624 C40.8324,33.86 38.7634,36.38 38.7634,41.59 L38.7634,57.345 C44.6234,55.239 49.6404,51.313 53.0914,46.251 C55.3704,42.537 55.4794,39.582 54.9054,37.452 C54.0954,34.703 51.5654,31.259 46.4634,31.545 M45.2794,15.783 C45.2794,15.783 50.5844,15.514 54.5884,19.925 C55.9194,21.398 57.1794,23.289 57.9084,25.919 C55.9894,11.665 43.7634,0.666 28.9564,0.652 L28.9564,0.654 L28.9564,0.652 C14.1474,0.666 1.9174,11.665 0.0004,25.919 C0.7274,23.289 1.9904,21.398 3.3214,19.925 C7.3284,15.514 12.6284,15.783 12.6284,15.783 C25.8114,16.458 25.8664,29.691 25.8664,29.691 L25.8664,58.864 C26.4874,58.924 27.1094,58.969 27.7384,59 L27.7384,27.856 C27.7384,23.606 26.4034,19.478 23.4464,16.536 C20.7234,13.809 17.2024,12.303 13.5184,12.248 C15.0824,9.509 17.2754,7.21 19.8674,5.606 C22.6044,3.91 25.7524,3.007 28.9514,3.007 L28.9564,3.007 L28.9564,3.006 L28.9564,3.007 L28.9584,3.007 C32.1564,3.007 35.3024,3.91 38.0434,5.606 C40.6344,7.21 42.8324,9.509 44.3954,12.248 C40.7084,12.303 37.1804,13.809 34.4644,16.536 C31.5034,19.478 30.1664,23.606 30.1664,27.856 L30.1664,59 C30.8004,58.969 31.4194,58.924 32.0414,58.864 L32.0414,29.691 C32.0414,29.691 32.0994,16.458 45.2794,15.783" id="Fill-17" fill="#FFFFFF" mask="url(#mask-2)"></path>
            </g>
        </g>
    </g>
</svg>