<?xml version="1.0" encoding="UTF-8" standalone="no"?>
<svg width="35px" height="35px" viewBox="0 0 35 35" version="1.1" xmlns="http://www.w3.org/2000/svg" xmlns:xlink="http://www.w3.org/1999/xlink">
    <!-- Generator: sketchtool 3.8.3 (29802) - http://www.bohemiancoding.com/sketch -->
    <title>A1430557-4760-46AE-8C64-08A1BBDD36C9</title>
    <desc>Created with sketchtool.</desc>
    <defs></defs>
    <g id="HEADER-FOOTER---FINAL" stroke="none" stroke-width="1" fill="none" fill-rule="evenodd">
        <g id="Shop-Nav---Small---Main" transform="translate(-170.000000, -13.000000)" fill="#FFFFFF">
            <path d="M202.605473,27.4280861 C201.527936,26.5956965 199.931585,25.9614949 197.576967,25.9614949 C197.576967,25.9614949 190.872292,26.0011325 190.872292,31.8278596 L190.872292,47.7225368 C191.231471,47.6432616 191.630559,47.5639864 191.989738,47.4847112 L191.989738,33.4133635 C191.989738,33.4133635 192.109464,28.1019253 197.976055,27.9433749 C197.976055,27.9433749 199.971494,27.8244621 201.687571,29.1325028 C201.847206,29.2514156 202.006842,29.3703284 202.166477,29.5288788 C202.286203,29.6477916 202.645382,29.9252548 203.004561,30.4405436 C203.164196,30.6387316 203.283922,30.8765572 203.403649,31.1143828 C203.922463,32.1053228 204.401368,33.6115515 204.321551,35.7123443 C204.521095,35.0385051 204.720639,34.3646659 204.840365,33.6511891 C205.279361,30.1630804 203.483466,28.1415629 202.605473,27.4280861 M197.377423,22.0770102 C197.377423,22.0770102 200.570125,21.9184598 203.004561,24.5741789 C203.802737,25.4462061 204.561003,26.5956965 205,28.1812005 C203.842645,19.619479 196.459521,13 187.519954,13 C178.50057,13 171.037628,19.7383918 170,28.4586636 C170.438997,26.7146093 171.237172,25.5254813 172.075257,24.5741789 C174.469783,21.9184598 177.702395,22.0770102 177.702395,22.0770102 C185.644242,22.4733862 185.684151,30.400906 185.684151,30.400906 L185.684151,47.9207248 C186.04333,47.9603624 186.442417,48 186.801596,48 L186.801596,29.2910532 C186.801596,26.7938845 186.083238,24.4552661 184.40707,22.6715742 C182.730901,20.9275198 180.575827,19.9762174 178.261117,19.9365798 C179.218928,18.3114383 180.535918,16.9241223 182.09236,15.9331823 C183.72862,14.9026048 185.644242,14.387316 187.559863,14.387316 C189.475485,14.387316 191.391106,14.9422424 193.027366,15.9331823 C194.583808,16.8844847 195.900798,18.2718007 196.858609,19.9365798 C194.623717,19.9762174 192.508552,20.8878822 190.872292,22.5130238 C189.076397,24.2967157 188.278221,26.7542469 188.278221,29.2910532 L188.278221,47.9603624 C188.677309,47.9603624 189.036488,47.9207248 189.395667,47.8810872 L189.395667,30.3612684 C189.395667,30.4405436 189.435576,22.4733862 197.377423,22.0770102 M198.13569,31.5107588 C198.13569,31.5107588 197.058153,31.5107588 195.940707,32.1449604 C194.743444,32.8584371 193.506271,34.4043035 193.506271,37.5356738 L193.506271,47.00906 C197.058153,45.7406569 200.051311,43.4020385 202.126568,40.3499434 C203.523375,38.1302378 203.563284,36.3465459 203.244014,35.0781427 C202.7252,33.4133635 201.40821,31.4711212 198.13569,31.5107588 M177.502851,25.9614949 C175.148233,25.9614949 173.551881,26.5956965 172.474344,27.4280861 C171.556442,28.2208381 169.521095,30.4801812 170.359179,34.4835787 C170.478905,34.9592299 170.598632,35.3952435 170.718358,35.8312571 C170.598632,33.6511891 171.077537,32.1053228 171.596351,31.0747452 C171.716078,30.8369196 171.835804,30.599094 171.995439,30.400906 C172.354618,29.8856172 172.713797,29.5685164 172.833523,29.4892412 C172.993158,29.3306908 173.152794,29.211778 173.312429,29.0928652 C175.028506,27.7848245 177.023945,27.9037373 177.023945,27.9037373 C182.930445,28.0622877 183.010262,33.3737259 183.010262,33.3737259 L183.010262,47.4450736 C183.369441,47.5243488 183.768529,47.603624 184.127708,47.6828992 L184.127708,31.788222 C184.167617,26.0011325 177.502851,25.9614949 177.502851,25.9614949 M179.139111,32.184598 C178.021665,31.5107588 176.944128,31.5503964 176.944128,31.5503964 C173.671608,31.4711212 172.354618,33.4530011 171.875713,35.1177803 C171.476625,36.5050963 171.596351,38.5266138 173.432155,41.1030578 C175.467503,43.7984145 178.301026,45.8992072 181.573546,47.0883352 L181.573546,37.614949 C181.573546,34.4439411 180.376283,32.8980747 179.139111,32.184598" id="nuskin-fountain-mark"></path>
        </g>
    </g>
</svg>