<?xml version="1.0" encoding="UTF-8" standalone="no"?>
<svg width="15px" height="20px" viewBox="0 0 15 20" version="1.1" xmlns="http://www.w3.org/2000/svg" xmlns:xlink="http://www.w3.org/1999/xlink">
    <!-- Generator: sketchtool 39 (31667) - http://www.bohemiancoding.com/sketch -->
    <title>300017EE-6F55-4AD0-A067-B086BEB36DE2</title>
    <desc>Created with sketchtool.</desc>
    <defs></defs>
    <g id="3656-–-Send-Invite/Sign-Up-Link-Generation-(without-market)" stroke="none" stroke-width="1" fill="none" fill-rule="evenodd">
        <g id="01-1-SignUpLink-SM-00" transform="translate(-148.000000, -139.000000)" stroke="#FFFFFF">
            <g id="Page-1" transform="translate(148.000000, 139.000000)">
                <path d="M10.8392,2.2311 L13.6752,2.2311 C13.9602,2.2311 14.1912,2.4621 14.1912,2.7481 L14.1912,18.9581 C14.1912,19.2431 13.9602,19.4741 13.6752,19.4741 L1.0162,19.4741 C0.7312,19.4741 0.5002,19.2431 0.5002,18.9581 L0.5002,2.7481 C0.5002,2.4621 0.7312,2.2311 1.0162,2.2311 L3.8522,2.2311" id="Stroke-1"></path>
                <path d="M10.0167,3.9622 L4.6747,3.9622 C4.4947,3.9622 4.3367,3.8442 4.2847,3.6722 L3.4897,1.0242 C3.4117,0.7632 3.6077,0.5002 3.8807,0.5002 L10.8117,0.5002 C11.0837,0.5002 11.2797,0.7632 11.2017,1.0242 L10.4067,3.6722 C10.3547,3.8442 10.1967,3.9622 10.0167,3.9622 L10.0167,3.9622 Z" id="Stroke-3"></path>
                <path d="M5.4151,15.2675 L3.4051,16.4335 C3.2251,16.5375 3.0151,16.3555 3.0921,16.1625 L3.9581,14.0065 C3.9671,13.9835 3.9801,13.9625 3.9961,13.9445 L10.0871,6.9085 C10.1661,6.8175 10.3041,6.8075 10.3961,6.8865 L11.5401,7.8765 C11.6311,7.9555 11.6411,8.0935 11.5621,8.1855 L5.4711,15.2215 C5.4551,15.2395 5.4361,15.2555 5.4151,15.2675 L5.4151,15.2675 Z" id="Stroke-5" stroke-linecap="round"></path>
            </g>
        </g>
    </g>
</svg>