<svg width="14" height="13" viewBox="0 0 14 13" xmlns="http://www.w3.org/2000/svg"><title>65D2A6D5-A509-4C86-A0E6-9801D43C06B4</title><path d="M0 9.275C0 8.343.32 7.408 1.032 6.7L7.624.153a.333.333 0 0 1 .458-.007c.12.12.12.34-.002.458L1.483 7.156C.9 7.734.64 8.488.64 9.275c0 1.506 1.294 2.645 2.805 2.645.706-.002 1.411-.29 1.964-.842L12.61 3.89c.338-.338.536-.765.536-1.177 0-.5-.158-.994-.526-1.363a1.78 1.78 0 0 0-2.535 0C7.594 3.843 5.069 6.372 2.94 8.51c-.326.268-.287.882-.055 1.152.211.328.854.36 1.122.005l6.503-6.467a.333.333 0 0 1 .457-.007c.121.119.12.339-.001.457l-6.508 6.478c-.654.595-1.713.383-2.023-.005-.545-.565-.48-1.45.025-2.044 2.495-2.5 5.036-5.039 7.173-7.179.95-.95 2.492-.95 3.441 0 .507.508.712 1.178.712 1.814 0 .609-.278 1.19-.722 1.633l-7.198 7.183c-.667.666-1.538 1.031-2.42 1.032C1.61 12.561 0 11.15 0 9.275z" fill="#7E7F7F" fill-rule="evenodd"/></svg>