<?xml version="1.0" encoding="UTF-8" standalone="no"?>
<svg width="31px" height="22px" viewBox="0 0 31 22" version="1.1" xmlns="http://www.w3.org/2000/svg" xmlns:xlink="http://www.w3.org/1999/xlink">
    <!-- Generator: sketchtool 39.1 (31720) - http://www.bohemiancoding.com/sketch -->
    <title>178A9533-AE73-4B3D-A839-481B70F9CE62</title>
    <desc>Created with sketchtool.</desc>
    <defs>
        <rect id="path-1" x="0" y="0" width="32" height="32"></rect>
    </defs>
    <g id="Exports_Sayanee" stroke="none" stroke-width="1" fill="none" fill-rule="evenodd">
        <g id="Account_nav_cust_SM" transform="translate(-280.000000, -238.000000)">
            <g id="Group-9" transform="translate(0.000000, 53.000000)">
                <g id="Group-4" transform="translate(241.000000, 153.000000)">
                    <g id="payment" transform="translate(39.000000, 25.000000)">
                        <mask id="mask-2" fill="white">
                            <use xlink:href="#path-1"></use>
                        </mask>
                        <g id="Mask"></g>
                        <g id="Group-2" mask="url(#mask-2)" stroke="#FFFFFF">
                            <g transform="translate(1.000000, 8.000000)">
                                <path d="M27.0187409,20.417081 L7.25533474,20.417081 C6.0686195,20.417081 5.1061857,19.8096566 5.1061857,19.0612231 L5.1061857,5.50264462 C5.1061857,4.75421108 6.0686195,4.14678677 7.25533474,4.14678677 L27.0187409,4.14678677 C28.2054561,4.14678677 29.1670306,4.75421108 29.1670306,5.50264462 L29.1670306,19.0612231 C29.1670306,19.8096566 28.2054561,20.417081 27.0187409,20.417081 L27.0187409,20.417081 Z" id="Stroke-130-Copy-2" stroke-linecap="round" stroke-linejoin="round"></path>
                                <path d="M2.16447441,16.5944568 L2.16447441,16.5944568 C0.97775917,16.5944568 0.0153253729,15.9870325 0.0153253729,15.2385989 L0.0153253729,1.68002042 C0.0153253729,0.931586887 0.97775917,0.32416257 2.16447441,0.32416257 L21.9278806,0.32416257 C23.1145958,0.32416257 24.0761703,0.931586887 24.0761703,1.68002042" id="Stroke-130-Copy-3" stroke-linecap="round" stroke-linejoin="round"></path>
                                <path d="M5.08467111,6.79403409 L29.0389669,6.79403409" id="Line-Copy-6" stroke-linecap="square"></path>
                                <path d="M5.08467111,9.61221591 L29.0389669,9.61221591" id="Line-Copy-7" stroke-linecap="square"></path>
                            </g>
                        </g>
                    </g>
                </g>
            </g>
        </g>
    </g>
</svg>