<?xml version="1.0" encoding="UTF-8" standalone="no"?>
<svg width="30px" height="28px" viewBox="0 0 30 28" version="1.1" xmlns="http://www.w3.org/2000/svg" xmlns:xlink="http://www.w3.org/1999/xlink">
    <!-- Generator: sketchtool 39.1 (31720) - http://www.bohemiancoding.com/sketch -->
    <title>297C0EB4-8359-4105-A91F-C61B87C5BF73</title>
    <desc>Created with sketchtool.</desc>
    <defs>
        <rect id="path-1" x="0" y="0" width="32" height="32"></rect>
    </defs>
    <g id="Exports_Sayanee" stroke="none" stroke-width="1" fill="none" fill-rule="evenodd">
        <g id="Account_nav_Distributor_SM" transform="translate(-66.000000, -289.000000)">
            <g id="Group-9" transform="translate(25.000000, 262.000000)">
                <g id="prospecting" transform="translate(40.000000, 25.000000)">
                    <mask id="mask-2" fill="white">
                        <use xlink:href="#path-1"></use>
                    </mask>
                    <g id="Rectangle-3"></g>
                    <g mask="url(#mask-2)" stroke="#FFFFFF">
                        <g transform="translate(2.000000, 3.000000)">
                            <path d="M4.20209128,22.4342724 C1.11906342,19.3512445 -0.207677786,15.1758779 0.223022361,11.1529307" id="Stroke-3" stroke-linecap="round"></path>
                            <path d="M23.7979087,2.83845491 C25.5784439,4.6189901 26.7735502,6.76440799 27.3820729,9.03337793 C28.6233669,13.6602291 27.4282606,18.8043823 23.7979087,22.4347342" id="Stroke-5" stroke-linecap="round"></path>
                            <path d="M20.5319776,19.1683413 C16.9247196,22.7755993 11.0750495,22.7755993 7.46779142,19.1683413 C3.86053336,15.5610832 3.86053336,9.71141312 7.46779142,6.10415506 C11.0750495,2.49689699 16.9247196,2.49689699 20.5319776,6.10415506 C24.1392357,9.71141312 24.1392357,15.5610832 20.5319776,19.1683413 L20.5319776,19.1683413 Z" id="Stroke-7"></path>
                            <path d="M20.1583193,19.4105957 C20.1028941,18.8332496 20.1583193,17.3321499 18.7288105,17.0457863 C16.3859402,16.5238655 15.7127548,16.3506617 15.8478537,14.4835246 C17.3489534,13.5597709 17.3293237,11.7515231 17.2993017,9.80471224 C17.2138545,6.92029142 14.8328794,6.47804435 14.0003464,6.47804435 C13.1666587,6.47804435 10.7856837,6.92029142 10.7013911,9.80471224 C10.6702144,11.7515231 10.6517394,13.5597709 12.1528391,14.4835246 C12.2867834,16.3506617 11.6135979,16.5238655 9.27072764,17.0457863 C7.84121884,17.3321499 7.89664406,18.8332496 7.84121884,19.4105957" id="Stroke-9" stroke-linecap="round"></path>
                            <path d="M19.8626026,0.0743530059 C20.4722801,0.35956195 21.0646371,0.69211327 21.635055,1.07085227" id="Stroke-11" stroke-linecap="round"></path>
                            <path d="M1.27841092,7.08391129 C1.95159641,5.53893328 2.92038306,4.09094941 4.18477089,2.82771628" id="Stroke-13" stroke-linecap="round"></path>
                            <path d="M19.3905645,25.3867045 C17.4068035,26.225011 15.2671591,26.5795015 13.1517632,26.4513306" id="Stroke-15" stroke-linecap="round"></path>
                        </g>
                    </g>
                </g>
            </g>
        </g>
    </g>
</svg>