<?xml version="1.0" encoding="UTF-8" standalone="no"?>
<svg width="22px" height="24px" viewBox="0 0 22 24" version="1.1" xmlns="http://www.w3.org/2000/svg" xmlns:xlink="http://www.w3.org/1999/xlink">
    <!-- Generator: Sketch 39.1 (31720) - http://www.bohemiancoding.com/sketch -->
    <title>search</title>
    <desc>Created with Sketch.</desc>
    <defs>
        <rect id="path-1" x="0" y="0" width="24" height="24"></rect>
    </defs>
    <g id="Assets" stroke="none" stroke-width="1" fill="none" fill-rule="evenodd">
        <g id="search" transform="translate(-1.000000, 0.000000)">
            <mask id="mask-2" fill="white">
                <use xlink:href="#path-1"></use>
            </mask>
            <g id="Mask"></g>
            <g id="Group" mask="url(#mask-2)" stroke="#FFFFFF" stroke-linecap="square">
                <g transform="translate(2.000000, 1.000000)">
                    <path d="M8.14940577,16.7151862 C3.64889643,16.7151862 0,12.9730739 0,8.35759312 C0,3.74211232 3.64889643,0 8.14940577,0 C12.6499151,0 16.2988115,3.74211232 16.2988115,8.35759312 C16.2988115,12.9730739 12.6499151,16.7151862 8.14940577,16.7151862 Z" id="Stroke-1"></path>
                    <path d="M19.5456706,19.5818407 L14.4047538,14.0337918 C13.9239389,14.7685635 13.3256367,15.4155805 12.6315789,15.9365371 L17.7317487,21.4421016 C18.2308998,21.9533077 19.0471986,21.9533077 19.5456706,21.4421016 C20.0441426,20.930199 20.0441426,20.0930468 19.5456706,19.5818407 L19.5456706,19.5818407 Z" id="Stroke-3"></path>
                </g>
            </g>
        </g>
    </g>
</svg>