<?xml version="1.0" encoding="UTF-8" standalone="no"?>
<svg width="16px" height="15px" viewBox="0 0 16 15" version="1.1" xmlns="http://www.w3.org/2000/svg" xmlns:xlink="http://www.w3.org/1999/xlink">
    <!-- Generator: sketchtool 39 (31667) - http://www.bohemiancoding.com/sketch -->
    <title>BD5D4005-C91D-4BA5-BA63-13984D34A218</title>
    <desc>Created with sketchtool.</desc>
    <defs></defs>
    <g id="Account-Settings---Personal" stroke="none" stroke-width="1" fill="none" fill-rule="evenodd">
        <g id="001-AccountSettingsShipping-MD-01" transform="translate(-464.000000, -362.000000)" fill="#00D8D3">
            <g id="Group-9" transform="translate(464.000000, 358.000000)">
                <path d="M15.9479739,11.5 C15.9479739,10.7526857 14.3182539,10.2353143 14.1436411,9.54548576 C13.9108239,8.79817149 14.9002968,7.4760001 14.4346625,6.90114297 C13.9690282,6.26880013 12.3975126,6.78617154 11.7572654,6.38377155 C11.1752226,5.92388585 11.1752226,4.25680018 10.4185669,4.02685733 C9.72011548,3.79691447 8.73064264,5.11908587 7.97398695,5.11908587 C7.21733125,5.11908587 6.22785842,3.79691447 5.52940701,4.02685733 C4.77275131,4.25680018 4.77275131,5.92388585 4.19070847,6.38377155 C3.55046134,6.84365726 1.97894567,6.32628584 1.51331139,6.90114297 C1.04767712,7.4760001 2.03714995,8.85565721 1.80433281,9.54548576 C1.57151568,10.2353143 0,10.7526857 0,11.5 C0,12.2473143 1.62971996,12.7646857 1.80433281,13.4545142 C2.03714995,14.2018285 1.04767712,15.5239999 1.51331139,16.098857 C1.97894567,16.7311999 3.55046134,16.2138285 4.19070847,16.6162284 C4.77275131,17.0761141 4.77275131,18.7431998 5.52940701,18.9731427 C6.22785842,19.2030855 7.21733125,17.8809141 7.97398695,17.8809141 C8.73064264,17.8809141 9.72011548,19.2030855 10.4185669,18.9731427 C11.1752226,18.7431998 11.1752226,17.0761141 11.7572654,16.6162284 C12.3975126,16.1563427 13.9690282,16.6737142 14.4346625,16.098857 C14.9002968,15.5239999 13.9108239,14.1443428 14.1436411,13.4545142 C14.3182539,12.7646857 15.9479739,12.2473143 15.9479739,11.5 L15.9479739,11.5 Z M6.34426699,14.9491428 L4.01609562,12.6497143 L5.00556845,11.6724571 L6.34426699,12.9946285 L10.8259969,8.56822864 L11.8154697,9.54548576 L6.34426699,14.9491428 L6.34426699,14.9491428 Z" id="Shape"></path>
            </g>
        </g>
    </g>
</svg>