<?xml version="1.0" encoding="UTF-8" standalone="no"?>
<svg width="31px" height="19px" viewBox="0 0 31 19" version="1.1" xmlns="http://www.w3.org/2000/svg" xmlns:xlink="http://www.w3.org/1999/xlink">
    <!-- Generator: sketchtool 39.1 (31720) - http://www.bohemiancoding.com/sketch -->
    <title>F38D9E0C-20E0-40AA-AC7B-2B2E22114949</title>
    <desc>Created with sketchtool.</desc>
    <defs>
        <rect id="path-1" x="0" y="0" width="32" height="32"></rect>
    </defs>
    <g id="Exports_Sayanee" stroke="none" stroke-width="1" fill="none" fill-rule="evenodd">
        <g id="Account_nav_cust_SM" transform="translate(-172.000000, -239.000000)">
            <g id="Group-9" transform="translate(0.000000, 53.000000)">
                <g id="Group-7" transform="translate(133.000000, 153.000000)">
                    <g id="shipping" transform="translate(39.000000, 25.000000)">
                        <mask id="mask-2" fill="white">
                            <use xlink:href="#path-1"></use>
                        </mask>
                        <g id="Mask"></g>
                        <g id="Group" mask="url(#mask-2)" stroke="#FFFFFF">
                            <g transform="translate(1.000000, 8.000000)">
                                <path d="M7.40125108,16.7946445 L19.2905587,16.7946445 L19.2905587,1.54833747 C19.2905587,1.22002072 19.0235068,0.953754271 18.6951901,0.953754271 L0.904035479,0.953754271 C0.574933286,0.953754271 0.308666834,1.22002072 0.308666834,1.54833747 L0.308666834,16.7946445 L1.72954002,16.7946445" id="Stroke-1"></path>
                                <path d="M19.7149356,13.4161238 L20.7902122,13.4161238 M19.2900089,16.7943304 L21.5096814,16.7943304 M19.694514,6.55838818 L21.9416771,6.55838818 L24.422118,10.3324599 L24.3907001,11.1893823 L19.694514,11.1893823" id="Stroke-3"></path>
                                <path d="M22.8358297,16.7946445 C22.8358297,15.9078751 23.555299,15.1884059 24.4420684,15.1884059 C25.3288378,15.1884059 26.048307,15.9078751 26.048307,16.7946445 C26.048307,17.6814139 25.3288378,18.4008832 24.4420684,18.4008832 C23.555299,18.4008832 22.8358297,17.6814139 22.8358297,16.7946445 L22.8358297,16.7946445 Z" id="Stroke-5"></path>
                                <path d="M2.96520487,16.7946445 C2.96520487,15.9078751 3.6846741,15.1884059 4.57144349,15.1884059 C5.45821289,15.1884059 6.17768212,15.9078751 6.17768212,16.7946445 C6.17768212,17.6814139 5.45821289,18.4008832 4.57144349,18.4008832 C3.6846741,18.4008832 2.96520487,17.6814139 2.96520487,16.7946445 L2.96520487,16.7946445 Z" id="Stroke-7"></path>
                                <path d="M19.2902445,4.5862099 L22.0181011,4.5862099 C22.0181011,4.5862099 23.2088384,4.49902531 24.0147068,5.90576046 C24.8213606,7.31171016 25.8000273,9.18421524 25.8000273,9.18421524 C25.8000273,9.18421524 26.467657,10.5108348 26.8792311,10.6522152 C26.8792311,10.6522152 27.4125495,11.2279477 27.9882819,11.2279477 C28.5640144,11.2279477 29.3706682,11.5154212 29.3706682,12.3794127 L29.3706682,16.0655143 C29.3706682,16.0655143 29.3706682,16.7944089 28.7368127,16.7944089 L27.5272247,16.7944089" id="Stroke-9"></path>
                                <path d="M0.308823924,13.9920134 L19.2899303,13.9920134" id="Stroke-11"></path>
                            </g>
                        </g>
                    </g>
                </g>
            </g>
        </g>
    </g>
</svg>