<?xml version="1.0" encoding="UTF-8" standalone="no"?>
<svg width="19px" height="18px" viewBox="0 0 19 18" version="1.1" xmlns="http://www.w3.org/2000/svg" xmlns:xlink="http://www.w3.org/1999/xlink">
    <!-- Generator: Sketch 3.8.1 (29687) - http://www.bohemiancoding.com/sketch -->
    <title>Page 1</title>
    <desc>Created with Sketch.</desc>
    <defs>
        <linearGradient x1="-1.11022302e-14%" y1="50%" x2="-1.11022302e-14%" y2="100%" id="linearGradient-1">
            <stop stop-color="#93EDC7" offset="0%"></stop>
            <stop stop-color="#1CD8D2" offset="100%"></stop>
        </linearGradient>
    </defs>
    <g id="PDP---Ratings" stroke="none" stroke-width="1" fill="none" fill-rule="evenodd" stroke-linejoin="round">
        <g id="04-PDP-Ratings" transform="translate(-260.000000, -917.000000)" stroke="#1CD8D2" fill="url(#linearGradient-1)">
            <g id="Star-Graphics" transform="translate(215.000000, 917.000000)">
                <path d="M55.115801,1.03880158 L56.6596165,6.02104126 C56.7438143,6.29323012 56.9964079,6.47919767 57.2823415,6.47919767 L62.3455139,6.47919767 C62.968804,6.47919767 63.2366548,7.26871445 62.7410742,7.64628492 L58.589951,10.8088603 C58.3729579,10.973977 58.281979,11.2568731 58.3627863,11.5172276 L59.9348561,16.591324 C60.1224648,17.1960003 59.4206277,17.6840242 58.9160057,17.2996913 L54.8886363,14.2317903 C54.6552557,14.0537123 54.3308962,14.0537123 54.0969505,14.2317903 L50.0695811,17.2996913 C49.5649592,17.6840242 48.8631221,17.1960003 49.0507307,16.591324 L50.6228005,11.5172276 C50.7036079,11.2568731 50.6131941,10.973977 50.3956359,10.8088603 L46.2445126,7.64628492 C45.748932,7.26871445 46.0167829,6.47919767 46.640638,6.47919767 L51.7032454,6.47919767 C51.989179,6.47919767 52.2417725,6.29323012 52.3259704,6.02104126 L53.8697859,1.03880158 C54.0590898,0.427926356 54.9264971,0.427926356 55.115801,1.03880158 L55.115801,1.03880158 Z" id="Page-1"></path>
            </g>
        </g>
    </g>
</svg>