<?xml version="1.0" encoding="UTF-8" standalone="no"?>
<svg width="19px" height="18px" viewBox="0 0 19 18" version="1.1" xmlns="http://www.w3.org/2000/svg" xmlns:xlink="http://www.w3.org/1999/xlink">
    <!-- Generator: Sketch 3.8.1 (29687) - http://www.bohemiancoding.com/sketch -->
    <title>Page 1</title>
    <desc>Created with Sketch.</desc>
    <defs></defs>
    <g id="PDP---Ratings" stroke="none" stroke-width="1" fill="none" fill-rule="evenodd" stroke-linejoin="round">
        <g id="04-PDP-Ratings" transform="translate(-306.000000, -917.000000)" stroke="#D1D1D1">
            <g id="Star-Graphics" transform="translate(215.000000, 917.000000)">
                <path d="M100.76472,1.02195111 L102.308535,6.0041908 C102.392733,6.27637966 102.645327,6.46234721 102.93126,6.46234721 L107.994433,6.46234721 C108.617723,6.46234721 108.885574,7.25186398 108.389993,7.62943446 L104.23887,10.7920099 C104.021877,10.9571265 103.930898,11.2400226 104.011705,11.5003772 L105.583775,16.5744735 C105.771384,17.1791498 105.069547,17.6671738 104.564925,17.2828408 L100.537555,14.2149398 C100.304175,14.0368618 99.979815,14.0368618 99.7458694,14.2149398 L95.7185,17.2828408 C95.213878,17.6671738 94.5120409,17.1791498 94.6996495,16.5744735 L96.2717194,11.5003772 C96.3525267,11.2400226 96.2621129,10.9571265 96.0445547,10.7920099 L91.8934314,7.62943446 C91.3978508,7.25186398 91.6657017,6.46234721 92.2895569,6.46234721 L97.3521642,6.46234721 C97.6380978,6.46234721 97.8906913,6.27637966 97.9748892,6.0041908 L99.5187047,1.02195111 C99.7080086,0.411075895 100.575416,0.411075895 100.76472,1.02195111 L100.76472,1.02195111 Z" id="Page-1"></path>
            </g>
        </g>
    </g>
</svg>