<?xml version="1.0" encoding="UTF-8" standalone="no"?>
<svg width="27px" height="27px" viewBox="0 0 27 27" version="1.1" xmlns="http://www.w3.org/2000/svg" xmlns:xlink="http://www.w3.org/1999/xlink">
    <!-- Generator: sketchtool 39.1 (31720) - http://www.bohemiancoding.com/sketch -->
    <title>7C6E7F5E-8F50-4190-9AA0-3736BC874847</title>
    <desc>Created with sketchtool.</desc>
    <defs>
        <rect id="path-1" x="0" y="0" width="32" height="32"></rect>
    </defs>
    <g id="Exports_Sayanee" stroke="none" stroke-width="1" fill="none" fill-rule="evenodd">
        <g id="Account_nav_Distributor_SM" transform="translate(-67.000000, -398.000000)">
            <g id="Group-12" transform="translate(25.000000, 370.000000)">
                <g id="training" transform="translate(39.000000, 25.000000)">
                    <mask id="mask-2" fill="white">
                        <use xlink:href="#path-1"></use>
                    </mask>
                    <g id="Mask"></g>
                    <g id="Group-13" mask="url(#mask-2)" stroke-linecap="round" stroke="#FFFFFF" stroke-linejoin="round">
                        <g transform="translate(4.000000, 4.000000)">
                            <path d="M2.50041667,24.5833333 C1.34958333,24.5833333 0.417083333,23.65 0.417083333,22.5 L0.417083333,2.5 C0.417083333,1.35 1.34958333,0.416666667 2.50041667,0.416666667 L24.58375,0.416666667 L24.58375,24.5833333 L2.50041667,24.5833333 L2.50041667,24.5833333 Z" id="Stroke-1"></path>
                            <path d="M2.50041667,24.5833333 C1.34958333,24.5833333 0.417083333,23.65 0.417083333,22.5 L0.417083333,20.8483333 C0.417083333,19.6975 1.34958333,18.765 2.50041667,18.765 L24.58375,18.765 L24.58375,24.5833333 L2.50041667,24.5833333 L2.50041667,24.5833333 Z" id="Stroke-3"></path>
                            <polygon id="Stroke-5" points="11.4250833 8.75066667 8.47258333 7.08233333 5.59008333 8.75066667 5.59008333 0.4165 11.4250833 0.4165"></polygon>
                            <path d="M24.5820833,22.3230833 L17.0129167,22.3230833" id="Stroke-7"></path>
                            <path d="M15.4154167,22.3230833 L14.5104167,22.3230833" id="Stroke-9"></path>
                        </g>
                    </g>
                </g>
            </g>
        </g>
    </g>
</svg>