<?xml version="1.0" encoding="UTF-8" standalone="no"?>
<svg width="48px" height="48px" viewBox="0 0 48 48" version="1.1" xmlns="http://www.w3.org/2000/svg" xmlns:xlink="http://www.w3.org/1999/xlink">
    <!-- Generator: sketchtool 39.1 (31720) - http://www.bohemiancoding.com/sketch -->
    <title>D6F6FE13-790E-4A09-9473-E53102A2E72B</title>
    <desc>Created with sketchtool.</desc>
    <defs>
        <rect id="path-1" x="0" y="0" width="49" height="49"></rect>
    </defs>
    <g id="Exports_Sayanee" stroke="none" stroke-width="1" fill="none" fill-rule="evenodd">
        <g id="Account_nav_cust_SM" transform="translate(-58.000000, -90.000000)">
            <g id="Group-9" transform="translate(0.000000, 53.000000)">
                <g id="user_reverse" transform="translate(58.000000, 36.000000)">
                    <g id="Group-6">
                        <mask id="mask-2" fill="white">
                            <use xlink:href="#path-1"></use>
                        </mask>
                        <g id="Mask"></g>
                        <g mask="url(#mask-2)" stroke="#FFFFFF">
                            <g transform="translate(1.000000, 1.531250)">
                                <path d="M39.3423125,39.9761906 C30.37225,48.9462531 15.8299687,48.9462531 6.85990625,39.9761906 C-2.11015625,31.0061281 -2.11015625,16.4638469 6.85990625,7.49378438 C15.8299687,-1.47627812 30.37225,-1.47627812 39.3423125,7.49378438 C48.312375,16.4638469 48.312375,31.0061281 39.3423125,39.9761906 L39.3423125,39.9761906 Z" id="Stroke-78" fill="#008AB0" fill-rule="evenodd"></path>
                                <path d="M38.4134563,40.5785844 C38.277175,39.1438031 38.4134563,35.4106156 34.859425,34.7001156 C29.03455,33.4016156 27.3593625,32.9698031 27.6947063,28.3285844 C31.4263625,26.0317094 31.3788938,21.5328969 31.3038625,16.6941469 C31.09255,9.52330312 25.1727375,8.42233437 23.1009563,8.42233437 C21.029175,8.42233437 15.1093625,9.52330312 14.89805,16.6941469 C14.8230188,21.5328969 14.7740188,26.0317094 18.5072063,28.3285844 C18.84255,32.9698031 17.1673625,33.4016156 11.3424875,34.7001156 C7.78845625,35.4106156 7.9247375,39.1438031 7.78845625,40.5785844" id="Stroke-79" stroke-linecap="round" fill="none"></path>
                            </g>
                        </g>
                    </g>
                </g>
            </g>
        </g>
    </g>
</svg>